<?xml version="1.0" encoding="UTF-8" standalone="no"?>
<!DOCTYPE svg PUBLIC "-//W3C//DTD SVG 1.1//EN"
 "http://www.w3.org/Graphics/SVG/1.1/DTD/svg11.dtd">
<!-- Generated by graphviz version 5.0.0 (20220707.1540)
 -->
<!-- Title: dependencies Pages: 1 -->
<svg width="216pt" height="247pt"
 viewBox="0.00 0.00 216.00 246.80" xmlns="http://www.w3.org/2000/svg" xmlns:xlink="http://www.w3.org/1999/xlink">
<g id="graph0" class="graph" transform="scale(1 1) rotate(0) translate(4 242.8)">
<title>dependencies</title>
<polygon fill="white" stroke="transparent" points="-4,4 -4,-242.8 212,-242.8 212,4 -4,4"/>
<text text-anchor="middle" x="104" y="-8.2" font-family="sans-serif" font-size="14.00">dependencies</text>
<g id="clust1" class="cluster">
<title>cluster_DataButtonDirectiveModule</title>
<polygon fill="none" stroke="black" stroke-dasharray="1,5" points="8,-32.8 8,-230.8 200,-230.8 200,-32.8 8,-32.8"/>
</g>
<g id="clust2" class="cluster">
<title>cluster_DataButtonDirectiveModule_declarations</title>
<polygon fill="none" stroke="black" points="30,-40.8 30,-92.8 178,-92.8 178,-40.8 30,-40.8"/>
</g>
<g id="clust5" class="cluster">
<title>cluster_DataButtonDirectiveModule_exports</title>
<polygon fill="none" stroke="black" points="28,-170.8 28,-222.8 180,-222.8 180,-170.8 28,-170.8"/>
</g>
<!-- DataButtonDirective -->
<g id="node1" class="node">
<title>DataButtonDirective</title>
<polygon fill="#ffffb3" stroke="black" points="170.13,-84.8 37.87,-84.8 37.87,-48.8 170.13,-48.8 170.13,-84.8"/>
<text text-anchor="middle" x="104" y="-62.6" font-family="Times,serif" font-size="14.00">DataButtonDirective</text>
</g>
<!-- DataButtonDirectiveModule -->
<g id="node2" class="node">
<title>DataButtonDirectiveModule</title>
<polygon fill="#8dd3c7" stroke="black" points="192.18,-149.8 189.18,-153.8 168.18,-153.8 165.18,-149.8 15.82,-149.8 15.82,-113.8 192.18,-113.8 192.18,-149.8"/>
<text text-anchor="middle" x="104" y="-127.6" font-family="Times,serif" font-size="14.00">DataButtonDirectiveModule</text>
</g>
<!-- DataButtonDirective&#45;&gt;DataButtonDirectiveModule -->
<g id="edge1" class="edge">
<title>DataButtonDirective&#45;&gt;DataButtonDirectiveModule</title>
<path fill="none" stroke="black" d="M104,-84.91C104,-84.91 104,-103.79 104,-103.79"/>
<polygon fill="black" stroke="black" points="100.5,-103.79 104,-113.79 107.5,-103.79 100.5,-103.79"/>
</g>
<!-- DataButtonDirective  -->
<g id="node3" class="node">
<title>DataButtonDirective </title>
<polygon fill="#fb8072" stroke="black" points="172.13,-214.8 35.87,-214.8 35.87,-178.8 172.13,-178.8 172.13,-214.8"/>
<text text-anchor="middle" x="104" y="-192.6" font-family="Times,serif" font-size="14.00">DataButtonDirective </text>
</g>
<!-- DataButtonDirectiveModule&#45;&gt;DataButtonDirective  -->
<g id="edge2" class="edge">
<title>DataButtonDirectiveModule&#45;&gt;DataButtonDirective </title>
<path fill="none" stroke="black" stroke-dasharray="5,2" d="M104,-149.91C104,-149.91 104,-168.79 104,-168.79"/>
<polygon fill="black" stroke="black" points="100.5,-168.79 104,-178.79 107.5,-168.79 100.5,-168.79"/>
</g>
</g>
</svg>
