<?xml version="1.0" encoding="UTF-8" standalone="no"?>
<!DOCTYPE svg PUBLIC "-//W3C//DTD SVG 1.1//EN"
 "http://www.w3.org/Graphics/SVG/1.1/DTD/svg11.dtd">
<!-- Generated by graphviz version 5.0.0 (20220707.1540)
 -->
<!-- Title: dependencies Pages: 1 -->
<svg width="182pt" height="247pt"
 viewBox="0.00 0.00 182.00 246.80" xmlns="http://www.w3.org/2000/svg" xmlns:xlink="http://www.w3.org/1999/xlink">
<g id="graph0" class="graph" transform="scale(1 1) rotate(0) translate(4 242.8)">
<title>dependencies</title>
<polygon fill="white" stroke="transparent" points="-4,4 -4,-242.8 178,-242.8 178,4 -4,4"/>
<text text-anchor="middle" x="87" y="-8.2" font-family="sans-serif" font-size="14.00">dependencies</text>
<g id="clust1" class="cluster">
<title>cluster_ChartDirectiveModule</title>
<polygon fill="none" stroke="black" stroke-dasharray="1,5" points="8,-32.8 8,-230.8 166,-230.8 166,-32.8 8,-32.8"/>
</g>
<g id="clust2" class="cluster">
<title>cluster_ChartDirectiveModule_declarations</title>
<polygon fill="none" stroke="black" points="29,-40.8 29,-92.8 145,-92.8 145,-40.8 29,-40.8"/>
</g>
<g id="clust5" class="cluster">
<title>cluster_ChartDirectiveModule_exports</title>
<polygon fill="none" stroke="black" points="28,-170.8 28,-222.8 146,-222.8 146,-170.8 28,-170.8"/>
</g>
<!-- ChartDirective -->
<g id="node1" class="node">
<title>ChartDirective</title>
<polygon fill="#ffffb3" stroke="black" points="136.69,-84.8 37.31,-84.8 37.31,-48.8 136.69,-48.8 136.69,-84.8"/>
<text text-anchor="middle" x="87" y="-62.6" font-family="Times,serif" font-size="14.00">ChartDirective</text>
</g>
<!-- ChartDirectiveModule -->
<g id="node2" class="node">
<title>ChartDirectiveModule</title>
<polygon fill="#8dd3c7" stroke="black" points="158.24,-149.8 155.24,-153.8 134.24,-153.8 131.24,-149.8 15.76,-149.8 15.76,-113.8 158.24,-113.8 158.24,-149.8"/>
<text text-anchor="middle" x="87" y="-127.6" font-family="Times,serif" font-size="14.00">ChartDirectiveModule</text>
</g>
<!-- ChartDirective&#45;&gt;ChartDirectiveModule -->
<g id="edge1" class="edge">
<title>ChartDirective&#45;&gt;ChartDirectiveModule</title>
<path fill="none" stroke="black" d="M87,-84.91C87,-84.91 87,-103.79 87,-103.79"/>
<polygon fill="black" stroke="black" points="83.5,-103.79 87,-113.79 90.5,-103.79 83.5,-103.79"/>
</g>
<!-- ChartDirective  -->
<g id="node3" class="node">
<title>ChartDirective </title>
<polygon fill="#fb8072" stroke="black" points="138.19,-214.8 35.81,-214.8 35.81,-178.8 138.19,-178.8 138.19,-214.8"/>
<text text-anchor="middle" x="87" y="-192.6" font-family="Times,serif" font-size="14.00">ChartDirective </text>
</g>
<!-- ChartDirectiveModule&#45;&gt;ChartDirective  -->
<g id="edge2" class="edge">
<title>ChartDirectiveModule&#45;&gt;ChartDirective </title>
<path fill="none" stroke="black" stroke-dasharray="5,2" d="M87,-149.91C87,-149.91 87,-168.79 87,-168.79"/>
<polygon fill="black" stroke="black" points="83.5,-168.79 87,-178.79 90.5,-168.79 83.5,-168.79"/>
</g>
</g>
</svg>
