<?xml version="1.0" encoding="UTF-8" standalone="no"?>
<!DOCTYPE svg PUBLIC "-//W3C//DTD SVG 1.1//EN"
 "http://www.w3.org/Graphics/SVG/1.1/DTD/svg11.dtd">
<!-- Generated by graphviz version 5.0.0 (20220707.1540)
 -->
<!-- Title: dependencies Pages: 1 -->
<svg width="224pt" height="247pt"
 viewBox="0.00 0.00 224.00 246.80" xmlns="http://www.w3.org/2000/svg" xmlns:xlink="http://www.w3.org/1999/xlink">
<g id="graph0" class="graph" transform="scale(1 1) rotate(0) translate(4 242.8)">
<title>dependencies</title>
<polygon fill="white" stroke="transparent" points="-4,4 -4,-242.8 220,-242.8 220,4 -4,4"/>
<text text-anchor="middle" x="108" y="-8.2" font-family="sans-serif" font-size="14.00">dependencies</text>
<g id="clust1" class="cluster">
<title>cluster_GraphButtonDirectiveModule</title>
<polygon fill="none" stroke="black" stroke-dasharray="1,5" points="8,-32.8 8,-230.8 208,-230.8 208,-32.8 8,-32.8"/>
</g>
<g id="clust2" class="cluster">
<title>cluster_GraphButtonDirectiveModule_declarations</title>
<polygon fill="none" stroke="black" points="29,-40.8 29,-92.8 187,-92.8 187,-40.8 29,-40.8"/>
</g>
<g id="clust5" class="cluster">
<title>cluster_GraphButtonDirectiveModule_exports</title>
<polygon fill="none" stroke="black" points="28,-170.8 28,-222.8 188,-222.8 188,-170.8 28,-170.8"/>
</g>
<!-- GraphButtonDirective -->
<g id="node1" class="node">
<title>GraphButtonDirective</title>
<polygon fill="#ffffb3" stroke="black" points="178.69,-84.8 37.31,-84.8 37.31,-48.8 178.69,-48.8 178.69,-84.8"/>
<text text-anchor="middle" x="108" y="-62.6" font-family="Times,serif" font-size="14.00">GraphButtonDirective</text>
</g>
<!-- GraphButtonDirectiveModule -->
<g id="node2" class="node">
<title>GraphButtonDirectiveModule</title>
<polygon fill="#8dd3c7" stroke="black" points="200.24,-149.8 197.24,-153.8 176.24,-153.8 173.24,-149.8 15.76,-149.8 15.76,-113.8 200.24,-113.8 200.24,-149.8"/>
<text text-anchor="middle" x="108" y="-127.6" font-family="Times,serif" font-size="14.00">GraphButtonDirectiveModule</text>
</g>
<!-- GraphButtonDirective&#45;&gt;GraphButtonDirectiveModule -->
<g id="edge1" class="edge">
<title>GraphButtonDirective&#45;&gt;GraphButtonDirectiveModule</title>
<path fill="none" stroke="black" d="M108,-84.91C108,-84.91 108,-103.79 108,-103.79"/>
<polygon fill="black" stroke="black" points="104.5,-103.79 108,-113.79 111.5,-103.79 104.5,-103.79"/>
</g>
<!-- GraphButtonDirective  -->
<g id="node3" class="node">
<title>GraphButtonDirective </title>
<polygon fill="#fb8072" stroke="black" points="180.19,-214.8 35.81,-214.8 35.81,-178.8 180.19,-178.8 180.19,-214.8"/>
<text text-anchor="middle" x="108" y="-192.6" font-family="Times,serif" font-size="14.00">GraphButtonDirective </text>
</g>
<!-- GraphButtonDirectiveModule&#45;&gt;GraphButtonDirective  -->
<g id="edge2" class="edge">
<title>GraphButtonDirectiveModule&#45;&gt;GraphButtonDirective </title>
<path fill="none" stroke="black" stroke-dasharray="5,2" d="M108,-149.91C108,-149.91 108,-168.79 108,-168.79"/>
<polygon fill="black" stroke="black" points="104.5,-168.79 108,-178.79 111.5,-168.79 104.5,-168.79"/>
</g>
</g>
</svg>
