<?xml version="1.0" encoding="UTF-8" standalone="no"?>
<!DOCTYPE svg PUBLIC "-//W3C//DTD SVG 1.1//EN"
 "http://www.w3.org/Graphics/SVG/1.1/DTD/svg11.dtd">
<!-- Generated by graphviz version 2.47.0 (20210316.0004)
 -->
<!-- Title: dependencies Pages: 1 -->
<svg width="869pt" height="211pt"
 viewBox="0.00 0.00 869.00 211.00" xmlns="http://www.w3.org/2000/svg" xmlns:xlink="http://www.w3.org/1999/xlink">
<g id="graph0" class="graph" transform="scale(1 1) rotate(0) translate(4 207)">
<title>dependencies</title>
<polygon fill="white" stroke="transparent" points="-4,4 -4,-207 865,-207 865,4 -4,4"/>
<text text-anchor="start" x="409.51" y="-42.4" font-family="Times-12" font-weight="bold" font-size="14.00">Legend</text>
<polygon fill="#ffffb3" stroke="transparent" points="196.5,-10 196.5,-30 216.5,-30 216.5,-10 196.5,-10"/>
<text text-anchor="start" x="220.13" y="-15.4" font-family="Times-12" font-size="14.00"> &#160;Declarations</text>
<polygon fill="#8dd3c7" stroke="transparent" points="309.5,-10 309.5,-30 329.5,-30 329.5,-10 309.5,-10"/>
<text text-anchor="start" x="333.23" y="-15.4" font-family="Times-12" font-size="14.00"> &#160;Module</text>
<polygon fill="#80b1d3" stroke="transparent" points="395.5,-10 395.5,-30 415.5,-30 415.5,-10 395.5,-10"/>
<text text-anchor="start" x="419.28" y="-15.4" font-family="Times-12" font-size="14.00"> &#160;Bootstrap</text>
<polygon fill="#fdb462" stroke="transparent" points="492.5,-10 492.5,-30 512.5,-30 512.5,-10 492.5,-10"/>
<text text-anchor="start" x="516.17" y="-15.4" font-family="Times-12" font-size="14.00"> &#160;Providers</text>
<polygon fill="#fb8072" stroke="transparent" points="588.5,-10 588.5,-30 608.5,-30 608.5,-10 588.5,-10"/>
<text text-anchor="start" x="612.23" y="-15.4" font-family="Times-12" font-size="14.00"> &#160;Exports</text>
<g id="clust1" class="cluster">
<title>cluster_SettingsModule</title>
<polygon fill="none" stroke="black" stroke-dasharray="1,5" points="8,-70 8,-195 853,-195 853,-70 8,-70"/>
</g>
<g id="clust2" class="cluster">
<title>cluster_SettingsModule_declarations</title>
<polygon fill="none" stroke="black" points="363,-78 363,-130 845,-130 845,-78 363,-78"/>
</g>
<g id="clust6" class="cluster">
<title>cluster_SettingsModule_imports</title>
<polygon fill="none" stroke="black" points="16,-78 16,-130 355,-130 355,-78 16,-78"/>
</g>
<!-- AppearanceComponent -->
<g id="node1" class="node">
<title>AppearanceComponent</title>
<polygon fill="#ffffb3" stroke="black" points="837.17,-122 688.83,-122 688.83,-86 837.17,-86 837.17,-122"/>
<text text-anchor="middle" x="763" y="-99.8" font-family="Times,serif" font-size="14.00">AppearanceComponent</text>
</g>
<!-- SettingsModule -->
<g id="node4" class="node">
<title>SettingsModule</title>
<polygon fill="#8dd3c7" stroke="black" points="422.16,-187 419.16,-191 398.16,-191 395.16,-187 317.84,-187 317.84,-151 422.16,-151 422.16,-187"/>
<text text-anchor="middle" x="370" y="-164.8" font-family="Times,serif" font-size="14.00">SettingsModule</text>
</g>
<!-- AppearanceComponent&#45;&gt;SettingsModule -->
<g id="edge1" class="edge">
<title>AppearanceComponent&#45;&gt;SettingsModule</title>
<path fill="none" stroke="black" d="M763,-122.28C763,-143.32 763,-175 763,-175 763,-175 432.19,-175 432.19,-175"/>
<polygon fill="black" stroke="black" points="432.19,-171.5 422.19,-175 432.19,-178.5 432.19,-171.5"/>
</g>
<!-- LocalStorageComponent -->
<g id="node2" class="node">
<title>LocalStorageComponent</title>
<polygon fill="#ffffb3" stroke="black" points="670.97,-122 515.03,-122 515.03,-86 670.97,-86 670.97,-122"/>
<text text-anchor="middle" x="593" y="-99.8" font-family="Times,serif" font-size="14.00">LocalStorageComponent</text>
</g>
<!-- LocalStorageComponent&#45;&gt;SettingsModule -->
<g id="edge2" class="edge">
<title>LocalStorageComponent&#45;&gt;SettingsModule</title>
<path fill="none" stroke="black" d="M593,-122.02C593,-139.37 593,-163 593,-163 593,-163 432.28,-163 432.28,-163"/>
<polygon fill="black" stroke="black" points="432.28,-159.5 422.28,-163 432.28,-166.5 432.28,-159.5"/>
</g>
<!-- SettingsComponent -->
<g id="node3" class="node">
<title>SettingsComponent</title>
<polygon fill="#ffffb3" stroke="black" points="497.45,-122 370.55,-122 370.55,-86 497.45,-86 497.45,-122"/>
<text text-anchor="middle" x="434" y="-99.8" font-family="Times,serif" font-size="14.00">SettingsComponent</text>
</g>
<!-- SettingsComponent&#45;&gt;SettingsModule -->
<g id="edge3" class="edge">
<title>SettingsComponent&#45;&gt;SettingsModule</title>
<path fill="none" stroke="black" d="M396.55,-122.11C396.55,-122.11 396.55,-140.99 396.55,-140.99"/>
<polygon fill="black" stroke="black" points="393.05,-140.99 396.55,-150.99 400.05,-140.99 393.05,-140.99"/>
</g>
<!-- RouterLink -->
<g id="node5" class="node">
<title>RouterLink</title>
<polygon fill="#8dd3c7" stroke="black" points="347.05,-122 344.05,-126 323.05,-126 320.05,-122 266.95,-122 266.95,-86 347.05,-86 347.05,-122"/>
<text text-anchor="middle" x="307" y="-99.8" font-family="Times,serif" font-size="14.00">RouterLink</text>
</g>
<!-- RouterLink&#45;&gt;SettingsModule -->
<g id="edge4" class="edge">
<title>RouterLink&#45;&gt;SettingsModule</title>
<path fill="none" stroke="black" d="M332.47,-122.11C332.47,-122.11 332.47,-140.99 332.47,-140.99"/>
<polygon fill="black" stroke="black" points="328.97,-140.99 332.47,-150.99 335.97,-140.99 328.97,-140.99"/>
</g>
<!-- RouterLinkActive -->
<g id="node6" class="node">
<title>RouterLinkActive</title>
<polygon fill="#8dd3c7" stroke="black" points="248.86,-122 245.86,-126 224.86,-126 221.86,-122 131.14,-122 131.14,-86 248.86,-86 248.86,-122"/>
<text text-anchor="middle" x="190" y="-99.8" font-family="Times,serif" font-size="14.00">RouterLinkActive</text>
</g>
<!-- RouterLinkActive&#45;&gt;SettingsModule -->
<g id="edge5" class="edge">
<title>RouterLinkActive&#45;&gt;SettingsModule</title>
<path fill="none" stroke="black" d="M190,-122.02C190,-139.37 190,-163 190,-163 190,-163 307.45,-163 307.45,-163"/>
<polygon fill="black" stroke="black" points="307.45,-166.5 317.45,-163 307.45,-159.5 307.45,-166.5"/>
</g>
<!-- RouterOutlet -->
<g id="node7" class="node">
<title>RouterOutlet</title>
<polygon fill="#8dd3c7" stroke="black" points="113.6,-122 110.6,-126 89.6,-126 86.6,-122 24.4,-122 24.4,-86 113.6,-86 113.6,-122"/>
<text text-anchor="middle" x="69" y="-99.8" font-family="Times,serif" font-size="14.00">RouterOutlet</text>
</g>
<!-- RouterOutlet&#45;&gt;SettingsModule -->
<g id="edge6" class="edge">
<title>RouterOutlet&#45;&gt;SettingsModule</title>
<path fill="none" stroke="black" d="M69,-122.28C69,-143.32 69,-175 69,-175 69,-175 307.57,-175 307.57,-175"/>
<polygon fill="black" stroke="black" points="307.57,-178.5 317.57,-175 307.57,-171.5 307.57,-178.5"/>
</g>
</g>
</svg>
