<?xml version="1.0" encoding="UTF-8" standalone="no"?>
<!DOCTYPE svg PUBLIC "-//W3C//DTD SVG 1.1//EN"
 "http://www.w3.org/Graphics/SVG/1.1/DTD/svg11.dtd">
<!-- Generated by graphviz version 2.47.0 (20210316.0004)
 -->
<!-- Title: dependencies Pages: 1 -->
<svg width="529pt" height="211pt"
 viewBox="0.00 0.00 529.00 211.00" xmlns="http://www.w3.org/2000/svg" xmlns:xlink="http://www.w3.org/1999/xlink">
<g id="graph0" class="graph" transform="scale(1 1) rotate(0) translate(4 207)">
<title>dependencies</title>
<polygon fill="white" stroke="transparent" points="-4,4 -4,-207 525,-207 525,4 -4,4"/>
<text text-anchor="start" x="239.51" y="-42.4" font-family="Times-12" font-weight="bold" font-size="14.00">Legend</text>
<polygon fill="#ffffb3" stroke="transparent" points="26.5,-10 26.5,-30 46.5,-30 46.5,-10 26.5,-10"/>
<text text-anchor="start" x="50.13" y="-15.4" font-family="Times-12" font-size="14.00"> &#160;Declarations</text>
<polygon fill="#8dd3c7" stroke="transparent" points="139.5,-10 139.5,-30 159.5,-30 159.5,-10 139.5,-10"/>
<text text-anchor="start" x="163.23" y="-15.4" font-family="Times-12" font-size="14.00"> &#160;Module</text>
<polygon fill="#80b1d3" stroke="transparent" points="225.5,-10 225.5,-30 245.5,-30 245.5,-10 225.5,-10"/>
<text text-anchor="start" x="249.28" y="-15.4" font-family="Times-12" font-size="14.00"> &#160;Bootstrap</text>
<polygon fill="#fdb462" stroke="transparent" points="322.5,-10 322.5,-30 342.5,-30 342.5,-10 322.5,-10"/>
<text text-anchor="start" x="346.17" y="-15.4" font-family="Times-12" font-size="14.00"> &#160;Providers</text>
<polygon fill="#fb8072" stroke="transparent" points="418.5,-10 418.5,-30 438.5,-30 438.5,-10 418.5,-10"/>
<text text-anchor="start" x="442.23" y="-15.4" font-family="Times-12" font-size="14.00"> &#160;Exports</text>
<g id="clust1" class="cluster">
<title>cluster_SettingsModule</title>
<polygon fill="none" stroke="black" stroke-dasharray="1,5" points="8,-70 8,-195 513,-195 513,-70 8,-70"/>
</g>
<g id="clust2" class="cluster">
<title>cluster_SettingsModule_declarations</title>
<polygon fill="none" stroke="black" points="363,-78 363,-130 505,-130 505,-78 363,-78"/>
</g>
<g id="clust4" class="cluster">
<title>cluster_SettingsModule_imports</title>
<polygon fill="none" stroke="black" points="16,-78 16,-130 355,-130 355,-78 16,-78"/>
</g>
<!-- SettingsComponent -->
<g id="node1" class="node">
<title>SettingsComponent</title>
<polygon fill="#ffffb3" stroke="black" points="497.45,-122 370.55,-122 370.55,-86 497.45,-86 497.45,-122"/>
<text text-anchor="middle" x="434" y="-99.8" font-family="Times,serif" font-size="14.00">SettingsComponent</text>
</g>
<!-- SettingsModule -->
<g id="node2" class="node">
<title>SettingsModule</title>
<polygon fill="#8dd3c7" stroke="black" points="300.16,-187 297.16,-191 276.16,-191 273.16,-187 195.84,-187 195.84,-151 300.16,-151 300.16,-187"/>
<text text-anchor="middle" x="248" y="-164.8" font-family="Times,serif" font-size="14.00">SettingsModule</text>
</g>
<!-- SettingsComponent&#45;&gt;SettingsModule -->
<g id="edge1" class="edge">
<title>SettingsComponent&#45;&gt;SettingsModule</title>
<path fill="none" stroke="black" d="M434,-122.11C434,-141.34 434,-169 434,-169 434,-169 310.31,-169 310.31,-169"/>
<polygon fill="black" stroke="black" points="310.31,-165.5 300.31,-169 310.31,-172.5 310.31,-165.5"/>
</g>
<!-- RouterLink -->
<g id="node3" class="node">
<title>RouterLink</title>
<polygon fill="#8dd3c7" stroke="black" points="347.05,-122 344.05,-126 323.05,-126 320.05,-122 266.95,-122 266.95,-86 347.05,-86 347.05,-122"/>
<text text-anchor="middle" x="307" y="-99.8" font-family="Times,serif" font-size="14.00">RouterLink</text>
</g>
<!-- RouterLink&#45;&gt;SettingsModule -->
<g id="edge2" class="edge">
<title>RouterLink&#45;&gt;SettingsModule</title>
<path fill="none" stroke="black" d="M283.53,-122.11C283.53,-122.11 283.53,-140.99 283.53,-140.99"/>
<polygon fill="black" stroke="black" points="280.03,-140.99 283.53,-150.99 287.03,-140.99 280.03,-140.99"/>
</g>
<!-- RouterLinkActive -->
<g id="node4" class="node">
<title>RouterLinkActive</title>
<polygon fill="#8dd3c7" stroke="black" points="248.86,-122 245.86,-126 224.86,-126 221.86,-122 131.14,-122 131.14,-86 248.86,-86 248.86,-122"/>
<text text-anchor="middle" x="190" y="-99.8" font-family="Times,serif" font-size="14.00">RouterLinkActive</text>
</g>
<!-- RouterLinkActive&#45;&gt;SettingsModule -->
<g id="edge3" class="edge">
<title>RouterLinkActive&#45;&gt;SettingsModule</title>
<path fill="none" stroke="black" d="M222.3,-122.11C222.3,-122.11 222.3,-140.99 222.3,-140.99"/>
<polygon fill="black" stroke="black" points="218.8,-140.99 222.3,-150.99 225.8,-140.99 218.8,-140.99"/>
</g>
<!-- RouterOutlet -->
<g id="node5" class="node">
<title>RouterOutlet</title>
<polygon fill="#8dd3c7" stroke="black" points="113.6,-122 110.6,-126 89.6,-126 86.6,-122 24.4,-122 24.4,-86 113.6,-86 113.6,-122"/>
<text text-anchor="middle" x="69" y="-99.8" font-family="Times,serif" font-size="14.00">RouterOutlet</text>
</g>
<!-- RouterOutlet&#45;&gt;SettingsModule -->
<g id="edge4" class="edge">
<title>RouterOutlet&#45;&gt;SettingsModule</title>
<path fill="none" stroke="black" d="M69,-122.11C69,-141.34 69,-169 69,-169 69,-169 185.74,-169 185.74,-169"/>
<polygon fill="black" stroke="black" points="185.74,-172.5 195.74,-169 185.74,-165.5 185.74,-172.5"/>
</g>
</g>
</svg>
