<?xml version="1.0" encoding="UTF-8" standalone="no"?>
<!DOCTYPE svg PUBLIC "-//W3C//DTD SVG 1.1//EN"
 "http://www.w3.org/Graphics/SVG/1.1/DTD/svg11.dtd">
<!-- Generated by graphviz version 2.47.0 (20210316.0004)
 -->
<!-- Title: dependencies Pages: 1 -->
<svg width="529pt" height="211pt"
 viewBox="0.00 0.00 529.00 211.00" xmlns="http://www.w3.org/2000/svg" xmlns:xlink="http://www.w3.org/1999/xlink">
<g id="graph0" class="graph" transform="scale(1 1) rotate(0) translate(4 207)">
<title>dependencies</title>
<polygon fill="white" stroke="transparent" points="-4,4 -4,-207 525,-207 525,4 -4,4"/>
<text text-anchor="start" x="239.51" y="-42.4" font-family="Times-12" font-weight="bold" font-size="14.00">Legend</text>
<polygon fill="#ffffb3" stroke="transparent" points="26.5,-10 26.5,-30 46.5,-30 46.5,-10 26.5,-10"/>
<text text-anchor="start" x="50.13" y="-15.4" font-family="Times-12" font-size="14.00"> &#160;Declarations</text>
<polygon fill="#8dd3c7" stroke="transparent" points="139.5,-10 139.5,-30 159.5,-30 159.5,-10 139.5,-10"/>
<text text-anchor="start" x="163.23" y="-15.4" font-family="Times-12" font-size="14.00"> &#160;Module</text>
<polygon fill="#80b1d3" stroke="transparent" points="225.5,-10 225.5,-30 245.5,-30 245.5,-10 225.5,-10"/>
<text text-anchor="start" x="249.28" y="-15.4" font-family="Times-12" font-size="14.00"> &#160;Bootstrap</text>
<polygon fill="#fdb462" stroke="transparent" points="322.5,-10 322.5,-30 342.5,-30 342.5,-10 322.5,-10"/>
<text text-anchor="start" x="346.17" y="-15.4" font-family="Times-12" font-size="14.00"> &#160;Providers</text>
<polygon fill="#fb8072" stroke="transparent" points="418.5,-10 418.5,-30 438.5,-30 438.5,-10 418.5,-10"/>
<text text-anchor="start" x="442.23" y="-15.4" font-family="Times-12" font-size="14.00"> &#160;Exports</text>
<g id="clust1" class="cluster">
<title>cluster_SettingsModule</title>
<polygon fill="none" stroke="black" stroke-dasharray="1,5" points="8,-70 8,-195 513,-195 513,-70 8,-70"/>
</g>
<g id="clust4" class="cluster">
<title>cluster_SettingsModule_imports</title>
<polygon fill="none" stroke="black" points="166,-78 166,-130 505,-130 505,-78 166,-78"/>
</g>
<g id="clust2" class="cluster">
<title>cluster_SettingsModule_declarations</title>
<polygon fill="none" stroke="black" points="16,-78 16,-130 158,-130 158,-78 16,-78"/>
</g>
<!-- SettingsComponent -->
<g id="node1" class="node">
<title>SettingsComponent</title>
<polygon fill="#ffffb3" stroke="black" points="150.45,-122 23.55,-122 23.55,-86 150.45,-86 150.45,-122"/>
<text text-anchor="middle" x="87" y="-99.8" font-family="Times,serif" font-size="14.00">SettingsComponent</text>
</g>
<!-- SettingsModule -->
<g id="node2" class="node">
<title>SettingsModule</title>
<polygon fill="#8dd3c7" stroke="black" points="331.16,-187 328.16,-191 307.16,-191 304.16,-187 226.84,-187 226.84,-151 331.16,-151 331.16,-187"/>
<text text-anchor="middle" x="279" y="-164.8" font-family="Times,serif" font-size="14.00">SettingsModule</text>
</g>
<!-- SettingsComponent&#45;&gt;SettingsModule -->
<g id="edge1" class="edge">
<title>SettingsComponent&#45;&gt;SettingsModule</title>
<path fill="none" stroke="black" d="M87,-122.11C87,-141.34 87,-169 87,-169 87,-169 216.79,-169 216.79,-169"/>
<polygon fill="black" stroke="black" points="216.79,-172.5 226.79,-169 216.79,-165.5 216.79,-172.5"/>
</g>
<!-- RouterLink -->
<g id="node3" class="node">
<title>RouterLink</title>
<polygon fill="#8dd3c7" stroke="black" points="497.05,-122 494.05,-126 473.05,-126 470.05,-122 416.95,-122 416.95,-86 497.05,-86 497.05,-122"/>
<text text-anchor="middle" x="457" y="-99.8" font-family="Times,serif" font-size="14.00">RouterLink</text>
</g>
<!-- RouterLink&#45;&gt;SettingsModule -->
<g id="edge2" class="edge">
<title>RouterLink&#45;&gt;SettingsModule</title>
<path fill="none" stroke="black" d="M457,-122.11C457,-141.34 457,-169 457,-169 457,-169 341.44,-169 341.44,-169"/>
<polygon fill="black" stroke="black" points="341.44,-165.5 331.44,-169 341.44,-172.5 341.44,-165.5"/>
</g>
<!-- RouterLinkActive -->
<g id="node4" class="node">
<title>RouterLinkActive</title>
<polygon fill="#8dd3c7" stroke="black" points="398.86,-122 395.86,-126 374.86,-126 371.86,-122 281.14,-122 281.14,-86 398.86,-86 398.86,-122"/>
<text text-anchor="middle" x="340" y="-99.8" font-family="Times,serif" font-size="14.00">RouterLinkActive</text>
</g>
<!-- RouterLinkActive&#45;&gt;SettingsModule -->
<g id="edge3" class="edge">
<title>RouterLinkActive&#45;&gt;SettingsModule</title>
<path fill="none" stroke="black" d="M306.2,-122.11C306.2,-122.11 306.2,-140.99 306.2,-140.99"/>
<polygon fill="black" stroke="black" points="302.7,-140.99 306.2,-150.99 309.7,-140.99 302.7,-140.99"/>
</g>
<!-- RouterOutlet -->
<g id="node5" class="node">
<title>RouterOutlet</title>
<polygon fill="#8dd3c7" stroke="black" points="263.6,-122 260.6,-126 239.6,-126 236.6,-122 174.4,-122 174.4,-86 263.6,-86 263.6,-122"/>
<text text-anchor="middle" x="219" y="-99.8" font-family="Times,serif" font-size="14.00">RouterOutlet</text>
</g>
<!-- RouterOutlet&#45;&gt;SettingsModule -->
<g id="edge4" class="edge">
<title>RouterOutlet&#45;&gt;SettingsModule</title>
<path fill="none" stroke="black" d="M245.11,-122.11C245.11,-122.11 245.11,-140.99 245.11,-140.99"/>
<polygon fill="black" stroke="black" points="241.61,-140.99 245.11,-150.99 248.61,-140.99 241.61,-140.99"/>
</g>
</g>
</svg>
