<?xml version="1.0" encoding="UTF-8" standalone="no"?>
<!DOCTYPE svg PUBLIC "-//W3C//DTD SVG 1.1//EN"
 "http://www.w3.org/Graphics/SVG/1.1/DTD/svg11.dtd">
<!-- Generated by graphviz version 5.0.0 (20220707.1540)
 -->
<!-- Title: dependencies Pages: 1 -->
<svg width="242pt" height="174pt"
 viewBox="0.00 0.00 242.00 173.80" xmlns="http://www.w3.org/2000/svg" xmlns:xlink="http://www.w3.org/1999/xlink">
<g id="graph0" class="graph" transform="scale(1 1) rotate(0) translate(4 169.8)">
<title>dependencies</title>
<polygon fill="white" stroke="transparent" points="-4,4 -4,-169.8 238,-169.8 238,4 -4,4"/>
<text text-anchor="middle" x="117" y="-8.2" font-family="sans-serif" font-size="14.00">dependencies</text>
<g id="clust1" class="cluster">
<title>cluster_SimpleDataButtonModule</title>
<polygon fill="none" stroke="black" stroke-dasharray="1,5" points="8,-32.8 8,-157.8 226,-157.8 226,-32.8 8,-32.8"/>
</g>
<g id="clust2" class="cluster">
<title>cluster_SimpleDataButtonModule_declarations</title>
<polygon fill="none" stroke="black" points="16,-40.8 16,-92.8 218,-92.8 218,-40.8 16,-40.8"/>
</g>
<!-- SimpleDataButtonComponent -->
<g id="node1" class="node">
<title>SimpleDataButtonComponent</title>
<polygon fill="#ffffb3" stroke="black" points="209.55,-84.8 24.45,-84.8 24.45,-48.8 209.55,-48.8 209.55,-84.8"/>
<text text-anchor="middle" x="117" y="-62.6" font-family="Times,serif" font-size="14.00">SimpleDataButtonComponent</text>
</g>
<!-- SimpleDataButtonModule -->
<g id="node2" class="node">
<title>SimpleDataButtonModule</title>
<polygon fill="#8dd3c7" stroke="black" points="198.77,-149.8 195.77,-153.8 174.77,-153.8 171.77,-149.8 35.23,-149.8 35.23,-113.8 198.77,-113.8 198.77,-149.8"/>
<text text-anchor="middle" x="117" y="-127.6" font-family="Times,serif" font-size="14.00">SimpleDataButtonModule</text>
</g>
<!-- SimpleDataButtonComponent&#45;&gt;SimpleDataButtonModule -->
<g id="edge1" class="edge">
<title>SimpleDataButtonComponent&#45;&gt;SimpleDataButtonModule</title>
<path fill="none" stroke="black" d="M117,-84.91C117,-84.91 117,-103.79 117,-103.79"/>
<polygon fill="black" stroke="black" points="113.5,-103.79 117,-113.79 120.5,-103.79 113.5,-103.79"/>
</g>
</g>
</svg>
