<?xml version="1.0" encoding="UTF-8" standalone="no"?>
<!DOCTYPE svg PUBLIC "-//W3C//DTD SVG 1.1//EN"
 "http://www.w3.org/Graphics/SVG/1.1/DTD/svg11.dtd">
<!-- Generated by graphviz version 2.47.0 (20210316.0004)
 -->
<!-- Title: dependencies Pages: 1 -->
<svg width="504pt" height="284pt"
 viewBox="0.00 0.00 504.00 284.00" xmlns="http://www.w3.org/2000/svg" xmlns:xlink="http://www.w3.org/1999/xlink">
<g id="graph0" class="graph" transform="scale(1 1) rotate(0) translate(4 280)">
<title>dependencies</title>
<polygon fill="white" stroke="transparent" points="-4,4 -4,-280 500,-280 500,4 -4,4"/>
<text text-anchor="start" x="227.01" y="-42.4" font-family="Times-12" font-weight="bold" font-size="14.00">Legend</text>
<polygon fill="#ffffb3" stroke="transparent" points="14,-10 14,-30 34,-30 34,-10 14,-10"/>
<text text-anchor="start" x="37.63" y="-15.4" font-family="Times-12" font-size="14.00"> &#160;Declarations</text>
<polygon fill="#8dd3c7" stroke="transparent" points="127,-10 127,-30 147,-30 147,-10 127,-10"/>
<text text-anchor="start" x="150.73" y="-15.4" font-family="Times-12" font-size="14.00"> &#160;Module</text>
<polygon fill="#80b1d3" stroke="transparent" points="213,-10 213,-30 233,-30 233,-10 213,-10"/>
<text text-anchor="start" x="236.78" y="-15.4" font-family="Times-12" font-size="14.00"> &#160;Bootstrap</text>
<polygon fill="#fdb462" stroke="transparent" points="310,-10 310,-30 330,-30 330,-10 310,-10"/>
<text text-anchor="start" x="333.67" y="-15.4" font-family="Times-12" font-size="14.00"> &#160;Providers</text>
<polygon fill="#fb8072" stroke="transparent" points="406,-10 406,-30 426,-30 426,-10 406,-10"/>
<text text-anchor="start" x="429.73" y="-15.4" font-family="Times-12" font-size="14.00"> &#160;Exports</text>
<g id="clust1" class="cluster">
<title>cluster_SimpleDataButtonModule</title>
<polygon fill="none" stroke="black" stroke-dasharray="1,5" points="100,-70 100,-268 396,-268 396,-70 100,-70"/>
</g>
<g id="clust5" class="cluster">
<title>cluster_SimpleDataButtonModule_exports</title>
<polygon fill="none" stroke="black" points="145,-208 145,-260 351,-260 351,-208 145,-208"/>
</g>
<g id="clust2" class="cluster">
<title>cluster_SimpleDataButtonModule_declarations</title>
<polygon fill="none" stroke="black" points="186,-78 186,-130 388,-130 388,-78 186,-78"/>
</g>
<g id="clust4" class="cluster">
<title>cluster_SimpleDataButtonModule_imports</title>
<polygon fill="none" stroke="black" points="108,-78 108,-130 178,-130 178,-78 108,-78"/>
</g>
<!-- SimpleDataButtonComponent -->
<g id="node1" class="node">
<title>SimpleDataButtonComponent</title>
<polygon fill="#ffffb3" stroke="black" points="379.55,-122 194.45,-122 194.45,-86 379.55,-86 379.55,-122"/>
<text text-anchor="middle" x="287" y="-99.8" font-family="Times,serif" font-size="14.00">SimpleDataButtonComponent</text>
</g>
<!-- SimpleDataButtonModule -->
<g id="node2" class="node">
<title>SimpleDataButtonModule</title>
<polygon fill="#8dd3c7" stroke="black" points="329.76,-187 326.76,-191 305.76,-191 302.76,-187 166.24,-187 166.24,-151 329.76,-151 329.76,-187"/>
<text text-anchor="middle" x="248" y="-164.8" font-family="Times,serif" font-size="14.00">SimpleDataButtonModule</text>
</g>
<!-- SimpleDataButtonComponent&#45;&gt;SimpleDataButtonModule -->
<g id="edge1" class="edge">
<title>SimpleDataButtonComponent&#45;&gt;SimpleDataButtonModule</title>
<path fill="none" stroke="black" d="M262.05,-122.11C262.05,-122.11 262.05,-140.99 262.05,-140.99"/>
<polygon fill="black" stroke="black" points="258.55,-140.99 262.05,-150.99 265.55,-140.99 258.55,-140.99"/>
</g>
<!-- SimpleDataButtonComponent  -->
<g id="node4" class="node">
<title>SimpleDataButtonComponent </title>
<polygon fill="#fb8072" stroke="black" points="342.55,-252 153.45,-252 153.45,-216 342.55,-216 342.55,-252"/>
<text text-anchor="middle" x="248" y="-229.8" font-family="Times,serif" font-size="14.00">SimpleDataButtonComponent </text>
</g>
<!-- SimpleDataButtonModule&#45;&gt;SimpleDataButtonComponent  -->
<g id="edge3" class="edge">
<title>SimpleDataButtonModule&#45;&gt;SimpleDataButtonComponent </title>
<path fill="none" stroke="black" stroke-dasharray="5,2" d="M248,-187.11C248,-187.11 248,-205.99 248,-205.99"/>
<polygon fill="black" stroke="black" points="244.5,-205.99 248,-215.99 251.5,-205.99 244.5,-205.99"/>
</g>
<!-- NgIf -->
<g id="node3" class="node">
<title>NgIf</title>
<polygon fill="#8dd3c7" stroke="black" points="170,-122 167,-126 146,-126 143,-122 116,-122 116,-86 170,-86 170,-122"/>
<text text-anchor="middle" x="143" y="-99.8" font-family="Times,serif" font-size="14.00">NgIf</text>
</g>
<!-- NgIf&#45;&gt;SimpleDataButtonModule -->
<g id="edge2" class="edge">
<title>NgIf&#45;&gt;SimpleDataButtonModule</title>
<path fill="none" stroke="black" d="M159.8,-122.11C159.8,-141.34 159.8,-169 159.8,-169 159.8,-169 160.43,-169 160.43,-169"/>
<polygon fill="black" stroke="black" points="156.14,-172.5 166.14,-169 156.14,-165.5 156.14,-172.5"/>
</g>
</g>
</svg>
