<?xml version="1.0" encoding="UTF-8" standalone="no"?>
<!DOCTYPE svg PUBLIC "-//W3C//DTD SVG 1.1//EN"
 "http://www.w3.org/Graphics/SVG/1.1/DTD/svg11.dtd">
<!-- Generated by graphviz version 2.47.0 (20210316.0004)
 -->
<!-- Title: dependencies Pages: 1 -->
<svg width="1179pt" height="284pt"
 viewBox="0.00 0.00 1179.00 284.00" xmlns="http://www.w3.org/2000/svg" xmlns:xlink="http://www.w3.org/1999/xlink">
<g id="graph0" class="graph" transform="scale(1 1) rotate(0) translate(4 280)">
<title>dependencies</title>
<polygon fill="white" stroke="transparent" points="-4,4 -4,-280 1175,-280 1175,4 -4,4"/>
<text text-anchor="start" x="564.51" y="-42.4" font-family="Times-12" font-weight="bold" font-size="14.00">Legend</text>
<polygon fill="#ffffb3" stroke="transparent" points="351.5,-10 351.5,-30 371.5,-30 371.5,-10 351.5,-10"/>
<text text-anchor="start" x="375.13" y="-15.4" font-family="Times-12" font-size="14.00"> &#160;Declarations</text>
<polygon fill="#8dd3c7" stroke="transparent" points="464.5,-10 464.5,-30 484.5,-30 484.5,-10 464.5,-10"/>
<text text-anchor="start" x="488.23" y="-15.4" font-family="Times-12" font-size="14.00"> &#160;Module</text>
<polygon fill="#80b1d3" stroke="transparent" points="550.5,-10 550.5,-30 570.5,-30 570.5,-10 550.5,-10"/>
<text text-anchor="start" x="574.28" y="-15.4" font-family="Times-12" font-size="14.00"> &#160;Bootstrap</text>
<polygon fill="#fdb462" stroke="transparent" points="647.5,-10 647.5,-30 667.5,-30 667.5,-10 647.5,-10"/>
<text text-anchor="start" x="671.17" y="-15.4" font-family="Times-12" font-size="14.00"> &#160;Providers</text>
<polygon fill="#fb8072" stroke="transparent" points="743.5,-10 743.5,-30 763.5,-30 763.5,-10 743.5,-10"/>
<text text-anchor="start" x="767.23" y="-15.4" font-family="Times-12" font-size="14.00"> &#160;Exports</text>
<g id="clust1" class="cluster">
<title>cluster_ToolsNavbarModule</title>
<polygon fill="none" stroke="black" stroke-dasharray="1,5" points="8,-70 8,-268 1163,-268 1163,-70 8,-70"/>
</g>
<g id="clust5" class="cluster">
<title>cluster_ToolsNavbarModule_exports</title>
<polygon fill="none" stroke="black" points="465,-208 465,-260 639,-260 639,-208 465,-208"/>
</g>
<g id="clust2" class="cluster">
<title>cluster_ToolsNavbarModule_declarations</title>
<polygon fill="none" stroke="black" points="985,-78 985,-130 1155,-130 1155,-78 985,-78"/>
</g>
<g id="clust4" class="cluster">
<title>cluster_ToolsNavbarModule_imports</title>
<polygon fill="none" stroke="black" points="16,-78 16,-130 977,-130 977,-78 16,-78"/>
</g>
<!-- ToolsNavbarComponent -->
<g id="node1" class="node">
<title>ToolsNavbarComponent</title>
<polygon fill="#ffffb3" stroke="black" points="1147.42,-122 992.58,-122 992.58,-86 1147.42,-86 1147.42,-122"/>
<text text-anchor="middle" x="1070" y="-99.8" font-family="Times,serif" font-size="14.00">ToolsNavbarComponent</text>
</g>
<!-- ToolsNavbarModule -->
<g id="node2" class="node">
<title>ToolsNavbarModule</title>
<polygon fill="#8dd3c7" stroke="black" points="618.13,-187 615.13,-191 594.13,-191 591.13,-187 485.87,-187 485.87,-151 618.13,-151 618.13,-187"/>
<text text-anchor="middle" x="552" y="-164.8" font-family="Times,serif" font-size="14.00">ToolsNavbarModule</text>
</g>
<!-- ToolsNavbarComponent&#45;&gt;ToolsNavbarModule -->
<g id="edge1" class="edge">
<title>ToolsNavbarComponent&#45;&gt;ToolsNavbarModule</title>
<path fill="none" stroke="black" d="M1070,-122.29C1070,-144.21 1070,-178 1070,-178 1070,-178 628.39,-178 628.39,-178"/>
<polygon fill="black" stroke="black" points="628.39,-174.5 618.39,-178 628.39,-181.5 628.39,-174.5"/>
</g>
<!-- ToolsNavbarComponent  -->
<g id="node11" class="node">
<title>ToolsNavbarComponent </title>
<polygon fill="#fb8072" stroke="black" points="630.92,-252 473.08,-252 473.08,-216 630.92,-216 630.92,-252"/>
<text text-anchor="middle" x="552" y="-229.8" font-family="Times,serif" font-size="14.00">ToolsNavbarComponent </text>
</g>
<!-- ToolsNavbarModule&#45;&gt;ToolsNavbarComponent  -->
<g id="edge10" class="edge">
<title>ToolsNavbarModule&#45;&gt;ToolsNavbarComponent </title>
<path fill="none" stroke="black" stroke-dasharray="5,2" d="M552,-187.11C552,-187.11 552,-205.99 552,-205.99"/>
<polygon fill="black" stroke="black" points="548.5,-205.99 552,-215.99 555.5,-205.99 548.5,-205.99"/>
</g>
<!-- AppRoutingModule -->
<g id="node3" class="node">
<title>AppRoutingModule</title>
<polygon fill="#8dd3c7" stroke="black" points="969.27,-122 966.27,-126 945.27,-126 942.27,-122 840.73,-122 840.73,-86 969.27,-86 969.27,-122"/>
<text text-anchor="middle" x="905" y="-99.8" font-family="Times,serif" font-size="14.00">AppRoutingModule</text>
</g>
<!-- AppRoutingModule&#45;&gt;ToolsNavbarModule -->
<g id="edge2" class="edge">
<title>AppRoutingModule&#45;&gt;ToolsNavbarModule</title>
<path fill="none" stroke="black" d="M905,-122.11C905,-141.34 905,-169 905,-169 905,-169 628.4,-169 628.4,-169"/>
<polygon fill="black" stroke="black" points="628.4,-165.5 618.4,-169 628.4,-172.5 628.4,-165.5"/>
</g>
<!-- CurveModule -->
<g id="node4" class="node">
<title>CurveModule</title>
<polygon fill="#8dd3c7" stroke="black" points="822.76,-122 819.76,-126 798.76,-126 795.76,-122 729.24,-122 729.24,-86 822.76,-86 822.76,-122"/>
<text text-anchor="middle" x="776" y="-99.8" font-family="Times,serif" font-size="14.00">CurveModule</text>
</g>
<!-- CurveModule&#45;&gt;ToolsNavbarModule -->
<g id="edge3" class="edge">
<title>CurveModule&#45;&gt;ToolsNavbarModule</title>
<path fill="none" stroke="black" d="M776,-122.03C776,-138.4 776,-160 776,-160 776,-160 628.3,-160 628.3,-160"/>
<polygon fill="black" stroke="black" points="628.3,-156.5 618.3,-160 628.3,-163.5 628.3,-156.5"/>
</g>
<!-- DualModule -->
<g id="node5" class="node">
<title>DualModule</title>
<polygon fill="#8dd3c7" stroke="black" points="711.26,-122 708.26,-126 687.26,-126 684.26,-122 624.74,-122 624.74,-86 711.26,-86 711.26,-122"/>
<text text-anchor="middle" x="668" y="-99.8" font-family="Times,serif" font-size="14.00">DualModule</text>
</g>
<!-- DualModule&#45;&gt;ToolsNavbarModule -->
<g id="edge4" class="edge">
<title>DualModule&#45;&gt;ToolsNavbarModule</title>
<path fill="none" stroke="black" d="M624.68,-104C617.68,-104 612.68,-104 612.68,-104 612.68,-104 612.68,-140.89 612.68,-140.89"/>
<polygon fill="black" stroke="black" points="609.18,-140.89 612.68,-150.89 616.18,-140.89 609.18,-140.89"/>
</g>
<!-- MenubarModule -->
<g id="node6" class="node">
<title>MenubarModule</title>
<polygon fill="#8dd3c7" stroke="black" points="607.08,-122 604.08,-126 583.08,-126 580.08,-122 496.92,-122 496.92,-86 607.08,-86 607.08,-122"/>
<text text-anchor="middle" x="552" y="-99.8" font-family="Times,serif" font-size="14.00">MenubarModule</text>
</g>
<!-- MenubarModule&#45;&gt;ToolsNavbarModule -->
<g id="edge5" class="edge">
<title>MenubarModule&#45;&gt;ToolsNavbarModule</title>
<path fill="none" stroke="black" d="M552,-122.11C552,-122.11 552,-140.99 552,-140.99"/>
<polygon fill="black" stroke="black" points="548.5,-140.99 552,-150.99 555.5,-140.99 548.5,-140.99"/>
</g>
<!-- MoonModule -->
<g id="node7" class="node">
<title>MoonModule</title>
<polygon fill="#8dd3c7" stroke="black" points="478.49,-122 475.49,-126 454.49,-126 451.49,-122 385.51,-122 385.51,-86 478.49,-86 478.49,-122"/>
<text text-anchor="middle" x="432" y="-99.8" font-family="Times,serif" font-size="14.00">MoonModule</text>
</g>
<!-- MoonModule&#45;&gt;ToolsNavbarModule -->
<g id="edge6" class="edge">
<title>MoonModule&#45;&gt;ToolsNavbarModule</title>
<path fill="none" stroke="black" d="M478.74,-104C486.09,-104 491.32,-104 491.32,-104 491.32,-104 491.32,-140.89 491.32,-140.89"/>
<polygon fill="black" stroke="black" points="487.82,-140.89 491.32,-150.89 494.82,-140.89 487.82,-140.89"/>
</g>
<!-- ScatterModule -->
<g id="node8" class="node">
<title>ScatterModule</title>
<polygon fill="#8dd3c7" stroke="black" points="367.42,-122 364.42,-126 343.42,-126 340.42,-122 268.58,-122 268.58,-86 367.42,-86 367.42,-122"/>
<text text-anchor="middle" x="318" y="-99.8" font-family="Times,serif" font-size="14.00">ScatterModule</text>
</g>
<!-- ScatterModule&#45;&gt;ToolsNavbarModule -->
<g id="edge7" class="edge">
<title>ScatterModule&#45;&gt;ToolsNavbarModule</title>
<path fill="none" stroke="black" d="M318,-122.03C318,-138.4 318,-160 318,-160 318,-160 475.57,-160 475.57,-160"/>
<polygon fill="black" stroke="black" points="475.57,-163.5 485.57,-160 475.57,-156.5 475.57,-163.5"/>
</g>
<!-- SpectrumModule -->
<g id="node9" class="node">
<title>SpectrumModule</title>
<polygon fill="#8dd3c7" stroke="black" points="250.7,-122 247.7,-126 226.7,-126 223.7,-122 137.3,-122 137.3,-86 250.7,-86 250.7,-122"/>
<text text-anchor="middle" x="194" y="-99.8" font-family="Times,serif" font-size="14.00">SpectrumModule</text>
</g>
<!-- SpectrumModule&#45;&gt;ToolsNavbarModule -->
<g id="edge8" class="edge">
<title>SpectrumModule&#45;&gt;ToolsNavbarModule</title>
<path fill="none" stroke="black" d="M194,-122.11C194,-141.34 194,-169 194,-169 194,-169 475.5,-169 475.5,-169"/>
<polygon fill="black" stroke="black" points="475.5,-172.5 485.5,-169 475.5,-165.5 475.5,-172.5"/>
</g>
<!-- VenusModule -->
<g id="node10" class="node">
<title>VenusModule</title>
<polygon fill="#8dd3c7" stroke="black" points="119.82,-122 116.82,-126 95.82,-126 92.82,-122 24.18,-122 24.18,-86 119.82,-86 119.82,-122"/>
<text text-anchor="middle" x="72" y="-99.8" font-family="Times,serif" font-size="14.00">VenusModule</text>
</g>
<!-- VenusModule&#45;&gt;ToolsNavbarModule -->
<g id="edge9" class="edge">
<title>VenusModule&#45;&gt;ToolsNavbarModule</title>
<path fill="none" stroke="black" d="M72,-122.29C72,-144.21 72,-178 72,-178 72,-178 475.76,-178 475.76,-178"/>
<polygon fill="black" stroke="black" points="475.76,-181.5 485.76,-178 475.76,-174.5 475.76,-181.5"/>
</g>
</g>
</svg>
