<?xml version="1.0" encoding="UTF-8" standalone="no"?>
<!DOCTYPE svg PUBLIC "-//W3C//DTD SVG 1.1//EN"
 "http://www.w3.org/Graphics/SVG/1.1/DTD/svg11.dtd">
<!-- Generated by graphviz version 2.47.0 (20210316.0004)
 -->
<!-- Title: dependencies Pages: 1 -->
<svg width="944pt" height="284pt"
 viewBox="0.00 0.00 944.00 284.00" xmlns="http://www.w3.org/2000/svg" xmlns:xlink="http://www.w3.org/1999/xlink">
<g id="graph0" class="graph" transform="scale(1 1) rotate(0) translate(4 280)">
<title>dependencies</title>
<polygon fill="white" stroke="transparent" points="-4,4 -4,-280 940,-280 940,4 -4,4"/>
<text text-anchor="start" x="447.01" y="-42.4" font-family="Times-12" font-weight="bold" font-size="14.00">Legend</text>
<polygon fill="#ffffb3" stroke="transparent" points="234,-10 234,-30 254,-30 254,-10 234,-10"/>
<text text-anchor="start" x="257.63" y="-15.4" font-family="Times-12" font-size="14.00"> &#160;Declarations</text>
<polygon fill="#8dd3c7" stroke="transparent" points="347,-10 347,-30 367,-30 367,-10 347,-10"/>
<text text-anchor="start" x="370.73" y="-15.4" font-family="Times-12" font-size="14.00"> &#160;Module</text>
<polygon fill="#80b1d3" stroke="transparent" points="433,-10 433,-30 453,-30 453,-10 433,-10"/>
<text text-anchor="start" x="456.78" y="-15.4" font-family="Times-12" font-size="14.00"> &#160;Bootstrap</text>
<polygon fill="#fdb462" stroke="transparent" points="530,-10 530,-30 550,-30 550,-10 530,-10"/>
<text text-anchor="start" x="553.67" y="-15.4" font-family="Times-12" font-size="14.00"> &#160;Providers</text>
<polygon fill="#fb8072" stroke="transparent" points="626,-10 626,-30 646,-30 646,-10 626,-10"/>
<text text-anchor="start" x="649.73" y="-15.4" font-family="Times-12" font-size="14.00"> &#160;Exports</text>
<g id="clust1" class="cluster">
<title>cluster_ToolsNavbarModule</title>
<polygon fill="none" stroke="black" stroke-dasharray="1,5" points="8,-70 8,-268 928,-268 928,-70 8,-70"/>
</g>
<g id="clust2" class="cluster">
<title>cluster_ToolsNavbarModule_declarations</title>
<polygon fill="none" stroke="black" points="750,-78 750,-130 920,-130 920,-78 750,-78"/>
</g>
<g id="clust4" class="cluster">
<title>cluster_ToolsNavbarModule_imports</title>
<polygon fill="none" stroke="black" points="16,-78 16,-130 742,-130 742,-78 16,-78"/>
</g>
<g id="clust5" class="cluster">
<title>cluster_ToolsNavbarModule_exports</title>
<polygon fill="none" stroke="black" points="334,-208 334,-260 508,-260 508,-208 334,-208"/>
</g>
<!-- ToolsNavbarComponent -->
<g id="node1" class="node">
<title>ToolsNavbarComponent</title>
<polygon fill="#ffffb3" stroke="black" points="912.42,-122 757.58,-122 757.58,-86 912.42,-86 912.42,-122"/>
<text text-anchor="middle" x="835" y="-99.8" font-family="Times,serif" font-size="14.00">ToolsNavbarComponent</text>
</g>
<!-- ToolsNavbarModule -->
<g id="node2" class="node">
<title>ToolsNavbarModule</title>
<polygon fill="#8dd3c7" stroke="black" points="487.13,-187 484.13,-191 463.13,-191 460.13,-187 354.87,-187 354.87,-151 487.13,-151 487.13,-187"/>
<text text-anchor="middle" x="421" y="-164.8" font-family="Times,serif" font-size="14.00">ToolsNavbarModule</text>
</g>
<!-- ToolsNavbarComponent&#45;&gt;ToolsNavbarModule -->
<g id="edge1" class="edge">
<title>ToolsNavbarComponent&#45;&gt;ToolsNavbarModule</title>
<path fill="none" stroke="black" d="M835,-122.28C835,-143.32 835,-175 835,-175 835,-175 497.52,-175 497.52,-175"/>
<polygon fill="black" stroke="black" points="497.52,-171.5 487.52,-175 497.52,-178.5 497.52,-171.5"/>
</g>
<!-- ToolsNavbarComponent  -->
<g id="node9" class="node">
<title>ToolsNavbarComponent </title>
<polygon fill="#fb8072" stroke="black" points="499.92,-252 342.08,-252 342.08,-216 499.92,-216 499.92,-252"/>
<text text-anchor="middle" x="421" y="-229.8" font-family="Times,serif" font-size="14.00">ToolsNavbarComponent </text>
</g>
<!-- ToolsNavbarModule&#45;&gt;ToolsNavbarComponent  -->
<g id="edge8" class="edge">
<title>ToolsNavbarModule&#45;&gt;ToolsNavbarComponent </title>
<path fill="none" stroke="black" stroke-dasharray="5,2" d="M421,-187.11C421,-187.11 421,-205.99 421,-205.99"/>
<polygon fill="black" stroke="black" points="417.5,-205.99 421,-215.99 424.5,-205.99 417.5,-205.99"/>
</g>
<!-- AppRoutingModule -->
<g id="node3" class="node">
<title>AppRoutingModule</title>
<polygon fill="#8dd3c7" stroke="black" points="734.27,-122 731.27,-126 710.27,-126 707.27,-122 605.73,-122 605.73,-86 734.27,-86 734.27,-122"/>
<text text-anchor="middle" x="670" y="-99.8" font-family="Times,serif" font-size="14.00">AppRoutingModule</text>
</g>
<!-- AppRoutingModule&#45;&gt;ToolsNavbarModule -->
<g id="edge2" class="edge">
<title>AppRoutingModule&#45;&gt;ToolsNavbarModule</title>
<path fill="none" stroke="black" d="M670,-122.02C670,-139.37 670,-163 670,-163 670,-163 497.4,-163 497.4,-163"/>
<polygon fill="black" stroke="black" points="497.4,-159.5 487.4,-163 497.4,-166.5 497.4,-159.5"/>
</g>
<!-- CurveModule -->
<g id="node4" class="node">
<title>CurveModule</title>
<polygon fill="#8dd3c7" stroke="black" points="587.76,-122 584.76,-126 563.76,-126 560.76,-122 494.24,-122 494.24,-86 587.76,-86 587.76,-122"/>
<text text-anchor="middle" x="541" y="-99.8" font-family="Times,serif" font-size="14.00">CurveModule</text>
</g>
<!-- CurveModule&#45;&gt;ToolsNavbarModule -->
<g id="edge3" class="edge">
<title>CurveModule&#45;&gt;ToolsNavbarModule</title>
<path fill="none" stroke="black" d="M493.97,-104C486.77,-104 481.68,-104 481.68,-104 481.68,-104 481.68,-140.89 481.68,-140.89"/>
<polygon fill="black" stroke="black" points="478.18,-140.89 481.68,-150.89 485.18,-140.89 478.18,-140.89"/>
</g>
<!-- MenubarModule -->
<g id="node5" class="node">
<title>MenubarModule</title>
<polygon fill="#8dd3c7" stroke="black" points="476.08,-122 473.08,-126 452.08,-126 449.08,-122 365.92,-122 365.92,-86 476.08,-86 476.08,-122"/>
<text text-anchor="middle" x="421" y="-99.8" font-family="Times,serif" font-size="14.00">MenubarModule</text>
</g>
<!-- MenubarModule&#45;&gt;ToolsNavbarModule -->
<g id="edge4" class="edge">
<title>MenubarModule&#45;&gt;ToolsNavbarModule</title>
<path fill="none" stroke="black" d="M421,-122.11C421,-122.11 421,-140.99 421,-140.99"/>
<polygon fill="black" stroke="black" points="417.5,-140.99 421,-150.99 424.5,-140.99 417.5,-140.99"/>
</g>
<!-- MoonModule -->
<g id="node6" class="node">
<title>MoonModule</title>
<polygon fill="#8dd3c7" stroke="black" points="347.49,-122 344.49,-126 323.49,-126 320.49,-122 254.51,-122 254.51,-86 347.49,-86 347.49,-122"/>
<text text-anchor="middle" x="301" y="-99.8" font-family="Times,serif" font-size="14.00">MoonModule</text>
</g>
<!-- MoonModule&#45;&gt;ToolsNavbarModule -->
<g id="edge5" class="edge">
<title>MoonModule&#45;&gt;ToolsNavbarModule</title>
<path fill="none" stroke="black" d="M347.74,-104C355.09,-104 360.32,-104 360.32,-104 360.32,-104 360.32,-140.89 360.32,-140.89"/>
<polygon fill="black" stroke="black" points="356.82,-140.89 360.32,-150.89 363.82,-140.89 356.82,-140.89"/>
</g>
<!-- ScatterModule -->
<g id="node7" class="node">
<title>ScatterModule</title>
<polygon fill="#8dd3c7" stroke="black" points="236.42,-122 233.42,-126 212.42,-126 209.42,-122 137.58,-122 137.58,-86 236.42,-86 236.42,-122"/>
<text text-anchor="middle" x="187" y="-99.8" font-family="Times,serif" font-size="14.00">ScatterModule</text>
</g>
<!-- ScatterModule&#45;&gt;ToolsNavbarModule -->
<g id="edge6" class="edge">
<title>ScatterModule&#45;&gt;ToolsNavbarModule</title>
<path fill="none" stroke="black" d="M187,-122.02C187,-139.37 187,-163 187,-163 187,-163 344.57,-163 344.57,-163"/>
<polygon fill="black" stroke="black" points="344.57,-166.5 354.57,-163 344.57,-159.5 344.57,-166.5"/>
</g>
<!-- VenusModule -->
<g id="node8" class="node">
<title>VenusModule</title>
<polygon fill="#8dd3c7" stroke="black" points="119.82,-122 116.82,-126 95.82,-126 92.82,-122 24.18,-122 24.18,-86 119.82,-86 119.82,-122"/>
<text text-anchor="middle" x="72" y="-99.8" font-family="Times,serif" font-size="14.00">VenusModule</text>
</g>
<!-- VenusModule&#45;&gt;ToolsNavbarModule -->
<g id="edge7" class="edge">
<title>VenusModule&#45;&gt;ToolsNavbarModule</title>
<path fill="none" stroke="black" d="M72,-122.28C72,-143.32 72,-175 72,-175 72,-175 344.53,-175 344.53,-175"/>
<polygon fill="black" stroke="black" points="344.53,-178.5 354.53,-175 344.53,-171.5 344.53,-178.5"/>
</g>
</g>
</svg>
