<?xml version="1.0" encoding="UTF-8" standalone="no"?>
<!DOCTYPE svg PUBLIC "-//W3C//DTD SVG 1.1//EN"
 "http://www.w3.org/Graphics/SVG/1.1/DTD/svg11.dtd">
<!-- Generated by graphviz version 2.47.0 (20210316.0004)
 -->
<!-- Title: dependencies Pages: 1 -->
<svg width="1048pt" height="284pt"
 viewBox="0.00 0.00 1048.00 284.00" xmlns="http://www.w3.org/2000/svg" xmlns:xlink="http://www.w3.org/1999/xlink">
<g id="graph0" class="graph" transform="scale(1 1) rotate(0) translate(4 280)">
<title>dependencies</title>
<polygon fill="white" stroke="transparent" points="-4,4 -4,-280 1044,-280 1044,4 -4,4"/>
<text text-anchor="start" x="499.01" y="-42.4" font-family="Times-12" font-weight="bold" font-size="14.00">Legend</text>
<polygon fill="#ffffb3" stroke="transparent" points="286,-10 286,-30 306,-30 306,-10 286,-10"/>
<text text-anchor="start" x="309.63" y="-15.4" font-family="Times-12" font-size="14.00"> &#160;Declarations</text>
<polygon fill="#8dd3c7" stroke="transparent" points="399,-10 399,-30 419,-30 419,-10 399,-10"/>
<text text-anchor="start" x="422.73" y="-15.4" font-family="Times-12" font-size="14.00"> &#160;Module</text>
<polygon fill="#80b1d3" stroke="transparent" points="485,-10 485,-30 505,-30 505,-10 485,-10"/>
<text text-anchor="start" x="508.78" y="-15.4" font-family="Times-12" font-size="14.00"> &#160;Bootstrap</text>
<polygon fill="#fdb462" stroke="transparent" points="582,-10 582,-30 602,-30 602,-10 582,-10"/>
<text text-anchor="start" x="605.67" y="-15.4" font-family="Times-12" font-size="14.00"> &#160;Providers</text>
<polygon fill="#fb8072" stroke="transparent" points="678,-10 678,-30 698,-30 698,-10 678,-10"/>
<text text-anchor="start" x="701.73" y="-15.4" font-family="Times-12" font-size="14.00"> &#160;Exports</text>
<g id="clust1" class="cluster">
<title>cluster_ToolsNavbarModule</title>
<polygon fill="none" stroke="black" stroke-dasharray="1,5" points="8,-70 8,-268 1032,-268 1032,-70 8,-70"/>
</g>
<g id="clust5" class="cluster">
<title>cluster_ToolsNavbarModule_exports</title>
<polygon fill="none" stroke="black" points="452,-208 452,-260 626,-260 626,-208 452,-208"/>
</g>
<g id="clust4" class="cluster">
<title>cluster_ToolsNavbarModule_imports</title>
<polygon fill="none" stroke="black" points="194,-78 194,-130 1024,-130 1024,-78 194,-78"/>
</g>
<g id="clust2" class="cluster">
<title>cluster_ToolsNavbarModule_declarations</title>
<polygon fill="none" stroke="black" points="16,-78 16,-130 186,-130 186,-78 16,-78"/>
</g>
<!-- ToolsNavbarComponent -->
<g id="node1" class="node">
<title>ToolsNavbarComponent</title>
<polygon fill="#ffffb3" stroke="black" points="178.42,-122 23.58,-122 23.58,-86 178.42,-86 178.42,-122"/>
<text text-anchor="middle" x="101" y="-99.8" font-family="Times,serif" font-size="14.00">ToolsNavbarComponent</text>
</g>
<!-- ToolsNavbarModule -->
<g id="node2" class="node">
<title>ToolsNavbarModule</title>
<polygon fill="#8dd3c7" stroke="black" points="605.13,-187 602.13,-191 581.13,-191 578.13,-187 472.87,-187 472.87,-151 605.13,-151 605.13,-187"/>
<text text-anchor="middle" x="539" y="-164.8" font-family="Times,serif" font-size="14.00">ToolsNavbarModule</text>
</g>
<!-- ToolsNavbarComponent&#45;&gt;ToolsNavbarModule -->
<g id="edge1" class="edge">
<title>ToolsNavbarComponent&#45;&gt;ToolsNavbarModule</title>
<path fill="none" stroke="black" d="M101,-122.29C101,-144.21 101,-178 101,-178 101,-178 462.48,-178 462.48,-178"/>
<polygon fill="black" stroke="black" points="462.48,-181.5 472.48,-178 462.48,-174.5 462.48,-181.5"/>
</g>
<!-- ToolsNavbarComponent  -->
<g id="node10" class="node">
<title>ToolsNavbarComponent </title>
<polygon fill="#fb8072" stroke="black" points="617.92,-252 460.08,-252 460.08,-216 617.92,-216 617.92,-252"/>
<text text-anchor="middle" x="539" y="-229.8" font-family="Times,serif" font-size="14.00">ToolsNavbarComponent </text>
</g>
<!-- ToolsNavbarModule&#45;&gt;ToolsNavbarComponent  -->
<g id="edge9" class="edge">
<title>ToolsNavbarModule&#45;&gt;ToolsNavbarComponent </title>
<path fill="none" stroke="black" stroke-dasharray="5,2" d="M539,-187.11C539,-187.11 539,-205.99 539,-205.99"/>
<polygon fill="black" stroke="black" points="535.5,-205.99 539,-215.99 542.5,-205.99 535.5,-205.99"/>
</g>
<!-- AppRoutingModule -->
<g id="node3" class="node">
<title>AppRoutingModule</title>
<polygon fill="#8dd3c7" stroke="black" points="1016.27,-122 1013.27,-126 992.27,-126 989.27,-122 887.73,-122 887.73,-86 1016.27,-86 1016.27,-122"/>
<text text-anchor="middle" x="952" y="-99.8" font-family="Times,serif" font-size="14.00">AppRoutingModule</text>
</g>
<!-- AppRoutingModule&#45;&gt;ToolsNavbarModule -->
<g id="edge2" class="edge">
<title>AppRoutingModule&#45;&gt;ToolsNavbarModule</title>
<path fill="none" stroke="black" d="M952,-122.29C952,-144.21 952,-178 952,-178 952,-178 615.36,-178 615.36,-178"/>
<polygon fill="black" stroke="black" points="615.36,-174.5 605.36,-178 615.36,-181.5 615.36,-174.5"/>
</g>
<!-- CurveModule -->
<g id="node4" class="node">
<title>CurveModule</title>
<polygon fill="#8dd3c7" stroke="black" points="869.76,-122 866.76,-126 845.76,-126 842.76,-122 776.24,-122 776.24,-86 869.76,-86 869.76,-122"/>
<text text-anchor="middle" x="823" y="-99.8" font-family="Times,serif" font-size="14.00">CurveModule</text>
</g>
<!-- CurveModule&#45;&gt;ToolsNavbarModule -->
<g id="edge3" class="edge">
<title>CurveModule&#45;&gt;ToolsNavbarModule</title>
<path fill="none" stroke="black" d="M823,-122.11C823,-141.34 823,-169 823,-169 823,-169 615.23,-169 615.23,-169"/>
<polygon fill="black" stroke="black" points="615.23,-165.5 605.23,-169 615.23,-172.5 615.23,-165.5"/>
</g>
<!-- DualModule -->
<g id="node5" class="node">
<title>DualModule</title>
<polygon fill="#8dd3c7" stroke="black" points="758.26,-122 755.26,-126 734.26,-126 731.26,-122 671.74,-122 671.74,-86 758.26,-86 758.26,-122"/>
<text text-anchor="middle" x="715" y="-99.8" font-family="Times,serif" font-size="14.00">DualModule</text>
</g>
<!-- DualModule&#45;&gt;ToolsNavbarModule -->
<g id="edge4" class="edge">
<title>DualModule&#45;&gt;ToolsNavbarModule</title>
<path fill="none" stroke="black" d="M715,-122.03C715,-138.4 715,-160 715,-160 715,-160 615.29,-160 615.29,-160"/>
<polygon fill="black" stroke="black" points="615.29,-156.5 605.29,-160 615.29,-163.5 615.29,-156.5"/>
</g>
<!-- MenubarModule -->
<g id="node6" class="node">
<title>MenubarModule</title>
<polygon fill="#8dd3c7" stroke="black" points="654.08,-122 651.08,-126 630.08,-126 627.08,-122 543.92,-122 543.92,-86 654.08,-86 654.08,-122"/>
<text text-anchor="middle" x="599" y="-99.8" font-family="Times,serif" font-size="14.00">MenubarModule</text>
</g>
<!-- MenubarModule&#45;&gt;ToolsNavbarModule -->
<g id="edge5" class="edge">
<title>MenubarModule&#45;&gt;ToolsNavbarModule</title>
<path fill="none" stroke="black" d="M574.64,-122.11C574.64,-122.11 574.64,-140.99 574.64,-140.99"/>
<polygon fill="black" stroke="black" points="571.14,-140.99 574.64,-150.99 578.14,-140.99 571.14,-140.99"/>
</g>
<!-- MoonModule -->
<g id="node7" class="node">
<title>MoonModule</title>
<polygon fill="#8dd3c7" stroke="black" points="525.49,-122 522.49,-126 501.49,-126 498.49,-122 432.51,-122 432.51,-86 525.49,-86 525.49,-122"/>
<text text-anchor="middle" x="479" y="-99.8" font-family="Times,serif" font-size="14.00">MoonModule</text>
</g>
<!-- MoonModule&#45;&gt;ToolsNavbarModule -->
<g id="edge6" class="edge">
<title>MoonModule&#45;&gt;ToolsNavbarModule</title>
<path fill="none" stroke="black" d="M499.09,-122.11C499.09,-122.11 499.09,-140.99 499.09,-140.99"/>
<polygon fill="black" stroke="black" points="495.59,-140.99 499.09,-150.99 502.59,-140.99 495.59,-140.99"/>
</g>
<!-- ScatterModule -->
<g id="node8" class="node">
<title>ScatterModule</title>
<polygon fill="#8dd3c7" stroke="black" points="414.42,-122 411.42,-126 390.42,-126 387.42,-122 315.58,-122 315.58,-86 414.42,-86 414.42,-122"/>
<text text-anchor="middle" x="365" y="-99.8" font-family="Times,serif" font-size="14.00">ScatterModule</text>
</g>
<!-- ScatterModule&#45;&gt;ToolsNavbarModule -->
<g id="edge7" class="edge">
<title>ScatterModule&#45;&gt;ToolsNavbarModule</title>
<path fill="none" stroke="black" d="M365,-122.03C365,-138.4 365,-160 365,-160 365,-160 462.72,-160 462.72,-160"/>
<polygon fill="black" stroke="black" points="462.72,-163.5 472.72,-160 462.72,-156.5 462.72,-163.5"/>
</g>
<!-- VenusModule -->
<g id="node9" class="node">
<title>VenusModule</title>
<polygon fill="#8dd3c7" stroke="black" points="297.82,-122 294.82,-126 273.82,-126 270.82,-122 202.18,-122 202.18,-86 297.82,-86 297.82,-122"/>
<text text-anchor="middle" x="250" y="-99.8" font-family="Times,serif" font-size="14.00">VenusModule</text>
</g>
<!-- VenusModule&#45;&gt;ToolsNavbarModule -->
<g id="edge8" class="edge">
<title>VenusModule&#45;&gt;ToolsNavbarModule</title>
<path fill="none" stroke="black" d="M250,-122.11C250,-141.34 250,-169 250,-169 250,-169 462.7,-169 462.7,-169"/>
<polygon fill="black" stroke="black" points="462.7,-172.5 472.7,-169 462.7,-165.5 462.7,-172.5"/>
</g>
</g>
</svg>
