<?xml version="1.0" encoding="UTF-8" standalone="no"?>
<!DOCTYPE svg PUBLIC "-//W3C//DTD SVG 1.1//EN"
 "http://www.w3.org/Graphics/SVG/1.1/DTD/svg11.dtd">
<!-- Generated by graphviz version 2.47.0 (20210316.0004)
 -->
<!-- Title: dependencies Pages: 1 -->
<svg width="1305pt" height="284pt"
 viewBox="0.00 0.00 1305.00 284.00" xmlns="http://www.w3.org/2000/svg" xmlns:xlink="http://www.w3.org/1999/xlink">
<g id="graph0" class="graph" transform="scale(1 1) rotate(0) translate(4 280)">
<title>dependencies</title>
<polygon fill="white" stroke="transparent" points="-4,4 -4,-280 1301,-280 1301,4 -4,4"/>
<text text-anchor="start" x="627.51" y="-42.4" font-family="Times-12" font-weight="bold" font-size="14.00">Legend</text>
<polygon fill="#ffffb3" stroke="transparent" points="414.5,-10 414.5,-30 434.5,-30 434.5,-10 414.5,-10"/>
<text text-anchor="start" x="438.13" y="-15.4" font-family="Times-12" font-size="14.00"> &#160;Declarations</text>
<polygon fill="#8dd3c7" stroke="transparent" points="527.5,-10 527.5,-30 547.5,-30 547.5,-10 527.5,-10"/>
<text text-anchor="start" x="551.23" y="-15.4" font-family="Times-12" font-size="14.00"> &#160;Module</text>
<polygon fill="#80b1d3" stroke="transparent" points="613.5,-10 613.5,-30 633.5,-30 633.5,-10 613.5,-10"/>
<text text-anchor="start" x="637.28" y="-15.4" font-family="Times-12" font-size="14.00"> &#160;Bootstrap</text>
<polygon fill="#fdb462" stroke="transparent" points="710.5,-10 710.5,-30 730.5,-30 730.5,-10 710.5,-10"/>
<text text-anchor="start" x="734.17" y="-15.4" font-family="Times-12" font-size="14.00"> &#160;Providers</text>
<polygon fill="#fb8072" stroke="transparent" points="806.5,-10 806.5,-30 826.5,-30 826.5,-10 806.5,-10"/>
<text text-anchor="start" x="830.23" y="-15.4" font-family="Times-12" font-size="14.00"> &#160;Exports</text>
<g id="clust1" class="cluster">
<title>cluster_ToolsNavbarModule</title>
<polygon fill="none" stroke="black" stroke-dasharray="1,5" points="8,-70 8,-268 1289,-268 1289,-70 8,-70"/>
</g>
<g id="clust4" class="cluster">
<title>cluster_ToolsNavbarModule_imports</title>
<polygon fill="none" stroke="black" points="194,-78 194,-130 1281,-130 1281,-78 194,-78"/>
</g>
<g id="clust5" class="cluster">
<title>cluster_ToolsNavbarModule_exports</title>
<polygon fill="none" stroke="black" points="592,-208 592,-260 766,-260 766,-208 592,-208"/>
</g>
<g id="clust2" class="cluster">
<title>cluster_ToolsNavbarModule_declarations</title>
<polygon fill="none" stroke="black" points="16,-78 16,-130 186,-130 186,-78 16,-78"/>
</g>
<!-- ToolsNavbarComponent -->
<g id="node1" class="node">
<title>ToolsNavbarComponent</title>
<polygon fill="#ffffb3" stroke="black" points="178.42,-122 23.58,-122 23.58,-86 178.42,-86 178.42,-122"/>
<text text-anchor="middle" x="101" y="-99.8" font-family="Times,serif" font-size="14.00">ToolsNavbarComponent</text>
</g>
<!-- ToolsNavbarModule -->
<g id="node2" class="node">
<title>ToolsNavbarModule</title>
<polygon fill="#8dd3c7" stroke="black" points="745.13,-187 742.13,-191 721.13,-191 718.13,-187 612.87,-187 612.87,-151 745.13,-151 745.13,-187"/>
<text text-anchor="middle" x="679" y="-164.8" font-family="Times,serif" font-size="14.00">ToolsNavbarModule</text>
</g>
<!-- ToolsNavbarComponent&#45;&gt;ToolsNavbarModule -->
<g id="edge1" class="edge">
<title>ToolsNavbarComponent&#45;&gt;ToolsNavbarModule</title>
<path fill="none" stroke="black" d="M101,-122.01C101,-144.49 101,-180 101,-180 101,-180 602.7,-180 602.7,-180"/>
<polygon fill="black" stroke="black" points="602.7,-183.5 612.7,-180 602.7,-176.5 602.7,-183.5"/>
</g>
<!-- ToolsNavbarComponent  -->
<g id="node12" class="node">
<title>ToolsNavbarComponent </title>
<polygon fill="#fb8072" stroke="black" points="757.92,-252 600.08,-252 600.08,-216 757.92,-216 757.92,-252"/>
<text text-anchor="middle" x="679" y="-229.8" font-family="Times,serif" font-size="14.00">ToolsNavbarComponent </text>
</g>
<!-- ToolsNavbarModule&#45;&gt;ToolsNavbarComponent  -->
<g id="edge11" class="edge">
<title>ToolsNavbarModule&#45;&gt;ToolsNavbarComponent </title>
<path fill="none" stroke="black" stroke-dasharray="5,2" d="M679,-187.11C679,-187.11 679,-205.99 679,-205.99"/>
<polygon fill="black" stroke="black" points="675.5,-205.99 679,-215.99 682.5,-205.99 675.5,-205.99"/>
</g>
<!-- AppRoutingModule -->
<g id="node3" class="node">
<title>AppRoutingModule</title>
<polygon fill="#8dd3c7" stroke="black" points="1273.27,-122 1270.27,-126 1249.27,-126 1246.27,-122 1144.73,-122 1144.73,-86 1273.27,-86 1273.27,-122"/>
<text text-anchor="middle" x="1209" y="-99.8" font-family="Times,serif" font-size="14.00">AppRoutingModule</text>
</g>
<!-- AppRoutingModule&#45;&gt;ToolsNavbarModule -->
<g id="edge2" class="edge">
<title>AppRoutingModule&#45;&gt;ToolsNavbarModule</title>
<path fill="none" stroke="black" d="M1209,-122.01C1209,-144.49 1209,-180 1209,-180 1209,-180 755.32,-180 755.32,-180"/>
<polygon fill="black" stroke="black" points="755.32,-176.5 745.32,-180 755.32,-183.5 755.32,-176.5"/>
</g>
<!-- CurveModule -->
<g id="node4" class="node">
<title>CurveModule</title>
<polygon fill="#8dd3c7" stroke="black" points="1126.76,-122 1123.76,-126 1102.76,-126 1099.76,-122 1033.24,-122 1033.24,-86 1126.76,-86 1126.76,-122"/>
<text text-anchor="middle" x="1080" y="-99.8" font-family="Times,serif" font-size="14.00">CurveModule</text>
</g>
<!-- CurveModule&#45;&gt;ToolsNavbarModule -->
<g id="edge3" class="edge">
<title>CurveModule&#45;&gt;ToolsNavbarModule</title>
<path fill="none" stroke="black" d="M1080,-122.13C1080,-142.57 1080,-173 1080,-173 1080,-173 755.22,-173 755.22,-173"/>
<polygon fill="black" stroke="black" points="755.22,-169.5 745.22,-173 755.22,-176.5 755.22,-169.5"/>
</g>
<!-- DualModule -->
<g id="node5" class="node">
<title>DualModule</title>
<polygon fill="#8dd3c7" stroke="black" points="1015.26,-122 1012.26,-126 991.26,-126 988.26,-122 928.74,-122 928.74,-86 1015.26,-86 1015.26,-122"/>
<text text-anchor="middle" x="972" y="-99.8" font-family="Times,serif" font-size="14.00">DualModule</text>
</g>
<!-- DualModule&#45;&gt;ToolsNavbarModule -->
<g id="edge4" class="edge">
<title>DualModule&#45;&gt;ToolsNavbarModule</title>
<path fill="none" stroke="black" d="M972,-122.27C972,-140.56 972,-166 972,-166 972,-166 755.49,-166 755.49,-166"/>
<polygon fill="black" stroke="black" points="755.49,-162.5 745.49,-166 755.49,-169.5 755.49,-162.5"/>
</g>
<!-- MenubarModule -->
<g id="node6" class="node">
<title>MenubarModule</title>
<polygon fill="#8dd3c7" stroke="black" points="911.08,-122 908.08,-126 887.08,-126 884.08,-122 800.92,-122 800.92,-86 911.08,-86 911.08,-122"/>
<text text-anchor="middle" x="856" y="-99.8" font-family="Times,serif" font-size="14.00">MenubarModule</text>
</g>
<!-- MenubarModule&#45;&gt;ToolsNavbarModule -->
<g id="edge5" class="edge">
<title>MenubarModule&#45;&gt;ToolsNavbarModule</title>
<path fill="none" stroke="black" d="M856,-122.01C856,-138.05 856,-159 856,-159 856,-159 755.16,-159 755.16,-159"/>
<polygon fill="black" stroke="black" points="755.16,-155.5 745.16,-159 755.16,-162.5 755.16,-155.5"/>
</g>
<!-- MoonModule -->
<g id="node7" class="node">
<title>MoonModule</title>
<polygon fill="#8dd3c7" stroke="black" points="782.49,-122 779.49,-126 758.49,-126 755.49,-122 689.51,-122 689.51,-86 782.49,-86 782.49,-122"/>
<text text-anchor="middle" x="736" y="-99.8" font-family="Times,serif" font-size="14.00">MoonModule</text>
</g>
<!-- MoonModule&#45;&gt;ToolsNavbarModule -->
<g id="edge6" class="edge">
<title>MoonModule&#45;&gt;ToolsNavbarModule</title>
<path fill="none" stroke="black" d="M717.41,-122.11C717.41,-122.11 717.41,-140.99 717.41,-140.99"/>
<polygon fill="black" stroke="black" points="713.91,-140.99 717.41,-150.99 720.91,-140.99 713.91,-140.99"/>
</g>
<!-- ScatterModule -->
<g id="node8" class="node">
<title>ScatterModule</title>
<polygon fill="#8dd3c7" stroke="black" points="671.42,-122 668.42,-126 647.42,-126 644.42,-122 572.58,-122 572.58,-86 671.42,-86 671.42,-122"/>
<text text-anchor="middle" x="622" y="-99.8" font-family="Times,serif" font-size="14.00">ScatterModule</text>
</g>
<!-- ScatterModule&#45;&gt;ToolsNavbarModule -->
<g id="edge7" class="edge">
<title>ScatterModule&#45;&gt;ToolsNavbarModule</title>
<path fill="none" stroke="black" d="M641.95,-122.11C641.95,-122.11 641.95,-140.99 641.95,-140.99"/>
<polygon fill="black" stroke="black" points="638.45,-140.99 641.95,-150.99 645.45,-140.99 638.45,-140.99"/>
</g>
<!-- SpectrumModule -->
<g id="node9" class="node">
<title>SpectrumModule</title>
<polygon fill="#8dd3c7" stroke="black" points="554.7,-122 551.7,-126 530.7,-126 527.7,-122 441.3,-122 441.3,-86 554.7,-86 554.7,-122"/>
<text text-anchor="middle" x="498" y="-99.8" font-family="Times,serif" font-size="14.00">SpectrumModule</text>
</g>
<!-- SpectrumModule&#45;&gt;ToolsNavbarModule -->
<g id="edge8" class="edge">
<title>SpectrumModule&#45;&gt;ToolsNavbarModule</title>
<path fill="none" stroke="black" d="M498,-122.01C498,-138.05 498,-159 498,-159 498,-159 602.63,-159 602.63,-159"/>
<polygon fill="black" stroke="black" points="602.63,-162.5 612.63,-159 602.63,-155.5 602.63,-162.5"/>
</g>
<!-- VariableModule -->
<g id="node10" class="node">
<title>VariableModule</title>
<polygon fill="#8dd3c7" stroke="black" points="423.74,-122 420.74,-126 399.74,-126 396.74,-122 316.26,-122 316.26,-86 423.74,-86 423.74,-122"/>
<text text-anchor="middle" x="370" y="-99.8" font-family="Times,serif" font-size="14.00">VariableModule</text>
</g>
<!-- VariableModule&#45;&gt;ToolsNavbarModule -->
<g id="edge9" class="edge">
<title>VariableModule&#45;&gt;ToolsNavbarModule</title>
<path fill="none" stroke="black" d="M370,-122.27C370,-140.56 370,-166 370,-166 370,-166 602.71,-166 602.71,-166"/>
<polygon fill="black" stroke="black" points="602.71,-169.5 612.71,-166 602.71,-162.5 602.71,-169.5"/>
</g>
<!-- VenusModule -->
<g id="node11" class="node">
<title>VenusModule</title>
<polygon fill="#8dd3c7" stroke="black" points="297.82,-122 294.82,-126 273.82,-126 270.82,-122 202.18,-122 202.18,-86 297.82,-86 297.82,-122"/>
<text text-anchor="middle" x="250" y="-99.8" font-family="Times,serif" font-size="14.00">VenusModule</text>
</g>
<!-- VenusModule&#45;&gt;ToolsNavbarModule -->
<g id="edge10" class="edge">
<title>VenusModule&#45;&gt;ToolsNavbarModule</title>
<path fill="none" stroke="black" d="M250,-122.13C250,-142.57 250,-173 250,-173 250,-173 602.44,-173 602.44,-173"/>
<polygon fill="black" stroke="black" points="602.44,-176.5 612.44,-173 602.44,-169.5 602.44,-176.5"/>
</g>
</g>
</svg>
