<?xml version="1.0" encoding="UTF-8" standalone="no"?>
<!DOCTYPE svg PUBLIC "-//W3C//DTD SVG 1.1//EN"
 "http://www.w3.org/Graphics/SVG/1.1/DTD/svg11.dtd">
<!-- Generated by graphviz version 2.47.0 (20210316.0004)
 -->
<!-- Title: dependencies Pages: 1 -->
<svg width="713pt" height="284pt"
 viewBox="0.00 0.00 713.00 284.00" xmlns="http://www.w3.org/2000/svg" xmlns:xlink="http://www.w3.org/1999/xlink">
<g id="graph0" class="graph" transform="scale(1 1) rotate(0) translate(4 280)">
<title>dependencies</title>
<polygon fill="white" stroke="transparent" points="-4,4 -4,-280 709,-280 709,4 -4,4"/>
<text text-anchor="start" x="331.51" y="-42.4" font-family="Times-12" font-weight="bold" font-size="14.00">Legend</text>
<polygon fill="#ffffb3" stroke="transparent" points="118.5,-10 118.5,-30 138.5,-30 138.5,-10 118.5,-10"/>
<text text-anchor="start" x="142.13" y="-15.4" font-family="Times-12" font-size="14.00"> &#160;Declarations</text>
<polygon fill="#8dd3c7" stroke="transparent" points="231.5,-10 231.5,-30 251.5,-30 251.5,-10 231.5,-10"/>
<text text-anchor="start" x="255.23" y="-15.4" font-family="Times-12" font-size="14.00"> &#160;Module</text>
<polygon fill="#80b1d3" stroke="transparent" points="317.5,-10 317.5,-30 337.5,-30 337.5,-10 317.5,-10"/>
<text text-anchor="start" x="341.28" y="-15.4" font-family="Times-12" font-size="14.00"> &#160;Bootstrap</text>
<polygon fill="#fdb462" stroke="transparent" points="414.5,-10 414.5,-30 434.5,-30 434.5,-10 414.5,-10"/>
<text text-anchor="start" x="438.17" y="-15.4" font-family="Times-12" font-size="14.00"> &#160;Providers</text>
<polygon fill="#fb8072" stroke="transparent" points="510.5,-10 510.5,-30 530.5,-30 530.5,-10 510.5,-10"/>
<text text-anchor="start" x="534.23" y="-15.4" font-family="Times-12" font-size="14.00"> &#160;Exports</text>
<g id="clust1" class="cluster">
<title>cluster_ToolsNavbarModule</title>
<polygon fill="none" stroke="black" stroke-dasharray="1,5" points="8,-70 8,-268 697,-268 697,-70 8,-70"/>
</g>
<g id="clust4" class="cluster">
<title>cluster_ToolsNavbarModule_imports</title>
<polygon fill="none" stroke="black" points="194,-78 194,-130 689,-130 689,-78 194,-78"/>
</g>
<g id="clust2" class="cluster">
<title>cluster_ToolsNavbarModule_declarations</title>
<polygon fill="none" stroke="black" points="16,-78 16,-130 186,-130 186,-78 16,-78"/>
</g>
<g id="clust5" class="cluster">
<title>cluster_ToolsNavbarModule_exports</title>
<polygon fill="none" stroke="black" points="281,-208 281,-260 455,-260 455,-208 281,-208"/>
</g>
<!-- ToolsNavbarComponent -->
<g id="node1" class="node">
<title>ToolsNavbarComponent</title>
<polygon fill="#ffffb3" stroke="black" points="178.42,-122 23.58,-122 23.58,-86 178.42,-86 178.42,-122"/>
<text text-anchor="middle" x="101" y="-99.8" font-family="Times,serif" font-size="14.00">ToolsNavbarComponent</text>
</g>
<!-- ToolsNavbarModule -->
<g id="node2" class="node">
<title>ToolsNavbarModule</title>
<polygon fill="#8dd3c7" stroke="black" points="434.13,-187 431.13,-191 410.13,-191 407.13,-187 301.87,-187 301.87,-151 434.13,-151 434.13,-187"/>
<text text-anchor="middle" x="368" y="-164.8" font-family="Times,serif" font-size="14.00">ToolsNavbarModule</text>
</g>
<!-- ToolsNavbarComponent&#45;&gt;ToolsNavbarModule -->
<g id="edge1" class="edge">
<title>ToolsNavbarComponent&#45;&gt;ToolsNavbarModule</title>
<path fill="none" stroke="black" d="M101,-122.11C101,-141.34 101,-169 101,-169 101,-169 291.66,-169 291.66,-169"/>
<polygon fill="black" stroke="black" points="291.66,-172.5 301.66,-169 291.66,-165.5 291.66,-172.5"/>
</g>
<!-- ToolsNavbarComponent  -->
<g id="node7" class="node">
<title>ToolsNavbarComponent </title>
<polygon fill="#fb8072" stroke="black" points="446.92,-252 289.08,-252 289.08,-216 446.92,-216 446.92,-252"/>
<text text-anchor="middle" x="368" y="-229.8" font-family="Times,serif" font-size="14.00">ToolsNavbarComponent </text>
</g>
<!-- ToolsNavbarModule&#45;&gt;ToolsNavbarComponent  -->
<g id="edge6" class="edge">
<title>ToolsNavbarModule&#45;&gt;ToolsNavbarComponent </title>
<path fill="none" stroke="black" stroke-dasharray="5,2" d="M368,-187.11C368,-187.11 368,-205.99 368,-205.99"/>
<polygon fill="black" stroke="black" points="364.5,-205.99 368,-215.99 371.5,-205.99 364.5,-205.99"/>
</g>
<!-- AppRoutingModule -->
<g id="node3" class="node">
<title>AppRoutingModule</title>
<polygon fill="#8dd3c7" stroke="black" points="681.27,-122 678.27,-126 657.27,-126 654.27,-122 552.73,-122 552.73,-86 681.27,-86 681.27,-122"/>
<text text-anchor="middle" x="617" y="-99.8" font-family="Times,serif" font-size="14.00">AppRoutingModule</text>
</g>
<!-- AppRoutingModule&#45;&gt;ToolsNavbarModule -->
<g id="edge2" class="edge">
<title>AppRoutingModule&#45;&gt;ToolsNavbarModule</title>
<path fill="none" stroke="black" d="M617,-122.11C617,-141.34 617,-169 617,-169 617,-169 444.4,-169 444.4,-169"/>
<polygon fill="black" stroke="black" points="444.4,-165.5 434.4,-169 444.4,-172.5 444.4,-165.5"/>
</g>
<!-- CurveModule -->
<g id="node4" class="node">
<title>CurveModule</title>
<polygon fill="#8dd3c7" stroke="black" points="534.76,-122 531.76,-126 510.76,-126 507.76,-122 441.24,-122 441.24,-86 534.76,-86 534.76,-122"/>
<text text-anchor="middle" x="488" y="-99.8" font-family="Times,serif" font-size="14.00">CurveModule</text>
</g>
<!-- CurveModule&#45;&gt;ToolsNavbarModule -->
<g id="edge3" class="edge">
<title>CurveModule&#45;&gt;ToolsNavbarModule</title>
<path fill="none" stroke="black" d="M440.97,-104C433.77,-104 428.68,-104 428.68,-104 428.68,-104 428.68,-140.89 428.68,-140.89"/>
<polygon fill="black" stroke="black" points="425.18,-140.89 428.68,-150.89 432.18,-140.89 425.18,-140.89"/>
</g>
<!-- MenubarModule -->
<g id="node5" class="node">
<title>MenubarModule</title>
<polygon fill="#8dd3c7" stroke="black" points="423.08,-122 420.08,-126 399.08,-126 396.08,-122 312.92,-122 312.92,-86 423.08,-86 423.08,-122"/>
<text text-anchor="middle" x="368" y="-99.8" font-family="Times,serif" font-size="14.00">MenubarModule</text>
</g>
<!-- MenubarModule&#45;&gt;ToolsNavbarModule -->
<g id="edge4" class="edge">
<title>MenubarModule&#45;&gt;ToolsNavbarModule</title>
<path fill="none" stroke="black" d="M368,-122.11C368,-122.11 368,-140.99 368,-140.99"/>
<polygon fill="black" stroke="black" points="364.5,-140.99 368,-150.99 371.5,-140.99 364.5,-140.99"/>
</g>
<!-- MoonModule -->
<g id="node6" class="node">
<title>MoonModule</title>
<polygon fill="#8dd3c7" stroke="black" points="294.49,-122 291.49,-126 270.49,-126 267.49,-122 201.51,-122 201.51,-86 294.49,-86 294.49,-122"/>
<text text-anchor="middle" x="248" y="-99.8" font-family="Times,serif" font-size="14.00">MoonModule</text>
</g>
<!-- MoonModule&#45;&gt;ToolsNavbarModule -->
<g id="edge5" class="edge">
<title>MoonModule&#45;&gt;ToolsNavbarModule</title>
<path fill="none" stroke="black" d="M294.74,-104C302.09,-104 307.32,-104 307.32,-104 307.32,-104 307.32,-140.89 307.32,-140.89"/>
<polygon fill="black" stroke="black" points="303.82,-140.89 307.32,-150.89 310.82,-140.89 303.82,-140.89"/>
</g>
</g>
</svg>
