<?xml version="1.0" encoding="UTF-8" standalone="no"?>
<!DOCTYPE svg PUBLIC "-//W3C//DTD SVG 1.1//EN"
 "http://www.w3.org/Graphics/SVG/1.1/DTD/svg11.dtd">
<!-- Generated by graphviz version 2.47.0 (20210316.0004)
 -->
<!-- Title: dependencies Pages: 1 -->
<svg width="827pt" height="284pt"
 viewBox="0.00 0.00 827.00 284.00" xmlns="http://www.w3.org/2000/svg" xmlns:xlink="http://www.w3.org/1999/xlink">
<g id="graph0" class="graph" transform="scale(1 1) rotate(0) translate(4 280)">
<title>dependencies</title>
<polygon fill="white" stroke="transparent" points="-4,4 -4,-280 823,-280 823,4 -4,4"/>
<text text-anchor="start" x="388.51" y="-42.4" font-family="Times-12" font-weight="bold" font-size="14.00">Legend</text>
<polygon fill="#ffffb3" stroke="transparent" points="175.5,-10 175.5,-30 195.5,-30 195.5,-10 175.5,-10"/>
<text text-anchor="start" x="199.13" y="-15.4" font-family="Times-12" font-size="14.00"> &#160;Declarations</text>
<polygon fill="#8dd3c7" stroke="transparent" points="288.5,-10 288.5,-30 308.5,-30 308.5,-10 288.5,-10"/>
<text text-anchor="start" x="312.23" y="-15.4" font-family="Times-12" font-size="14.00"> &#160;Module</text>
<polygon fill="#80b1d3" stroke="transparent" points="374.5,-10 374.5,-30 394.5,-30 394.5,-10 374.5,-10"/>
<text text-anchor="start" x="398.28" y="-15.4" font-family="Times-12" font-size="14.00"> &#160;Bootstrap</text>
<polygon fill="#fdb462" stroke="transparent" points="471.5,-10 471.5,-30 491.5,-30 491.5,-10 471.5,-10"/>
<text text-anchor="start" x="495.17" y="-15.4" font-family="Times-12" font-size="14.00"> &#160;Providers</text>
<polygon fill="#fb8072" stroke="transparent" points="567.5,-10 567.5,-30 587.5,-30 587.5,-10 567.5,-10"/>
<text text-anchor="start" x="591.23" y="-15.4" font-family="Times-12" font-size="14.00"> &#160;Exports</text>
<g id="clust1" class="cluster">
<title>cluster_ToolsNavbarModule</title>
<polygon fill="none" stroke="black" stroke-dasharray="1,5" points="8,-70 8,-268 811,-268 811,-70 8,-70"/>
</g>
<g id="clust5" class="cluster">
<title>cluster_ToolsNavbarModule_exports</title>
<polygon fill="none" stroke="black" points="277,-208 277,-260 451,-260 451,-208 277,-208"/>
</g>
<g id="clust2" class="cluster">
<title>cluster_ToolsNavbarModule_declarations</title>
<polygon fill="none" stroke="black" points="633,-78 633,-130 803,-130 803,-78 633,-78"/>
</g>
<g id="clust4" class="cluster">
<title>cluster_ToolsNavbarModule_imports</title>
<polygon fill="none" stroke="black" points="16,-78 16,-130 625,-130 625,-78 16,-78"/>
</g>
<!-- ToolsNavbarComponent -->
<g id="node1" class="node">
<title>ToolsNavbarComponent</title>
<polygon fill="#ffffb3" stroke="black" points="795.42,-122 640.58,-122 640.58,-86 795.42,-86 795.42,-122"/>
<text text-anchor="middle" x="718" y="-99.8" font-family="Times,serif" font-size="14.00">ToolsNavbarComponent</text>
</g>
<!-- ToolsNavbarModule -->
<g id="node2" class="node">
<title>ToolsNavbarModule</title>
<polygon fill="#8dd3c7" stroke="black" points="430.13,-187 427.13,-191 406.13,-191 403.13,-187 297.87,-187 297.87,-151 430.13,-151 430.13,-187"/>
<text text-anchor="middle" x="364" y="-164.8" font-family="Times,serif" font-size="14.00">ToolsNavbarModule</text>
</g>
<!-- ToolsNavbarComponent&#45;&gt;ToolsNavbarModule -->
<g id="edge1" class="edge">
<title>ToolsNavbarComponent&#45;&gt;ToolsNavbarModule</title>
<path fill="none" stroke="black" d="M718,-122.28C718,-143.32 718,-175 718,-175 718,-175 440.17,-175 440.17,-175"/>
<polygon fill="black" stroke="black" points="440.17,-171.5 430.17,-175 440.17,-178.5 440.17,-171.5"/>
</g>
<!-- ToolsNavbarComponent  -->
<g id="node8" class="node">
<title>ToolsNavbarComponent </title>
<polygon fill="#fb8072" stroke="black" points="442.92,-252 285.08,-252 285.08,-216 442.92,-216 442.92,-252"/>
<text text-anchor="middle" x="364" y="-229.8" font-family="Times,serif" font-size="14.00">ToolsNavbarComponent </text>
</g>
<!-- ToolsNavbarModule&#45;&gt;ToolsNavbarComponent  -->
<g id="edge7" class="edge">
<title>ToolsNavbarModule&#45;&gt;ToolsNavbarComponent </title>
<path fill="none" stroke="black" stroke-dasharray="5,2" d="M364,-187.11C364,-187.11 364,-205.99 364,-205.99"/>
<polygon fill="black" stroke="black" points="360.5,-205.99 364,-215.99 367.5,-205.99 360.5,-205.99"/>
</g>
<!-- AppRoutingModule -->
<g id="node3" class="node">
<title>AppRoutingModule</title>
<polygon fill="#8dd3c7" stroke="black" points="617.27,-122 614.27,-126 593.27,-126 590.27,-122 488.73,-122 488.73,-86 617.27,-86 617.27,-122"/>
<text text-anchor="middle" x="553" y="-99.8" font-family="Times,serif" font-size="14.00">AppRoutingModule</text>
</g>
<!-- AppRoutingModule&#45;&gt;ToolsNavbarModule -->
<g id="edge2" class="edge">
<title>AppRoutingModule&#45;&gt;ToolsNavbarModule</title>
<path fill="none" stroke="black" d="M553,-122.02C553,-139.37 553,-163 553,-163 553,-163 440.37,-163 440.37,-163"/>
<polygon fill="black" stroke="black" points="440.37,-159.5 430.37,-163 440.37,-166.5 440.37,-159.5"/>
</g>
<!-- CurveModule -->
<g id="node4" class="node">
<title>CurveModule</title>
<polygon fill="#8dd3c7" stroke="black" points="470.76,-122 467.76,-126 446.76,-126 443.76,-122 377.24,-122 377.24,-86 470.76,-86 470.76,-122"/>
<text text-anchor="middle" x="424" y="-99.8" font-family="Times,serif" font-size="14.00">CurveModule</text>
</g>
<!-- CurveModule&#45;&gt;ToolsNavbarModule -->
<g id="edge3" class="edge">
<title>CurveModule&#45;&gt;ToolsNavbarModule</title>
<path fill="none" stroke="black" d="M403.72,-122.11C403.72,-122.11 403.72,-140.99 403.72,-140.99"/>
<polygon fill="black" stroke="black" points="400.22,-140.99 403.72,-150.99 407.22,-140.99 400.22,-140.99"/>
</g>
<!-- MenubarModule -->
<g id="node5" class="node">
<title>MenubarModule</title>
<polygon fill="#8dd3c7" stroke="black" points="359.08,-122 356.08,-126 335.08,-126 332.08,-122 248.92,-122 248.92,-86 359.08,-86 359.08,-122"/>
<text text-anchor="middle" x="304" y="-99.8" font-family="Times,serif" font-size="14.00">MenubarModule</text>
</g>
<!-- MenubarModule&#45;&gt;ToolsNavbarModule -->
<g id="edge4" class="edge">
<title>MenubarModule&#45;&gt;ToolsNavbarModule</title>
<path fill="none" stroke="black" d="M328.36,-122.11C328.36,-122.11 328.36,-140.99 328.36,-140.99"/>
<polygon fill="black" stroke="black" points="324.86,-140.99 328.36,-150.99 331.86,-140.99 324.86,-140.99"/>
</g>
<!-- MoonModule -->
<g id="node6" class="node">
<title>MoonModule</title>
<polygon fill="#8dd3c7" stroke="black" points="230.49,-122 227.49,-126 206.49,-126 203.49,-122 137.51,-122 137.51,-86 230.49,-86 230.49,-122"/>
<text text-anchor="middle" x="184" y="-99.8" font-family="Times,serif" font-size="14.00">MoonModule</text>
</g>
<!-- MoonModule&#45;&gt;ToolsNavbarModule -->
<g id="edge5" class="edge">
<title>MoonModule&#45;&gt;ToolsNavbarModule</title>
<path fill="none" stroke="black" d="M184,-122.02C184,-139.37 184,-163 184,-163 184,-163 287.74,-163 287.74,-163"/>
<polygon fill="black" stroke="black" points="287.74,-166.5 297.74,-163 287.74,-159.5 287.74,-166.5"/>
</g>
<!-- VenusModule -->
<g id="node7" class="node">
<title>VenusModule</title>
<polygon fill="#8dd3c7" stroke="black" points="119.82,-122 116.82,-126 95.82,-126 92.82,-122 24.18,-122 24.18,-86 119.82,-86 119.82,-122"/>
<text text-anchor="middle" x="72" y="-99.8" font-family="Times,serif" font-size="14.00">VenusModule</text>
</g>
<!-- VenusModule&#45;&gt;ToolsNavbarModule -->
<g id="edge6" class="edge">
<title>VenusModule&#45;&gt;ToolsNavbarModule</title>
<path fill="none" stroke="black" d="M72,-122.28C72,-143.32 72,-175 72,-175 72,-175 287.74,-175 287.74,-175"/>
<polygon fill="black" stroke="black" points="287.74,-178.5 297.74,-175 287.74,-171.5 287.74,-178.5"/>
</g>
</g>
</svg>
