<?xml version="1.0" encoding="UTF-8" standalone="no"?>
<!DOCTYPE svg PUBLIC "-//W3C//DTD SVG 1.1//EN"
 "http://www.w3.org/Graphics/SVG/1.1/DTD/svg11.dtd">
<!-- Generated by graphviz version 5.0.0 (20220707.1540)
 -->
<!-- Title: dependencies Pages: 1 -->
<svg width="602pt" height="247pt"
 viewBox="0.00 0.00 602.00 246.80" xmlns="http://www.w3.org/2000/svg" xmlns:xlink="http://www.w3.org/1999/xlink">
<g id="graph0" class="graph" transform="scale(1 1) rotate(0) translate(4 242.8)">
<title>dependencies</title>
<polygon fill="white" stroke="transparent" points="-4,4 -4,-242.8 598,-242.8 598,4 -4,4"/>
<text text-anchor="middle" x="297" y="-8.2" font-family="sans-serif" font-size="14.00">dependencies</text>
<g id="clust1" class="cluster">
<title>cluster_ToolsNavbarModule</title>
<polygon fill="none" stroke="black" stroke-dasharray="1,5" points="8,-32.8 8,-230.8 586,-230.8 586,-32.8 8,-32.8"/>
</g>
<g id="clust5" class="cluster">
<title>cluster_ToolsNavbarModule_exports</title>
<polygon fill="none" stroke="black" points="230,-170.8 230,-222.8 404,-222.8 404,-170.8 230,-170.8"/>
</g>
<g id="clust4" class="cluster">
<title>cluster_ToolsNavbarModule_imports</title>
<polygon fill="none" stroke="black" points="194,-40.8 194,-92.8 578,-92.8 578,-40.8 194,-40.8"/>
</g>
<g id="clust2" class="cluster">
<title>cluster_ToolsNavbarModule_declarations</title>
<polygon fill="none" stroke="black" points="16,-40.8 16,-92.8 186,-92.8 186,-40.8 16,-40.8"/>
</g>
<!-- ToolsNavbarComponent -->
<g id="node1" class="node">
<title>ToolsNavbarComponent</title>
<polygon fill="#ffffb3" stroke="black" points="178.42,-84.8 23.58,-84.8 23.58,-48.8 178.42,-48.8 178.42,-84.8"/>
<text text-anchor="middle" x="101" y="-62.6" font-family="Times,serif" font-size="14.00">ToolsNavbarComponent</text>
</g>
<!-- ToolsNavbarModule -->
<g id="node2" class="node">
<title>ToolsNavbarModule</title>
<polygon fill="#8dd3c7" stroke="black" points="383.14,-149.8 380.14,-153.8 359.14,-153.8 356.14,-149.8 250.86,-149.8 250.86,-113.8 383.14,-113.8 383.14,-149.8"/>
<text text-anchor="middle" x="317" y="-127.6" font-family="Times,serif" font-size="14.00">ToolsNavbarModule</text>
</g>
<!-- ToolsNavbarComponent&#45;&gt;ToolsNavbarModule -->
<g id="edge1" class="edge">
<title>ToolsNavbarComponent&#45;&gt;ToolsNavbarModule</title>
<path fill="none" stroke="black" d="M101,-84.91C101,-104.14 101,-131.8 101,-131.8 101,-131.8 240.72,-131.8 240.72,-131.8"/>
<polygon fill="black" stroke="black" points="240.72,-135.3 250.72,-131.8 240.72,-128.3 240.72,-135.3"/>
</g>
<!-- ToolsNavbarComponent  -->
<g id="node6" class="node">
<title>ToolsNavbarComponent </title>
<polygon fill="#fb8072" stroke="black" points="395.92,-214.8 238.08,-214.8 238.08,-178.8 395.92,-178.8 395.92,-214.8"/>
<text text-anchor="middle" x="317" y="-192.6" font-family="Times,serif" font-size="14.00">ToolsNavbarComponent </text>
</g>
<!-- ToolsNavbarModule&#45;&gt;ToolsNavbarComponent  -->
<g id="edge5" class="edge">
<title>ToolsNavbarModule&#45;&gt;ToolsNavbarComponent </title>
<path fill="none" stroke="black" stroke-dasharray="5,2" d="M317,-149.91C317,-149.91 317,-168.79 317,-168.79"/>
<polygon fill="black" stroke="black" points="313.5,-168.79 317,-178.79 320.5,-168.79 313.5,-168.79"/>
</g>
<!-- AppRoutingModule -->
<g id="node3" class="node">
<title>AppRoutingModule</title>
<polygon fill="#8dd3c7" stroke="black" points="570.28,-84.8 567.28,-88.8 546.28,-88.8 543.28,-84.8 441.72,-84.8 441.72,-48.8 570.28,-48.8 570.28,-84.8"/>
<text text-anchor="middle" x="506" y="-62.6" font-family="Times,serif" font-size="14.00">AppRoutingModule</text>
</g>
<!-- AppRoutingModule&#45;&gt;ToolsNavbarModule -->
<g id="edge2" class="edge">
<title>AppRoutingModule&#45;&gt;ToolsNavbarModule</title>
<path fill="none" stroke="black" d="M506,-84.91C506,-104.14 506,-131.8 506,-131.8 506,-131.8 393.37,-131.8 393.37,-131.8"/>
<polygon fill="black" stroke="black" points="393.37,-128.3 383.37,-131.8 393.37,-135.3 393.37,-128.3"/>
</g>
<!-- CurveModule -->
<g id="node4" class="node">
<title>CurveModule</title>
<polygon fill="#8dd3c7" stroke="black" points="423.77,-84.8 420.77,-88.8 399.77,-88.8 396.77,-84.8 330.23,-84.8 330.23,-48.8 423.77,-48.8 423.77,-84.8"/>
<text text-anchor="middle" x="377" y="-62.6" font-family="Times,serif" font-size="14.00">CurveModule</text>
</g>
<!-- CurveModule&#45;&gt;ToolsNavbarModule -->
<g id="edge3" class="edge">
<title>CurveModule&#45;&gt;ToolsNavbarModule</title>
<path fill="none" stroke="black" d="M356.72,-84.91C356.72,-84.91 356.72,-103.79 356.72,-103.79"/>
<polygon fill="black" stroke="black" points="353.22,-103.79 356.72,-113.79 360.22,-103.79 353.22,-103.79"/>
</g>
<!-- MenubarModule -->
<g id="node5" class="node">
<title>MenubarModule</title>
<polygon fill="#8dd3c7" stroke="black" points="312.09,-84.8 309.09,-88.8 288.09,-88.8 285.09,-84.8 201.91,-84.8 201.91,-48.8 312.09,-48.8 312.09,-84.8"/>
<text text-anchor="middle" x="257" y="-62.6" font-family="Times,serif" font-size="14.00">MenubarModule</text>
</g>
<!-- MenubarModule&#45;&gt;ToolsNavbarModule -->
<g id="edge4" class="edge">
<title>MenubarModule&#45;&gt;ToolsNavbarModule</title>
<path fill="none" stroke="black" d="M281.36,-84.91C281.36,-84.91 281.36,-103.79 281.36,-103.79"/>
<polygon fill="black" stroke="black" points="277.86,-103.79 281.36,-113.79 284.86,-103.79 277.86,-103.79"/>
</g>
</g>
</svg>
