<?xml version="1.0" encoding="UTF-8" standalone="no"?>
<!DOCTYPE svg PUBLIC "-//W3C//DTD SVG 1.1//EN"
 "http://www.w3.org/Graphics/SVG/1.1/DTD/svg11.dtd">
<!-- Generated by graphviz version 2.47.0 (20210316.0004)
 -->
<!-- Title: dependencies Pages: 1 -->
<svg width="1811pt" height="284pt"
 viewBox="0.00 0.00 1811.00 284.00" xmlns="http://www.w3.org/2000/svg" xmlns:xlink="http://www.w3.org/1999/xlink">
<g id="graph0" class="graph" transform="scale(1 1) rotate(0) translate(4 280)">
<title>dependencies</title>
<polygon fill="white" stroke="transparent" points="-4,4 -4,-280 1807,-280 1807,4 -4,4"/>
<text text-anchor="start" x="880.51" y="-42.4" font-family="Times-12" font-weight="bold" font-size="14.00">Legend</text>
<polygon fill="#ffffb3" stroke="transparent" points="667.5,-10 667.5,-30 687.5,-30 687.5,-10 667.5,-10"/>
<text text-anchor="start" x="691.13" y="-15.4" font-family="Times-12" font-size="14.00"> &#160;Declarations</text>
<polygon fill="#8dd3c7" stroke="transparent" points="780.5,-10 780.5,-30 800.5,-30 800.5,-10 780.5,-10"/>
<text text-anchor="start" x="804.23" y="-15.4" font-family="Times-12" font-size="14.00"> &#160;Module</text>
<polygon fill="#80b1d3" stroke="transparent" points="866.5,-10 866.5,-30 886.5,-30 886.5,-10 866.5,-10"/>
<text text-anchor="start" x="890.28" y="-15.4" font-family="Times-12" font-size="14.00"> &#160;Bootstrap</text>
<polygon fill="#fdb462" stroke="transparent" points="963.5,-10 963.5,-30 983.5,-30 983.5,-10 963.5,-10"/>
<text text-anchor="start" x="987.17" y="-15.4" font-family="Times-12" font-size="14.00"> &#160;Providers</text>
<polygon fill="#fb8072" stroke="transparent" points="1059.5,-10 1059.5,-30 1079.5,-30 1079.5,-10 1059.5,-10"/>
<text text-anchor="start" x="1083.23" y="-15.4" font-family="Times-12" font-size="14.00"> &#160;Exports</text>
<g id="clust1" class="cluster">
<title>cluster_CurveModule</title>
<polygon fill="none" stroke="black" stroke-dasharray="1,5" points="8,-70 8,-268 1795,-268 1795,-70 8,-70"/>
</g>
<g id="clust2" class="cluster">
<title>cluster_CurveModule_declarations</title>
<polygon fill="none" stroke="black" points="783,-78 783,-130 1787,-130 1787,-78 783,-78"/>
</g>
<g id="clust12" class="cluster">
<title>cluster_CurveModule_providers</title>
<polygon fill="none" stroke="black" points="394,-78 394,-130 775,-130 775,-78 394,-78"/>
</g>
<g id="clust10" class="cluster">
<title>cluster_CurveModule_exports</title>
<polygon fill="none" stroke="black" points="872,-208 872,-260 1008,-260 1008,-208 872,-208"/>
</g>
<g id="clust9" class="cluster">
<title>cluster_CurveModule_imports</title>
<polygon fill="none" stroke="black" points="16,-78 16,-130 386,-130 386,-78 16,-78"/>
</g>
<!-- CurveChartComponent -->
<g id="node1" class="node">
<title>CurveChartComponent</title>
<polygon fill="#ffffb3" stroke="black" points="1779.15,-122 1632.85,-122 1632.85,-86 1779.15,-86 1779.15,-122"/>
<text text-anchor="middle" x="1706" y="-99.8" font-family="Times,serif" font-size="14.00">CurveChartComponent</text>
</g>
<!-- CurveModule -->
<g id="node7" class="node">
<title>CurveModule</title>
<polygon fill="#8dd3c7" stroke="black" points="986.76,-187 983.76,-191 962.76,-191 959.76,-187 893.24,-187 893.24,-151 986.76,-151 986.76,-187"/>
<text text-anchor="middle" x="940" y="-164.8" font-family="Times,serif" font-size="14.00">CurveModule</text>
</g>
<!-- CurveChartComponent&#45;&gt;CurveModule -->
<g id="edge1" class="edge">
<title>CurveChartComponent&#45;&gt;CurveModule</title>
<path fill="none" stroke="black" d="M1706,-122.01C1706,-144.49 1706,-180 1706,-180 1706,-180 996.76,-180 996.76,-180"/>
<polygon fill="black" stroke="black" points="996.76,-176.5 986.76,-180 996.76,-183.5 996.76,-176.5"/>
</g>
<!-- CurveChartFormComponent -->
<g id="node2" class="node">
<title>CurveChartFormComponent</title>
<polygon fill="#ffffb3" stroke="black" points="1614.48,-122 1437.52,-122 1437.52,-86 1614.48,-86 1614.48,-122"/>
<text text-anchor="middle" x="1526" y="-99.8" font-family="Times,serif" font-size="14.00">CurveChartFormComponent</text>
</g>
<!-- CurveChartFormComponent&#45;&gt;CurveModule -->
<g id="edge2" class="edge">
<title>CurveChartFormComponent&#45;&gt;CurveModule</title>
<path fill="none" stroke="black" d="M1526,-122.13C1526,-142.57 1526,-173 1526,-173 1526,-173 996.96,-173 996.96,-173"/>
<polygon fill="black" stroke="black" points="996.96,-169.5 986.96,-173 996.96,-176.5 996.96,-169.5"/>
</g>
<!-- CurveComponent -->
<g id="node3" class="node">
<title>CurveComponent</title>
<polygon fill="#ffffb3" stroke="black" points="1419.55,-122 1304.45,-122 1304.45,-86 1419.55,-86 1419.55,-122"/>
<text text-anchor="middle" x="1362" y="-99.8" font-family="Times,serif" font-size="14.00">CurveComponent</text>
</g>
<!-- CurveComponent&#45;&gt;CurveModule -->
<g id="edge3" class="edge">
<title>CurveComponent&#45;&gt;CurveModule</title>
<path fill="none" stroke="black" d="M1362,-122.27C1362,-140.56 1362,-166 1362,-166 1362,-166 996.77,-166 996.77,-166"/>
<polygon fill="black" stroke="black" points="996.77,-162.5 986.77,-166 996.77,-169.5 996.77,-162.5"/>
</g>
<!-- CurveHighChartComponent -->
<g id="node4" class="node">
<title>CurveHighChartComponent</title>
<polygon fill="#ffffb3" stroke="black" points="1286.14,-122 1111.86,-122 1111.86,-86 1286.14,-86 1286.14,-122"/>
<text text-anchor="middle" x="1199" y="-99.8" font-family="Times,serif" font-size="14.00">CurveHighChartComponent</text>
</g>
<!-- CurveHighChartComponent&#45;&gt;CurveModule -->
<g id="edge4" class="edge">
<title>CurveHighChartComponent&#45;&gt;CurveModule</title>
<path fill="none" stroke="black" d="M1199,-122.01C1199,-138.05 1199,-159 1199,-159 1199,-159 996.9,-159 996.9,-159"/>
<polygon fill="black" stroke="black" points="996.9,-155.5 986.9,-159 996.9,-162.5 996.9,-155.5"/>
</g>
<!-- CurveTableComponent -->
<g id="node5" class="node">
<title>CurveTableComponent</title>
<polygon fill="#ffffb3" stroke="black" points="1093.92,-122 946.08,-122 946.08,-86 1093.92,-86 1093.92,-122"/>
<text text-anchor="middle" x="1020" y="-99.8" font-family="Times,serif" font-size="14.00">CurveTableComponent</text>
</g>
<!-- CurveTableComponent&#45;&gt;CurveModule -->
<g id="edge5" class="edge">
<title>CurveTableComponent&#45;&gt;CurveModule</title>
<path fill="none" stroke="black" d="M966.59,-122.11C966.59,-122.11 966.59,-140.99 966.59,-140.99"/>
<polygon fill="black" stroke="black" points="963.09,-140.99 966.59,-150.99 970.09,-140.99 963.09,-140.99"/>
</g>
<!-- LineFormComponent -->
<g id="node6" class="node">
<title>LineFormComponent</title>
<polygon fill="#ffffb3" stroke="black" points="928.82,-122 791.18,-122 791.18,-86 928.82,-86 928.82,-122"/>
<text text-anchor="middle" x="860" y="-99.8" font-family="Times,serif" font-size="14.00">LineFormComponent</text>
</g>
<!-- LineFormComponent&#45;&gt;CurveModule -->
<g id="edge6" class="edge">
<title>LineFormComponent&#45;&gt;CurveModule</title>
<path fill="none" stroke="black" d="M910.89,-122.11C910.89,-122.11 910.89,-140.99 910.89,-140.99"/>
<polygon fill="black" stroke="black" points="907.39,-140.99 910.89,-150.99 914.39,-140.99 907.39,-140.99"/>
</g>
<!-- CurveComponent  -->
<g id="node10" class="node">
<title>CurveComponent </title>
<polygon fill="#fb8072" stroke="black" points="999.54,-252 880.46,-252 880.46,-216 999.54,-216 999.54,-252"/>
<text text-anchor="middle" x="940" y="-229.8" font-family="Times,serif" font-size="14.00">CurveComponent </text>
</g>
<!-- CurveModule&#45;&gt;CurveComponent  -->
<g id="edge9" class="edge">
<title>CurveModule&#45;&gt;CurveComponent </title>
<path fill="none" stroke="black" stroke-dasharray="5,2" d="M940,-187.11C940,-187.11 940,-205.99 940,-205.99"/>
<polygon fill="black" stroke="black" points="936.5,-205.99 940,-215.99 943.5,-205.99 936.5,-205.99"/>
</g>
<!-- SimpleDataButtonModule -->
<g id="node8" class="node">
<title>SimpleDataButtonModule</title>
<polygon fill="#8dd3c7" stroke="black" points="377.76,-122 374.76,-126 353.76,-126 350.76,-122 214.24,-122 214.24,-86 377.76,-86 377.76,-122"/>
<text text-anchor="middle" x="296" y="-99.8" font-family="Times,serif" font-size="14.00">SimpleDataButtonModule</text>
</g>
<!-- SimpleDataButtonModule&#45;&gt;CurveModule -->
<g id="edge7" class="edge">
<title>SimpleDataButtonModule&#45;&gt;CurveModule</title>
<path fill="none" stroke="black" d="M296,-122.13C296,-142.57 296,-173 296,-173 296,-173 883.17,-173 883.17,-173"/>
<polygon fill="black" stroke="black" points="883.17,-176.5 893.17,-173 883.17,-169.5 883.17,-176.5"/>
</g>
<!-- SimpleGraphButtonModule -->
<g id="node9" class="node">
<title>SimpleGraphButtonModule</title>
<polygon fill="#8dd3c7" stroke="black" points="196.32,-122 193.32,-126 172.32,-126 169.32,-122 23.68,-122 23.68,-86 196.32,-86 196.32,-122"/>
<text text-anchor="middle" x="110" y="-99.8" font-family="Times,serif" font-size="14.00">SimpleGraphButtonModule</text>
</g>
<!-- SimpleGraphButtonModule&#45;&gt;CurveModule -->
<g id="edge8" class="edge">
<title>SimpleGraphButtonModule&#45;&gt;CurveModule</title>
<path fill="none" stroke="black" d="M110,-122.01C110,-144.49 110,-180 110,-180 110,-180 883,-180 883,-180"/>
<polygon fill="black" stroke="black" points="883,-183.5 893,-180 883,-176.5 883,-183.5"/>
</g>
<!-- CurveService -->
<g id="node11" class="node">
<title>CurveService</title>
<ellipse fill="#fdb462" stroke="black" cx="703" cy="-104" rx="63.68" ry="18"/>
<text text-anchor="middle" x="703" y="-99.8" font-family="Times,serif" font-size="14.00">CurveService</text>
</g>
<!-- CurveService&#45;&gt;CurveModule -->
<g id="edge10" class="edge">
<title>CurveService&#45;&gt;CurveModule</title>
<path fill="none" stroke="black" d="M703,-122.01C703,-138.05 703,-159 703,-159 703,-159 883.18,-159 883.18,-159"/>
<polygon fill="black" stroke="black" points="883.18,-162.5 893.18,-159 883.18,-155.5 883.18,-162.5"/>
</g>
<!-- HonorCodePopupService -->
<g id="node12" class="node">
<title>HonorCodePopupService</title>
<ellipse fill="#fdb462" stroke="black" cx="512" cy="-104" rx="109.96" ry="18"/>
<text text-anchor="middle" x="512" y="-99.8" font-family="Times,serif" font-size="14.00">HonorCodePopupService</text>
</g>
<!-- HonorCodePopupService&#45;&gt;CurveModule -->
<g id="edge11" class="edge">
<title>HonorCodePopupService&#45;&gt;CurveModule</title>
<path fill="none" stroke="black" d="M512,-122.27C512,-140.56 512,-166 512,-166 512,-166 882.97,-166 882.97,-166"/>
<polygon fill="black" stroke="black" points="882.97,-169.5 892.97,-166 882.97,-162.5 882.97,-169.5"/>
</g>
</g>
</svg>
