<?xml version="1.0" encoding="UTF-8" standalone="no"?>
<!DOCTYPE svg PUBLIC "-//W3C//DTD SVG 1.1//EN"
 "http://www.w3.org/Graphics/SVG/1.1/DTD/svg11.dtd">
<!-- Generated by graphviz version 5.0.0 (20220707.1540)
 -->
<!-- Title: dependencies Pages: 1 -->
<svg width="1354pt" height="247pt"
 viewBox="0.00 0.00 1354.00 246.80" xmlns="http://www.w3.org/2000/svg" xmlns:xlink="http://www.w3.org/1999/xlink">
<g id="graph0" class="graph" transform="scale(1 1) rotate(0) translate(4 242.8)">
<title>dependencies</title>
<polygon fill="white" stroke="transparent" points="-4,4 -4,-242.8 1350,-242.8 1350,4 -4,4"/>
<text text-anchor="middle" x="673" y="-8.2" font-family="sans-serif" font-size="14.00">dependencies</text>
<g id="clust1" class="cluster">
<title>cluster_CurveModule</title>
<polygon fill="none" stroke="black" stroke-dasharray="1,5" points="8,-32.8 8,-230.8 1338,-230.8 1338,-32.8 8,-32.8"/>
</g>
<g id="clust2" class="cluster">
<title>cluster_CurveModule_declarations</title>
<polygon fill="none" stroke="black" points="1198,-40.8 1198,-92.8 1330,-92.8 1330,-40.8 1198,-40.8"/>
</g>
<g id="clust4" class="cluster">
<title>cluster_CurveModule_imports</title>
<polygon fill="none" stroke="black" points="16,-40.8 16,-92.8 1190,-92.8 1190,-40.8 16,-40.8"/>
</g>
<g id="clust5" class="cluster">
<title>cluster_CurveModule_exports</title>
<polygon fill="none" stroke="black" points="663,-170.8 663,-222.8 799,-222.8 799,-170.8 663,-170.8"/>
</g>
<!-- CurveComponent -->
<g id="node1" class="node">
<title>CurveComponent</title>
<polygon fill="#ffffb3" stroke="black" points="1321.55,-84.8 1206.45,-84.8 1206.45,-48.8 1321.55,-48.8 1321.55,-84.8"/>
<text text-anchor="middle" x="1264" y="-62.6" font-family="Times,serif" font-size="14.00">CurveComponent</text>
</g>
<!-- CurveModule -->
<g id="node2" class="node">
<title>CurveModule</title>
<polygon fill="#8dd3c7" stroke="black" points="777.77,-149.8 774.77,-153.8 753.77,-153.8 750.77,-149.8 684.23,-149.8 684.23,-113.8 777.77,-113.8 777.77,-149.8"/>
<text text-anchor="middle" x="731" y="-127.6" font-family="Times,serif" font-size="14.00">CurveModule</text>
</g>
<!-- CurveComponent&#45;&gt;CurveModule -->
<g id="edge1" class="edge">
<title>CurveComponent&#45;&gt;CurveModule</title>
<path fill="none" stroke="black" d="M1264,-85.09C1264,-107.01 1264,-140.8 1264,-140.8 1264,-140.8 787.83,-140.8 787.83,-140.8"/>
<polygon fill="black" stroke="black" points="787.83,-137.3 777.83,-140.8 787.83,-144.3 787.83,-137.3"/>
</g>
<!-- CurveComponent  -->
<g id="node10" class="node">
<title>CurveComponent </title>
<polygon fill="#fb8072" stroke="black" points="790.54,-214.8 671.46,-214.8 671.46,-178.8 790.54,-178.8 790.54,-214.8"/>
<text text-anchor="middle" x="731" y="-192.6" font-family="Times,serif" font-size="14.00">CurveComponent </text>
</g>
<!-- CurveModule&#45;&gt;CurveComponent  -->
<g id="edge9" class="edge">
<title>CurveModule&#45;&gt;CurveComponent </title>
<path fill="none" stroke="black" stroke-dasharray="5,2" d="M731,-149.91C731,-149.91 731,-168.79 731,-168.79"/>
<polygon fill="black" stroke="black" points="727.5,-168.79 731,-178.79 734.5,-168.79 727.5,-168.79"/>
</g>
<!-- CurveChartModule -->
<g id="node3" class="node">
<title>CurveChartModule</title>
<polygon fill="#8dd3c7" stroke="black" points="1182.37,-84.8 1179.37,-88.8 1158.37,-88.8 1155.37,-84.8 1057.63,-84.8 1057.63,-48.8 1182.37,-48.8 1182.37,-84.8"/>
<text text-anchor="middle" x="1120" y="-62.6" font-family="Times,serif" font-size="14.00">CurveChartModule</text>
</g>
<!-- CurveChartModule&#45;&gt;CurveModule -->
<g id="edge2" class="edge">
<title>CurveChartModule&#45;&gt;CurveModule</title>
<path fill="none" stroke="black" d="M1120,-84.91C1120,-104.14 1120,-131.8 1120,-131.8 1120,-131.8 787.92,-131.8 787.92,-131.8"/>
<polygon fill="black" stroke="black" points="787.92,-128.3 777.92,-131.8 787.92,-135.3 787.92,-128.3"/>
</g>
<!-- LineFormModule -->
<g id="node4" class="node">
<title>LineFormModule</title>
<polygon fill="#8dd3c7" stroke="black" points="1039.55,-84.8 1036.55,-88.8 1015.55,-88.8 1012.55,-84.8 924.45,-84.8 924.45,-48.8 1039.55,-48.8 1039.55,-84.8"/>
<text text-anchor="middle" x="982" y="-62.6" font-family="Times,serif" font-size="14.00">LineFormModule</text>
</g>
<!-- LineFormModule&#45;&gt;CurveModule -->
<g id="edge3" class="edge">
<title>LineFormModule&#45;&gt;CurveModule</title>
<path fill="none" stroke="black" d="M982,-84.83C982,-101.2 982,-122.8 982,-122.8 982,-122.8 787.92,-122.8 787.92,-122.8"/>
<polygon fill="black" stroke="black" points="787.92,-119.3 777.92,-122.8 787.92,-126.3 787.92,-119.3"/>
</g>
<!-- SimpleDataButtonModule -->
<g id="node5" class="node">
<title>SimpleDataButtonModule</title>
<polygon fill="#8dd3c7" stroke="black" points="905.77,-84.8 902.77,-88.8 881.77,-88.8 878.77,-84.8 742.23,-84.8 742.23,-48.8 905.77,-48.8 905.77,-84.8"/>
<text text-anchor="middle" x="824" y="-62.6" font-family="Times,serif" font-size="14.00">SimpleDataButtonModule</text>
</g>
<!-- SimpleDataButtonModule&#45;&gt;CurveModule -->
<g id="edge4" class="edge">
<title>SimpleDataButtonModule&#45;&gt;CurveModule</title>
<path fill="none" stroke="black" d="M760,-84.91C760,-84.91 760,-103.79 760,-103.79"/>
<polygon fill="black" stroke="black" points="756.5,-103.79 760,-113.79 763.5,-103.79 756.5,-103.79"/>
</g>
<!-- SimpleGraphButtonModule -->
<g id="node6" class="node">
<title>SimpleGraphButtonModule</title>
<polygon fill="#8dd3c7" stroke="black" points="724.32,-84.8 721.32,-88.8 700.32,-88.8 697.32,-84.8 551.68,-84.8 551.68,-48.8 724.32,-48.8 724.32,-84.8"/>
<text text-anchor="middle" x="638" y="-62.6" font-family="Times,serif" font-size="14.00">SimpleGraphButtonModule</text>
</g>
<!-- SimpleGraphButtonModule&#45;&gt;CurveModule -->
<g id="edge5" class="edge">
<title>SimpleGraphButtonModule&#45;&gt;CurveModule</title>
<path fill="none" stroke="black" d="M704.14,-84.91C704.14,-84.91 704.14,-103.79 704.14,-103.79"/>
<polygon fill="black" stroke="black" points="700.64,-103.79 704.14,-113.79 707.64,-103.79 700.64,-103.79"/>
</g>
<!-- SimpleTableImplModule -->
<g id="node7" class="node">
<title>SimpleTableImplModule</title>
<polygon fill="#8dd3c7" stroke="black" points="533.53,-84.8 530.53,-88.8 509.53,-88.8 506.53,-84.8 376.47,-84.8 376.47,-48.8 533.53,-48.8 533.53,-84.8"/>
<text text-anchor="middle" x="455" y="-62.6" font-family="Times,serif" font-size="14.00">SimpleTableImplModule</text>
</g>
<!-- SimpleTableImplModule&#45;&gt;CurveModule -->
<g id="edge6" class="edge">
<title>SimpleTableImplModule&#45;&gt;CurveModule</title>
<path fill="none" stroke="black" d="M455,-84.83C455,-101.2 455,-122.8 455,-122.8 455,-122.8 674.18,-122.8 674.18,-122.8"/>
<polygon fill="black" stroke="black" points="674.18,-126.3 684.18,-122.8 674.18,-119.3 674.18,-126.3"/>
</g>
<!-- StandardGraphInfoModule -->
<g id="node8" class="node">
<title>StandardGraphInfoModule</title>
<polygon fill="#8dd3c7" stroke="black" points="357.63,-84.8 354.63,-88.8 333.63,-88.8 330.63,-84.8 190.37,-84.8 190.37,-48.8 357.63,-48.8 357.63,-84.8"/>
<text text-anchor="middle" x="274" y="-62.6" font-family="Times,serif" font-size="14.00">StandardGraphInfoModule</text>
</g>
<!-- StandardGraphInfoModule&#45;&gt;CurveModule -->
<g id="edge7" class="edge">
<title>StandardGraphInfoModule&#45;&gt;CurveModule</title>
<path fill="none" stroke="black" d="M274,-84.91C274,-104.14 274,-131.8 274,-131.8 274,-131.8 673.81,-131.8 673.81,-131.8"/>
<polygon fill="black" stroke="black" points="673.81,-135.3 683.81,-131.8 673.81,-128.3 673.81,-135.3"/>
</g>
<!-- StandardLayoutModule -->
<g id="node9" class="node">
<title>StandardLayoutModule</title>
<polygon fill="#8dd3c7" stroke="black" points="172.47,-84.8 169.47,-88.8 148.47,-88.8 145.47,-84.8 23.53,-84.8 23.53,-48.8 172.47,-48.8 172.47,-84.8"/>
<text text-anchor="middle" x="98" y="-62.6" font-family="Times,serif" font-size="14.00">StandardLayoutModule</text>
</g>
<!-- StandardLayoutModule&#45;&gt;CurveModule -->
<g id="edge8" class="edge">
<title>StandardLayoutModule&#45;&gt;CurveModule</title>
<path fill="none" stroke="black" d="M98,-85.09C98,-107.01 98,-140.8 98,-140.8 98,-140.8 674.2,-140.8 674.2,-140.8"/>
<polygon fill="black" stroke="black" points="674.2,-144.3 684.2,-140.8 674.2,-137.3 674.2,-144.3"/>
</g>
</g>
</svg>
