<?xml version="1.0" encoding="UTF-8" standalone="no"?>
<!DOCTYPE svg PUBLIC "-//W3C//DTD SVG 1.1//EN"
 "http://www.w3.org/Graphics/SVG/1.1/DTD/svg11.dtd">
<!-- Generated by graphviz version 2.47.0 (20210316.0004)
 -->
<!-- Title: dependencies Pages: 1 -->
<svg width="1574pt" height="284pt"
 viewBox="0.00 0.00 1574.00 284.00" xmlns="http://www.w3.org/2000/svg" xmlns:xlink="http://www.w3.org/1999/xlink">
<g id="graph0" class="graph" transform="scale(1 1) rotate(0) translate(4 280)">
<title>dependencies</title>
<polygon fill="white" stroke="transparent" points="-4,4 -4,-280 1570,-280 1570,4 -4,4"/>
<text text-anchor="start" x="762.01" y="-42.4" font-family="Times-12" font-weight="bold" font-size="14.00">Legend</text>
<polygon fill="#ffffb3" stroke="transparent" points="549,-10 549,-30 569,-30 569,-10 549,-10"/>
<text text-anchor="start" x="572.63" y="-15.4" font-family="Times-12" font-size="14.00"> &#160;Declarations</text>
<polygon fill="#8dd3c7" stroke="transparent" points="662,-10 662,-30 682,-30 682,-10 662,-10"/>
<text text-anchor="start" x="685.73" y="-15.4" font-family="Times-12" font-size="14.00"> &#160;Module</text>
<polygon fill="#80b1d3" stroke="transparent" points="748,-10 748,-30 768,-30 768,-10 748,-10"/>
<text text-anchor="start" x="771.78" y="-15.4" font-family="Times-12" font-size="14.00"> &#160;Bootstrap</text>
<polygon fill="#fdb462" stroke="transparent" points="845,-10 845,-30 865,-30 865,-10 845,-10"/>
<text text-anchor="start" x="868.67" y="-15.4" font-family="Times-12" font-size="14.00"> &#160;Providers</text>
<polygon fill="#fb8072" stroke="transparent" points="941,-10 941,-30 961,-30 961,-10 941,-10"/>
<text text-anchor="start" x="964.73" y="-15.4" font-family="Times-12" font-size="14.00"> &#160;Exports</text>
<g id="clust1" class="cluster">
<title>cluster_CurveModule</title>
<polygon fill="none" stroke="black" stroke-dasharray="1,5" points="8,-70 8,-268 1558,-268 1558,-70 8,-70"/>
</g>
<g id="clust2" class="cluster">
<title>cluster_CurveModule_declarations</title>
<polygon fill="none" stroke="black" points="546,-78 546,-130 1550,-130 1550,-78 546,-78"/>
</g>
<g id="clust9" class="cluster">
<title>cluster_CurveModule_imports</title>
<polygon fill="none" stroke="black" points="168,-78 168,-130 538,-130 538,-78 168,-78"/>
</g>
<g id="clust10" class="cluster">
<title>cluster_CurveModule_exports</title>
<polygon fill="none" stroke="black" points="715,-208 715,-260 851,-260 851,-208 715,-208"/>
</g>
<g id="clust12" class="cluster">
<title>cluster_CurveModule_providers</title>
<polygon fill="none" stroke="black" points="16,-78 16,-130 160,-130 160,-78 16,-78"/>
</g>
<!-- CurveChartComponent -->
<g id="node1" class="node">
<title>CurveChartComponent</title>
<polygon fill="#ffffb3" stroke="black" points="1542.15,-122 1395.85,-122 1395.85,-86 1542.15,-86 1542.15,-122"/>
<text text-anchor="middle" x="1469" y="-99.8" font-family="Times,serif" font-size="14.00">CurveChartComponent</text>
</g>
<!-- CurveModule -->
<g id="node7" class="node">
<title>CurveModule</title>
<polygon fill="#8dd3c7" stroke="black" points="829.76,-187 826.76,-191 805.76,-191 802.76,-187 736.24,-187 736.24,-151 829.76,-151 829.76,-187"/>
<text text-anchor="middle" x="783" y="-164.8" font-family="Times,serif" font-size="14.00">CurveModule</text>
</g>
<!-- CurveChartComponent&#45;&gt;CurveModule -->
<g id="edge1" class="edge">
<title>CurveChartComponent&#45;&gt;CurveModule</title>
<path fill="none" stroke="black" d="M1469,-122.01C1469,-144.49 1469,-180 1469,-180 1469,-180 839.88,-180 839.88,-180"/>
<polygon fill="black" stroke="black" points="839.88,-176.5 829.88,-180 839.88,-183.5 839.88,-176.5"/>
</g>
<!-- CurveChartFormComponent -->
<g id="node2" class="node">
<title>CurveChartFormComponent</title>
<polygon fill="#ffffb3" stroke="black" points="1377.48,-122 1200.52,-122 1200.52,-86 1377.48,-86 1377.48,-122"/>
<text text-anchor="middle" x="1289" y="-99.8" font-family="Times,serif" font-size="14.00">CurveChartFormComponent</text>
</g>
<!-- CurveChartFormComponent&#45;&gt;CurveModule -->
<g id="edge2" class="edge">
<title>CurveChartFormComponent&#45;&gt;CurveModule</title>
<path fill="none" stroke="black" d="M1289,-122.13C1289,-142.57 1289,-173 1289,-173 1289,-173 840.15,-173 840.15,-173"/>
<polygon fill="black" stroke="black" points="840.15,-169.5 830.15,-173 840.15,-176.5 840.15,-169.5"/>
</g>
<!-- CurveComponent -->
<g id="node3" class="node">
<title>CurveComponent</title>
<polygon fill="#ffffb3" stroke="black" points="1182.55,-122 1067.45,-122 1067.45,-86 1182.55,-86 1182.55,-122"/>
<text text-anchor="middle" x="1125" y="-99.8" font-family="Times,serif" font-size="14.00">CurveComponent</text>
</g>
<!-- CurveComponent&#45;&gt;CurveModule -->
<g id="edge3" class="edge">
<title>CurveComponent&#45;&gt;CurveModule</title>
<path fill="none" stroke="black" d="M1125,-122.27C1125,-140.56 1125,-166 1125,-166 1125,-166 839.84,-166 839.84,-166"/>
<polygon fill="black" stroke="black" points="839.84,-162.5 829.84,-166 839.84,-169.5 839.84,-162.5"/>
</g>
<!-- CurveHighChartComponent -->
<g id="node4" class="node">
<title>CurveHighChartComponent</title>
<polygon fill="#ffffb3" stroke="black" points="1049.14,-122 874.86,-122 874.86,-86 1049.14,-86 1049.14,-122"/>
<text text-anchor="middle" x="962" y="-99.8" font-family="Times,serif" font-size="14.00">CurveHighChartComponent</text>
</g>
<!-- CurveHighChartComponent&#45;&gt;CurveModule -->
<g id="edge4" class="edge">
<title>CurveHighChartComponent&#45;&gt;CurveModule</title>
<path fill="none" stroke="black" d="M962,-122.01C962,-138.05 962,-159 962,-159 962,-159 840.03,-159 840.03,-159"/>
<polygon fill="black" stroke="black" points="840.03,-155.5 830.03,-159 840.03,-162.5 840.03,-155.5"/>
</g>
<!-- CurveTableComponent -->
<g id="node5" class="node">
<title>CurveTableComponent</title>
<polygon fill="#ffffb3" stroke="black" points="856.92,-122 709.08,-122 709.08,-86 856.92,-86 856.92,-122"/>
<text text-anchor="middle" x="783" y="-99.8" font-family="Times,serif" font-size="14.00">CurveTableComponent</text>
</g>
<!-- CurveTableComponent&#45;&gt;CurveModule -->
<g id="edge5" class="edge">
<title>CurveTableComponent&#45;&gt;CurveModule</title>
<path fill="none" stroke="black" d="M783,-122.11C783,-122.11 783,-140.99 783,-140.99"/>
<polygon fill="black" stroke="black" points="779.5,-140.99 783,-150.99 786.5,-140.99 779.5,-140.99"/>
</g>
<!-- LineFormComponent -->
<g id="node6" class="node">
<title>LineFormComponent</title>
<polygon fill="#ffffb3" stroke="black" points="691.82,-122 554.18,-122 554.18,-86 691.82,-86 691.82,-122"/>
<text text-anchor="middle" x="623" y="-99.8" font-family="Times,serif" font-size="14.00">LineFormComponent</text>
</g>
<!-- LineFormComponent&#45;&gt;CurveModule -->
<g id="edge6" class="edge">
<title>LineFormComponent&#45;&gt;CurveModule</title>
<path fill="none" stroke="black" d="M623,-122.01C623,-138.05 623,-159 623,-159 623,-159 725.86,-159 725.86,-159"/>
<polygon fill="black" stroke="black" points="725.86,-162.5 735.86,-159 725.86,-155.5 725.86,-162.5"/>
</g>
<!-- CurveComponent  -->
<g id="node10" class="node">
<title>CurveComponent </title>
<polygon fill="#fb8072" stroke="black" points="842.54,-252 723.46,-252 723.46,-216 842.54,-216 842.54,-252"/>
<text text-anchor="middle" x="783" y="-229.8" font-family="Times,serif" font-size="14.00">CurveComponent </text>
</g>
<!-- CurveModule&#45;&gt;CurveComponent  -->
<g id="edge9" class="edge">
<title>CurveModule&#45;&gt;CurveComponent </title>
<path fill="none" stroke="black" stroke-dasharray="5,2" d="M783,-187.11C783,-187.11 783,-205.99 783,-205.99"/>
<polygon fill="black" stroke="black" points="779.5,-205.99 783,-215.99 786.5,-205.99 779.5,-205.99"/>
</g>
<!-- SimpleDataButtonModule -->
<g id="node8" class="node">
<title>SimpleDataButtonModule</title>
<polygon fill="#8dd3c7" stroke="black" points="529.76,-122 526.76,-126 505.76,-126 502.76,-122 366.24,-122 366.24,-86 529.76,-86 529.76,-122"/>
<text text-anchor="middle" x="448" y="-99.8" font-family="Times,serif" font-size="14.00">SimpleDataButtonModule</text>
</g>
<!-- SimpleDataButtonModule&#45;&gt;CurveModule -->
<g id="edge7" class="edge">
<title>SimpleDataButtonModule&#45;&gt;CurveModule</title>
<path fill="none" stroke="black" d="M448,-122.27C448,-140.56 448,-166 448,-166 448,-166 726.07,-166 726.07,-166"/>
<polygon fill="black" stroke="black" points="726.07,-169.5 736.07,-166 726.07,-162.5 726.07,-169.5"/>
</g>
<!-- SimpleGraphButtonModule -->
<g id="node9" class="node">
<title>SimpleGraphButtonModule</title>
<polygon fill="#8dd3c7" stroke="black" points="348.32,-122 345.32,-126 324.32,-126 321.32,-122 175.68,-122 175.68,-86 348.32,-86 348.32,-122"/>
<text text-anchor="middle" x="262" y="-99.8" font-family="Times,serif" font-size="14.00">SimpleGraphButtonModule</text>
</g>
<!-- SimpleGraphButtonModule&#45;&gt;CurveModule -->
<g id="edge8" class="edge">
<title>SimpleGraphButtonModule&#45;&gt;CurveModule</title>
<path fill="none" stroke="black" d="M262,-122.13C262,-142.57 262,-173 262,-173 262,-173 725.85,-173 725.85,-173"/>
<polygon fill="black" stroke="black" points="725.85,-176.5 735.85,-173 725.85,-169.5 725.85,-176.5"/>
</g>
<!-- CurveService -->
<g id="node11" class="node">
<title>CurveService</title>
<ellipse fill="#fdb462" stroke="black" cx="88" cy="-104" rx="63.68" ry="18"/>
<text text-anchor="middle" x="88" y="-99.8" font-family="Times,serif" font-size="14.00">CurveService</text>
</g>
<!-- CurveService&#45;&gt;CurveModule -->
<g id="edge10" class="edge">
<title>CurveService&#45;&gt;CurveModule</title>
<path fill="none" stroke="black" d="M88,-122.01C88,-144.49 88,-180 88,-180 88,-180 726.05,-180 726.05,-180"/>
<polygon fill="black" stroke="black" points="726.05,-183.5 736.05,-180 726.05,-176.5 726.05,-183.5"/>
</g>
</g>
</svg>
