<?xml version="1.0" encoding="UTF-8" standalone="no"?>
<!DOCTYPE svg PUBLIC "-//W3C//DTD SVG 1.1//EN"
 "http://www.w3.org/Graphics/SVG/1.1/DTD/svg11.dtd">
<!-- Generated by graphviz version 2.47.0 (20210316.0004)
 -->
<!-- Title: dependencies Pages: 1 -->
<svg width="1869pt" height="211pt"
 viewBox="0.00 0.00 1869.00 211.00" xmlns="http://www.w3.org/2000/svg" xmlns:xlink="http://www.w3.org/1999/xlink">
<g id="graph0" class="graph" transform="scale(1 1) rotate(0) translate(4 207)">
<title>dependencies</title>
<polygon fill="white" stroke="transparent" points="-4,4 -4,-207 1865,-207 1865,4 -4,4"/>
<text text-anchor="start" x="909.51" y="-42.4" font-family="Times-12" font-weight="bold" font-size="14.00">Legend</text>
<polygon fill="#ffffb3" stroke="transparent" points="696.5,-10 696.5,-30 716.5,-30 716.5,-10 696.5,-10"/>
<text text-anchor="start" x="720.13" y="-15.4" font-family="Times-12" font-size="14.00"> &#160;Declarations</text>
<polygon fill="#8dd3c7" stroke="transparent" points="809.5,-10 809.5,-30 829.5,-30 829.5,-10 809.5,-10"/>
<text text-anchor="start" x="833.23" y="-15.4" font-family="Times-12" font-size="14.00"> &#160;Module</text>
<polygon fill="#80b1d3" stroke="transparent" points="895.5,-10 895.5,-30 915.5,-30 915.5,-10 895.5,-10"/>
<text text-anchor="start" x="919.28" y="-15.4" font-family="Times-12" font-size="14.00"> &#160;Bootstrap</text>
<polygon fill="#fdb462" stroke="transparent" points="992.5,-10 992.5,-30 1012.5,-30 1012.5,-10 992.5,-10"/>
<text text-anchor="start" x="1016.17" y="-15.4" font-family="Times-12" font-size="14.00"> &#160;Providers</text>
<polygon fill="#fb8072" stroke="transparent" points="1088.5,-10 1088.5,-30 1108.5,-30 1108.5,-10 1088.5,-10"/>
<text text-anchor="start" x="1112.23" y="-15.4" font-family="Times-12" font-size="14.00"> &#160;Exports</text>
<g id="clust1" class="cluster">
<title>cluster_MoonModule</title>
<polygon fill="none" stroke="black" stroke-dasharray="1,5" points="8,-70 8,-195 1853,-195 1853,-70 8,-70"/>
</g>
<g id="clust8" class="cluster">
<title>cluster_MoonModule_imports</title>
<polygon fill="none" stroke="black" points="1253,-78 1253,-130 1845,-130 1845,-78 1253,-78"/>
</g>
<g id="clust2" class="cluster">
<title>cluster_MoonModule_declarations</title>
<polygon fill="none" stroke="black" points="404,-78 404,-130 1245,-130 1245,-78 404,-78"/>
</g>
<g id="clust11" class="cluster">
<title>cluster_MoonModule_providers</title>
<polygon fill="none" stroke="black" points="16,-78 16,-130 396,-130 396,-78 16,-78"/>
</g>
<!-- MoonChartFormComponent -->
<g id="node1" class="node">
<title>MoonChartFormComponent</title>
<polygon fill="#ffffb3" stroke="black" points="1237.21,-122 1060.79,-122 1060.79,-86 1237.21,-86 1237.21,-122"/>
<text text-anchor="middle" x="1149" y="-99.8" font-family="Times,serif" font-size="14.00">MoonChartFormComponent</text>
</g>
<!-- MoonModule -->
<g id="node6" class="node">
<title>MoonModule</title>
<polygon fill="#8dd3c7" stroke="black" points="1032.49,-187 1029.49,-191 1008.49,-191 1005.49,-187 939.51,-187 939.51,-151 1032.49,-151 1032.49,-187"/>
<text text-anchor="middle" x="986" y="-164.8" font-family="Times,serif" font-size="14.00">MoonModule</text>
</g>
<!-- MoonChartFormComponent&#45;&gt;MoonModule -->
<g id="edge1" class="edge">
<title>MoonChartFormComponent&#45;&gt;MoonModule</title>
<path fill="none" stroke="black" d="M1149,-122.24C1149,-137.57 1149,-157 1149,-157 1149,-157 1042.71,-157 1042.71,-157"/>
<polygon fill="black" stroke="black" points="1042.71,-153.5 1032.71,-157 1042.71,-160.5 1042.71,-153.5"/>
</g>
<!-- MoonComponent -->
<g id="node2" class="node">
<title>MoonComponent</title>
<polygon fill="#ffffb3" stroke="black" points="1043.28,-122 928.72,-122 928.72,-86 1043.28,-86 1043.28,-122"/>
<text text-anchor="middle" x="986" y="-99.8" font-family="Times,serif" font-size="14.00">MoonComponent</text>
</g>
<!-- MoonComponent&#45;&gt;MoonModule -->
<g id="edge2" class="edge">
<title>MoonComponent&#45;&gt;MoonModule</title>
<path fill="none" stroke="black" d="M986,-122.11C986,-122.11 986,-140.99 986,-140.99"/>
<polygon fill="black" stroke="black" points="982.5,-140.99 986,-150.99 989.5,-140.99 982.5,-140.99"/>
</g>
<!-- MoonFormComponent -->
<g id="node3" class="node">
<title>MoonFormComponent</title>
<polygon fill="#ffffb3" stroke="black" points="910.61,-122 765.39,-122 765.39,-86 910.61,-86 910.61,-122"/>
<text text-anchor="middle" x="838" y="-99.8" font-family="Times,serif" font-size="14.00">MoonFormComponent</text>
</g>
<!-- MoonFormComponent&#45;&gt;MoonModule -->
<g id="edge3" class="edge">
<title>MoonFormComponent&#45;&gt;MoonModule</title>
<path fill="none" stroke="black" d="M838,-122.24C838,-137.57 838,-157 838,-157 838,-157 929.17,-157 929.17,-157"/>
<polygon fill="black" stroke="black" points="929.17,-160.5 939.17,-157 929.17,-153.5 929.17,-160.5"/>
</g>
<!-- MoonHighchartComponent -->
<g id="node4" class="node">
<title>MoonHighchartComponent</title>
<polygon fill="#ffffb3" stroke="black" points="747.25,-122 576.75,-122 576.75,-86 747.25,-86 747.25,-122"/>
<text text-anchor="middle" x="662" y="-99.8" font-family="Times,serif" font-size="14.00">MoonHighchartComponent</text>
</g>
<!-- MoonHighchartComponent&#45;&gt;MoonModule -->
<g id="edge4" class="edge">
<title>MoonHighchartComponent&#45;&gt;MoonModule</title>
<path fill="none" stroke="black" d="M662,-122.02C662,-139.37 662,-163 662,-163 662,-163 929.23,-163 929.23,-163"/>
<polygon fill="black" stroke="black" points="929.23,-166.5 939.23,-163 929.23,-159.5 929.23,-166.5"/>
</g>
<!-- MoonTableComponent -->
<g id="node5" class="node">
<title>MoonTableComponent</title>
<polygon fill="#ffffb3" stroke="black" points="558.15,-122 411.85,-122 411.85,-86 558.15,-86 558.15,-122"/>
<text text-anchor="middle" x="485" y="-99.8" font-family="Times,serif" font-size="14.00">MoonTableComponent</text>
</g>
<!-- MoonTableComponent&#45;&gt;MoonModule -->
<g id="edge5" class="edge">
<title>MoonTableComponent&#45;&gt;MoonModule</title>
<path fill="none" stroke="black" d="M485,-122.11C485,-141.34 485,-169 485,-169 485,-169 929.32,-169 929.32,-169"/>
<polygon fill="black" stroke="black" points="929.32,-172.5 939.32,-169 929.32,-165.5 929.32,-172.5"/>
</g>
<!-- InterfaceUtilModule -->
<g id="node7" class="node">
<title>InterfaceUtilModule</title>
<polygon fill="#8dd3c7" stroke="black" points="1836.56,-122 1833.56,-126 1812.56,-126 1809.56,-122 1705.44,-122 1705.44,-86 1836.56,-86 1836.56,-122"/>
<text text-anchor="middle" x="1771" y="-99.8" font-family="Times,serif" font-size="14.00">InterfaceUtilModule</text>
</g>
<!-- InterfaceUtilModule&#45;&gt;MoonModule -->
<g id="edge6" class="edge">
<title>InterfaceUtilModule&#45;&gt;MoonModule</title>
<path fill="none" stroke="black" d="M1771,-122.09C1771,-145.13 1771,-182 1771,-182 1771,-182 1042.75,-182 1042.75,-182"/>
<polygon fill="black" stroke="black" points="1042.75,-178.5 1032.75,-182 1042.75,-185.5 1042.75,-178.5"/>
</g>
<!-- NgIf -->
<g id="node8" class="node">
<title>NgIf</title>
<polygon fill="#8dd3c7" stroke="black" points="1687,-122 1684,-126 1663,-126 1660,-122 1633,-122 1633,-86 1687,-86 1687,-122"/>
<text text-anchor="middle" x="1660" y="-99.8" font-family="Times,serif" font-size="14.00">NgIf</text>
</g>
<!-- NgIf&#45;&gt;MoonModule -->
<g id="edge7" class="edge">
<title>NgIf&#45;&gt;MoonModule</title>
<path fill="none" stroke="black" d="M1660,-122.28C1660,-143.32 1660,-175 1660,-175 1660,-175 1042.59,-175 1042.59,-175"/>
<polygon fill="black" stroke="black" points="1042.59,-171.5 1032.59,-175 1042.59,-178.5 1042.59,-171.5"/>
</g>
<!-- SimpleDataButtonModule -->
<g id="node9" class="node">
<title>SimpleDataButtonModule</title>
<polygon fill="#8dd3c7" stroke="black" points="1614.76,-122 1611.76,-126 1590.76,-126 1587.76,-122 1451.24,-122 1451.24,-86 1614.76,-86 1614.76,-122"/>
<text text-anchor="middle" x="1533" y="-99.8" font-family="Times,serif" font-size="14.00">SimpleDataButtonModule</text>
</g>
<!-- SimpleDataButtonModule&#45;&gt;MoonModule -->
<g id="edge8" class="edge">
<title>SimpleDataButtonModule&#45;&gt;MoonModule</title>
<path fill="none" stroke="black" d="M1533,-122.11C1533,-141.34 1533,-169 1533,-169 1533,-169 1042.64,-169 1042.64,-169"/>
<polygon fill="black" stroke="black" points="1042.64,-165.5 1032.64,-169 1042.64,-172.5 1042.64,-165.5"/>
</g>
<!-- SimpleGraphButtonModule -->
<g id="node10" class="node">
<title>SimpleGraphButtonModule</title>
<polygon fill="#8dd3c7" stroke="black" points="1433.32,-122 1430.32,-126 1409.32,-126 1406.32,-122 1260.68,-122 1260.68,-86 1433.32,-86 1433.32,-122"/>
<text text-anchor="middle" x="1347" y="-99.8" font-family="Times,serif" font-size="14.00">SimpleGraphButtonModule</text>
</g>
<!-- SimpleGraphButtonModule&#45;&gt;MoonModule -->
<g id="edge9" class="edge">
<title>SimpleGraphButtonModule&#45;&gt;MoonModule</title>
<path fill="none" stroke="black" d="M1347,-122.02C1347,-139.37 1347,-163 1347,-163 1347,-163 1042.82,-163 1042.82,-163"/>
<polygon fill="black" stroke="black" points="1042.82,-159.5 1032.82,-163 1042.82,-166.5 1042.82,-159.5"/>
</g>
<!-- HonorCodePopupService -->
<g id="node11" class="node">
<title>HonorCodePopupService</title>
<ellipse fill="#fdb462" stroke="black" cx="278" cy="-104" rx="109.96" ry="18"/>
<text text-anchor="middle" x="278" y="-99.8" font-family="Times,serif" font-size="14.00">HonorCodePopupService</text>
</g>
<!-- HonorCodePopupService&#45;&gt;MoonModule -->
<g id="edge10" class="edge">
<title>HonorCodePopupService&#45;&gt;MoonModule</title>
<path fill="none" stroke="black" d="M278,-122.28C278,-143.32 278,-175 278,-175 278,-175 929.27,-175 929.27,-175"/>
<polygon fill="black" stroke="black" points="929.27,-178.5 939.27,-175 929.27,-171.5 929.27,-178.5"/>
</g>
<!-- MoonService -->
<g id="node12" class="node">
<title>MoonService</title>
<ellipse fill="#fdb462" stroke="black" cx="87" cy="-104" rx="63.12" ry="18"/>
<text text-anchor="middle" x="87" y="-99.8" font-family="Times,serif" font-size="14.00">MoonService</text>
</g>
<!-- MoonService&#45;&gt;MoonModule -->
<g id="edge11" class="edge">
<title>MoonService&#45;&gt;MoonModule</title>
<path fill="none" stroke="black" d="M87,-122.09C87,-145.13 87,-182 87,-182 87,-182 929.25,-182 929.25,-182"/>
<polygon fill="black" stroke="black" points="929.25,-185.5 939.25,-182 929.25,-178.5 929.25,-185.5"/>
</g>
</g>
</svg>
