<?xml version="1.0" encoding="UTF-8" standalone="no"?>
<!DOCTYPE svg PUBLIC "-//W3C//DTD SVG 1.1//EN"
 "http://www.w3.org/Graphics/SVG/1.1/DTD/svg11.dtd">
<!-- Generated by graphviz version 2.47.0 (20210316.0004)
 -->
<!-- Title: dependencies Pages: 1 -->
<svg width="1869pt" height="211pt"
 viewBox="0.00 0.00 1869.00 211.00" xmlns="http://www.w3.org/2000/svg" xmlns:xlink="http://www.w3.org/1999/xlink">
<g id="graph0" class="graph" transform="scale(1 1) rotate(0) translate(4 207)">
<title>dependencies</title>
<polygon fill="white" stroke="transparent" points="-4,4 -4,-207 1865,-207 1865,4 -4,4"/>
<text text-anchor="start" x="909.51" y="-42.4" font-family="Times-12" font-weight="bold" font-size="14.00">Legend</text>
<polygon fill="#ffffb3" stroke="transparent" points="696.5,-10 696.5,-30 716.5,-30 716.5,-10 696.5,-10"/>
<text text-anchor="start" x="720.13" y="-15.4" font-family="Times-12" font-size="14.00"> &#160;Declarations</text>
<polygon fill="#8dd3c7" stroke="transparent" points="809.5,-10 809.5,-30 829.5,-30 829.5,-10 809.5,-10"/>
<text text-anchor="start" x="833.23" y="-15.4" font-family="Times-12" font-size="14.00"> &#160;Module</text>
<polygon fill="#80b1d3" stroke="transparent" points="895.5,-10 895.5,-30 915.5,-30 915.5,-10 895.5,-10"/>
<text text-anchor="start" x="919.28" y="-15.4" font-family="Times-12" font-size="14.00"> &#160;Bootstrap</text>
<polygon fill="#fdb462" stroke="transparent" points="992.5,-10 992.5,-30 1012.5,-30 1012.5,-10 992.5,-10"/>
<text text-anchor="start" x="1016.17" y="-15.4" font-family="Times-12" font-size="14.00"> &#160;Providers</text>
<polygon fill="#fb8072" stroke="transparent" points="1088.5,-10 1088.5,-30 1108.5,-30 1108.5,-10 1088.5,-10"/>
<text text-anchor="start" x="1112.23" y="-15.4" font-family="Times-12" font-size="14.00"> &#160;Exports</text>
<g id="clust1" class="cluster">
<title>cluster_MoonModule</title>
<polygon fill="none" stroke="black" stroke-dasharray="1,5" points="8,-70 8,-195 1853,-195 1853,-70 8,-70"/>
</g>
<g id="clust11" class="cluster">
<title>cluster_MoonModule_providers</title>
<polygon fill="none" stroke="black" points="1465,-78 1465,-130 1845,-130 1845,-78 1465,-78"/>
</g>
<g id="clust8" class="cluster">
<title>cluster_MoonModule_imports</title>
<polygon fill="none" stroke="black" points="865,-78 865,-130 1457,-130 1457,-78 865,-78"/>
</g>
<g id="clust2" class="cluster">
<title>cluster_MoonModule_declarations</title>
<polygon fill="none" stroke="black" points="16,-78 16,-130 857,-130 857,-78 16,-78"/>
</g>
<!-- MoonChartFormComponent -->
<g id="node1" class="node">
<title>MoonChartFormComponent</title>
<polygon fill="#ffffb3" stroke="black" points="849.21,-122 672.79,-122 672.79,-86 849.21,-86 849.21,-122"/>
<text text-anchor="middle" x="761" y="-99.8" font-family="Times,serif" font-size="14.00">MoonChartFormComponent</text>
</g>
<!-- MoonModule -->
<g id="node6" class="node">
<title>MoonModule</title>
<polygon fill="#8dd3c7" stroke="black" points="1005.49,-187 1002.49,-191 981.49,-191 978.49,-187 912.51,-187 912.51,-151 1005.49,-151 1005.49,-187"/>
<text text-anchor="middle" x="959" y="-164.8" font-family="Times,serif" font-size="14.00">MoonModule</text>
</g>
<!-- MoonChartFormComponent&#45;&gt;MoonModule -->
<g id="edge1" class="edge">
<title>MoonChartFormComponent&#45;&gt;MoonModule</title>
<path fill="none" stroke="black" d="M761,-122.24C761,-137.57 761,-157 761,-157 761,-157 902.33,-157 902.33,-157"/>
<polygon fill="black" stroke="black" points="902.33,-160.5 912.33,-157 902.33,-153.5 902.33,-160.5"/>
</g>
<!-- MoonComponent -->
<g id="node2" class="node">
<title>MoonComponent</title>
<polygon fill="#ffffb3" stroke="black" points="655.28,-122 540.72,-122 540.72,-86 655.28,-86 655.28,-122"/>
<text text-anchor="middle" x="598" y="-99.8" font-family="Times,serif" font-size="14.00">MoonComponent</text>
</g>
<!-- MoonComponent&#45;&gt;MoonModule -->
<g id="edge2" class="edge">
<title>MoonComponent&#45;&gt;MoonModule</title>
<path fill="none" stroke="black" d="M598,-122.02C598,-139.37 598,-163 598,-163 598,-163 902.18,-163 902.18,-163"/>
<polygon fill="black" stroke="black" points="902.18,-166.5 912.18,-163 902.18,-159.5 902.18,-166.5"/>
</g>
<!-- MoonFormComponent -->
<g id="node3" class="node">
<title>MoonFormComponent</title>
<polygon fill="#ffffb3" stroke="black" points="522.61,-122 377.39,-122 377.39,-86 522.61,-86 522.61,-122"/>
<text text-anchor="middle" x="450" y="-99.8" font-family="Times,serif" font-size="14.00">MoonFormComponent</text>
</g>
<!-- MoonFormComponent&#45;&gt;MoonModule -->
<g id="edge3" class="edge">
<title>MoonFormComponent&#45;&gt;MoonModule</title>
<path fill="none" stroke="black" d="M450,-122.11C450,-141.34 450,-169 450,-169 450,-169 902.48,-169 902.48,-169"/>
<polygon fill="black" stroke="black" points="902.48,-172.5 912.48,-169 902.48,-165.5 902.48,-172.5"/>
</g>
<!-- MoonHighchartComponent -->
<g id="node4" class="node">
<title>MoonHighchartComponent</title>
<polygon fill="#ffffb3" stroke="black" points="359.25,-122 188.75,-122 188.75,-86 359.25,-86 359.25,-122"/>
<text text-anchor="middle" x="274" y="-99.8" font-family="Times,serif" font-size="14.00">MoonHighchartComponent</text>
</g>
<!-- MoonHighchartComponent&#45;&gt;MoonModule -->
<g id="edge4" class="edge">
<title>MoonHighchartComponent&#45;&gt;MoonModule</title>
<path fill="none" stroke="black" d="M274,-122.28C274,-143.32 274,-175 274,-175 274,-175 902.46,-175 902.46,-175"/>
<polygon fill="black" stroke="black" points="902.46,-178.5 912.46,-175 902.46,-171.5 902.46,-178.5"/>
</g>
<!-- MoonTableComponent -->
<g id="node5" class="node">
<title>MoonTableComponent</title>
<polygon fill="#ffffb3" stroke="black" points="170.15,-122 23.85,-122 23.85,-86 170.15,-86 170.15,-122"/>
<text text-anchor="middle" x="97" y="-99.8" font-family="Times,serif" font-size="14.00">MoonTableComponent</text>
</g>
<!-- MoonTableComponent&#45;&gt;MoonModule -->
<g id="edge5" class="edge">
<title>MoonTableComponent&#45;&gt;MoonModule</title>
<path fill="none" stroke="black" d="M97,-122.09C97,-145.13 97,-182 97,-182 97,-182 902.35,-182 902.35,-182"/>
<polygon fill="black" stroke="black" points="902.35,-185.5 912.35,-182 902.35,-178.5 902.35,-185.5"/>
</g>
<!-- InterfaceUtilModule -->
<g id="node7" class="node">
<title>InterfaceUtilModule</title>
<polygon fill="#8dd3c7" stroke="black" points="1448.56,-122 1445.56,-126 1424.56,-126 1421.56,-122 1317.44,-122 1317.44,-86 1448.56,-86 1448.56,-122"/>
<text text-anchor="middle" x="1383" y="-99.8" font-family="Times,serif" font-size="14.00">InterfaceUtilModule</text>
</g>
<!-- InterfaceUtilModule&#45;&gt;MoonModule -->
<g id="edge6" class="edge">
<title>InterfaceUtilModule&#45;&gt;MoonModule</title>
<path fill="none" stroke="black" d="M1383,-122.11C1383,-141.34 1383,-169 1383,-169 1383,-169 1015.59,-169 1015.59,-169"/>
<polygon fill="black" stroke="black" points="1015.59,-165.5 1005.59,-169 1015.59,-172.5 1015.59,-165.5"/>
</g>
<!-- NgIf -->
<g id="node8" class="node">
<title>NgIf</title>
<polygon fill="#8dd3c7" stroke="black" points="1299,-122 1296,-126 1275,-126 1272,-122 1245,-122 1245,-86 1299,-86 1299,-122"/>
<text text-anchor="middle" x="1272" y="-99.8" font-family="Times,serif" font-size="14.00">NgIf</text>
</g>
<!-- NgIf&#45;&gt;MoonModule -->
<g id="edge7" class="edge">
<title>NgIf&#45;&gt;MoonModule</title>
<path fill="none" stroke="black" d="M1272,-122.02C1272,-139.37 1272,-163 1272,-163 1272,-163 1015.52,-163 1015.52,-163"/>
<polygon fill="black" stroke="black" points="1015.52,-159.5 1005.52,-163 1015.52,-166.5 1015.52,-159.5"/>
</g>
<!-- SimpleDataButtonModule -->
<g id="node9" class="node">
<title>SimpleDataButtonModule</title>
<polygon fill="#8dd3c7" stroke="black" points="1226.76,-122 1223.76,-126 1202.76,-126 1199.76,-122 1063.24,-122 1063.24,-86 1226.76,-86 1226.76,-122"/>
<text text-anchor="middle" x="1145" y="-99.8" font-family="Times,serif" font-size="14.00">SimpleDataButtonModule</text>
</g>
<!-- SimpleDataButtonModule&#45;&gt;MoonModule -->
<g id="edge8" class="edge">
<title>SimpleDataButtonModule&#45;&gt;MoonModule</title>
<path fill="none" stroke="black" d="M1145,-122.24C1145,-137.57 1145,-157 1145,-157 1145,-157 1015.94,-157 1015.94,-157"/>
<polygon fill="black" stroke="black" points="1015.94,-153.5 1005.94,-157 1015.94,-160.5 1015.94,-153.5"/>
</g>
<!-- SimpleGraphButtonModule -->
<g id="node10" class="node">
<title>SimpleGraphButtonModule</title>
<polygon fill="#8dd3c7" stroke="black" points="1045.32,-122 1042.32,-126 1021.32,-126 1018.32,-122 872.68,-122 872.68,-86 1045.32,-86 1045.32,-122"/>
<text text-anchor="middle" x="959" y="-99.8" font-family="Times,serif" font-size="14.00">SimpleGraphButtonModule</text>
</g>
<!-- SimpleGraphButtonModule&#45;&gt;MoonModule -->
<g id="edge9" class="edge">
<title>SimpleGraphButtonModule&#45;&gt;MoonModule</title>
<path fill="none" stroke="black" d="M959,-122.11C959,-122.11 959,-140.99 959,-140.99"/>
<polygon fill="black" stroke="black" points="955.5,-140.99 959,-150.99 962.5,-140.99 955.5,-140.99"/>
</g>
<!-- HonorCodePopupService -->
<g id="node11" class="node">
<title>HonorCodePopupService</title>
<ellipse fill="#fdb462" stroke="black" cx="1727" cy="-104" rx="109.96" ry="18"/>
<text text-anchor="middle" x="1727" y="-99.8" font-family="Times,serif" font-size="14.00">HonorCodePopupService</text>
</g>
<!-- HonorCodePopupService&#45;&gt;MoonModule -->
<g id="edge10" class="edge">
<title>HonorCodePopupService&#45;&gt;MoonModule</title>
<path fill="none" stroke="black" d="M1727,-122.09C1727,-145.13 1727,-182 1727,-182 1727,-182 1015.6,-182 1015.6,-182"/>
<polygon fill="black" stroke="black" points="1015.6,-178.5 1005.6,-182 1015.6,-185.5 1015.6,-178.5"/>
</g>
<!-- MoonService -->
<g id="node12" class="node">
<title>MoonService</title>
<ellipse fill="#fdb462" stroke="black" cx="1536" cy="-104" rx="63.12" ry="18"/>
<text text-anchor="middle" x="1536" y="-99.8" font-family="Times,serif" font-size="14.00">MoonService</text>
</g>
<!-- MoonService&#45;&gt;MoonModule -->
<g id="edge11" class="edge">
<title>MoonService&#45;&gt;MoonModule</title>
<path fill="none" stroke="black" d="M1536,-122.28C1536,-143.32 1536,-175 1536,-175 1536,-175 1015.73,-175 1015.73,-175"/>
<polygon fill="black" stroke="black" points="1015.73,-171.5 1005.73,-175 1015.73,-178.5 1015.73,-171.5"/>
</g>
</g>
</svg>
