<?xml version="1.0" encoding="UTF-8" standalone="no"?>
<!DOCTYPE svg PUBLIC "-//W3C//DTD SVG 1.1//EN"
 "http://www.w3.org/Graphics/SVG/1.1/DTD/svg11.dtd">
<!-- Generated by graphviz version 5.0.0 (20220707.1540)
 -->
<!-- Title: dependencies Pages: 1 -->
<svg width="236pt" height="174pt"
 viewBox="0.00 0.00 236.00 173.80" xmlns="http://www.w3.org/2000/svg" xmlns:xlink="http://www.w3.org/1999/xlink">
<g id="graph0" class="graph" transform="scale(1 1) rotate(0) translate(4 169.8)">
<title>dependencies</title>
<polygon fill="white" stroke="transparent" points="-4,4 -4,-169.8 232,-169.8 232,4 -4,4"/>
<text text-anchor="middle" x="114" y="-8.2" font-family="sans-serif" font-size="14.00">dependencies</text>
<g id="clust1" class="cluster">
<title>cluster_SimpleTableImplModule</title>
<polygon fill="none" stroke="black" stroke-dasharray="1,5" points="8,-32.8 8,-157.8 220,-157.8 220,-32.8 8,-32.8"/>
</g>
<g id="clust2" class="cluster">
<title>cluster_SimpleTableImplModule_declarations</title>
<polygon fill="none" stroke="black" points="16,-40.8 16,-92.8 212,-92.8 212,-40.8 16,-40.8"/>
</g>
<!-- SimpleTableImplComponent -->
<g id="node1" class="node">
<title>SimpleTableImplComponent</title>
<polygon fill="#ffffb3" stroke="black" points="203.81,-84.8 24.19,-84.8 24.19,-48.8 203.81,-48.8 203.81,-84.8"/>
<text text-anchor="middle" x="114" y="-62.6" font-family="Times,serif" font-size="14.00">SimpleTableImplComponent</text>
</g>
<!-- SimpleTableImplModule -->
<g id="node2" class="node">
<title>SimpleTableImplModule</title>
<polygon fill="#8dd3c7" stroke="black" points="192.53,-149.8 189.53,-153.8 168.53,-153.8 165.53,-149.8 35.47,-149.8 35.47,-113.8 192.53,-113.8 192.53,-149.8"/>
<text text-anchor="middle" x="114" y="-127.6" font-family="Times,serif" font-size="14.00">SimpleTableImplModule</text>
</g>
<!-- SimpleTableImplComponent&#45;&gt;SimpleTableImplModule -->
<g id="edge1" class="edge">
<title>SimpleTableImplComponent&#45;&gt;SimpleTableImplModule</title>
<path fill="none" stroke="black" d="M114,-84.91C114,-84.91 114,-103.79 114,-103.79"/>
<polygon fill="black" stroke="black" points="110.5,-103.79 114,-113.79 117.5,-103.79 110.5,-103.79"/>
</g>
</g>
</svg>
