<?xml version="1.0" encoding="UTF-8" standalone="no"?>
<!DOCTYPE svg PUBLIC "-//W3C//DTD SVG 1.1//EN"
 "http://www.w3.org/Graphics/SVG/1.1/DTD/svg11.dtd">
<!-- Generated by graphviz version 2.47.0 (20210316.0004)
 -->
<!-- Title: dependencies Pages: 1 -->
<svg width="1213pt" height="211pt"
 viewBox="0.00 0.00 1213.00 211.00" xmlns="http://www.w3.org/2000/svg" xmlns:xlink="http://www.w3.org/1999/xlink">
<g id="graph0" class="graph" transform="scale(1 1) rotate(0) translate(4 207)">
<title>dependencies</title>
<polygon fill="white" stroke="transparent" points="-4,4 -4,-207 1209,-207 1209,4 -4,4"/>
<text text-anchor="start" x="581.51" y="-42.4" font-family="Times-12" font-weight="bold" font-size="14.00">Legend</text>
<polygon fill="#ffffb3" stroke="transparent" points="368.5,-10 368.5,-30 388.5,-30 388.5,-10 368.5,-10"/>
<text text-anchor="start" x="392.13" y="-15.4" font-family="Times-12" font-size="14.00"> &#160;Declarations</text>
<polygon fill="#8dd3c7" stroke="transparent" points="481.5,-10 481.5,-30 501.5,-30 501.5,-10 481.5,-10"/>
<text text-anchor="start" x="505.23" y="-15.4" font-family="Times-12" font-size="14.00"> &#160;Module</text>
<polygon fill="#80b1d3" stroke="transparent" points="567.5,-10 567.5,-30 587.5,-30 587.5,-10 567.5,-10"/>
<text text-anchor="start" x="591.28" y="-15.4" font-family="Times-12" font-size="14.00"> &#160;Bootstrap</text>
<polygon fill="#fdb462" stroke="transparent" points="664.5,-10 664.5,-30 684.5,-30 684.5,-10 664.5,-10"/>
<text text-anchor="start" x="688.17" y="-15.4" font-family="Times-12" font-size="14.00"> &#160;Providers</text>
<polygon fill="#fb8072" stroke="transparent" points="760.5,-10 760.5,-30 780.5,-30 780.5,-10 760.5,-10"/>
<text text-anchor="start" x="784.23" y="-15.4" font-family="Times-12" font-size="14.00"> &#160;Exports</text>
<g id="clust1" class="cluster">
<title>cluster_DualModule</title>
<polygon fill="none" stroke="black" stroke-dasharray="1,5" points="8,-70 8,-195 1197,-195 1197,-70 8,-70"/>
</g>
<g id="clust7" class="cluster">
<title>cluster_DualModule_imports</title>
<polygon fill="none" stroke="black" points="819,-78 819,-130 1189,-130 1189,-78 819,-78"/>
</g>
<g id="clust10" class="cluster">
<title>cluster_DualModule_providers</title>
<polygon fill="none" stroke="black" points="677,-78 677,-130 811,-130 811,-78 677,-78"/>
</g>
<g id="clust2" class="cluster">
<title>cluster_DualModule_declarations</title>
<polygon fill="none" stroke="black" points="16,-78 16,-130 669,-130 669,-78 16,-78"/>
</g>
<!-- DualChartFormComponent -->
<g id="node1" class="node">
<title>DualChartFormComponent</title>
<polygon fill="#ffffb3" stroke="black" points="660.98,-122 491.02,-122 491.02,-86 660.98,-86 660.98,-122"/>
<text text-anchor="middle" x="576" y="-99.8" font-family="Times,serif" font-size="14.00">DualChartFormComponent</text>
</g>
<!-- DualModule -->
<g id="node5" class="node">
<title>DualModule</title>
<polygon fill="#8dd3c7" stroke="black" points="619.26,-187 616.26,-191 595.26,-191 592.26,-187 532.74,-187 532.74,-151 619.26,-151 619.26,-187"/>
<text text-anchor="middle" x="576" y="-164.8" font-family="Times,serif" font-size="14.00">DualModule</text>
</g>
<!-- DualChartFormComponent&#45;&gt;DualModule -->
<g id="edge1" class="edge">
<title>DualChartFormComponent&#45;&gt;DualModule</title>
<path fill="none" stroke="black" d="M576,-122.11C576,-122.11 576,-140.99 576,-140.99"/>
<polygon fill="black" stroke="black" points="572.5,-140.99 576,-150.99 579.5,-140.99 572.5,-140.99"/>
</g>
<!-- DualComponent -->
<g id="node2" class="node">
<title>DualComponent</title>
<polygon fill="#ffffb3" stroke="black" points="473.05,-122 364.95,-122 364.95,-86 473.05,-86 473.05,-122"/>
<text text-anchor="middle" x="419" y="-99.8" font-family="Times,serif" font-size="14.00">DualComponent</text>
</g>
<!-- DualComponent&#45;&gt;DualModule -->
<g id="edge2" class="edge">
<title>DualComponent&#45;&gt;DualModule</title>
<path fill="none" stroke="black" d="M419,-122.03C419,-138.4 419,-160 419,-160 419,-160 522.68,-160 522.68,-160"/>
<polygon fill="black" stroke="black" points="522.68,-163.5 532.68,-160 522.68,-156.5 522.68,-163.5"/>
</g>
<!-- DualHighchartComponent -->
<g id="node3" class="node">
<title>DualHighchartComponent</title>
<polygon fill="#ffffb3" stroke="black" points="346.02,-122 181.98,-122 181.98,-86 346.02,-86 346.02,-122"/>
<text text-anchor="middle" x="264" y="-99.8" font-family="Times,serif" font-size="14.00">DualHighchartComponent</text>
</g>
<!-- DualHighchartComponent&#45;&gt;DualModule -->
<g id="edge3" class="edge">
<title>DualHighchartComponent&#45;&gt;DualModule</title>
<path fill="none" stroke="black" d="M264,-122.11C264,-141.34 264,-169 264,-169 264,-169 522.62,-169 522.62,-169"/>
<polygon fill="black" stroke="black" points="522.62,-172.5 532.62,-169 522.62,-165.5 522.62,-172.5"/>
</g>
<!-- DualTableComponent -->
<g id="node4" class="node">
<title>DualTableComponent</title>
<polygon fill="#ffffb3" stroke="black" points="164.42,-122 23.58,-122 23.58,-86 164.42,-86 164.42,-122"/>
<text text-anchor="middle" x="94" y="-99.8" font-family="Times,serif" font-size="14.00">DualTableComponent</text>
</g>
<!-- DualTableComponent&#45;&gt;DualModule -->
<g id="edge4" class="edge">
<title>DualTableComponent&#45;&gt;DualModule</title>
<path fill="none" stroke="black" d="M94,-122.29C94,-144.21 94,-178 94,-178 94,-178 522.38,-178 522.38,-178"/>
<polygon fill="black" stroke="black" points="522.38,-181.5 532.38,-178 522.38,-174.5 522.38,-181.5"/>
</g>
<!-- SimpleDataButtonModule -->
<g id="node6" class="node">
<title>SimpleDataButtonModule</title>
<polygon fill="#8dd3c7" stroke="black" points="1180.76,-122 1177.76,-126 1156.76,-126 1153.76,-122 1017.24,-122 1017.24,-86 1180.76,-86 1180.76,-122"/>
<text text-anchor="middle" x="1099" y="-99.8" font-family="Times,serif" font-size="14.00">SimpleDataButtonModule</text>
</g>
<!-- SimpleDataButtonModule&#45;&gt;DualModule -->
<g id="edge5" class="edge">
<title>SimpleDataButtonModule&#45;&gt;DualModule</title>
<path fill="none" stroke="black" d="M1099,-122.29C1099,-144.21 1099,-178 1099,-178 1099,-178 629.69,-178 629.69,-178"/>
<polygon fill="black" stroke="black" points="629.69,-174.5 619.69,-178 629.69,-181.5 629.69,-174.5"/>
</g>
<!-- SimpleGraphButtonModule -->
<g id="node7" class="node">
<title>SimpleGraphButtonModule</title>
<polygon fill="#8dd3c7" stroke="black" points="999.32,-122 996.32,-126 975.32,-126 972.32,-122 826.68,-122 826.68,-86 999.32,-86 999.32,-122"/>
<text text-anchor="middle" x="913" y="-99.8" font-family="Times,serif" font-size="14.00">SimpleGraphButtonModule</text>
</g>
<!-- SimpleGraphButtonModule&#45;&gt;DualModule -->
<g id="edge6" class="edge">
<title>SimpleGraphButtonModule&#45;&gt;DualModule</title>
<path fill="none" stroke="black" d="M913,-122.11C913,-141.34 913,-169 913,-169 913,-169 629.37,-169 629.37,-169"/>
<polygon fill="black" stroke="black" points="629.37,-165.5 619.37,-169 629.37,-172.5 629.37,-165.5"/>
</g>
<!-- DualService -->
<g id="node8" class="node">
<title>DualService</title>
<ellipse fill="#fdb462" stroke="black" cx="744" cy="-104" rx="58.53" ry="18"/>
<text text-anchor="middle" x="744" y="-99.8" font-family="Times,serif" font-size="14.00">DualService</text>
</g>
<!-- DualService&#45;&gt;DualModule -->
<g id="edge7" class="edge">
<title>DualService&#45;&gt;DualModule</title>
<path fill="none" stroke="black" d="M744,-122.03C744,-138.4 744,-160 744,-160 744,-160 629.26,-160 629.26,-160"/>
<polygon fill="black" stroke="black" points="629.26,-156.5 619.26,-160 629.26,-163.5 629.26,-156.5"/>
</g>
</g>
</svg>
