<?xml version="1.0" encoding="UTF-8" standalone="no"?>
<!DOCTYPE svg PUBLIC "-//W3C//DTD SVG 1.1//EN"
 "http://www.w3.org/Graphics/SVG/1.1/DTD/svg11.dtd">
<!-- Generated by graphviz version 2.47.0 (20210316.0004)
 -->
<!-- Title: dependencies Pages: 1 -->
<svg width="1213pt" height="211pt"
 viewBox="0.00 0.00 1213.00 211.00" xmlns="http://www.w3.org/2000/svg" xmlns:xlink="http://www.w3.org/1999/xlink">
<g id="graph0" class="graph" transform="scale(1 1) rotate(0) translate(4 207)">
<title>dependencies</title>
<polygon fill="white" stroke="transparent" points="-4,4 -4,-207 1209,-207 1209,4 -4,4"/>
<text text-anchor="start" x="581.51" y="-42.4" font-family="Times-12" font-weight="bold" font-size="14.00">Legend</text>
<polygon fill="#ffffb3" stroke="transparent" points="368.5,-10 368.5,-30 388.5,-30 388.5,-10 368.5,-10"/>
<text text-anchor="start" x="392.13" y="-15.4" font-family="Times-12" font-size="14.00"> &#160;Declarations</text>
<polygon fill="#8dd3c7" stroke="transparent" points="481.5,-10 481.5,-30 501.5,-30 501.5,-10 481.5,-10"/>
<text text-anchor="start" x="505.23" y="-15.4" font-family="Times-12" font-size="14.00"> &#160;Module</text>
<polygon fill="#80b1d3" stroke="transparent" points="567.5,-10 567.5,-30 587.5,-30 587.5,-10 567.5,-10"/>
<text text-anchor="start" x="591.28" y="-15.4" font-family="Times-12" font-size="14.00"> &#160;Bootstrap</text>
<polygon fill="#fdb462" stroke="transparent" points="664.5,-10 664.5,-30 684.5,-30 684.5,-10 664.5,-10"/>
<text text-anchor="start" x="688.17" y="-15.4" font-family="Times-12" font-size="14.00"> &#160;Providers</text>
<polygon fill="#fb8072" stroke="transparent" points="760.5,-10 760.5,-30 780.5,-30 780.5,-10 760.5,-10"/>
<text text-anchor="start" x="784.23" y="-15.4" font-family="Times-12" font-size="14.00"> &#160;Exports</text>
<g id="clust1" class="cluster">
<title>cluster_DualModule</title>
<polygon fill="none" stroke="black" stroke-dasharray="1,5" points="8,-70 8,-195 1197,-195 1197,-70 8,-70"/>
</g>
<g id="clust2" class="cluster">
<title>cluster_DualModule_declarations</title>
<polygon fill="none" stroke="black" points="536,-78 536,-130 1189,-130 1189,-78 536,-78"/>
</g>
<g id="clust7" class="cluster">
<title>cluster_DualModule_imports</title>
<polygon fill="none" stroke="black" points="158,-78 158,-130 528,-130 528,-78 158,-78"/>
</g>
<g id="clust10" class="cluster">
<title>cluster_DualModule_providers</title>
<polygon fill="none" stroke="black" points="16,-78 16,-130 150,-130 150,-78 16,-78"/>
</g>
<!-- DualChartFormComponent -->
<g id="node1" class="node">
<title>DualChartFormComponent</title>
<polygon fill="#ffffb3" stroke="black" points="1180.98,-122 1011.02,-122 1011.02,-86 1180.98,-86 1180.98,-122"/>
<text text-anchor="middle" x="1096" y="-99.8" font-family="Times,serif" font-size="14.00">DualChartFormComponent</text>
</g>
<!-- DualModule -->
<g id="node5" class="node">
<title>DualModule</title>
<polygon fill="#8dd3c7" stroke="black" points="657.26,-187 654.26,-191 633.26,-191 630.26,-187 570.74,-187 570.74,-151 657.26,-151 657.26,-187"/>
<text text-anchor="middle" x="614" y="-164.8" font-family="Times,serif" font-size="14.00">DualModule</text>
</g>
<!-- DualChartFormComponent&#45;&gt;DualModule -->
<g id="edge1" class="edge">
<title>DualChartFormComponent&#45;&gt;DualModule</title>
<path fill="none" stroke="black" d="M1096,-122.29C1096,-144.21 1096,-178 1096,-178 1096,-178 667.62,-178 667.62,-178"/>
<polygon fill="black" stroke="black" points="667.62,-174.5 657.62,-178 667.62,-181.5 667.62,-174.5"/>
</g>
<!-- DualComponent -->
<g id="node2" class="node">
<title>DualComponent</title>
<polygon fill="#ffffb3" stroke="black" points="993.05,-122 884.95,-122 884.95,-86 993.05,-86 993.05,-122"/>
<text text-anchor="middle" x="939" y="-99.8" font-family="Times,serif" font-size="14.00">DualComponent</text>
</g>
<!-- DualComponent&#45;&gt;DualModule -->
<g id="edge2" class="edge">
<title>DualComponent&#45;&gt;DualModule</title>
<path fill="none" stroke="black" d="M939,-122.11C939,-141.34 939,-169 939,-169 939,-169 667.49,-169 667.49,-169"/>
<polygon fill="black" stroke="black" points="667.49,-165.5 657.49,-169 667.49,-172.5 667.49,-165.5"/>
</g>
<!-- DualHighchartComponent -->
<g id="node3" class="node">
<title>DualHighchartComponent</title>
<polygon fill="#ffffb3" stroke="black" points="866.02,-122 701.98,-122 701.98,-86 866.02,-86 866.02,-122"/>
<text text-anchor="middle" x="784" y="-99.8" font-family="Times,serif" font-size="14.00">DualHighchartComponent</text>
</g>
<!-- DualHighchartComponent&#45;&gt;DualModule -->
<g id="edge3" class="edge">
<title>DualHighchartComponent&#45;&gt;DualModule</title>
<path fill="none" stroke="black" d="M784,-122.03C784,-138.4 784,-160 784,-160 784,-160 667.34,-160 667.34,-160"/>
<polygon fill="black" stroke="black" points="667.34,-156.5 657.34,-160 667.34,-163.5 667.34,-156.5"/>
</g>
<!-- DualTableComponent -->
<g id="node4" class="node">
<title>DualTableComponent</title>
<polygon fill="#ffffb3" stroke="black" points="684.42,-122 543.58,-122 543.58,-86 684.42,-86 684.42,-122"/>
<text text-anchor="middle" x="614" y="-99.8" font-family="Times,serif" font-size="14.00">DualTableComponent</text>
</g>
<!-- DualTableComponent&#45;&gt;DualModule -->
<g id="edge4" class="edge">
<title>DualTableComponent&#45;&gt;DualModule</title>
<path fill="none" stroke="black" d="M614,-122.11C614,-122.11 614,-140.99 614,-140.99"/>
<polygon fill="black" stroke="black" points="610.5,-140.99 614,-150.99 617.5,-140.99 610.5,-140.99"/>
</g>
<!-- SimpleDataButtonModule -->
<g id="node6" class="node">
<title>SimpleDataButtonModule</title>
<polygon fill="#8dd3c7" stroke="black" points="519.76,-122 516.76,-126 495.76,-126 492.76,-122 356.24,-122 356.24,-86 519.76,-86 519.76,-122"/>
<text text-anchor="middle" x="438" y="-99.8" font-family="Times,serif" font-size="14.00">SimpleDataButtonModule</text>
</g>
<!-- SimpleDataButtonModule&#45;&gt;DualModule -->
<g id="edge5" class="edge">
<title>SimpleDataButtonModule&#45;&gt;DualModule</title>
<path fill="none" stroke="black" d="M438,-122.03C438,-138.4 438,-160 438,-160 438,-160 560.49,-160 560.49,-160"/>
<polygon fill="black" stroke="black" points="560.49,-163.5 570.49,-160 560.49,-156.5 560.49,-163.5"/>
</g>
<!-- SimpleGraphButtonModule -->
<g id="node7" class="node">
<title>SimpleGraphButtonModule</title>
<polygon fill="#8dd3c7" stroke="black" points="338.32,-122 335.32,-126 314.32,-126 311.32,-122 165.68,-122 165.68,-86 338.32,-86 338.32,-122"/>
<text text-anchor="middle" x="252" y="-99.8" font-family="Times,serif" font-size="14.00">SimpleGraphButtonModule</text>
</g>
<!-- SimpleGraphButtonModule&#45;&gt;DualModule -->
<g id="edge6" class="edge">
<title>SimpleGraphButtonModule&#45;&gt;DualModule</title>
<path fill="none" stroke="black" d="M252,-122.11C252,-141.34 252,-169 252,-169 252,-169 560.69,-169 560.69,-169"/>
<polygon fill="black" stroke="black" points="560.69,-172.5 570.69,-169 560.69,-165.5 560.69,-172.5"/>
</g>
<!-- DualService -->
<g id="node8" class="node">
<title>DualService</title>
<ellipse fill="#fdb462" stroke="black" cx="83" cy="-104" rx="58.53" ry="18"/>
<text text-anchor="middle" x="83" y="-99.8" font-family="Times,serif" font-size="14.00">DualService</text>
</g>
<!-- DualService&#45;&gt;DualModule -->
<g id="edge7" class="edge">
<title>DualService&#45;&gt;DualModule</title>
<path fill="none" stroke="black" d="M83,-122.29C83,-144.21 83,-178 83,-178 83,-178 560.55,-178 560.55,-178"/>
<polygon fill="black" stroke="black" points="560.55,-181.5 570.55,-178 560.55,-174.5 560.55,-181.5"/>
</g>
</g>
</svg>
