<?xml version="1.0" encoding="UTF-8" standalone="no"?>
<!DOCTYPE svg PUBLIC "-//W3C//DTD SVG 1.1//EN"
 "http://www.w3.org/Graphics/SVG/1.1/DTD/svg11.dtd">
<!-- Generated by graphviz version 5.0.0 (20220707.1540)
 -->
<!-- Title: dependencies Pages: 1 -->
<svg width="246pt" height="174pt"
 viewBox="0.00 0.00 246.00 173.80" xmlns="http://www.w3.org/2000/svg" xmlns:xlink="http://www.w3.org/1999/xlink">
<g id="graph0" class="graph" transform="scale(1 1) rotate(0) translate(4 169.8)">
<title>dependencies</title>
<polygon fill="white" stroke="transparent" points="-4,4 -4,-169.8 242,-169.8 242,4 -4,4"/>
<text text-anchor="middle" x="119" y="-8.2" font-family="sans-serif" font-size="14.00">dependencies</text>
<g id="clust1" class="cluster">
<title>cluster_StandardGraphInfoModule</title>
<polygon fill="none" stroke="black" stroke-dasharray="1,5" points="8,-32.8 8,-157.8 230,-157.8 230,-32.8 8,-32.8"/>
</g>
<g id="clust2" class="cluster">
<title>cluster_StandardGraphInfoModule_declarations</title>
<polygon fill="none" stroke="black" points="16,-40.8 16,-92.8 222,-92.8 222,-40.8 16,-40.8"/>
</g>
<!-- StandardGraphInfoComponent -->
<g id="node1" class="node">
<title>StandardGraphInfoComponent</title>
<polygon fill="#ffffb3" stroke="black" points="213.91,-84.8 24.09,-84.8 24.09,-48.8 213.91,-48.8 213.91,-84.8"/>
<text text-anchor="middle" x="119" y="-62.6" font-family="Times,serif" font-size="14.00">StandardGraphInfoComponent</text>
</g>
<!-- StandardGraphInfoModule -->
<g id="node2" class="node">
<title>StandardGraphInfoModule</title>
<polygon fill="#8dd3c7" stroke="black" points="202.63,-149.8 199.63,-153.8 178.63,-153.8 175.63,-149.8 35.37,-149.8 35.37,-113.8 202.63,-113.8 202.63,-149.8"/>
<text text-anchor="middle" x="119" y="-127.6" font-family="Times,serif" font-size="14.00">StandardGraphInfoModule</text>
</g>
<!-- StandardGraphInfoComponent&#45;&gt;StandardGraphInfoModule -->
<g id="edge1" class="edge">
<title>StandardGraphInfoComponent&#45;&gt;StandardGraphInfoModule</title>
<path fill="none" stroke="black" d="M119,-84.91C119,-84.91 119,-103.79 119,-103.79"/>
<polygon fill="black" stroke="black" points="115.5,-103.79 119,-113.79 122.5,-103.79 115.5,-103.79"/>
</g>
</g>
</svg>
