<?xml version="1.0" encoding="UTF-8" standalone="no"?>
<!DOCTYPE svg PUBLIC "-//W3C//DTD SVG 1.1//EN"
 "http://www.w3.org/Graphics/SVG/1.1/DTD/svg11.dtd">
<!-- Generated by graphviz version 2.47.0 (20210316.0004)
 -->
<!-- Title: dependencies Pages: 1 -->
<svg width="1538pt" height="284pt"
 viewBox="0.00 0.00 1538.00 284.00" xmlns="http://www.w3.org/2000/svg" xmlns:xlink="http://www.w3.org/1999/xlink">
<g id="graph0" class="graph" transform="scale(1 1) rotate(0) translate(4 280)">
<title>dependencies</title>
<polygon fill="white" stroke="transparent" points="-4,4 -4,-280 1534,-280 1534,4 -4,4"/>
<text text-anchor="start" x="744.01" y="-42.4" font-family="Times-12" font-weight="bold" font-size="14.00">Legend</text>
<polygon fill="#ffffb3" stroke="transparent" points="531,-10 531,-30 551,-30 551,-10 531,-10"/>
<text text-anchor="start" x="554.63" y="-15.4" font-family="Times-12" font-size="14.00"> &#160;Declarations</text>
<polygon fill="#8dd3c7" stroke="transparent" points="644,-10 644,-30 664,-30 664,-10 644,-10"/>
<text text-anchor="start" x="667.73" y="-15.4" font-family="Times-12" font-size="14.00"> &#160;Module</text>
<polygon fill="#80b1d3" stroke="transparent" points="730,-10 730,-30 750,-30 750,-10 730,-10"/>
<text text-anchor="start" x="753.78" y="-15.4" font-family="Times-12" font-size="14.00"> &#160;Bootstrap</text>
<polygon fill="#fdb462" stroke="transparent" points="827,-10 827,-30 847,-30 847,-10 827,-10"/>
<text text-anchor="start" x="850.67" y="-15.4" font-family="Times-12" font-size="14.00"> &#160;Providers</text>
<polygon fill="#fb8072" stroke="transparent" points="923,-10 923,-30 943,-30 943,-10 923,-10"/>
<text text-anchor="start" x="946.73" y="-15.4" font-family="Times-12" font-size="14.00"> &#160;Exports</text>
<g id="clust1" class="cluster">
<title>cluster_SpectrumModule</title>
<polygon fill="none" stroke="black" stroke-dasharray="1,5" points="8,-70 8,-268 1522,-268 1522,-70 8,-70"/>
</g>
<g id="clust9" class="cluster">
<title>cluster_SpectrumModule_exports</title>
<polygon fill="none" stroke="black" points="703,-208 703,-260 857,-260 857,-208 703,-208"/>
</g>
<g id="clust11" class="cluster">
<title>cluster_SpectrumModule_providers</title>
<polygon fill="none" stroke="black" points="1344,-78 1344,-130 1514,-130 1514,-78 1344,-78"/>
</g>
<g id="clust2" class="cluster">
<title>cluster_SpectrumModule_declarations</title>
<polygon fill="none" stroke="black" points="394,-78 394,-130 1336,-130 1336,-78 394,-78"/>
</g>
<g id="clust8" class="cluster">
<title>cluster_SpectrumModule_imports</title>
<polygon fill="none" stroke="black" points="16,-78 16,-130 386,-130 386,-78 16,-78"/>
</g>
<!-- SpectrumChartFormComponent -->
<g id="node1" class="node">
<title>SpectrumChartFormComponent</title>
<polygon fill="#ffffb3" stroke="black" points="1328.42,-122 1131.58,-122 1131.58,-86 1328.42,-86 1328.42,-122"/>
<text text-anchor="middle" x="1230" y="-99.8" font-family="Times,serif" font-size="14.00">SpectrumChartFormComponent</text>
</g>
<!-- SpectrumModule -->
<g id="node6" class="node">
<title>SpectrumModule</title>
<polygon fill="#8dd3c7" stroke="black" points="836.7,-187 833.7,-191 812.7,-191 809.7,-187 723.3,-187 723.3,-151 836.7,-151 836.7,-187"/>
<text text-anchor="middle" x="780" y="-164.8" font-family="Times,serif" font-size="14.00">SpectrumModule</text>
</g>
<!-- SpectrumChartFormComponent&#45;&gt;SpectrumModule -->
<g id="edge1" class="edge">
<title>SpectrumChartFormComponent&#45;&gt;SpectrumModule</title>
<path fill="none" stroke="black" d="M1230,-122.11C1230,-141.34 1230,-169 1230,-169 1230,-169 846.99,-169 846.99,-169"/>
<polygon fill="black" stroke="black" points="846.99,-165.5 836.99,-169 846.99,-172.5 846.99,-165.5"/>
</g>
<!-- SpectrumComponent -->
<g id="node2" class="node">
<title>SpectrumComponent</title>
<polygon fill="#ffffb3" stroke="black" points="1113.49,-122 978.51,-122 978.51,-86 1113.49,-86 1113.49,-122"/>
<text text-anchor="middle" x="1046" y="-99.8" font-family="Times,serif" font-size="14.00">SpectrumComponent</text>
</g>
<!-- SpectrumComponent&#45;&gt;SpectrumModule -->
<g id="edge2" class="edge">
<title>SpectrumComponent&#45;&gt;SpectrumModule</title>
<path fill="none" stroke="black" d="M1046,-122.03C1046,-138.4 1046,-160 1046,-160 1046,-160 846.74,-160 846.74,-160"/>
<polygon fill="black" stroke="black" points="846.74,-156.5 836.74,-160 846.74,-163.5 846.74,-156.5"/>
</g>
<!-- SpectrumFormComponent -->
<g id="node3" class="node">
<title>SpectrumFormComponent</title>
<polygon fill="#ffffb3" stroke="black" points="960.82,-122 795.18,-122 795.18,-86 960.82,-86 960.82,-122"/>
<text text-anchor="middle" x="878" y="-99.8" font-family="Times,serif" font-size="14.00">SpectrumFormComponent</text>
</g>
<!-- SpectrumFormComponent&#45;&gt;SpectrumModule -->
<g id="edge3" class="edge">
<title>SpectrumFormComponent&#45;&gt;SpectrumModule</title>
<path fill="none" stroke="black" d="M815.97,-122.11C815.97,-122.11 815.97,-140.99 815.97,-140.99"/>
<polygon fill="black" stroke="black" points="812.47,-140.99 815.97,-150.99 819.47,-140.99 812.47,-140.99"/>
</g>
<!-- SpectrumHighchartComponent -->
<g id="node4" class="node">
<title>SpectrumHighchartComponent</title>
<polygon fill="#ffffb3" stroke="black" points="777.46,-122 586.54,-122 586.54,-86 777.46,-86 777.46,-122"/>
<text text-anchor="middle" x="682" y="-99.8" font-family="Times,serif" font-size="14.00">SpectrumHighchartComponent</text>
</g>
<!-- SpectrumHighchartComponent&#45;&gt;SpectrumModule -->
<g id="edge4" class="edge">
<title>SpectrumHighchartComponent&#45;&gt;SpectrumModule</title>
<path fill="none" stroke="black" d="M750.44,-122.11C750.44,-122.11 750.44,-140.99 750.44,-140.99"/>
<polygon fill="black" stroke="black" points="746.94,-140.99 750.44,-150.99 753.94,-140.99 746.94,-140.99"/>
</g>
<!-- SpectrumTableComponent -->
<g id="node5" class="node">
<title>SpectrumTableComponent</title>
<polygon fill="#ffffb3" stroke="black" points="568.36,-122 401.64,-122 401.64,-86 568.36,-86 568.36,-122"/>
<text text-anchor="middle" x="485" y="-99.8" font-family="Times,serif" font-size="14.00">SpectrumTableComponent</text>
</g>
<!-- SpectrumTableComponent&#45;&gt;SpectrumModule -->
<g id="edge5" class="edge">
<title>SpectrumTableComponent&#45;&gt;SpectrumModule</title>
<path fill="none" stroke="black" d="M485,-122.03C485,-138.4 485,-160 485,-160 485,-160 713.12,-160 713.12,-160"/>
<polygon fill="black" stroke="black" points="713.12,-163.5 723.12,-160 713.12,-156.5 713.12,-163.5"/>
</g>
<!-- SpectrumComponent  -->
<g id="node9" class="node">
<title>SpectrumComponent </title>
<polygon fill="#fb8072" stroke="black" points="849.49,-252 710.51,-252 710.51,-216 849.49,-216 849.49,-252"/>
<text text-anchor="middle" x="780" y="-229.8" font-family="Times,serif" font-size="14.00">SpectrumComponent </text>
</g>
<!-- SpectrumModule&#45;&gt;SpectrumComponent  -->
<g id="edge8" class="edge">
<title>SpectrumModule&#45;&gt;SpectrumComponent </title>
<path fill="none" stroke="black" stroke-dasharray="5,2" d="M780,-187.11C780,-187.11 780,-205.99 780,-205.99"/>
<polygon fill="black" stroke="black" points="776.5,-205.99 780,-215.99 783.5,-205.99 776.5,-205.99"/>
</g>
<!-- SimpleDataButtonModule -->
<g id="node7" class="node">
<title>SimpleDataButtonModule</title>
<polygon fill="#8dd3c7" stroke="black" points="377.76,-122 374.76,-126 353.76,-126 350.76,-122 214.24,-122 214.24,-86 377.76,-86 377.76,-122"/>
<text text-anchor="middle" x="296" y="-99.8" font-family="Times,serif" font-size="14.00">SimpleDataButtonModule</text>
</g>
<!-- SimpleDataButtonModule&#45;&gt;SpectrumModule -->
<g id="edge6" class="edge">
<title>SimpleDataButtonModule&#45;&gt;SpectrumModule</title>
<path fill="none" stroke="black" d="M296,-122.11C296,-141.34 296,-169 296,-169 296,-169 713.06,-169 713.06,-169"/>
<polygon fill="black" stroke="black" points="713.06,-172.5 723.06,-169 713.06,-165.5 713.06,-172.5"/>
</g>
<!-- SimpleGraphButtonModule -->
<g id="node8" class="node">
<title>SimpleGraphButtonModule</title>
<polygon fill="#8dd3c7" stroke="black" points="196.32,-122 193.32,-126 172.32,-126 169.32,-122 23.68,-122 23.68,-86 196.32,-86 196.32,-122"/>
<text text-anchor="middle" x="110" y="-99.8" font-family="Times,serif" font-size="14.00">SimpleGraphButtonModule</text>
</g>
<!-- SimpleGraphButtonModule&#45;&gt;SpectrumModule -->
<g id="edge7" class="edge">
<title>SimpleGraphButtonModule&#45;&gt;SpectrumModule</title>
<path fill="none" stroke="black" d="M110,-122.29C110,-144.21 110,-178 110,-178 110,-178 713.17,-178 713.17,-178"/>
<polygon fill="black" stroke="black" points="713.17,-181.5 723.17,-178 713.17,-174.5 713.17,-181.5"/>
</g>
<!-- SpectrumService -->
<g id="node10" class="node">
<title>SpectrumService</title>
<ellipse fill="#fdb462" stroke="black" cx="1429" cy="-104" rx="77" ry="18"/>
<text text-anchor="middle" x="1429" y="-99.8" font-family="Times,serif" font-size="14.00">SpectrumService</text>
</g>
<!-- SpectrumService&#45;&gt;SpectrumModule -->
<g id="edge9" class="edge">
<title>SpectrumService&#45;&gt;SpectrumModule</title>
<path fill="none" stroke="black" d="M1429,-122.29C1429,-144.21 1429,-178 1429,-178 1429,-178 846.74,-178 846.74,-178"/>
<polygon fill="black" stroke="black" points="846.74,-174.5 836.74,-178 846.74,-181.5 846.74,-174.5"/>
</g>
</g>
</svg>
