<?xml version="1.0" encoding="UTF-8" standalone="no"?>
<!DOCTYPE svg PUBLIC "-//W3C//DTD SVG 1.1//EN"
 "http://www.w3.org/Graphics/SVG/1.1/DTD/svg11.dtd">
<!-- Generated by graphviz version 2.47.0 (20210316.0004)
 -->
<!-- Title: dependencies Pages: 1 -->
<svg width="1538pt" height="211pt"
 viewBox="0.00 0.00 1538.00 211.00" xmlns="http://www.w3.org/2000/svg" xmlns:xlink="http://www.w3.org/1999/xlink">
<g id="graph0" class="graph" transform="scale(1 1) rotate(0) translate(4 207)">
<title>dependencies</title>
<polygon fill="white" stroke="transparent" points="-4,4 -4,-207 1534,-207 1534,4 -4,4"/>
<text text-anchor="start" x="744.01" y="-42.4" font-family="Times-12" font-weight="bold" font-size="14.00">Legend</text>
<polygon fill="#ffffb3" stroke="transparent" points="531,-10 531,-30 551,-30 551,-10 531,-10"/>
<text text-anchor="start" x="554.63" y="-15.4" font-family="Times-12" font-size="14.00"> &#160;Declarations</text>
<polygon fill="#8dd3c7" stroke="transparent" points="644,-10 644,-30 664,-30 664,-10 644,-10"/>
<text text-anchor="start" x="667.73" y="-15.4" font-family="Times-12" font-size="14.00"> &#160;Module</text>
<polygon fill="#80b1d3" stroke="transparent" points="730,-10 730,-30 750,-30 750,-10 730,-10"/>
<text text-anchor="start" x="753.78" y="-15.4" font-family="Times-12" font-size="14.00"> &#160;Bootstrap</text>
<polygon fill="#fdb462" stroke="transparent" points="827,-10 827,-30 847,-30 847,-10 827,-10"/>
<text text-anchor="start" x="850.67" y="-15.4" font-family="Times-12" font-size="14.00"> &#160;Providers</text>
<polygon fill="#fb8072" stroke="transparent" points="923,-10 923,-30 943,-30 943,-10 923,-10"/>
<text text-anchor="start" x="946.73" y="-15.4" font-family="Times-12" font-size="14.00"> &#160;Exports</text>
<g id="clust1" class="cluster">
<title>cluster_SpectrumModule</title>
<polygon fill="none" stroke="black" stroke-dasharray="1,5" points="8,-70 8,-195 1522,-195 1522,-70 8,-70"/>
</g>
<g id="clust2" class="cluster">
<title>cluster_SpectrumModule_declarations</title>
<polygon fill="none" stroke="black" points="572,-78 572,-130 1514,-130 1514,-78 572,-78"/>
</g>
<g id="clust8" class="cluster">
<title>cluster_SpectrumModule_imports</title>
<polygon fill="none" stroke="black" points="194,-78 194,-130 564,-130 564,-78 194,-78"/>
</g>
<g id="clust11" class="cluster">
<title>cluster_SpectrumModule_providers</title>
<polygon fill="none" stroke="black" points="16,-78 16,-130 186,-130 186,-78 16,-78"/>
</g>
<!-- SpectrumChartFormComponent -->
<g id="node1" class="node">
<title>SpectrumChartFormComponent</title>
<polygon fill="#ffffb3" stroke="black" points="1506.42,-122 1309.58,-122 1309.58,-86 1506.42,-86 1506.42,-122"/>
<text text-anchor="middle" x="1408" y="-99.8" font-family="Times,serif" font-size="14.00">SpectrumChartFormComponent</text>
</g>
<!-- SpectrumModule -->
<g id="node6" class="node">
<title>SpectrumModule</title>
<polygon fill="#8dd3c7" stroke="black" points="817.7,-187 814.7,-191 793.7,-191 790.7,-187 704.3,-187 704.3,-151 817.7,-151 817.7,-187"/>
<text text-anchor="middle" x="761" y="-164.8" font-family="Times,serif" font-size="14.00">SpectrumModule</text>
</g>
<!-- SpectrumChartFormComponent&#45;&gt;SpectrumModule -->
<g id="edge1" class="edge">
<title>SpectrumChartFormComponent&#45;&gt;SpectrumModule</title>
<path fill="none" stroke="black" d="M1408,-122.29C1408,-144.21 1408,-178 1408,-178 1408,-178 827.85,-178 827.85,-178"/>
<polygon fill="black" stroke="black" points="827.85,-174.5 817.85,-178 827.85,-181.5 827.85,-174.5"/>
</g>
<!-- SpectrumComponent -->
<g id="node2" class="node">
<title>SpectrumComponent</title>
<polygon fill="#ffffb3" stroke="black" points="1291.49,-122 1156.51,-122 1156.51,-86 1291.49,-86 1291.49,-122"/>
<text text-anchor="middle" x="1224" y="-99.8" font-family="Times,serif" font-size="14.00">SpectrumComponent</text>
</g>
<!-- SpectrumComponent&#45;&gt;SpectrumModule -->
<g id="edge2" class="edge">
<title>SpectrumComponent&#45;&gt;SpectrumModule</title>
<path fill="none" stroke="black" d="M1224,-122.11C1224,-141.34 1224,-169 1224,-169 1224,-169 827.77,-169 827.77,-169"/>
<polygon fill="black" stroke="black" points="827.77,-165.5 817.77,-169 827.77,-172.5 827.77,-165.5"/>
</g>
<!-- SpectrumFormComponent -->
<g id="node3" class="node">
<title>SpectrumFormComponent</title>
<polygon fill="#ffffb3" stroke="black" points="1138.82,-122 973.18,-122 973.18,-86 1138.82,-86 1138.82,-122"/>
<text text-anchor="middle" x="1056" y="-99.8" font-family="Times,serif" font-size="14.00">SpectrumFormComponent</text>
</g>
<!-- SpectrumFormComponent&#45;&gt;SpectrumModule -->
<g id="edge3" class="edge">
<title>SpectrumFormComponent&#45;&gt;SpectrumModule</title>
<path fill="none" stroke="black" d="M1056,-122.03C1056,-138.4 1056,-160 1056,-160 1056,-160 827.88,-160 827.88,-160"/>
<polygon fill="black" stroke="black" points="827.88,-156.5 817.88,-160 827.88,-163.5 827.88,-156.5"/>
</g>
<!-- SpectrumHighchartComponent -->
<g id="node4" class="node">
<title>SpectrumHighchartComponent</title>
<polygon fill="#ffffb3" stroke="black" points="955.46,-122 764.54,-122 764.54,-86 955.46,-86 955.46,-122"/>
<text text-anchor="middle" x="860" y="-99.8" font-family="Times,serif" font-size="14.00">SpectrumHighchartComponent</text>
</g>
<!-- SpectrumHighchartComponent&#45;&gt;SpectrumModule -->
<g id="edge4" class="edge">
<title>SpectrumHighchartComponent&#45;&gt;SpectrumModule</title>
<path fill="none" stroke="black" d="M791.06,-122.11C791.06,-122.11 791.06,-140.99 791.06,-140.99"/>
<polygon fill="black" stroke="black" points="787.56,-140.99 791.06,-150.99 794.56,-140.99 787.56,-140.99"/>
</g>
<!-- SpectrumTableComponent -->
<g id="node5" class="node">
<title>SpectrumTableComponent</title>
<polygon fill="#ffffb3" stroke="black" points="746.36,-122 579.64,-122 579.64,-86 746.36,-86 746.36,-122"/>
<text text-anchor="middle" x="663" y="-99.8" font-family="Times,serif" font-size="14.00">SpectrumTableComponent</text>
</g>
<!-- SpectrumTableComponent&#45;&gt;SpectrumModule -->
<g id="edge5" class="edge">
<title>SpectrumTableComponent&#45;&gt;SpectrumModule</title>
<path fill="none" stroke="black" d="M725.41,-122.11C725.41,-122.11 725.41,-140.99 725.41,-140.99"/>
<polygon fill="black" stroke="black" points="721.91,-140.99 725.41,-150.99 728.91,-140.99 721.91,-140.99"/>
</g>
<!-- SimpleDataButtonModule -->
<g id="node7" class="node">
<title>SimpleDataButtonModule</title>
<polygon fill="#8dd3c7" stroke="black" points="555.76,-122 552.76,-126 531.76,-126 528.76,-122 392.24,-122 392.24,-86 555.76,-86 555.76,-122"/>
<text text-anchor="middle" x="474" y="-99.8" font-family="Times,serif" font-size="14.00">SimpleDataButtonModule</text>
</g>
<!-- SimpleDataButtonModule&#45;&gt;SpectrumModule -->
<g id="edge6" class="edge">
<title>SimpleDataButtonModule&#45;&gt;SpectrumModule</title>
<path fill="none" stroke="black" d="M474,-122.03C474,-138.4 474,-160 474,-160 474,-160 694.3,-160 694.3,-160"/>
<polygon fill="black" stroke="black" points="694.3,-163.5 704.3,-160 694.3,-156.5 694.3,-163.5"/>
</g>
<!-- SimpleGraphButtonModule -->
<g id="node8" class="node">
<title>SimpleGraphButtonModule</title>
<polygon fill="#8dd3c7" stroke="black" points="374.32,-122 371.32,-126 350.32,-126 347.32,-122 201.68,-122 201.68,-86 374.32,-86 374.32,-122"/>
<text text-anchor="middle" x="288" y="-99.8" font-family="Times,serif" font-size="14.00">SimpleGraphButtonModule</text>
</g>
<!-- SimpleGraphButtonModule&#45;&gt;SpectrumModule -->
<g id="edge7" class="edge">
<title>SimpleGraphButtonModule&#45;&gt;SpectrumModule</title>
<path fill="none" stroke="black" d="M288,-122.11C288,-141.34 288,-169 288,-169 288,-169 693.95,-169 693.95,-169"/>
<polygon fill="black" stroke="black" points="693.95,-172.5 703.95,-169 693.95,-165.5 693.95,-172.5"/>
</g>
<!-- SpectrumService -->
<g id="node9" class="node">
<title>SpectrumService</title>
<ellipse fill="#fdb462" stroke="black" cx="101" cy="-104" rx="77" ry="18"/>
<text text-anchor="middle" x="101" y="-99.8" font-family="Times,serif" font-size="14.00">SpectrumService</text>
</g>
<!-- SpectrumService&#45;&gt;SpectrumModule -->
<g id="edge8" class="edge">
<title>SpectrumService&#45;&gt;SpectrumModule</title>
<path fill="none" stroke="black" d="M101,-122.29C101,-144.21 101,-178 101,-178 101,-178 694.16,-178 694.16,-178"/>
<polygon fill="black" stroke="black" points="694.16,-181.5 704.16,-178 694.16,-174.5 694.16,-181.5"/>
</g>
</g>
</svg>
