<?xml version="1.0" encoding="UTF-8" standalone="no"?>
<!DOCTYPE svg PUBLIC "-//W3C//DTD SVG 1.1//EN"
 "http://www.w3.org/Graphics/SVG/1.1/DTD/svg11.dtd">
<!-- Generated by graphviz version 2.47.0 (20210316.0004)
 -->
<!-- Title: dependencies Pages: 1 -->
<svg width="1538pt" height="211pt"
 viewBox="0.00 0.00 1538.00 211.00" xmlns="http://www.w3.org/2000/svg" xmlns:xlink="http://www.w3.org/1999/xlink">
<g id="graph0" class="graph" transform="scale(1 1) rotate(0) translate(4 207)">
<title>dependencies</title>
<polygon fill="white" stroke="transparent" points="-4,4 -4,-207 1534,-207 1534,4 -4,4"/>
<text text-anchor="start" x="744.01" y="-42.4" font-family="Times-12" font-weight="bold" font-size="14.00">Legend</text>
<polygon fill="#ffffb3" stroke="transparent" points="531,-10 531,-30 551,-30 551,-10 531,-10"/>
<text text-anchor="start" x="554.63" y="-15.4" font-family="Times-12" font-size="14.00"> &#160;Declarations</text>
<polygon fill="#8dd3c7" stroke="transparent" points="644,-10 644,-30 664,-30 664,-10 644,-10"/>
<text text-anchor="start" x="667.73" y="-15.4" font-family="Times-12" font-size="14.00"> &#160;Module</text>
<polygon fill="#80b1d3" stroke="transparent" points="730,-10 730,-30 750,-30 750,-10 730,-10"/>
<text text-anchor="start" x="753.78" y="-15.4" font-family="Times-12" font-size="14.00"> &#160;Bootstrap</text>
<polygon fill="#fdb462" stroke="transparent" points="827,-10 827,-30 847,-30 847,-10 827,-10"/>
<text text-anchor="start" x="850.67" y="-15.4" font-family="Times-12" font-size="14.00"> &#160;Providers</text>
<polygon fill="#fb8072" stroke="transparent" points="923,-10 923,-30 943,-30 943,-10 923,-10"/>
<text text-anchor="start" x="946.73" y="-15.4" font-family="Times-12" font-size="14.00"> &#160;Exports</text>
<g id="clust1" class="cluster">
<title>cluster_SpectrumModule</title>
<polygon fill="none" stroke="black" stroke-dasharray="1,5" points="8,-70 8,-195 1522,-195 1522,-70 8,-70"/>
</g>
<g id="clust8" class="cluster">
<title>cluster_SpectrumModule_imports</title>
<polygon fill="none" stroke="black" points="1144,-78 1144,-130 1514,-130 1514,-78 1144,-78"/>
</g>
<g id="clust11" class="cluster">
<title>cluster_SpectrumModule_providers</title>
<polygon fill="none" stroke="black" points="966,-78 966,-130 1136,-130 1136,-78 966,-78"/>
</g>
<g id="clust2" class="cluster">
<title>cluster_SpectrumModule_declarations</title>
<polygon fill="none" stroke="black" points="16,-78 16,-130 958,-130 958,-78 16,-78"/>
</g>
<!-- SpectrumChartFormComponent -->
<g id="node1" class="node">
<title>SpectrumChartFormComponent</title>
<polygon fill="#ffffb3" stroke="black" points="950.42,-122 753.58,-122 753.58,-86 950.42,-86 950.42,-122"/>
<text text-anchor="middle" x="852" y="-99.8" font-family="Times,serif" font-size="14.00">SpectrumChartFormComponent</text>
</g>
<!-- SpectrumModule -->
<g id="node6" class="node">
<title>SpectrumModule</title>
<polygon fill="#8dd3c7" stroke="black" points="816.7,-187 813.7,-191 792.7,-191 789.7,-187 703.3,-187 703.3,-151 816.7,-151 816.7,-187"/>
<text text-anchor="middle" x="760" y="-164.8" font-family="Times,serif" font-size="14.00">SpectrumModule</text>
</g>
<!-- SpectrumChartFormComponent&#45;&gt;SpectrumModule -->
<g id="edge1" class="edge">
<title>SpectrumChartFormComponent&#45;&gt;SpectrumModule</title>
<path fill="none" stroke="black" d="M785.2,-122.11C785.2,-122.11 785.2,-140.99 785.2,-140.99"/>
<polygon fill="black" stroke="black" points="781.7,-140.99 785.2,-150.99 788.7,-140.99 781.7,-140.99"/>
</g>
<!-- SpectrumComponent -->
<g id="node2" class="node">
<title>SpectrumComponent</title>
<polygon fill="#ffffb3" stroke="black" points="735.49,-122 600.51,-122 600.51,-86 735.49,-86 735.49,-122"/>
<text text-anchor="middle" x="668" y="-99.8" font-family="Times,serif" font-size="14.00">SpectrumComponent</text>
</g>
<!-- SpectrumComponent&#45;&gt;SpectrumModule -->
<g id="edge2" class="edge">
<title>SpectrumComponent&#45;&gt;SpectrumModule</title>
<path fill="none" stroke="black" d="M719.45,-122.11C719.45,-122.11 719.45,-140.99 719.45,-140.99"/>
<polygon fill="black" stroke="black" points="715.95,-140.99 719.45,-150.99 722.95,-140.99 715.95,-140.99"/>
</g>
<!-- SpectrumFormComponent -->
<g id="node3" class="node">
<title>SpectrumFormComponent</title>
<polygon fill="#ffffb3" stroke="black" points="582.82,-122 417.18,-122 417.18,-86 582.82,-86 582.82,-122"/>
<text text-anchor="middle" x="500" y="-99.8" font-family="Times,serif" font-size="14.00">SpectrumFormComponent</text>
</g>
<!-- SpectrumFormComponent&#45;&gt;SpectrumModule -->
<g id="edge3" class="edge">
<title>SpectrumFormComponent&#45;&gt;SpectrumModule</title>
<path fill="none" stroke="black" d="M500,-122.03C500,-138.4 500,-160 500,-160 500,-160 693.26,-160 693.26,-160"/>
<polygon fill="black" stroke="black" points="693.26,-163.5 703.26,-160 693.26,-156.5 693.26,-163.5"/>
</g>
<!-- SpectrumHighchartComponent -->
<g id="node4" class="node">
<title>SpectrumHighchartComponent</title>
<polygon fill="#ffffb3" stroke="black" points="399.46,-122 208.54,-122 208.54,-86 399.46,-86 399.46,-122"/>
<text text-anchor="middle" x="304" y="-99.8" font-family="Times,serif" font-size="14.00">SpectrumHighchartComponent</text>
</g>
<!-- SpectrumHighchartComponent&#45;&gt;SpectrumModule -->
<g id="edge4" class="edge">
<title>SpectrumHighchartComponent&#45;&gt;SpectrumModule</title>
<path fill="none" stroke="black" d="M304,-122.11C304,-141.34 304,-169 304,-169 304,-169 693.17,-169 693.17,-169"/>
<polygon fill="black" stroke="black" points="693.17,-172.5 703.17,-169 693.17,-165.5 693.17,-172.5"/>
</g>
<!-- SpectrumTableComponent -->
<g id="node5" class="node">
<title>SpectrumTableComponent</title>
<polygon fill="#ffffb3" stroke="black" points="190.36,-122 23.64,-122 23.64,-86 190.36,-86 190.36,-122"/>
<text text-anchor="middle" x="107" y="-99.8" font-family="Times,serif" font-size="14.00">SpectrumTableComponent</text>
</g>
<!-- SpectrumTableComponent&#45;&gt;SpectrumModule -->
<g id="edge5" class="edge">
<title>SpectrumTableComponent&#45;&gt;SpectrumModule</title>
<path fill="none" stroke="black" d="M107,-122.29C107,-144.21 107,-178 107,-178 107,-178 693.19,-178 693.19,-178"/>
<polygon fill="black" stroke="black" points="693.19,-181.5 703.19,-178 693.19,-174.5 693.19,-181.5"/>
</g>
<!-- SimpleDataButtonModule -->
<g id="node7" class="node">
<title>SimpleDataButtonModule</title>
<polygon fill="#8dd3c7" stroke="black" points="1505.76,-122 1502.76,-126 1481.76,-126 1478.76,-122 1342.24,-122 1342.24,-86 1505.76,-86 1505.76,-122"/>
<text text-anchor="middle" x="1424" y="-99.8" font-family="Times,serif" font-size="14.00">SimpleDataButtonModule</text>
</g>
<!-- SimpleDataButtonModule&#45;&gt;SpectrumModule -->
<g id="edge6" class="edge">
<title>SimpleDataButtonModule&#45;&gt;SpectrumModule</title>
<path fill="none" stroke="black" d="M1424,-122.29C1424,-144.21 1424,-178 1424,-178 1424,-178 826.61,-178 826.61,-178"/>
<polygon fill="black" stroke="black" points="826.61,-174.5 816.61,-178 826.61,-181.5 826.61,-174.5"/>
</g>
<!-- SimpleGraphButtonModule -->
<g id="node8" class="node">
<title>SimpleGraphButtonModule</title>
<polygon fill="#8dd3c7" stroke="black" points="1324.32,-122 1321.32,-126 1300.32,-126 1297.32,-122 1151.68,-122 1151.68,-86 1324.32,-86 1324.32,-122"/>
<text text-anchor="middle" x="1238" y="-99.8" font-family="Times,serif" font-size="14.00">SimpleGraphButtonModule</text>
</g>
<!-- SimpleGraphButtonModule&#45;&gt;SpectrumModule -->
<g id="edge7" class="edge">
<title>SimpleGraphButtonModule&#45;&gt;SpectrumModule</title>
<path fill="none" stroke="black" d="M1238,-122.11C1238,-141.34 1238,-169 1238,-169 1238,-169 826.71,-169 826.71,-169"/>
<polygon fill="black" stroke="black" points="826.71,-165.5 816.71,-169 826.71,-172.5 826.71,-165.5"/>
</g>
<!-- SpectrumService -->
<g id="node9" class="node">
<title>SpectrumService</title>
<ellipse fill="#fdb462" stroke="black" cx="1051" cy="-104" rx="77" ry="18"/>
<text text-anchor="middle" x="1051" y="-99.8" font-family="Times,serif" font-size="14.00">SpectrumService</text>
</g>
<!-- SpectrumService&#45;&gt;SpectrumModule -->
<g id="edge8" class="edge">
<title>SpectrumService&#45;&gt;SpectrumModule</title>
<path fill="none" stroke="black" d="M1051,-122.03C1051,-138.4 1051,-160 1051,-160 1051,-160 826.8,-160 826.8,-160"/>
<polygon fill="black" stroke="black" points="826.8,-156.5 816.8,-160 826.8,-163.5 826.8,-156.5"/>
</g>
</g>
</svg>
