<?xml version="1.0" encoding="UTF-8" standalone="no"?>
<!DOCTYPE svg PUBLIC "-//W3C//DTD SVG 1.1//EN"
 "http://www.w3.org/Graphics/SVG/1.1/DTD/svg11.dtd">
<!-- Generated by graphviz version 5.0.0 (20220707.1540)
 -->
<!-- Title: dependencies Pages: 1 -->
<svg width="340pt" height="247pt"
 viewBox="0.00 0.00 340.00 246.80" xmlns="http://www.w3.org/2000/svg" xmlns:xlink="http://www.w3.org/1999/xlink">
<g id="graph0" class="graph" transform="scale(1 1) rotate(0) translate(4 242.8)">
<title>dependencies</title>
<polygon fill="white" stroke="transparent" points="-4,4 -4,-242.8 336,-242.8 336,4 -4,4"/>
<text text-anchor="middle" x="166" y="-8.2" font-family="sans-serif" font-size="14.00">dependencies</text>
<g id="clust1" class="cluster">
<title>cluster_MenubarModule</title>
<polygon fill="none" stroke="black" stroke-dasharray="1,5" points="8,-32.8 8,-230.8 324,-230.8 324,-32.8 8,-32.8"/>
</g>
<g id="clust2" class="cluster">
<title>cluster_MenubarModule_declarations</title>
<polygon fill="none" stroke="black" points="168,-40.8 168,-92.8 316,-92.8 316,-40.8 168,-40.8"/>
</g>
<g id="clust4" class="cluster">
<title>cluster_MenubarModule_imports</title>
<polygon fill="none" stroke="black" points="16,-40.8 16,-92.8 160,-92.8 160,-40.8 16,-40.8"/>
</g>
<g id="clust5" class="cluster">
<title>cluster_MenubarModule_exports</title>
<polygon fill="none" stroke="black" points="90,-170.8 90,-222.8 242,-222.8 242,-170.8 90,-170.8"/>
</g>
<!-- MenubarComponent -->
<g id="node1" class="node">
<title>MenubarComponent</title>
<polygon fill="#ffffb3" stroke="black" points="307.87,-84.8 176.13,-84.8 176.13,-48.8 307.87,-48.8 307.87,-84.8"/>
<text text-anchor="middle" x="242" y="-62.6" font-family="Times,serif" font-size="14.00">MenubarComponent</text>
</g>
<!-- MenubarModule -->
<g id="node2" class="node">
<title>MenubarModule</title>
<polygon fill="#8dd3c7" stroke="black" points="221.09,-149.8 218.09,-153.8 197.09,-153.8 194.09,-149.8 110.91,-149.8 110.91,-113.8 221.09,-113.8 221.09,-149.8"/>
<text text-anchor="middle" x="166" y="-127.6" font-family="Times,serif" font-size="14.00">MenubarModule</text>
</g>
<!-- MenubarComponent&#45;&gt;MenubarModule -->
<g id="edge1" class="edge">
<title>MenubarComponent&#45;&gt;MenubarModule</title>
<path fill="none" stroke="black" d="M198.56,-84.91C198.56,-84.91 198.56,-103.79 198.56,-103.79"/>
<polygon fill="black" stroke="black" points="195.06,-103.79 198.56,-113.79 202.06,-103.79 195.06,-103.79"/>
</g>
<!-- MenubarComponent  -->
<g id="node4" class="node">
<title>MenubarComponent </title>
<polygon fill="#fb8072" stroke="black" points="233.87,-214.8 98.13,-214.8 98.13,-178.8 233.87,-178.8 233.87,-214.8"/>
<text text-anchor="middle" x="166" y="-192.6" font-family="Times,serif" font-size="14.00">MenubarComponent </text>
</g>
<!-- MenubarModule&#45;&gt;MenubarComponent  -->
<g id="edge3" class="edge">
<title>MenubarModule&#45;&gt;MenubarComponent </title>
<path fill="none" stroke="black" stroke-dasharray="5,2" d="M166,-149.91C166,-149.91 166,-168.79 166,-168.79"/>
<polygon fill="black" stroke="black" points="162.5,-168.79 166,-178.79 169.5,-168.79 162.5,-168.79"/>
</g>
<!-- AppRoutingModule -->
<g id="node3" class="node">
<title>AppRoutingModule</title>
<polygon fill="#8dd3c7" stroke="black" points="152.28,-84.8 149.28,-88.8 128.28,-88.8 125.28,-84.8 23.72,-84.8 23.72,-48.8 152.28,-48.8 152.28,-84.8"/>
<text text-anchor="middle" x="88" y="-62.6" font-family="Times,serif" font-size="14.00">AppRoutingModule</text>
</g>
<!-- AppRoutingModule&#45;&gt;MenubarModule -->
<g id="edge2" class="edge">
<title>AppRoutingModule&#45;&gt;MenubarModule</title>
<path fill="none" stroke="black" d="M131.67,-84.91C131.67,-84.91 131.67,-103.79 131.67,-103.79"/>
<polygon fill="black" stroke="black" points="128.17,-103.79 131.67,-113.79 135.17,-103.79 128.17,-103.79"/>
</g>
</g>
</svg>
