<?xml version="1.0" encoding="UTF-8" standalone="no"?>
<!DOCTYPE svg PUBLIC "-//W3C//DTD SVG 1.1//EN"
 "http://www.w3.org/Graphics/SVG/1.1/DTD/svg11.dtd">
<!-- Generated by graphviz version 2.47.0 (20210316.0004)
 -->
<!-- Title: dependencies Pages: 1 -->
<svg width="504pt" height="284pt"
 viewBox="0.00 0.00 504.00 284.00" xmlns="http://www.w3.org/2000/svg" xmlns:xlink="http://www.w3.org/1999/xlink">
<g id="graph0" class="graph" transform="scale(1 1) rotate(0) translate(4 280)">
<title>dependencies</title>
<polygon fill="white" stroke="transparent" points="-4,4 -4,-280 500,-280 500,4 -4,4"/>
<text text-anchor="start" x="227.01" y="-42.4" font-family="Times-12" font-weight="bold" font-size="14.00">Legend</text>
<polygon fill="#ffffb3" stroke="transparent" points="14,-10 14,-30 34,-30 34,-10 14,-10"/>
<text text-anchor="start" x="37.63" y="-15.4" font-family="Times-12" font-size="14.00"> &#160;Declarations</text>
<polygon fill="#8dd3c7" stroke="transparent" points="127,-10 127,-30 147,-30 147,-10 127,-10"/>
<text text-anchor="start" x="150.73" y="-15.4" font-family="Times-12" font-size="14.00"> &#160;Module</text>
<polygon fill="#80b1d3" stroke="transparent" points="213,-10 213,-30 233,-30 233,-10 213,-10"/>
<text text-anchor="start" x="236.78" y="-15.4" font-family="Times-12" font-size="14.00"> &#160;Bootstrap</text>
<polygon fill="#fdb462" stroke="transparent" points="310,-10 310,-30 330,-30 330,-10 310,-10"/>
<text text-anchor="start" x="333.67" y="-15.4" font-family="Times-12" font-size="14.00"> &#160;Providers</text>
<polygon fill="#fb8072" stroke="transparent" points="406,-10 406,-30 426,-30 426,-10 406,-10"/>
<text text-anchor="start" x="429.73" y="-15.4" font-family="Times-12" font-size="14.00"> &#160;Exports</text>
<g id="clust1" class="cluster">
<title>cluster_MenubarModule</title>
<polygon fill="none" stroke="black" stroke-dasharray="1,5" points="90,-70 90,-268 406,-268 406,-70 90,-70"/>
</g>
<g id="clust5" class="cluster">
<title>cluster_MenubarModule_exports</title>
<polygon fill="none" stroke="black" points="172,-208 172,-260 324,-260 324,-208 172,-208"/>
</g>
<g id="clust2" class="cluster">
<title>cluster_MenubarModule_declarations</title>
<polygon fill="none" stroke="black" points="250,-78 250,-130 398,-130 398,-78 250,-78"/>
</g>
<g id="clust4" class="cluster">
<title>cluster_MenubarModule_imports</title>
<polygon fill="none" stroke="black" points="98,-78 98,-130 242,-130 242,-78 98,-78"/>
</g>
<!-- MenubarComponent -->
<g id="node1" class="node">
<title>MenubarComponent</title>
<polygon fill="#ffffb3" stroke="black" points="389.87,-122 258.13,-122 258.13,-86 389.87,-86 389.87,-122"/>
<text text-anchor="middle" x="324" y="-99.8" font-family="Times,serif" font-size="14.00">MenubarComponent</text>
</g>
<!-- MenubarModule -->
<g id="node2" class="node">
<title>MenubarModule</title>
<polygon fill="#8dd3c7" stroke="black" points="303.08,-187 300.08,-191 279.08,-191 276.08,-187 192.92,-187 192.92,-151 303.08,-151 303.08,-187"/>
<text text-anchor="middle" x="248" y="-164.8" font-family="Times,serif" font-size="14.00">MenubarModule</text>
</g>
<!-- MenubarComponent&#45;&gt;MenubarModule -->
<g id="edge1" class="edge">
<title>MenubarComponent&#45;&gt;MenubarModule</title>
<path fill="none" stroke="black" d="M280.55,-122.11C280.55,-122.11 280.55,-140.99 280.55,-140.99"/>
<polygon fill="black" stroke="black" points="277.05,-140.99 280.55,-150.99 284.05,-140.99 277.05,-140.99"/>
</g>
<!-- MenubarComponent  -->
<g id="node4" class="node">
<title>MenubarComponent </title>
<polygon fill="#fb8072" stroke="black" points="315.87,-252 180.13,-252 180.13,-216 315.87,-216 315.87,-252"/>
<text text-anchor="middle" x="248" y="-229.8" font-family="Times,serif" font-size="14.00">MenubarComponent </text>
</g>
<!-- MenubarModule&#45;&gt;MenubarComponent  -->
<g id="edge3" class="edge">
<title>MenubarModule&#45;&gt;MenubarComponent </title>
<path fill="none" stroke="black" stroke-dasharray="5,2" d="M248,-187.11C248,-187.11 248,-205.99 248,-205.99"/>
<polygon fill="black" stroke="black" points="244.5,-205.99 248,-215.99 251.5,-205.99 244.5,-205.99"/>
</g>
<!-- AppRoutingModule -->
<g id="node3" class="node">
<title>AppRoutingModule</title>
<polygon fill="#8dd3c7" stroke="black" points="234.27,-122 231.27,-126 210.27,-126 207.27,-122 105.73,-122 105.73,-86 234.27,-86 234.27,-122"/>
<text text-anchor="middle" x="170" y="-99.8" font-family="Times,serif" font-size="14.00">AppRoutingModule</text>
</g>
<!-- AppRoutingModule&#45;&gt;MenubarModule -->
<g id="edge2" class="edge">
<title>AppRoutingModule&#45;&gt;MenubarModule</title>
<path fill="none" stroke="black" d="M213.67,-122.11C213.67,-122.11 213.67,-140.99 213.67,-140.99"/>
<polygon fill="black" stroke="black" points="210.17,-140.99 213.67,-150.99 217.17,-140.99 210.17,-140.99"/>
</g>
</g>
</svg>
