<?xml version="1.0" encoding="UTF-8" standalone="no"?>
<!DOCTYPE svg PUBLIC "-//W3C//DTD SVG 1.1//EN"
 "http://www.w3.org/Graphics/SVG/1.1/DTD/svg11.dtd">
<!-- Generated by graphviz version 2.47.0 (20210316.0004)
 -->
<!-- Title: dependencies Pages: 1 -->
<svg width="1259pt" height="284pt"
 viewBox="0.00 0.00 1259.00 284.00" xmlns="http://www.w3.org/2000/svg" xmlns:xlink="http://www.w3.org/1999/xlink">
<g id="graph0" class="graph" transform="scale(1 1) rotate(0) translate(4 280)">
<title>dependencies</title>
<polygon fill="white" stroke="transparent" points="-4,4 -4,-280 1255,-280 1255,4 -4,4"/>
<text text-anchor="start" x="604.51" y="-42.4" font-family="Times-12" font-weight="bold" font-size="14.00">Legend</text>
<polygon fill="#ffffb3" stroke="transparent" points="391.5,-10 391.5,-30 411.5,-30 411.5,-10 391.5,-10"/>
<text text-anchor="start" x="415.13" y="-15.4" font-family="Times-12" font-size="14.00"> &#160;Declarations</text>
<polygon fill="#8dd3c7" stroke="transparent" points="504.5,-10 504.5,-30 524.5,-30 524.5,-10 504.5,-10"/>
<text text-anchor="start" x="528.23" y="-15.4" font-family="Times-12" font-size="14.00"> &#160;Module</text>
<polygon fill="#80b1d3" stroke="transparent" points="590.5,-10 590.5,-30 610.5,-30 610.5,-10 590.5,-10"/>
<text text-anchor="start" x="614.28" y="-15.4" font-family="Times-12" font-size="14.00"> &#160;Bootstrap</text>
<polygon fill="#fdb462" stroke="transparent" points="687.5,-10 687.5,-30 707.5,-30 707.5,-10 687.5,-10"/>
<text text-anchor="start" x="711.17" y="-15.4" font-family="Times-12" font-size="14.00"> &#160;Providers</text>
<polygon fill="#fb8072" stroke="transparent" points="783.5,-10 783.5,-30 803.5,-30 803.5,-10 783.5,-10"/>
<text text-anchor="start" x="807.23" y="-15.4" font-family="Times-12" font-size="14.00"> &#160;Exports</text>
<g id="clust1" class="cluster">
<title>cluster_VenusModule</title>
<polygon fill="none" stroke="black" stroke-dasharray="1,5" points="8,-70 8,-268 1243,-268 1243,-70 8,-70"/>
</g>
<g id="clust8" class="cluster">
<title>cluster_VenusModule_exports</title>
<polygon fill="none" stroke="black" points="538,-208 538,-260 674,-260 674,-208 538,-208"/>
</g>
<g id="clust7" class="cluster">
<title>cluster_VenusModule_imports</title>
<polygon fill="none" stroke="black" points="865,-78 865,-130 1235,-130 1235,-78 865,-78"/>
</g>
<g id="clust10" class="cluster">
<title>cluster_VenusModule_providers</title>
<polygon fill="none" stroke="black" points="711,-78 711,-130 857,-130 857,-78 711,-78"/>
</g>
<g id="clust2" class="cluster">
<title>cluster_VenusModule_declarations</title>
<polygon fill="none" stroke="black" points="16,-78 16,-130 703,-130 703,-78 16,-78"/>
</g>
<!-- VenusChartFormComponent -->
<g id="node1" class="node">
<title>VenusChartFormComponent</title>
<polygon fill="#ffffb3" stroke="black" points="695.04,-122 516.96,-122 516.96,-86 695.04,-86 695.04,-122"/>
<text text-anchor="middle" x="606" y="-99.8" font-family="Times,serif" font-size="14.00">VenusChartFormComponent</text>
</g>
<!-- VenusModule -->
<g id="node5" class="node">
<title>VenusModule</title>
<polygon fill="#8dd3c7" stroke="black" points="653.82,-187 650.82,-191 629.82,-191 626.82,-187 558.18,-187 558.18,-151 653.82,-151 653.82,-187"/>
<text text-anchor="middle" x="606" y="-164.8" font-family="Times,serif" font-size="14.00">VenusModule</text>
</g>
<!-- VenusChartFormComponent&#45;&gt;VenusModule -->
<g id="edge1" class="edge">
<title>VenusChartFormComponent&#45;&gt;VenusModule</title>
<path fill="none" stroke="black" d="M606,-122.11C606,-122.11 606,-140.99 606,-140.99"/>
<polygon fill="black" stroke="black" points="602.5,-140.99 606,-150.99 609.5,-140.99 602.5,-140.99"/>
</g>
<!-- VenusComponent -->
<g id="node2" class="node">
<title>VenusComponent</title>
<polygon fill="#ffffb3" stroke="black" points="498.6,-122 381.4,-122 381.4,-86 498.6,-86 498.6,-122"/>
<text text-anchor="middle" x="440" y="-99.8" font-family="Times,serif" font-size="14.00">VenusComponent</text>
</g>
<!-- VenusComponent&#45;&gt;VenusModule -->
<g id="edge2" class="edge">
<title>VenusComponent&#45;&gt;VenusModule</title>
<path fill="none" stroke="black" d="M440,-122.03C440,-138.4 440,-160 440,-160 440,-160 547.99,-160 547.99,-160"/>
<polygon fill="black" stroke="black" points="547.99,-163.5 557.99,-160 547.99,-156.5 547.99,-163.5"/>
</g>
<!-- VenusHighchartComponent -->
<g id="node3" class="node">
<title>VenusHighchartComponent</title>
<polygon fill="#ffffb3" stroke="black" points="363.58,-122 190.42,-122 190.42,-86 363.58,-86 363.58,-122"/>
<text text-anchor="middle" x="277" y="-99.8" font-family="Times,serif" font-size="14.00">VenusHighchartComponent</text>
</g>
<!-- VenusHighchartComponent&#45;&gt;VenusModule -->
<g id="edge3" class="edge">
<title>VenusHighchartComponent&#45;&gt;VenusModule</title>
<path fill="none" stroke="black" d="M277,-122.11C277,-141.34 277,-169 277,-169 277,-169 548.16,-169 548.16,-169"/>
<polygon fill="black" stroke="black" points="548.16,-172.5 558.16,-169 548.16,-165.5 548.16,-172.5"/>
</g>
<!-- VenusTableComponent -->
<g id="node4" class="node">
<title>VenusTableComponent</title>
<polygon fill="#ffffb3" stroke="black" points="172.47,-122 23.53,-122 23.53,-86 172.47,-86 172.47,-122"/>
<text text-anchor="middle" x="98" y="-99.8" font-family="Times,serif" font-size="14.00">VenusTableComponent</text>
</g>
<!-- VenusTableComponent&#45;&gt;VenusModule -->
<g id="edge4" class="edge">
<title>VenusTableComponent&#45;&gt;VenusModule</title>
<path fill="none" stroke="black" d="M98,-122.29C98,-144.21 98,-178 98,-178 98,-178 548.21,-178 548.21,-178"/>
<polygon fill="black" stroke="black" points="548.21,-181.5 558.21,-178 548.21,-174.5 548.21,-181.5"/>
</g>
<!-- VenusComponent  -->
<g id="node8" class="node">
<title>VenusComponent </title>
<polygon fill="#fb8072" stroke="black" points="666.1,-252 545.9,-252 545.9,-216 666.1,-216 666.1,-252"/>
<text text-anchor="middle" x="606" y="-229.8" font-family="Times,serif" font-size="14.00">VenusComponent </text>
</g>
<!-- VenusModule&#45;&gt;VenusComponent  -->
<g id="edge7" class="edge">
<title>VenusModule&#45;&gt;VenusComponent </title>
<path fill="none" stroke="black" stroke-dasharray="5,2" d="M606,-187.11C606,-187.11 606,-205.99 606,-205.99"/>
<polygon fill="black" stroke="black" points="602.5,-205.99 606,-215.99 609.5,-205.99 602.5,-205.99"/>
</g>
<!-- SimpleDataButtonModule -->
<g id="node6" class="node">
<title>SimpleDataButtonModule</title>
<polygon fill="#8dd3c7" stroke="black" points="1226.76,-122 1223.76,-126 1202.76,-126 1199.76,-122 1063.24,-122 1063.24,-86 1226.76,-86 1226.76,-122"/>
<text text-anchor="middle" x="1145" y="-99.8" font-family="Times,serif" font-size="14.00">SimpleDataButtonModule</text>
</g>
<!-- SimpleDataButtonModule&#45;&gt;VenusModule -->
<g id="edge5" class="edge">
<title>SimpleDataButtonModule&#45;&gt;VenusModule</title>
<path fill="none" stroke="black" d="M1145,-122.29C1145,-144.21 1145,-178 1145,-178 1145,-178 663.83,-178 663.83,-178"/>
<polygon fill="black" stroke="black" points="663.83,-174.5 653.83,-178 663.83,-181.5 663.83,-174.5"/>
</g>
<!-- SimpleGraphButtonModule -->
<g id="node7" class="node">
<title>SimpleGraphButtonModule</title>
<polygon fill="#8dd3c7" stroke="black" points="1045.32,-122 1042.32,-126 1021.32,-126 1018.32,-122 872.68,-122 872.68,-86 1045.32,-86 1045.32,-122"/>
<text text-anchor="middle" x="959" y="-99.8" font-family="Times,serif" font-size="14.00">SimpleGraphButtonModule</text>
</g>
<!-- SimpleGraphButtonModule&#45;&gt;VenusModule -->
<g id="edge6" class="edge">
<title>SimpleGraphButtonModule&#45;&gt;VenusModule</title>
<path fill="none" stroke="black" d="M959,-122.11C959,-141.34 959,-169 959,-169 959,-169 663.97,-169 663.97,-169"/>
<polygon fill="black" stroke="black" points="663.97,-165.5 653.97,-169 663.97,-172.5 663.97,-165.5"/>
</g>
<!-- VenusService -->
<g id="node9" class="node">
<title>VenusService</title>
<ellipse fill="#fdb462" stroke="black" cx="784" cy="-104" rx="64.83" ry="18"/>
<text text-anchor="middle" x="784" y="-99.8" font-family="Times,serif" font-size="14.00">VenusService</text>
</g>
<!-- VenusService&#45;&gt;VenusModule -->
<g id="edge8" class="edge">
<title>VenusService&#45;&gt;VenusModule</title>
<path fill="none" stroke="black" d="M784,-122.03C784,-138.4 784,-160 784,-160 784,-160 663.7,-160 663.7,-160"/>
<polygon fill="black" stroke="black" points="663.7,-156.5 653.7,-160 663.7,-163.5 663.7,-156.5"/>
</g>
</g>
</svg>
