<?xml version="1.0" encoding="UTF-8" standalone="no"?>
<!DOCTYPE svg PUBLIC "-//W3C//DTD SVG 1.1//EN"
 "http://www.w3.org/Graphics/SVG/1.1/DTD/svg11.dtd">
<!-- Generated by graphviz version 2.47.0 (20210316.0004)
 -->
<!-- Title: dependencies Pages: 1 -->
<svg width="1259pt" height="211pt"
 viewBox="0.00 0.00 1259.00 211.00" xmlns="http://www.w3.org/2000/svg" xmlns:xlink="http://www.w3.org/1999/xlink">
<g id="graph0" class="graph" transform="scale(1 1) rotate(0) translate(4 207)">
<title>dependencies</title>
<polygon fill="white" stroke="transparent" points="-4,4 -4,-207 1255,-207 1255,4 -4,4"/>
<text text-anchor="start" x="604.51" y="-42.4" font-family="Times-12" font-weight="bold" font-size="14.00">Legend</text>
<polygon fill="#ffffb3" stroke="transparent" points="391.5,-10 391.5,-30 411.5,-30 411.5,-10 391.5,-10"/>
<text text-anchor="start" x="415.13" y="-15.4" font-family="Times-12" font-size="14.00"> &#160;Declarations</text>
<polygon fill="#8dd3c7" stroke="transparent" points="504.5,-10 504.5,-30 524.5,-30 524.5,-10 504.5,-10"/>
<text text-anchor="start" x="528.23" y="-15.4" font-family="Times-12" font-size="14.00"> &#160;Module</text>
<polygon fill="#80b1d3" stroke="transparent" points="590.5,-10 590.5,-30 610.5,-30 610.5,-10 590.5,-10"/>
<text text-anchor="start" x="614.28" y="-15.4" font-family="Times-12" font-size="14.00"> &#160;Bootstrap</text>
<polygon fill="#fdb462" stroke="transparent" points="687.5,-10 687.5,-30 707.5,-30 707.5,-10 687.5,-10"/>
<text text-anchor="start" x="711.17" y="-15.4" font-family="Times-12" font-size="14.00"> &#160;Providers</text>
<polygon fill="#fb8072" stroke="transparent" points="783.5,-10 783.5,-30 803.5,-30 803.5,-10 783.5,-10"/>
<text text-anchor="start" x="807.23" y="-15.4" font-family="Times-12" font-size="14.00"> &#160;Exports</text>
<g id="clust1" class="cluster">
<title>cluster_VenusModule</title>
<polygon fill="none" stroke="black" stroke-dasharray="1,5" points="8,-70 8,-195 1243,-195 1243,-70 8,-70"/>
</g>
<g id="clust7" class="cluster">
<title>cluster_VenusModule_imports</title>
<polygon fill="none" stroke="black" points="865,-78 865,-130 1235,-130 1235,-78 865,-78"/>
</g>
<g id="clust2" class="cluster">
<title>cluster_VenusModule_declarations</title>
<polygon fill="none" stroke="black" points="170,-78 170,-130 857,-130 857,-78 170,-78"/>
</g>
<g id="clust10" class="cluster">
<title>cluster_VenusModule_providers</title>
<polygon fill="none" stroke="black" points="16,-78 16,-130 162,-130 162,-78 16,-78"/>
</g>
<!-- VenusChartFormComponent -->
<g id="node1" class="node">
<title>VenusChartFormComponent</title>
<polygon fill="#ffffb3" stroke="black" points="849.04,-122 670.96,-122 670.96,-86 849.04,-86 849.04,-122"/>
<text text-anchor="middle" x="760" y="-99.8" font-family="Times,serif" font-size="14.00">VenusChartFormComponent</text>
</g>
<!-- VenusModule -->
<g id="node5" class="node">
<title>VenusModule</title>
<polygon fill="#8dd3c7" stroke="black" points="641.82,-187 638.82,-191 617.82,-191 614.82,-187 546.18,-187 546.18,-151 641.82,-151 641.82,-187"/>
<text text-anchor="middle" x="594" y="-164.8" font-family="Times,serif" font-size="14.00">VenusModule</text>
</g>
<!-- VenusChartFormComponent&#45;&gt;VenusModule -->
<g id="edge1" class="edge">
<title>VenusChartFormComponent&#45;&gt;VenusModule</title>
<path fill="none" stroke="black" d="M760,-122.03C760,-138.4 760,-160 760,-160 760,-160 652.01,-160 652.01,-160"/>
<polygon fill="black" stroke="black" points="652.01,-156.5 642.01,-160 652.01,-163.5 652.01,-156.5"/>
</g>
<!-- VenusComponent -->
<g id="node2" class="node">
<title>VenusComponent</title>
<polygon fill="#ffffb3" stroke="black" points="652.6,-122 535.4,-122 535.4,-86 652.6,-86 652.6,-122"/>
<text text-anchor="middle" x="594" y="-99.8" font-family="Times,serif" font-size="14.00">VenusComponent</text>
</g>
<!-- VenusComponent&#45;&gt;VenusModule -->
<g id="edge2" class="edge">
<title>VenusComponent&#45;&gt;VenusModule</title>
<path fill="none" stroke="black" d="M594,-122.11C594,-122.11 594,-140.99 594,-140.99"/>
<polygon fill="black" stroke="black" points="590.5,-140.99 594,-150.99 597.5,-140.99 590.5,-140.99"/>
</g>
<!-- VenusHighchartComponent -->
<g id="node3" class="node">
<title>VenusHighchartComponent</title>
<polygon fill="#ffffb3" stroke="black" points="517.58,-122 344.42,-122 344.42,-86 517.58,-86 517.58,-122"/>
<text text-anchor="middle" x="431" y="-99.8" font-family="Times,serif" font-size="14.00">VenusHighchartComponent</text>
</g>
<!-- VenusHighchartComponent&#45;&gt;VenusModule -->
<g id="edge3" class="edge">
<title>VenusHighchartComponent&#45;&gt;VenusModule</title>
<path fill="none" stroke="black" d="M431,-122.03C431,-138.4 431,-160 431,-160 431,-160 535.98,-160 535.98,-160"/>
<polygon fill="black" stroke="black" points="535.98,-163.5 545.98,-160 535.98,-156.5 535.98,-163.5"/>
</g>
<!-- VenusTableComponent -->
<g id="node4" class="node">
<title>VenusTableComponent</title>
<polygon fill="#ffffb3" stroke="black" points="326.47,-122 177.53,-122 177.53,-86 326.47,-86 326.47,-122"/>
<text text-anchor="middle" x="252" y="-99.8" font-family="Times,serif" font-size="14.00">VenusTableComponent</text>
</g>
<!-- VenusTableComponent&#45;&gt;VenusModule -->
<g id="edge4" class="edge">
<title>VenusTableComponent&#45;&gt;VenusModule</title>
<path fill="none" stroke="black" d="M252,-122.11C252,-141.34 252,-169 252,-169 252,-169 536.09,-169 536.09,-169"/>
<polygon fill="black" stroke="black" points="536.09,-172.5 546.09,-169 536.09,-165.5 536.09,-172.5"/>
</g>
<!-- SimpleDataButtonModule -->
<g id="node6" class="node">
<title>SimpleDataButtonModule</title>
<polygon fill="#8dd3c7" stroke="black" points="1226.76,-122 1223.76,-126 1202.76,-126 1199.76,-122 1063.24,-122 1063.24,-86 1226.76,-86 1226.76,-122"/>
<text text-anchor="middle" x="1145" y="-99.8" font-family="Times,serif" font-size="14.00">SimpleDataButtonModule</text>
</g>
<!-- SimpleDataButtonModule&#45;&gt;VenusModule -->
<g id="edge5" class="edge">
<title>SimpleDataButtonModule&#45;&gt;VenusModule</title>
<path fill="none" stroke="black" d="M1145,-122.29C1145,-144.21 1145,-178 1145,-178 1145,-178 651.93,-178 651.93,-178"/>
<polygon fill="black" stroke="black" points="651.93,-174.5 641.93,-178 651.93,-181.5 651.93,-174.5"/>
</g>
<!-- SimpleGraphButtonModule -->
<g id="node7" class="node">
<title>SimpleGraphButtonModule</title>
<polygon fill="#8dd3c7" stroke="black" points="1045.32,-122 1042.32,-126 1021.32,-126 1018.32,-122 872.68,-122 872.68,-86 1045.32,-86 1045.32,-122"/>
<text text-anchor="middle" x="959" y="-99.8" font-family="Times,serif" font-size="14.00">SimpleGraphButtonModule</text>
</g>
<!-- SimpleGraphButtonModule&#45;&gt;VenusModule -->
<g id="edge6" class="edge">
<title>SimpleGraphButtonModule&#45;&gt;VenusModule</title>
<path fill="none" stroke="black" d="M959,-122.11C959,-141.34 959,-169 959,-169 959,-169 651.72,-169 651.72,-169"/>
<polygon fill="black" stroke="black" points="651.72,-165.5 641.72,-169 651.72,-172.5 651.72,-165.5"/>
</g>
<!-- VenusService -->
<g id="node8" class="node">
<title>VenusService</title>
<ellipse fill="#fdb462" stroke="black" cx="89" cy="-104" rx="64.83" ry="18"/>
<text text-anchor="middle" x="89" y="-99.8" font-family="Times,serif" font-size="14.00">VenusService</text>
</g>
<!-- VenusService&#45;&gt;VenusModule -->
<g id="edge7" class="edge">
<title>VenusService&#45;&gt;VenusModule</title>
<path fill="none" stroke="black" d="M89,-122.29C89,-144.21 89,-178 89,-178 89,-178 536.04,-178 536.04,-178"/>
<polygon fill="black" stroke="black" points="536.04,-181.5 546.04,-178 536.04,-174.5 536.04,-181.5"/>
</g>
</g>
</svg>
