<?xml version="1.0" encoding="UTF-8" standalone="no"?>
<!DOCTYPE svg PUBLIC "-//W3C//DTD SVG 1.1//EN"
 "http://www.w3.org/Graphics/SVG/1.1/DTD/svg11.dtd">
<!-- Generated by graphviz version 2.47.0 (20210316.0004)
 -->
<!-- Title: dependencies Pages: 1 -->
<svg width="1259pt" height="211pt"
 viewBox="0.00 0.00 1259.00 211.00" xmlns="http://www.w3.org/2000/svg" xmlns:xlink="http://www.w3.org/1999/xlink">
<g id="graph0" class="graph" transform="scale(1 1) rotate(0) translate(4 207)">
<title>dependencies</title>
<polygon fill="white" stroke="transparent" points="-4,4 -4,-207 1255,-207 1255,4 -4,4"/>
<text text-anchor="start" x="604.51" y="-42.4" font-family="Times-12" font-weight="bold" font-size="14.00">Legend</text>
<polygon fill="#ffffb3" stroke="transparent" points="391.5,-10 391.5,-30 411.5,-30 411.5,-10 391.5,-10"/>
<text text-anchor="start" x="415.13" y="-15.4" font-family="Times-12" font-size="14.00"> &#160;Declarations</text>
<polygon fill="#8dd3c7" stroke="transparent" points="504.5,-10 504.5,-30 524.5,-30 524.5,-10 504.5,-10"/>
<text text-anchor="start" x="528.23" y="-15.4" font-family="Times-12" font-size="14.00"> &#160;Module</text>
<polygon fill="#80b1d3" stroke="transparent" points="590.5,-10 590.5,-30 610.5,-30 610.5,-10 590.5,-10"/>
<text text-anchor="start" x="614.28" y="-15.4" font-family="Times-12" font-size="14.00"> &#160;Bootstrap</text>
<polygon fill="#fdb462" stroke="transparent" points="687.5,-10 687.5,-30 707.5,-30 707.5,-10 687.5,-10"/>
<text text-anchor="start" x="711.17" y="-15.4" font-family="Times-12" font-size="14.00"> &#160;Providers</text>
<polygon fill="#fb8072" stroke="transparent" points="783.5,-10 783.5,-30 803.5,-30 803.5,-10 783.5,-10"/>
<text text-anchor="start" x="807.23" y="-15.4" font-family="Times-12" font-size="14.00"> &#160;Exports</text>
<g id="clust1" class="cluster">
<title>cluster_VenusModule</title>
<polygon fill="none" stroke="black" stroke-dasharray="1,5" points="8,-70 8,-195 1243,-195 1243,-70 8,-70"/>
</g>
<g id="clust2" class="cluster">
<title>cluster_VenusModule_declarations</title>
<polygon fill="none" stroke="black" points="548,-78 548,-130 1235,-130 1235,-78 548,-78"/>
</g>
<g id="clust7" class="cluster">
<title>cluster_VenusModule_imports</title>
<polygon fill="none" stroke="black" points="170,-78 170,-130 540,-130 540,-78 170,-78"/>
</g>
<g id="clust10" class="cluster">
<title>cluster_VenusModule_providers</title>
<polygon fill="none" stroke="black" points="16,-78 16,-130 162,-130 162,-78 16,-78"/>
</g>
<!-- VenusChartFormComponent -->
<g id="node1" class="node">
<title>VenusChartFormComponent</title>
<polygon fill="#ffffb3" stroke="black" points="1227.04,-122 1048.96,-122 1048.96,-86 1227.04,-86 1227.04,-122"/>
<text text-anchor="middle" x="1138" y="-99.8" font-family="Times,serif" font-size="14.00">VenusChartFormComponent</text>
</g>
<!-- VenusModule -->
<g id="node5" class="node">
<title>VenusModule</title>
<polygon fill="#8dd3c7" stroke="black" points="677.82,-187 674.82,-191 653.82,-191 650.82,-187 582.18,-187 582.18,-151 677.82,-151 677.82,-187"/>
<text text-anchor="middle" x="630" y="-164.8" font-family="Times,serif" font-size="14.00">VenusModule</text>
</g>
<!-- VenusChartFormComponent&#45;&gt;VenusModule -->
<g id="edge1" class="edge">
<title>VenusChartFormComponent&#45;&gt;VenusModule</title>
<path fill="none" stroke="black" d="M1138,-122.29C1138,-144.21 1138,-178 1138,-178 1138,-178 687.79,-178 687.79,-178"/>
<polygon fill="black" stroke="black" points="687.79,-174.5 677.79,-178 687.79,-181.5 687.79,-174.5"/>
</g>
<!-- VenusComponent -->
<g id="node2" class="node">
<title>VenusComponent</title>
<polygon fill="#ffffb3" stroke="black" points="1030.6,-122 913.4,-122 913.4,-86 1030.6,-86 1030.6,-122"/>
<text text-anchor="middle" x="972" y="-99.8" font-family="Times,serif" font-size="14.00">VenusComponent</text>
</g>
<!-- VenusComponent&#45;&gt;VenusModule -->
<g id="edge2" class="edge">
<title>VenusComponent&#45;&gt;VenusModule</title>
<path fill="none" stroke="black" d="M972,-122.11C972,-141.34 972,-169 972,-169 972,-169 687.91,-169 687.91,-169"/>
<polygon fill="black" stroke="black" points="687.91,-165.5 677.91,-169 687.91,-172.5 687.91,-165.5"/>
</g>
<!-- VenusHighchartComponent -->
<g id="node3" class="node">
<title>VenusHighchartComponent</title>
<polygon fill="#ffffb3" stroke="black" points="895.58,-122 722.42,-122 722.42,-86 895.58,-86 895.58,-122"/>
<text text-anchor="middle" x="809" y="-99.8" font-family="Times,serif" font-size="14.00">VenusHighchartComponent</text>
</g>
<!-- VenusHighchartComponent&#45;&gt;VenusModule -->
<g id="edge3" class="edge">
<title>VenusHighchartComponent&#45;&gt;VenusModule</title>
<path fill="none" stroke="black" d="M809,-122.03C809,-138.4 809,-160 809,-160 809,-160 687.97,-160 687.97,-160"/>
<polygon fill="black" stroke="black" points="687.97,-156.5 677.97,-160 687.97,-163.5 687.97,-156.5"/>
</g>
<!-- VenusTableComponent -->
<g id="node4" class="node">
<title>VenusTableComponent</title>
<polygon fill="#ffffb3" stroke="black" points="704.47,-122 555.53,-122 555.53,-86 704.47,-86 704.47,-122"/>
<text text-anchor="middle" x="630" y="-99.8" font-family="Times,serif" font-size="14.00">VenusTableComponent</text>
</g>
<!-- VenusTableComponent&#45;&gt;VenusModule -->
<g id="edge4" class="edge">
<title>VenusTableComponent&#45;&gt;VenusModule</title>
<path fill="none" stroke="black" d="M630,-122.11C630,-122.11 630,-140.99 630,-140.99"/>
<polygon fill="black" stroke="black" points="626.5,-140.99 630,-150.99 633.5,-140.99 626.5,-140.99"/>
</g>
<!-- SimpleDataButtonModule -->
<g id="node6" class="node">
<title>SimpleDataButtonModule</title>
<polygon fill="#8dd3c7" stroke="black" points="531.76,-122 528.76,-126 507.76,-126 504.76,-122 368.24,-122 368.24,-86 531.76,-86 531.76,-122"/>
<text text-anchor="middle" x="450" y="-99.8" font-family="Times,serif" font-size="14.00">SimpleDataButtonModule</text>
</g>
<!-- SimpleDataButtonModule&#45;&gt;VenusModule -->
<g id="edge5" class="edge">
<title>SimpleDataButtonModule&#45;&gt;VenusModule</title>
<path fill="none" stroke="black" d="M450,-122.03C450,-138.4 450,-160 450,-160 450,-160 572.24,-160 572.24,-160"/>
<polygon fill="black" stroke="black" points="572.24,-163.5 582.24,-160 572.24,-156.5 572.24,-163.5"/>
</g>
<!-- SimpleGraphButtonModule -->
<g id="node7" class="node">
<title>SimpleGraphButtonModule</title>
<polygon fill="#8dd3c7" stroke="black" points="350.32,-122 347.32,-126 326.32,-126 323.32,-122 177.68,-122 177.68,-86 350.32,-86 350.32,-122"/>
<text text-anchor="middle" x="264" y="-99.8" font-family="Times,serif" font-size="14.00">SimpleGraphButtonModule</text>
</g>
<!-- SimpleGraphButtonModule&#45;&gt;VenusModule -->
<g id="edge6" class="edge">
<title>SimpleGraphButtonModule&#45;&gt;VenusModule</title>
<path fill="none" stroke="black" d="M264,-122.11C264,-141.34 264,-169 264,-169 264,-169 572.15,-169 572.15,-169"/>
<polygon fill="black" stroke="black" points="572.15,-172.5 582.15,-169 572.15,-165.5 572.15,-172.5"/>
</g>
<!-- VenusService -->
<g id="node8" class="node">
<title>VenusService</title>
<ellipse fill="#fdb462" stroke="black" cx="89" cy="-104" rx="64.83" ry="18"/>
<text text-anchor="middle" x="89" y="-99.8" font-family="Times,serif" font-size="14.00">VenusService</text>
</g>
<!-- VenusService&#45;&gt;VenusModule -->
<g id="edge7" class="edge">
<title>VenusService&#45;&gt;VenusModule</title>
<path fill="none" stroke="black" d="M89,-122.29C89,-144.21 89,-178 89,-178 89,-178 571.99,-178 571.99,-178"/>
<polygon fill="black" stroke="black" points="571.99,-181.5 581.99,-178 571.99,-174.5 571.99,-181.5"/>
</g>
</g>
</svg>
