<?xml version="1.0" encoding="UTF-8" standalone="no"?>
<!DOCTYPE svg PUBLIC "-//W3C//DTD SVG 1.1//EN"
 "http://www.w3.org/Graphics/SVG/1.1/DTD/svg11.dtd">
<!-- Generated by graphviz version 2.47.0 (20210316.0004)
 -->
<!-- Title: dependencies Pages: 1 -->
<svg width="3580pt" height="284pt"
 viewBox="0.00 0.00 3580.00 284.00" xmlns="http://www.w3.org/2000/svg" xmlns:xlink="http://www.w3.org/1999/xlink">
<g id="graph0" class="graph" transform="scale(1 1) rotate(0) translate(4 280)">
<title>dependencies</title>
<polygon fill="white" stroke="transparent" points="-4,4 -4,-280 3576,-280 3576,4 -4,4"/>
<text text-anchor="start" x="1765.01" y="-42.4" font-family="Times-12" font-weight="bold" font-size="14.00">Legend</text>
<polygon fill="#ffffb3" stroke="transparent" points="1552,-10 1552,-30 1572,-30 1572,-10 1552,-10"/>
<text text-anchor="start" x="1575.63" y="-15.4" font-family="Times-12" font-size="14.00"> &#160;Declarations</text>
<polygon fill="#8dd3c7" stroke="transparent" points="1665,-10 1665,-30 1685,-30 1685,-10 1665,-10"/>
<text text-anchor="start" x="1688.73" y="-15.4" font-family="Times-12" font-size="14.00"> &#160;Module</text>
<polygon fill="#80b1d3" stroke="transparent" points="1751,-10 1751,-30 1771,-30 1771,-10 1751,-10"/>
<text text-anchor="start" x="1774.78" y="-15.4" font-family="Times-12" font-size="14.00"> &#160;Bootstrap</text>
<polygon fill="#fdb462" stroke="transparent" points="1848,-10 1848,-30 1868,-30 1868,-10 1848,-10"/>
<text text-anchor="start" x="1871.67" y="-15.4" font-family="Times-12" font-size="14.00"> &#160;Providers</text>
<polygon fill="#fb8072" stroke="transparent" points="1944,-10 1944,-30 1964,-30 1964,-10 1944,-10"/>
<text text-anchor="start" x="1967.73" y="-15.4" font-family="Times-12" font-size="14.00"> &#160;Exports</text>
<g id="clust1" class="cluster">
<title>cluster_VariableModule</title>
<polygon fill="none" stroke="black" stroke-dasharray="1,5" points="8,-70 8,-268 3564,-268 3564,-70 8,-70"/>
</g>
<g id="clust15" class="cluster">
<title>cluster_VariableModule_imports</title>
<polygon fill="none" stroke="black" points="3037,-78 3037,-130 3556,-130 3556,-78 3037,-78"/>
</g>
<g id="clust16" class="cluster">
<title>cluster_VariableModule_exports</title>
<polygon fill="none" stroke="black" points="1902,-208 1902,-260 2052,-260 2052,-208 1902,-208"/>
</g>
<g id="clust18" class="cluster">
<title>cluster_VariableModule_providers</title>
<polygon fill="none" stroke="black" points="2867,-78 2867,-130 3029,-130 3029,-78 2867,-78"/>
</g>
<g id="clust2" class="cluster">
<title>cluster_VariableModule_declarations</title>
<polygon fill="none" stroke="black" points="16,-78 16,-130 2859,-130 2859,-78 16,-78"/>
</g>
<!-- VariableComponent -->
<g id="node1" class="node">
<title>VariableComponent</title>
<polygon fill="#ffffb3" stroke="black" points="2850.53,-122 2721.47,-122 2721.47,-86 2850.53,-86 2850.53,-122"/>
<text text-anchor="middle" x="2786" y="-99.8" font-family="Times,serif" font-size="14.00">VariableComponent</text>
</g>
<!-- VariableModule -->
<g id="node13" class="node">
<title>VariableModule</title>
<polygon fill="#8dd3c7" stroke="black" points="2030.74,-187 2027.74,-191 2006.74,-191 2003.74,-187 1923.26,-187 1923.26,-151 2030.74,-151 2030.74,-187"/>
<text text-anchor="middle" x="1977" y="-164.8" font-family="Times,serif" font-size="14.00">VariableModule</text>
</g>
<!-- VariableComponent&#45;&gt;VariableModule -->
<g id="edge1" class="edge">
<title>VariableComponent&#45;&gt;VariableModule</title>
<path fill="none" stroke="black" d="M2786,-122.3C2786,-140.27 2786,-165 2786,-165 2786,-165 2041.02,-165 2041.02,-165"/>
<polygon fill="black" stroke="black" points="2041.02,-161.5 2031.02,-165 2041.02,-168.5 2041.02,-161.5"/>
</g>
<!-- VariableLightCurveChartFormComponent -->
<g id="node2" class="node">
<title>VariableLightCurveChartFormComponent</title>
<polygon fill="#ffffb3" stroke="black" points="2702.51,-122 2447.49,-122 2447.49,-86 2702.51,-86 2702.51,-122"/>
<text text-anchor="middle" x="2575" y="-99.8" font-family="Times,serif" font-size="14.00">VariableLightCurveChartFormComponent</text>
</g>
<!-- VariableLightCurveChartFormComponent&#45;&gt;VariableModule -->
<g id="edge2" class="edge">
<title>VariableLightCurveChartFormComponent&#45;&gt;VariableModule</title>
<path fill="none" stroke="black" d="M2575,-122.03C2575,-138.4 2575,-160 2575,-160 2575,-160 2040.86,-160 2040.86,-160"/>
<polygon fill="black" stroke="black" points="2040.86,-156.5 2030.86,-160 2040.86,-163.5 2040.86,-156.5"/>
</g>
<!-- VariableLightCurveComponent -->
<g id="node3" class="node">
<title>VariableLightCurveComponent</title>
<polygon fill="#ffffb3" stroke="black" points="2429.07,-122 2234.93,-122 2234.93,-86 2429.07,-86 2429.07,-122"/>
<text text-anchor="middle" x="2332" y="-99.8" font-family="Times,serif" font-size="14.00">VariableLightCurveComponent</text>
</g>
<!-- VariableLightCurveComponent&#45;&gt;VariableModule -->
<g id="edge3" class="edge">
<title>VariableLightCurveComponent&#45;&gt;VariableModule</title>
<path fill="none" stroke="black" d="M2332,-122.19C2332,-137.18 2332,-156 2332,-156 2332,-156 2040.92,-156 2040.92,-156"/>
<polygon fill="black" stroke="black" points="2040.92,-152.5 2030.92,-156 2040.92,-159.5 2040.92,-152.5"/>
</g>
<!-- VariableLightCurveFormComponent -->
<g id="node4" class="node">
<title>VariableLightCurveFormComponent</title>
<polygon fill="#ffffb3" stroke="black" points="2217.4,-122 1992.6,-122 1992.6,-86 2217.4,-86 2217.4,-122"/>
<text text-anchor="middle" x="2105" y="-99.8" font-family="Times,serif" font-size="14.00">VariableLightCurveFormComponent</text>
</g>
<!-- VariableLightCurveFormComponent&#45;&gt;VariableModule -->
<g id="edge4" class="edge">
<title>VariableLightCurveFormComponent&#45;&gt;VariableModule</title>
<path fill="none" stroke="black" d="M2011.83,-122.11C2011.83,-122.11 2011.83,-140.99 2011.83,-140.99"/>
<polygon fill="black" stroke="black" points="2008.33,-140.99 2011.83,-150.99 2015.33,-140.99 2008.33,-140.99"/>
</g>
<!-- VariableLightCurveHighchartComponent -->
<g id="node5" class="node">
<title>VariableLightCurveHighchartComponent</title>
<polygon fill="#ffffb3" stroke="black" points="1975.05,-122 1724.95,-122 1724.95,-86 1975.05,-86 1975.05,-122"/>
<text text-anchor="middle" x="1850" y="-99.8" font-family="Times,serif" font-size="14.00">VariableLightCurveHighchartComponent</text>
</g>
<!-- VariableLightCurveHighchartComponent&#45;&gt;VariableModule -->
<g id="edge5" class="edge">
<title>VariableLightCurveHighchartComponent&#45;&gt;VariableModule</title>
<path fill="none" stroke="black" d="M1949.08,-122.11C1949.08,-122.11 1949.08,-140.99 1949.08,-140.99"/>
<polygon fill="black" stroke="black" points="1945.58,-140.99 1949.08,-150.99 1952.58,-140.99 1945.58,-140.99"/>
</g>
<!-- VariablePeriodFoldingComponent -->
<g id="node6" class="node">
<title>VariablePeriodFoldingComponent</title>
<polygon fill="#ffffb3" stroke="black" points="1706.64,-122 1497.36,-122 1497.36,-86 1706.64,-86 1706.64,-122"/>
<text text-anchor="middle" x="1602" y="-99.8" font-family="Times,serif" font-size="14.00">VariablePeriodFoldingComponent</text>
</g>
<!-- VariablePeriodFoldingComponent&#45;&gt;VariableModule -->
<g id="edge6" class="edge">
<title>VariablePeriodFoldingComponent&#45;&gt;VariableModule</title>
<path fill="none" stroke="black" d="M1602,-122.19C1602,-137.18 1602,-156 1602,-156 1602,-156 1912.87,-156 1912.87,-156"/>
<polygon fill="black" stroke="black" points="1912.87,-159.5 1922.87,-156 1912.87,-152.5 1912.87,-159.5"/>
</g>
<!-- VariablePeriodFoldingFormComponent -->
<g id="node7" class="node">
<title>VariablePeriodFoldingFormComponent</title>
<polygon fill="#ffffb3" stroke="black" points="1478.97,-122 1239.03,-122 1239.03,-86 1478.97,-86 1478.97,-122"/>
<text text-anchor="middle" x="1359" y="-99.8" font-family="Times,serif" font-size="14.00">VariablePeriodFoldingFormComponent</text>
</g>
<!-- VariablePeriodFoldingFormComponent&#45;&gt;VariableModule -->
<g id="edge7" class="edge">
<title>VariablePeriodFoldingFormComponent&#45;&gt;VariableModule</title>
<path fill="none" stroke="black" d="M1359,-122.03C1359,-138.4 1359,-160 1359,-160 1359,-160 1913.24,-160 1913.24,-160"/>
<polygon fill="black" stroke="black" points="1913.24,-163.5 1923.24,-160 1913.24,-156.5 1913.24,-163.5"/>
</g>
<!-- VariablePeriodFoldingHighchartComponent -->
<g id="node8" class="node">
<title>VariablePeriodFoldingHighchartComponent</title>
<polygon fill="#ffffb3" stroke="black" points="1220.61,-122 955.39,-122 955.39,-86 1220.61,-86 1220.61,-122"/>
<text text-anchor="middle" x="1088" y="-99.8" font-family="Times,serif" font-size="14.00">VariablePeriodFoldingHighchartComponent</text>
</g>
<!-- VariablePeriodFoldingHighchartComponent&#45;&gt;VariableModule -->
<g id="edge8" class="edge">
<title>VariablePeriodFoldingHighchartComponent&#45;&gt;VariableModule</title>
<path fill="none" stroke="black" d="M1088,-122.3C1088,-140.27 1088,-165 1088,-165 1088,-165 1913.06,-165 1913.06,-165"/>
<polygon fill="black" stroke="black" points="1913.06,-168.5 1923.06,-165 1913.06,-161.5 1913.06,-168.5"/>
</g>
<!-- VariablePeriodogramComponent -->
<g id="node9" class="node">
<title>VariablePeriodogramComponent</title>
<polygon fill="#ffffb3" stroke="black" points="936.84,-122 735.16,-122 735.16,-86 936.84,-86 936.84,-122"/>
<text text-anchor="middle" x="836" y="-99.8" font-family="Times,serif" font-size="14.00">VariablePeriodogramComponent</text>
</g>
<!-- VariablePeriodogramComponent&#45;&gt;VariableModule -->
<g id="edge9" class="edge">
<title>VariablePeriodogramComponent&#45;&gt;VariableModule</title>
<path fill="none" stroke="black" d="M836,-122.11C836,-141.34 836,-169 836,-169 836,-169 1913.12,-169 1913.12,-169"/>
<polygon fill="black" stroke="black" points="1913.12,-172.5 1923.12,-169 1913.12,-165.5 1913.12,-172.5"/>
</g>
<!-- VariablePeriodogramFormComponent -->
<g id="node10" class="node">
<title>VariablePeriodogramFormComponent</title>
<polygon fill="#ffffb3" stroke="black" points="717.17,-122 484.83,-122 484.83,-86 717.17,-86 717.17,-122"/>
<text text-anchor="middle" x="601" y="-99.8" font-family="Times,serif" font-size="14.00">VariablePeriodogramFormComponent</text>
</g>
<!-- VariablePeriodogramFormComponent&#45;&gt;VariableModule -->
<g id="edge10" class="edge">
<title>VariablePeriodogramFormComponent&#45;&gt;VariableModule</title>
<path fill="none" stroke="black" d="M601,-122.03C601,-142.77 601,-174 601,-174 601,-174 1913.06,-174 1913.06,-174"/>
<polygon fill="black" stroke="black" points="1913.06,-177.5 1923.06,-174 1913.06,-170.5 1913.06,-177.5"/>
</g>
<!-- VariablePeriodogramHighchartsComponent -->
<g id="node11" class="node">
<title>VariablePeriodogramHighchartsComponent</title>
<polygon fill="#ffffb3" stroke="black" points="466.76,-122 203.24,-122 203.24,-86 466.76,-86 466.76,-122"/>
<text text-anchor="middle" x="335" y="-99.8" font-family="Times,serif" font-size="14.00">VariablePeriodogramHighchartsComponent</text>
</g>
<!-- VariablePeriodogramHighchartsComponent&#45;&gt;VariableModule -->
<g id="edge11" class="edge">
<title>VariablePeriodogramHighchartsComponent&#45;&gt;VariableModule</title>
<path fill="none" stroke="black" d="M335,-122.29C335,-144.21 335,-178 335,-178 335,-178 1912.84,-178 1912.84,-178"/>
<polygon fill="black" stroke="black" points="1912.84,-181.5 1922.84,-178 1912.84,-174.5 1912.84,-181.5"/>
</g>
<!-- VariableTableComponent -->
<g id="node12" class="node">
<title>VariableTableComponent</title>
<polygon fill="#ffffb3" stroke="black" points="185.9,-122 24.1,-122 24.1,-86 185.9,-86 185.9,-122"/>
<text text-anchor="middle" x="105" y="-99.8" font-family="Times,serif" font-size="14.00">VariableTableComponent</text>
</g>
<!-- VariableTableComponent&#45;&gt;VariableModule -->
<g id="edge12" class="edge">
<title>VariableTableComponent&#45;&gt;VariableModule</title>
<path fill="none" stroke="black" d="M105,-122.32C105,-145.66 105,-183 105,-183 105,-183 1912.99,-183 1912.99,-183"/>
<polygon fill="black" stroke="black" points="1912.99,-186.5 1922.99,-183 1912.99,-179.5 1912.99,-186.5"/>
</g>
<!-- VariableComponent  -->
<g id="node17" class="node">
<title>VariableComponent </title>
<polygon fill="#fb8072" stroke="black" points="2043.52,-252 1910.48,-252 1910.48,-216 2043.52,-216 2043.52,-252"/>
<text text-anchor="middle" x="1977" y="-229.8" font-family="Times,serif" font-size="14.00">VariableComponent </text>
</g>
<!-- VariableModule&#45;&gt;VariableComponent  -->
<g id="edge16" class="edge">
<title>VariableModule&#45;&gt;VariableComponent </title>
<path fill="none" stroke="black" stroke-dasharray="5,2" d="M1977,-187.11C1977,-187.11 1977,-205.99 1977,-205.99"/>
<polygon fill="black" stroke="black" points="1973.5,-205.99 1977,-215.99 1980.5,-205.99 1973.5,-205.99"/>
</g>
<!-- InterfaceUtilModule -->
<g id="node14" class="node">
<title>InterfaceUtilModule</title>
<polygon fill="#8dd3c7" stroke="black" points="3547.56,-122 3544.56,-126 3523.56,-126 3520.56,-122 3416.44,-122 3416.44,-86 3547.56,-86 3547.56,-122"/>
<text text-anchor="middle" x="3482" y="-99.8" font-family="Times,serif" font-size="14.00">InterfaceUtilModule</text>
</g>
<!-- InterfaceUtilModule&#45;&gt;VariableModule -->
<g id="edge13" class="edge">
<title>InterfaceUtilModule&#45;&gt;VariableModule</title>
<path fill="none" stroke="black" d="M3482,-122.32C3482,-145.66 3482,-183 3482,-183 3482,-183 2041.01,-183 2041.01,-183"/>
<polygon fill="black" stroke="black" points="2041.01,-179.5 2031.01,-183 2041.01,-186.5 2041.01,-179.5"/>
</g>
<!-- SimpleDataButtonModule -->
<g id="node15" class="node">
<title>SimpleDataButtonModule</title>
<polygon fill="#8dd3c7" stroke="black" points="3398.76,-122 3395.76,-126 3374.76,-126 3371.76,-122 3235.24,-122 3235.24,-86 3398.76,-86 3398.76,-122"/>
<text text-anchor="middle" x="3317" y="-99.8" font-family="Times,serif" font-size="14.00">SimpleDataButtonModule</text>
</g>
<!-- SimpleDataButtonModule&#45;&gt;VariableModule -->
<g id="edge14" class="edge">
<title>SimpleDataButtonModule&#45;&gt;VariableModule</title>
<path fill="none" stroke="black" d="M3317,-122.29C3317,-144.21 3317,-178 3317,-178 3317,-178 2040.77,-178 2040.77,-178"/>
<polygon fill="black" stroke="black" points="2040.77,-174.5 2030.77,-178 2040.77,-181.5 2040.77,-174.5"/>
</g>
<!-- SimpleGraphButtonModule -->
<g id="node16" class="node">
<title>SimpleGraphButtonModule</title>
<polygon fill="#8dd3c7" stroke="black" points="3217.32,-122 3214.32,-126 3193.32,-126 3190.32,-122 3044.68,-122 3044.68,-86 3217.32,-86 3217.32,-122"/>
<text text-anchor="middle" x="3131" y="-99.8" font-family="Times,serif" font-size="14.00">SimpleGraphButtonModule</text>
</g>
<!-- SimpleGraphButtonModule&#45;&gt;VariableModule -->
<g id="edge15" class="edge">
<title>SimpleGraphButtonModule&#45;&gt;VariableModule</title>
<path fill="none" stroke="black" d="M3131,-122.03C3131,-142.77 3131,-174 3131,-174 3131,-174 2041.11,-174 2041.11,-174"/>
<polygon fill="black" stroke="black" points="2041.11,-170.5 2031.11,-174 2041.11,-177.5 2041.11,-170.5"/>
</g>
<!-- VariableService -->
<g id="node18" class="node">
<title>VariableService</title>
<ellipse fill="#fdb462" stroke="black" cx="2948" cy="-104" rx="73.47" ry="18"/>
<text text-anchor="middle" x="2948" y="-99.8" font-family="Times,serif" font-size="14.00">VariableService</text>
</g>
<!-- VariableService&#45;&gt;VariableModule -->
<g id="edge17" class="edge">
<title>VariableService&#45;&gt;VariableModule</title>
<path fill="none" stroke="black" d="M2948,-122.11C2948,-141.34 2948,-169 2948,-169 2948,-169 2040.94,-169 2040.94,-169"/>
<polygon fill="black" stroke="black" points="2040.94,-165.5 2030.94,-169 2040.94,-172.5 2040.94,-165.5"/>
</g>
</g>
</svg>
