<?xml version="1.0" encoding="UTF-8" standalone="no"?>
<!DOCTYPE svg PUBLIC "-//W3C//DTD SVG 1.1//EN"
 "http://www.w3.org/Graphics/SVG/1.1/DTD/svg11.dtd">
<!-- Generated by graphviz version 2.47.0 (20210316.0004)
 -->
<!-- Title: dependencies Pages: 1 -->
<svg width="1593pt" height="211pt"
 viewBox="0.00 0.00 1593.00 211.00" xmlns="http://www.w3.org/2000/svg" xmlns:xlink="http://www.w3.org/1999/xlink">
<g id="graph0" class="graph" transform="scale(1 1) rotate(0) translate(4 207)">
<title>dependencies</title>
<polygon fill="white" stroke="transparent" points="-4,4 -4,-207 1589,-207 1589,4 -4,4"/>
<text text-anchor="start" x="771.51" y="-42.4" font-family="Times-12" font-weight="bold" font-size="14.00">Legend</text>
<polygon fill="#ffffb3" stroke="transparent" points="558.5,-10 558.5,-30 578.5,-30 578.5,-10 558.5,-10"/>
<text text-anchor="start" x="582.13" y="-15.4" font-family="Times-12" font-size="14.00"> &#160;Declarations</text>
<polygon fill="#8dd3c7" stroke="transparent" points="671.5,-10 671.5,-30 691.5,-30 691.5,-10 671.5,-10"/>
<text text-anchor="start" x="695.23" y="-15.4" font-family="Times-12" font-size="14.00"> &#160;Module</text>
<polygon fill="#80b1d3" stroke="transparent" points="757.5,-10 757.5,-30 777.5,-30 777.5,-10 757.5,-10"/>
<text text-anchor="start" x="781.28" y="-15.4" font-family="Times-12" font-size="14.00"> &#160;Bootstrap</text>
<polygon fill="#fdb462" stroke="transparent" points="854.5,-10 854.5,-30 874.5,-30 874.5,-10 854.5,-10"/>
<text text-anchor="start" x="878.17" y="-15.4" font-family="Times-12" font-size="14.00"> &#160;Providers</text>
<polygon fill="#fb8072" stroke="transparent" points="950.5,-10 950.5,-30 970.5,-30 970.5,-10 950.5,-10"/>
<text text-anchor="start" x="974.23" y="-15.4" font-family="Times-12" font-size="14.00"> &#160;Exports</text>
<g id="clust1" class="cluster">
<title>cluster_ScatterModule</title>
<polygon fill="none" stroke="black" stroke-dasharray="1,5" points="8,-70 8,-195 1577,-195 1577,-70 8,-70"/>
</g>
<g id="clust8" class="cluster">
<title>cluster_ScatterModule_imports</title>
<polygon fill="none" stroke="black" points="1050,-78 1050,-130 1569,-130 1569,-78 1050,-78"/>
</g>
<g id="clust11" class="cluster">
<title>cluster_ScatterModule_providers</title>
<polygon fill="none" stroke="black" points="892,-78 892,-130 1042,-130 1042,-78 892,-78"/>
</g>
<g id="clust2" class="cluster">
<title>cluster_ScatterModule_declarations</title>
<polygon fill="none" stroke="black" points="16,-78 16,-130 884,-130 884,-78 16,-78"/>
</g>
<!-- ScatterChartFormComponent -->
<g id="node1" class="node">
<title>ScatterChartFormComponent</title>
<polygon fill="#ffffb3" stroke="black" points="875.64,-122 694.36,-122 694.36,-86 875.64,-86 875.64,-122"/>
<text text-anchor="middle" x="785" y="-99.8" font-family="Times,serif" font-size="14.00">ScatterChartFormComponent</text>
</g>
<!-- ScatterModule -->
<g id="node6" class="node">
<title>ScatterModule</title>
<polygon fill="#8dd3c7" stroke="black" points="834.42,-187 831.42,-191 810.42,-191 807.42,-187 735.58,-187 735.58,-151 834.42,-151 834.42,-187"/>
<text text-anchor="middle" x="785" y="-164.8" font-family="Times,serif" font-size="14.00">ScatterModule</text>
</g>
<!-- ScatterChartFormComponent&#45;&gt;ScatterModule -->
<g id="edge1" class="edge">
<title>ScatterChartFormComponent&#45;&gt;ScatterModule</title>
<path fill="none" stroke="black" d="M785,-122.11C785,-122.11 785,-140.99 785,-140.99"/>
<polygon fill="black" stroke="black" points="781.5,-140.99 785,-150.99 788.5,-140.99 781.5,-140.99"/>
</g>
<!-- ScatterComponent -->
<g id="node2" class="node">
<title>ScatterComponent</title>
<polygon fill="#ffffb3" stroke="black" points="676.2,-122 555.8,-122 555.8,-86 676.2,-86 676.2,-122"/>
<text text-anchor="middle" x="616" y="-99.8" font-family="Times,serif" font-size="14.00">ScatterComponent</text>
</g>
<!-- ScatterComponent&#45;&gt;ScatterModule -->
<g id="edge2" class="edge">
<title>ScatterComponent&#45;&gt;ScatterModule</title>
<path fill="none" stroke="black" d="M616,-122.01C616,-138.05 616,-159 616,-159 616,-159 725.66,-159 725.66,-159"/>
<polygon fill="black" stroke="black" points="725.66,-162.5 735.66,-159 725.66,-155.5 725.66,-162.5"/>
</g>
<!-- ScatterFormComponent -->
<g id="node3" class="node">
<title>ScatterFormComponent</title>
<polygon fill="#ffffb3" stroke="black" points="538.04,-122 387.96,-122 387.96,-86 538.04,-86 538.04,-122"/>
<text text-anchor="middle" x="463" y="-99.8" font-family="Times,serif" font-size="14.00">ScatterFormComponent</text>
</g>
<!-- ScatterFormComponent&#45;&gt;ScatterModule -->
<g id="edge3" class="edge">
<title>ScatterFormComponent&#45;&gt;ScatterModule</title>
<path fill="none" stroke="black" d="M463,-122.27C463,-140.56 463,-166 463,-166 463,-166 725.74,-166 725.74,-166"/>
<polygon fill="black" stroke="black" points="725.74,-169.5 735.74,-166 725.74,-162.5 725.74,-169.5"/>
</g>
<!-- ScatterHighchartComponent -->
<g id="node4" class="node">
<title>ScatterHighchartComponent</title>
<polygon fill="#ffffb3" stroke="black" points="370.18,-122 193.82,-122 193.82,-86 370.18,-86 370.18,-122"/>
<text text-anchor="middle" x="282" y="-99.8" font-family="Times,serif" font-size="14.00">ScatterHighchartComponent</text>
</g>
<!-- ScatterHighchartComponent&#45;&gt;ScatterModule -->
<g id="edge4" class="edge">
<title>ScatterHighchartComponent&#45;&gt;ScatterModule</title>
<path fill="none" stroke="black" d="M282,-122.13C282,-142.57 282,-173 282,-173 282,-173 725.39,-173 725.39,-173"/>
<polygon fill="black" stroke="black" points="725.39,-176.5 735.39,-173 725.39,-169.5 725.39,-176.5"/>
</g>
<!-- ScatterTableComponent -->
<g id="node5" class="node">
<title>ScatterTableComponent</title>
<polygon fill="#ffffb3" stroke="black" points="176.07,-122 23.93,-122 23.93,-86 176.07,-86 176.07,-122"/>
<text text-anchor="middle" x="100" y="-99.8" font-family="Times,serif" font-size="14.00">ScatterTableComponent</text>
</g>
<!-- ScatterTableComponent&#45;&gt;ScatterModule -->
<g id="edge5" class="edge">
<title>ScatterTableComponent&#45;&gt;ScatterModule</title>
<path fill="none" stroke="black" d="M100,-122.01C100,-144.49 100,-180 100,-180 100,-180 725.74,-180 725.74,-180"/>
<polygon fill="black" stroke="black" points="725.74,-183.5 735.74,-180 725.74,-176.5 725.74,-183.5"/>
</g>
<!-- InterfaceUtilModule -->
<g id="node7" class="node">
<title>InterfaceUtilModule</title>
<polygon fill="#8dd3c7" stroke="black" points="1560.56,-122 1557.56,-126 1536.56,-126 1533.56,-122 1429.44,-122 1429.44,-86 1560.56,-86 1560.56,-122"/>
<text text-anchor="middle" x="1495" y="-99.8" font-family="Times,serif" font-size="14.00">InterfaceUtilModule</text>
</g>
<!-- InterfaceUtilModule&#45;&gt;ScatterModule -->
<g id="edge6" class="edge">
<title>InterfaceUtilModule&#45;&gt;ScatterModule</title>
<path fill="none" stroke="black" d="M1495,-122.01C1495,-144.49 1495,-180 1495,-180 1495,-180 844.36,-180 844.36,-180"/>
<polygon fill="black" stroke="black" points="844.36,-176.5 834.36,-180 844.36,-183.5 844.36,-176.5"/>
</g>
<!-- SimpleDataButtonModule -->
<g id="node8" class="node">
<title>SimpleDataButtonModule</title>
<polygon fill="#8dd3c7" stroke="black" points="1411.76,-122 1408.76,-126 1387.76,-126 1384.76,-122 1248.24,-122 1248.24,-86 1411.76,-86 1411.76,-122"/>
<text text-anchor="middle" x="1330" y="-99.8" font-family="Times,serif" font-size="14.00">SimpleDataButtonModule</text>
</g>
<!-- SimpleDataButtonModule&#45;&gt;ScatterModule -->
<g id="edge7" class="edge">
<title>SimpleDataButtonModule&#45;&gt;ScatterModule</title>
<path fill="none" stroke="black" d="M1330,-122.13C1330,-142.57 1330,-173 1330,-173 1330,-173 844.33,-173 844.33,-173"/>
<polygon fill="black" stroke="black" points="844.33,-169.5 834.33,-173 844.33,-176.5 844.33,-169.5"/>
</g>
<!-- SimpleGraphButtonModule -->
<g id="node9" class="node">
<title>SimpleGraphButtonModule</title>
<polygon fill="#8dd3c7" stroke="black" points="1230.32,-122 1227.32,-126 1206.32,-126 1203.32,-122 1057.68,-122 1057.68,-86 1230.32,-86 1230.32,-122"/>
<text text-anchor="middle" x="1144" y="-99.8" font-family="Times,serif" font-size="14.00">SimpleGraphButtonModule</text>
</g>
<!-- SimpleGraphButtonModule&#45;&gt;ScatterModule -->
<g id="edge8" class="edge">
<title>SimpleGraphButtonModule&#45;&gt;ScatterModule</title>
<path fill="none" stroke="black" d="M1144,-122.27C1144,-140.56 1144,-166 1144,-166 1144,-166 844.54,-166 844.54,-166"/>
<polygon fill="black" stroke="black" points="844.54,-162.5 834.54,-166 844.54,-169.5 844.54,-162.5"/>
</g>
<!-- ScatterService -->
<g id="node10" class="node">
<title>ScatterService</title>
<ellipse fill="#fdb462" stroke="black" cx="967" cy="-104" rx="66.61" ry="18"/>
<text text-anchor="middle" x="967" y="-99.8" font-family="Times,serif" font-size="14.00">ScatterService</text>
</g>
<!-- ScatterService&#45;&gt;ScatterModule -->
<g id="edge9" class="edge">
<title>ScatterService&#45;&gt;ScatterModule</title>
<path fill="none" stroke="black" d="M967,-122.01C967,-138.05 967,-159 967,-159 967,-159 844.25,-159 844.25,-159"/>
<polygon fill="black" stroke="black" points="844.25,-155.5 834.25,-159 844.25,-162.5 844.25,-155.5"/>
</g>
</g>
</svg>
