<?xml version="1.0" encoding="UTF-8" standalone="no"?>
<!DOCTYPE svg PUBLIC "-//W3C//DTD SVG 1.1//EN"
 "http://www.w3.org/Graphics/SVG/1.1/DTD/svg11.dtd">
<!-- Generated by graphviz version 2.47.0 (20210316.0004)
 -->
<!-- Title: dependencies Pages: 1 -->
<svg width="1593pt" height="284pt"
 viewBox="0.00 0.00 1593.00 284.00" xmlns="http://www.w3.org/2000/svg" xmlns:xlink="http://www.w3.org/1999/xlink">
<g id="graph0" class="graph" transform="scale(1 1) rotate(0) translate(4 280)">
<title>dependencies</title>
<polygon fill="white" stroke="transparent" points="-4,4 -4,-280 1589,-280 1589,4 -4,4"/>
<text text-anchor="start" x="771.51" y="-42.4" font-family="Times-12" font-weight="bold" font-size="14.00">Legend</text>
<polygon fill="#ffffb3" stroke="transparent" points="558.5,-10 558.5,-30 578.5,-30 578.5,-10 558.5,-10"/>
<text text-anchor="start" x="582.13" y="-15.4" font-family="Times-12" font-size="14.00"> &#160;Declarations</text>
<polygon fill="#8dd3c7" stroke="transparent" points="671.5,-10 671.5,-30 691.5,-30 691.5,-10 671.5,-10"/>
<text text-anchor="start" x="695.23" y="-15.4" font-family="Times-12" font-size="14.00"> &#160;Module</text>
<polygon fill="#80b1d3" stroke="transparent" points="757.5,-10 757.5,-30 777.5,-30 777.5,-10 757.5,-10"/>
<text text-anchor="start" x="781.28" y="-15.4" font-family="Times-12" font-size="14.00"> &#160;Bootstrap</text>
<polygon fill="#fdb462" stroke="transparent" points="854.5,-10 854.5,-30 874.5,-30 874.5,-10 854.5,-10"/>
<text text-anchor="start" x="878.17" y="-15.4" font-family="Times-12" font-size="14.00"> &#160;Providers</text>
<polygon fill="#fb8072" stroke="transparent" points="950.5,-10 950.5,-30 970.5,-30 970.5,-10 950.5,-10"/>
<text text-anchor="start" x="974.23" y="-15.4" font-family="Times-12" font-size="14.00"> &#160;Exports</text>
<g id="clust1" class="cluster">
<title>cluster_ScatterModule</title>
<polygon fill="none" stroke="black" stroke-dasharray="1,5" points="8,-70 8,-268 1577,-268 1577,-70 8,-70"/>
</g>
<g id="clust11" class="cluster">
<title>cluster_ScatterModule_providers</title>
<polygon fill="none" stroke="black" points="1419,-78 1419,-130 1569,-130 1569,-78 1419,-78"/>
</g>
<g id="clust2" class="cluster">
<title>cluster_ScatterModule_declarations</title>
<polygon fill="none" stroke="black" points="543,-78 543,-130 1411,-130 1411,-78 543,-78"/>
</g>
<g id="clust9" class="cluster">
<title>cluster_ScatterModule_exports</title>
<polygon fill="none" stroke="black" points="739,-208 739,-260 879,-260 879,-208 739,-208"/>
</g>
<g id="clust8" class="cluster">
<title>cluster_ScatterModule_imports</title>
<polygon fill="none" stroke="black" points="16,-78 16,-130 535,-130 535,-78 16,-78"/>
</g>
<!-- ScatterChartFormComponent -->
<g id="node1" class="node">
<title>ScatterChartFormComponent</title>
<polygon fill="#ffffb3" stroke="black" points="1402.64,-122 1221.36,-122 1221.36,-86 1402.64,-86 1402.64,-122"/>
<text text-anchor="middle" x="1312" y="-99.8" font-family="Times,serif" font-size="14.00">ScatterChartFormComponent</text>
</g>
<!-- ScatterModule -->
<g id="node6" class="node">
<title>ScatterModule</title>
<polygon fill="#8dd3c7" stroke="black" points="858.42,-187 855.42,-191 834.42,-191 831.42,-187 759.58,-187 759.58,-151 858.42,-151 858.42,-187"/>
<text text-anchor="middle" x="809" y="-164.8" font-family="Times,serif" font-size="14.00">ScatterModule</text>
</g>
<!-- ScatterChartFormComponent&#45;&gt;ScatterModule -->
<g id="edge1" class="edge">
<title>ScatterChartFormComponent&#45;&gt;ScatterModule</title>
<path fill="none" stroke="black" d="M1312,-122.13C1312,-142.57 1312,-173 1312,-173 1312,-173 868.61,-173 868.61,-173"/>
<polygon fill="black" stroke="black" points="868.61,-169.5 858.61,-173 868.61,-176.5 868.61,-169.5"/>
</g>
<!-- ScatterComponent -->
<g id="node2" class="node">
<title>ScatterComponent</title>
<polygon fill="#ffffb3" stroke="black" points="1203.2,-122 1082.8,-122 1082.8,-86 1203.2,-86 1203.2,-122"/>
<text text-anchor="middle" x="1143" y="-99.8" font-family="Times,serif" font-size="14.00">ScatterComponent</text>
</g>
<!-- ScatterComponent&#45;&gt;ScatterModule -->
<g id="edge2" class="edge">
<title>ScatterComponent&#45;&gt;ScatterModule</title>
<path fill="none" stroke="black" d="M1143,-122.27C1143,-140.56 1143,-166 1143,-166 1143,-166 868.28,-166 868.28,-166"/>
<polygon fill="black" stroke="black" points="868.28,-162.5 858.28,-166 868.28,-169.5 868.28,-162.5"/>
</g>
<!-- ScatterFormComponent -->
<g id="node3" class="node">
<title>ScatterFormComponent</title>
<polygon fill="#ffffb3" stroke="black" points="1065.04,-122 914.96,-122 914.96,-86 1065.04,-86 1065.04,-122"/>
<text text-anchor="middle" x="990" y="-99.8" font-family="Times,serif" font-size="14.00">ScatterFormComponent</text>
</g>
<!-- ScatterFormComponent&#45;&gt;ScatterModule -->
<g id="edge3" class="edge">
<title>ScatterFormComponent&#45;&gt;ScatterModule</title>
<path fill="none" stroke="black" d="M990,-122.01C990,-138.05 990,-159 990,-159 990,-159 868.46,-159 868.46,-159"/>
<polygon fill="black" stroke="black" points="868.46,-155.5 858.46,-159 868.46,-162.5 868.46,-155.5"/>
</g>
<!-- ScatterHighchartComponent -->
<g id="node4" class="node">
<title>ScatterHighchartComponent</title>
<polygon fill="#ffffb3" stroke="black" points="897.18,-122 720.82,-122 720.82,-86 897.18,-86 897.18,-122"/>
<text text-anchor="middle" x="809" y="-99.8" font-family="Times,serif" font-size="14.00">ScatterHighchartComponent</text>
</g>
<!-- ScatterHighchartComponent&#45;&gt;ScatterModule -->
<g id="edge4" class="edge">
<title>ScatterHighchartComponent&#45;&gt;ScatterModule</title>
<path fill="none" stroke="black" d="M809,-122.11C809,-122.11 809,-140.99 809,-140.99"/>
<polygon fill="black" stroke="black" points="805.5,-140.99 809,-150.99 812.5,-140.99 805.5,-140.99"/>
</g>
<!-- ScatterTableComponent -->
<g id="node5" class="node">
<title>ScatterTableComponent</title>
<polygon fill="#ffffb3" stroke="black" points="703.07,-122 550.93,-122 550.93,-86 703.07,-86 703.07,-122"/>
<text text-anchor="middle" x="627" y="-99.8" font-family="Times,serif" font-size="14.00">ScatterTableComponent</text>
</g>
<!-- ScatterTableComponent&#45;&gt;ScatterModule -->
<g id="edge5" class="edge">
<title>ScatterTableComponent&#45;&gt;ScatterModule</title>
<path fill="none" stroke="black" d="M627,-122.01C627,-138.05 627,-159 627,-159 627,-159 749.75,-159 749.75,-159"/>
<polygon fill="black" stroke="black" points="749.75,-162.5 759.75,-159 749.75,-155.5 749.75,-162.5"/>
</g>
<!-- ScatterComponent  -->
<g id="node10" class="node">
<title>ScatterComponent </title>
<polygon fill="#fb8072" stroke="black" points="870.7,-252 747.3,-252 747.3,-216 870.7,-216 870.7,-252"/>
<text text-anchor="middle" x="809" y="-229.8" font-family="Times,serif" font-size="14.00">ScatterComponent </text>
</g>
<!-- ScatterModule&#45;&gt;ScatterComponent  -->
<g id="edge9" class="edge">
<title>ScatterModule&#45;&gt;ScatterComponent </title>
<path fill="none" stroke="black" stroke-dasharray="5,2" d="M809,-187.11C809,-187.11 809,-205.99 809,-205.99"/>
<polygon fill="black" stroke="black" points="805.5,-205.99 809,-215.99 812.5,-205.99 805.5,-205.99"/>
</g>
<!-- InterfaceUtilModule -->
<g id="node7" class="node">
<title>InterfaceUtilModule</title>
<polygon fill="#8dd3c7" stroke="black" points="526.56,-122 523.56,-126 502.56,-126 499.56,-122 395.44,-122 395.44,-86 526.56,-86 526.56,-122"/>
<text text-anchor="middle" x="461" y="-99.8" font-family="Times,serif" font-size="14.00">InterfaceUtilModule</text>
</g>
<!-- InterfaceUtilModule&#45;&gt;ScatterModule -->
<g id="edge6" class="edge">
<title>InterfaceUtilModule&#45;&gt;ScatterModule</title>
<path fill="none" stroke="black" d="M461,-122.27C461,-140.56 461,-166 461,-166 461,-166 749.51,-166 749.51,-166"/>
<polygon fill="black" stroke="black" points="749.51,-169.5 759.51,-166 749.51,-162.5 749.51,-169.5"/>
</g>
<!-- SimpleDataButtonModule -->
<g id="node8" class="node">
<title>SimpleDataButtonModule</title>
<polygon fill="#8dd3c7" stroke="black" points="377.76,-122 374.76,-126 353.76,-126 350.76,-122 214.24,-122 214.24,-86 377.76,-86 377.76,-122"/>
<text text-anchor="middle" x="296" y="-99.8" font-family="Times,serif" font-size="14.00">SimpleDataButtonModule</text>
</g>
<!-- SimpleDataButtonModule&#45;&gt;ScatterModule -->
<g id="edge7" class="edge">
<title>SimpleDataButtonModule&#45;&gt;ScatterModule</title>
<path fill="none" stroke="black" d="M296,-122.13C296,-142.57 296,-173 296,-173 296,-173 749.35,-173 749.35,-173"/>
<polygon fill="black" stroke="black" points="749.35,-176.5 759.35,-173 749.35,-169.5 749.35,-176.5"/>
</g>
<!-- SimpleGraphButtonModule -->
<g id="node9" class="node">
<title>SimpleGraphButtonModule</title>
<polygon fill="#8dd3c7" stroke="black" points="196.32,-122 193.32,-126 172.32,-126 169.32,-122 23.68,-122 23.68,-86 196.32,-86 196.32,-122"/>
<text text-anchor="middle" x="110" y="-99.8" font-family="Times,serif" font-size="14.00">SimpleGraphButtonModule</text>
</g>
<!-- SimpleGraphButtonModule&#45;&gt;ScatterModule -->
<g id="edge8" class="edge">
<title>SimpleGraphButtonModule&#45;&gt;ScatterModule</title>
<path fill="none" stroke="black" d="M110,-122.01C110,-144.49 110,-180 110,-180 110,-180 749.57,-180 749.57,-180"/>
<polygon fill="black" stroke="black" points="749.57,-183.5 759.57,-180 749.57,-176.5 749.57,-183.5"/>
</g>
<!-- ScatterService -->
<g id="node11" class="node">
<title>ScatterService</title>
<ellipse fill="#fdb462" stroke="black" cx="1494" cy="-104" rx="66.61" ry="18"/>
<text text-anchor="middle" x="1494" y="-99.8" font-family="Times,serif" font-size="14.00">ScatterService</text>
</g>
<!-- ScatterService&#45;&gt;ScatterModule -->
<g id="edge10" class="edge">
<title>ScatterService&#45;&gt;ScatterModule</title>
<path fill="none" stroke="black" d="M1494,-122.01C1494,-144.49 1494,-180 1494,-180 1494,-180 868.26,-180 868.26,-180"/>
<polygon fill="black" stroke="black" points="868.26,-176.5 858.26,-180 868.26,-183.5 868.26,-176.5"/>
</g>
</g>
</svg>
