<?xml version="1.0" encoding="UTF-8" standalone="no"?>
<!DOCTYPE svg PUBLIC "-//W3C//DTD SVG 1.1//EN"
 "http://www.w3.org/Graphics/SVG/1.1/DTD/svg11.dtd">
<!-- Generated by graphviz version 2.47.0 (20210316.0004)
 -->
<!-- Title: dependencies Pages: 1 -->
<svg width="1830pt" height="284pt"
 viewBox="0.00 0.00 1830.00 284.00" xmlns="http://www.w3.org/2000/svg" xmlns:xlink="http://www.w3.org/1999/xlink">
<g id="graph0" class="graph" transform="scale(1 1) rotate(0) translate(4 280)">
<title>dependencies</title>
<polygon fill="white" stroke="transparent" points="-4,4 -4,-280 1826,-280 1826,4 -4,4"/>
<text text-anchor="start" x="890.01" y="-42.4" font-family="Times-12" font-weight="bold" font-size="14.00">Legend</text>
<polygon fill="#ffffb3" stroke="transparent" points="677,-10 677,-30 697,-30 697,-10 677,-10"/>
<text text-anchor="start" x="700.63" y="-15.4" font-family="Times-12" font-size="14.00"> &#160;Declarations</text>
<polygon fill="#8dd3c7" stroke="transparent" points="790,-10 790,-30 810,-30 810,-10 790,-10"/>
<text text-anchor="start" x="813.73" y="-15.4" font-family="Times-12" font-size="14.00"> &#160;Module</text>
<polygon fill="#80b1d3" stroke="transparent" points="876,-10 876,-30 896,-30 896,-10 876,-10"/>
<text text-anchor="start" x="899.78" y="-15.4" font-family="Times-12" font-size="14.00"> &#160;Bootstrap</text>
<polygon fill="#fdb462" stroke="transparent" points="973,-10 973,-30 993,-30 993,-10 973,-10"/>
<text text-anchor="start" x="996.67" y="-15.4" font-family="Times-12" font-size="14.00"> &#160;Providers</text>
<polygon fill="#fb8072" stroke="transparent" points="1069,-10 1069,-30 1089,-30 1089,-10 1069,-10"/>
<text text-anchor="start" x="1092.73" y="-15.4" font-family="Times-12" font-size="14.00"> &#160;Exports</text>
<g id="clust1" class="cluster">
<title>cluster_AppModule</title>
<polygon fill="none" stroke="black" stroke-dasharray="1,5" points="8,-70 8,-268 1814,-268 1814,-70 8,-70"/>
</g>
<g id="clust2" class="cluster">
<title>cluster_AppModule_declarations</title>
<polygon fill="none" stroke="black" points="1067,-78 1067,-130 1806,-130 1806,-78 1067,-78"/>
</g>
<g id="clust10" class="cluster">
<title>cluster_AppModule_bootstrap</title>
<polygon fill="none" stroke="black" points="925,-208 925,-260 1049,-260 1049,-208 925,-208"/>
</g>
<g id="clust8" class="cluster">
<title>cluster_AppModule_imports</title>
<polygon fill="none" stroke="black" points="462,-78 462,-130 1059,-130 1059,-78 462,-78"/>
</g>
<g id="clust11" class="cluster">
<title>cluster_AppModule_providers</title>
<polygon fill="none" stroke="black" points="16,-78 16,-130 454,-130 454,-78 16,-78"/>
</g>
<!-- AboutComponent -->
<g id="node1" class="node">
<title>AboutComponent</title>
<polygon fill="#ffffb3" stroke="black" points="1798.33,-122 1681.67,-122 1681.67,-86 1798.33,-86 1798.33,-122"/>
<text text-anchor="middle" x="1740" y="-99.8" font-family="Times,serif" font-size="14.00">AboutComponent</text>
</g>
<!-- AppModule -->
<g id="node6" class="node">
<title>AppModule</title>
<polygon fill="#8dd3c7" stroke="black" points="1028.66,-187 1025.66,-191 1004.66,-191 1001.66,-187 945.34,-187 945.34,-151 1028.66,-151 1028.66,-187"/>
<text text-anchor="middle" x="987" y="-164.8" font-family="Times,serif" font-size="14.00">AppModule</text>
</g>
<!-- AboutComponent&#45;&gt;AppModule -->
<g id="edge1" class="edge">
<title>AboutComponent&#45;&gt;AppModule</title>
<path fill="none" stroke="black" d="M1740,-122.25C1740,-145.02 1740,-181 1740,-181 1740,-181 1038.83,-181 1038.83,-181"/>
<polygon fill="black" stroke="black" points="1038.83,-177.5 1028.83,-181 1038.83,-184.5 1038.83,-177.5"/>
</g>
<!-- AppComponent -->
<g id="node2" class="node">
<title>AppComponent</title>
<polygon fill="#ffffb3" stroke="black" points="1663.94,-122 1558.06,-122 1558.06,-86 1663.94,-86 1663.94,-122"/>
<text text-anchor="middle" x="1611" y="-99.8" font-family="Times,serif" font-size="14.00">AppComponent</text>
</g>
<!-- AppComponent&#45;&gt;AppModule -->
<g id="edge2" class="edge">
<title>AppComponent&#45;&gt;AppModule</title>
<path fill="none" stroke="black" d="M1611,-122.28C1611,-143.32 1611,-175 1611,-175 1611,-175 1038.91,-175 1038.91,-175"/>
<polygon fill="black" stroke="black" points="1038.91,-171.5 1028.91,-175 1038.91,-178.5 1038.91,-171.5"/>
</g>
<!-- AppearanceComponent -->
<g id="node3" class="node">
<title>AppearanceComponent</title>
<polygon fill="#ffffb3" stroke="black" points="1540.17,-122 1391.83,-122 1391.83,-86 1540.17,-86 1540.17,-122"/>
<text text-anchor="middle" x="1466" y="-99.8" font-family="Times,serif" font-size="14.00">AppearanceComponent</text>
</g>
<!-- AppearanceComponent&#45;&gt;AppModule -->
<g id="edge3" class="edge">
<title>AppearanceComponent&#45;&gt;AppModule</title>
<path fill="none" stroke="black" d="M1466,-122.11C1466,-141.34 1466,-169 1466,-169 1466,-169 1038.67,-169 1038.67,-169"/>
<polygon fill="black" stroke="black" points="1038.67,-165.5 1028.67,-169 1038.67,-172.5 1038.67,-165.5"/>
</g>
<!-- HomeComponent -->
<g id="node4" class="node">
<title>HomeComponent</title>
<polygon fill="#ffffb3" stroke="black" points="1373.55,-122 1258.45,-122 1258.45,-86 1373.55,-86 1373.55,-122"/>
<text text-anchor="middle" x="1316" y="-99.8" font-family="Times,serif" font-size="14.00">HomeComponent</text>
</g>
<!-- HomeComponent&#45;&gt;AppModule -->
<g id="edge4" class="edge">
<title>HomeComponent&#45;&gt;AppModule</title>
<path fill="none" stroke="black" d="M1316,-122.02C1316,-139.37 1316,-163 1316,-163 1316,-163 1038.67,-163 1038.67,-163"/>
<polygon fill="black" stroke="black" points="1038.67,-159.5 1028.67,-163 1038.67,-166.5 1038.67,-159.5"/>
</g>
<!-- PageNotFoundComponent -->
<g id="node5" class="node">
<title>PageNotFoundComponent</title>
<polygon fill="#ffffb3" stroke="black" points="1240.82,-122 1075.18,-122 1075.18,-86 1240.82,-86 1240.82,-122"/>
<text text-anchor="middle" x="1158" y="-99.8" font-family="Times,serif" font-size="14.00">PageNotFoundComponent</text>
</g>
<!-- PageNotFoundComponent&#45;&gt;AppModule -->
<g id="edge5" class="edge">
<title>PageNotFoundComponent&#45;&gt;AppModule</title>
<path fill="none" stroke="black" d="M1158,-122.24C1158,-137.57 1158,-157 1158,-157 1158,-157 1038.83,-157 1038.83,-157"/>
<polygon fill="black" stroke="black" points="1038.83,-153.5 1028.83,-157 1038.83,-160.5 1038.83,-153.5"/>
</g>
<!-- AppComponent  -->
<g id="node11" class="node">
<title>AppComponent </title>
<polygon fill="#80b1d3" stroke="black" points="1041.44,-252 932.56,-252 932.56,-216 1041.44,-216 1041.44,-252"/>
<text text-anchor="middle" x="987" y="-229.8" font-family="Times,serif" font-size="14.00">AppComponent </text>
</g>
<!-- AppModule&#45;&gt;AppComponent  -->
<g id="edge10" class="edge">
<title>AppModule&#45;&gt;AppComponent </title>
<path fill="none" stroke="black" stroke-dasharray="1,5" d="M987,-187.11C987,-187.11 987,-205.99 987,-205.99"/>
<polygon fill="black" stroke="black" points="983.5,-205.99 987,-215.99 990.5,-205.99 983.5,-205.99"/>
</g>
<!-- AppRoutingModule -->
<g id="node7" class="node">
<title>AppRoutingModule</title>
<polygon fill="#8dd3c7" stroke="black" points="1051.27,-122 1048.27,-126 1027.27,-126 1024.27,-122 922.73,-122 922.73,-86 1051.27,-86 1051.27,-122"/>
<text text-anchor="middle" x="987" y="-99.8" font-family="Times,serif" font-size="14.00">AppRoutingModule</text>
</g>
<!-- AppRoutingModule&#45;&gt;AppModule -->
<g id="edge6" class="edge">
<title>AppRoutingModule&#45;&gt;AppModule</title>
<path fill="none" stroke="black" d="M987,-122.11C987,-122.11 987,-140.99 987,-140.99"/>
<polygon fill="black" stroke="black" points="983.5,-140.99 987,-150.99 990.5,-140.99 983.5,-140.99"/>
</g>
<!-- HonorCodePopupModule -->
<g id="node8" class="node">
<title>HonorCodePopupModule</title>
<polygon fill="#8dd3c7" stroke="black" points="904.15,-122 901.15,-126 880.15,-126 877.15,-122 743.85,-122 743.85,-86 904.15,-86 904.15,-122"/>
<text text-anchor="middle" x="824" y="-99.8" font-family="Times,serif" font-size="14.00">HonorCodePopupModule</text>
</g>
<!-- HonorCodePopupModule&#45;&gt;AppModule -->
<g id="edge7" class="edge">
<title>HonorCodePopupModule&#45;&gt;AppModule</title>
<path fill="none" stroke="black" d="M824,-122.24C824,-137.57 824,-157 824,-157 824,-157 935.02,-157 935.02,-157"/>
<polygon fill="black" stroke="black" points="935.02,-160.5 945.02,-157 935.02,-153.5 935.02,-160.5"/>
</g>
<!-- SettingsModule -->
<g id="node9" class="node">
<title>SettingsModule</title>
<polygon fill="#8dd3c7" stroke="black" points="725.16,-122 722.16,-126 701.16,-126 698.16,-122 620.84,-122 620.84,-86 725.16,-86 725.16,-122"/>
<text text-anchor="middle" x="673" y="-99.8" font-family="Times,serif" font-size="14.00">SettingsModule</text>
</g>
<!-- SettingsModule&#45;&gt;AppModule -->
<g id="edge8" class="edge">
<title>SettingsModule&#45;&gt;AppModule</title>
<path fill="none" stroke="black" d="M673,-122.02C673,-139.37 673,-163 673,-163 673,-163 935.3,-163 935.3,-163"/>
<polygon fill="black" stroke="black" points="935.3,-166.5 945.3,-163 935.3,-159.5 935.3,-166.5"/>
</g>
<!-- ToolsNavbarModule -->
<g id="node10" class="node">
<title>ToolsNavbarModule</title>
<polygon fill="#8dd3c7" stroke="black" points="602.13,-122 599.13,-126 578.13,-126 575.13,-122 469.87,-122 469.87,-86 602.13,-86 602.13,-122"/>
<text text-anchor="middle" x="536" y="-99.8" font-family="Times,serif" font-size="14.00">ToolsNavbarModule</text>
</g>
<!-- ToolsNavbarModule&#45;&gt;AppModule -->
<g id="edge9" class="edge">
<title>ToolsNavbarModule&#45;&gt;AppModule</title>
<path fill="none" stroke="black" d="M536,-122.11C536,-141.34 536,-169 536,-169 536,-169 934.98,-169 934.98,-169"/>
<polygon fill="black" stroke="black" points="934.98,-172.5 944.98,-169 934.98,-165.5 934.98,-172.5"/>
</g>
<!-- AppearanceService -->
<g id="node12" class="node">
<title>AppearanceService</title>
<ellipse fill="#fdb462" stroke="black" cx="360" cy="-104" rx="86.19" ry="18"/>
<text text-anchor="middle" x="360" y="-99.8" font-family="Times,serif" font-size="14.00">AppearanceService</text>
</g>
<!-- AppearanceService&#45;&gt;AppModule -->
<g id="edge11" class="edge">
<title>AppearanceService&#45;&gt;AppModule</title>
<path fill="none" stroke="black" d="M360,-122.28C360,-143.32 360,-175 360,-175 360,-175 934.89,-175 934.89,-175"/>
<polygon fill="black" stroke="black" points="934.89,-178.5 944.89,-175 934.89,-171.5 934.89,-178.5"/>
</g>
<!-- AppearanceStorageService -->
<g id="node13" class="node">
<title>AppearanceStorageService</title>
<ellipse fill="#fdb462" stroke="black" cx="140" cy="-104" rx="115.69" ry="18"/>
<text text-anchor="middle" x="140" y="-99.8" font-family="Times,serif" font-size="14.00">AppearanceStorageService</text>
</g>
<!-- AppearanceStorageService&#45;&gt;AppModule -->
<g id="edge12" class="edge">
<title>AppearanceStorageService&#45;&gt;AppModule</title>
<path fill="none" stroke="black" d="M140,-122.25C140,-145.02 140,-181 140,-181 140,-181 935.29,-181 935.29,-181"/>
<polygon fill="black" stroke="black" points="935.29,-184.5 945.29,-181 935.29,-177.5 935.29,-184.5"/>
</g>
</g>
</svg>
