<?xml version="1.0" encoding="UTF-8" standalone="no"?>
<!DOCTYPE svg PUBLIC "-//W3C//DTD SVG 1.1//EN"
 "http://www.w3.org/Graphics/SVG/1.1/DTD/svg11.dtd">
<!-- Generated by graphviz version 2.47.0 (20210316.0004)
 -->
<!-- Title: dependencies Pages: 1 -->
<svg width="1540pt" height="284pt"
 viewBox="0.00 0.00 1540.00 284.00" xmlns="http://www.w3.org/2000/svg" xmlns:xlink="http://www.w3.org/1999/xlink">
<g id="graph0" class="graph" transform="scale(1 1) rotate(0) translate(4 280)">
<title>dependencies</title>
<polygon fill="white" stroke="transparent" points="-4,4 -4,-280 1536,-280 1536,4 -4,4"/>
<text text-anchor="start" x="745.01" y="-42.4" font-family="Times-12" font-weight="bold" font-size="14.00">Legend</text>
<polygon fill="#ffffb3" stroke="transparent" points="532,-10 532,-30 552,-30 552,-10 532,-10"/>
<text text-anchor="start" x="555.63" y="-15.4" font-family="Times-12" font-size="14.00"> &#160;Declarations</text>
<polygon fill="#8dd3c7" stroke="transparent" points="645,-10 645,-30 665,-30 665,-10 645,-10"/>
<text text-anchor="start" x="668.73" y="-15.4" font-family="Times-12" font-size="14.00"> &#160;Module</text>
<polygon fill="#80b1d3" stroke="transparent" points="731,-10 731,-30 751,-30 751,-10 731,-10"/>
<text text-anchor="start" x="754.78" y="-15.4" font-family="Times-12" font-size="14.00"> &#160;Bootstrap</text>
<polygon fill="#fdb462" stroke="transparent" points="828,-10 828,-30 848,-30 848,-10 828,-10"/>
<text text-anchor="start" x="851.67" y="-15.4" font-family="Times-12" font-size="14.00"> &#160;Providers</text>
<polygon fill="#fb8072" stroke="transparent" points="924,-10 924,-30 944,-30 944,-10 924,-10"/>
<text text-anchor="start" x="947.73" y="-15.4" font-family="Times-12" font-size="14.00"> &#160;Exports</text>
<g id="clust1" class="cluster">
<title>cluster_AppModule</title>
<polygon fill="none" stroke="black" stroke-dasharray="1,5" points="8,-70 8,-268 1524,-268 1524,-70 8,-70"/>
</g>
<g id="clust2" class="cluster">
<title>cluster_AppModule_declarations</title>
<polygon fill="none" stroke="black" points="944,-78 944,-130 1516,-130 1516,-78 944,-78"/>
</g>
<g id="clust10" class="cluster">
<title>cluster_AppModule_providers</title>
<polygon fill="none" stroke="black" points="498,-78 498,-130 936,-130 936,-78 498,-78"/>
</g>
<g id="clust9" class="cluster">
<title>cluster_AppModule_bootstrap</title>
<polygon fill="none" stroke="black" points="780,-208 780,-260 904,-260 904,-208 780,-208"/>
</g>
<g id="clust7" class="cluster">
<title>cluster_AppModule_imports</title>
<polygon fill="none" stroke="black" points="16,-78 16,-130 490,-130 490,-78 16,-78"/>
</g>
<!-- AboutComponent -->
<g id="node1" class="node">
<title>AboutComponent</title>
<polygon fill="#ffffb3" stroke="black" points="1508.33,-122 1391.67,-122 1391.67,-86 1508.33,-86 1508.33,-122"/>
<text text-anchor="middle" x="1450" y="-99.8" font-family="Times,serif" font-size="14.00">AboutComponent</text>
</g>
<!-- AppModule -->
<g id="node5" class="node">
<title>AppModule</title>
<polygon fill="#8dd3c7" stroke="black" points="883.66,-187 880.66,-191 859.66,-191 856.66,-187 800.34,-187 800.34,-151 883.66,-151 883.66,-187"/>
<text text-anchor="middle" x="842" y="-164.8" font-family="Times,serif" font-size="14.00">AppModule</text>
</g>
<!-- AboutComponent&#45;&gt;AppModule -->
<g id="edge1" class="edge">
<title>AboutComponent&#45;&gt;AppModule</title>
<path fill="none" stroke="black" d="M1450,-122.01C1450,-144.49 1450,-180 1450,-180 1450,-180 893.79,-180 893.79,-180"/>
<polygon fill="black" stroke="black" points="893.79,-176.5 883.79,-180 893.79,-183.5 893.79,-176.5"/>
</g>
<!-- AppComponent -->
<g id="node2" class="node">
<title>AppComponent</title>
<polygon fill="#ffffb3" stroke="black" points="1373.94,-122 1268.06,-122 1268.06,-86 1373.94,-86 1373.94,-122"/>
<text text-anchor="middle" x="1321" y="-99.8" font-family="Times,serif" font-size="14.00">AppComponent</text>
</g>
<!-- AppComponent&#45;&gt;AppModule -->
<g id="edge2" class="edge">
<title>AppComponent&#45;&gt;AppModule</title>
<path fill="none" stroke="black" d="M1321,-122.13C1321,-142.57 1321,-173 1321,-173 1321,-173 893.67,-173 893.67,-173"/>
<polygon fill="black" stroke="black" points="893.67,-169.5 883.67,-173 893.67,-176.5 893.67,-169.5"/>
</g>
<!-- HomeComponent -->
<g id="node3" class="node">
<title>HomeComponent</title>
<polygon fill="#ffffb3" stroke="black" points="1250.55,-122 1135.45,-122 1135.45,-86 1250.55,-86 1250.55,-122"/>
<text text-anchor="middle" x="1193" y="-99.8" font-family="Times,serif" font-size="14.00">HomeComponent</text>
</g>
<!-- HomeComponent&#45;&gt;AppModule -->
<g id="edge3" class="edge">
<title>HomeComponent&#45;&gt;AppModule</title>
<path fill="none" stroke="black" d="M1193,-122.27C1193,-140.56 1193,-166 1193,-166 1193,-166 893.99,-166 893.99,-166"/>
<polygon fill="black" stroke="black" points="893.99,-162.5 883.99,-166 893.99,-169.5 893.99,-162.5"/>
</g>
<!-- PageNotFoundComponent -->
<g id="node4" class="node">
<title>PageNotFoundComponent</title>
<polygon fill="#ffffb3" stroke="black" points="1117.82,-122 952.18,-122 952.18,-86 1117.82,-86 1117.82,-122"/>
<text text-anchor="middle" x="1035" y="-99.8" font-family="Times,serif" font-size="14.00">PageNotFoundComponent</text>
</g>
<!-- PageNotFoundComponent&#45;&gt;AppModule -->
<g id="edge4" class="edge">
<title>PageNotFoundComponent&#45;&gt;AppModule</title>
<path fill="none" stroke="black" d="M1035,-122.01C1035,-138.05 1035,-159 1035,-159 1035,-159 893.88,-159 893.88,-159"/>
<polygon fill="black" stroke="black" points="893.88,-155.5 883.88,-159 893.88,-162.5 893.88,-155.5"/>
</g>
<!-- AppComponent  -->
<g id="node9" class="node">
<title>AppComponent </title>
<polygon fill="#80b1d3" stroke="black" points="896.44,-252 787.56,-252 787.56,-216 896.44,-216 896.44,-252"/>
<text text-anchor="middle" x="842" y="-229.8" font-family="Times,serif" font-size="14.00">AppComponent </text>
</g>
<!-- AppModule&#45;&gt;AppComponent  -->
<g id="edge8" class="edge">
<title>AppModule&#45;&gt;AppComponent </title>
<path fill="none" stroke="black" stroke-dasharray="1,5" d="M842,-187.11C842,-187.11 842,-205.99 842,-205.99"/>
<polygon fill="black" stroke="black" points="838.5,-205.99 842,-215.99 845.5,-205.99 838.5,-205.99"/>
</g>
<!-- AppRoutingModule -->
<g id="node6" class="node">
<title>AppRoutingModule</title>
<polygon fill="#8dd3c7" stroke="black" points="482.27,-122 479.27,-126 458.27,-126 455.27,-122 353.73,-122 353.73,-86 482.27,-86 482.27,-122"/>
<text text-anchor="middle" x="418" y="-99.8" font-family="Times,serif" font-size="14.00">AppRoutingModule</text>
</g>
<!-- AppRoutingModule&#45;&gt;AppModule -->
<g id="edge5" class="edge">
<title>AppRoutingModule&#45;&gt;AppModule</title>
<path fill="none" stroke="black" d="M418,-122.27C418,-140.56 418,-166 418,-166 418,-166 790.18,-166 790.18,-166"/>
<polygon fill="black" stroke="black" points="790.18,-169.5 800.18,-166 790.18,-162.5 790.18,-169.5"/>
</g>
<!-- HonorCodePopupModule -->
<g id="node7" class="node">
<title>HonorCodePopupModule</title>
<polygon fill="#8dd3c7" stroke="black" points="335.15,-122 332.15,-126 311.15,-126 308.15,-122 174.85,-122 174.85,-86 335.15,-86 335.15,-122"/>
<text text-anchor="middle" x="255" y="-99.8" font-family="Times,serif" font-size="14.00">HonorCodePopupModule</text>
</g>
<!-- HonorCodePopupModule&#45;&gt;AppModule -->
<g id="edge6" class="edge">
<title>HonorCodePopupModule&#45;&gt;AppModule</title>
<path fill="none" stroke="black" d="M255,-122.13C255,-142.57 255,-173 255,-173 255,-173 790.25,-173 790.25,-173"/>
<polygon fill="black" stroke="black" points="790.26,-176.5 800.25,-173 790.25,-169.5 790.26,-176.5"/>
</g>
<!-- ToolsNavbarModule -->
<g id="node8" class="node">
<title>ToolsNavbarModule</title>
<polygon fill="#8dd3c7" stroke="black" points="156.13,-122 153.13,-126 132.13,-126 129.13,-122 23.87,-122 23.87,-86 156.13,-86 156.13,-122"/>
<text text-anchor="middle" x="90" y="-99.8" font-family="Times,serif" font-size="14.00">ToolsNavbarModule</text>
</g>
<!-- ToolsNavbarModule&#45;&gt;AppModule -->
<g id="edge7" class="edge">
<title>ToolsNavbarModule&#45;&gt;AppModule</title>
<path fill="none" stroke="black" d="M90,-122.01C90,-144.49 90,-180 90,-180 90,-180 790.23,-180 790.23,-180"/>
<polygon fill="black" stroke="black" points="790.23,-183.5 800.23,-180 790.23,-176.5 790.23,-183.5"/>
</g>
<!-- AppearanceService -->
<g id="node10" class="node">
<title>AppearanceService</title>
<ellipse fill="#fdb462" stroke="black" cx="842" cy="-104" rx="86.19" ry="18"/>
<text text-anchor="middle" x="842" y="-99.8" font-family="Times,serif" font-size="14.00">AppearanceService</text>
</g>
<!-- AppearanceService&#45;&gt;AppModule -->
<g id="edge9" class="edge">
<title>AppearanceService&#45;&gt;AppModule</title>
<path fill="none" stroke="black" d="M842,-122.11C842,-122.11 842,-140.99 842,-140.99"/>
<polygon fill="black" stroke="black" points="838.5,-140.99 842,-150.99 845.5,-140.99 838.5,-140.99"/>
</g>
<!-- AppearanceStorageService -->
<g id="node11" class="node">
<title>AppearanceStorageService</title>
<ellipse fill="#fdb462" stroke="black" cx="622" cy="-104" rx="115.69" ry="18"/>
<text text-anchor="middle" x="622" y="-99.8" font-family="Times,serif" font-size="14.00">AppearanceStorageService</text>
</g>
<!-- AppearanceStorageService&#45;&gt;AppModule -->
<g id="edge10" class="edge">
<title>AppearanceStorageService&#45;&gt;AppModule</title>
<path fill="none" stroke="black" d="M622,-122.01C622,-138.05 622,-159 622,-159 622,-159 790.1,-159 790.1,-159"/>
<polygon fill="black" stroke="black" points="790.1,-162.5 800.1,-159 790.1,-155.5 790.1,-162.5"/>
</g>
</g>
</svg>
