<?xml version="1.0" encoding="UTF-8" standalone="no"?>
<!DOCTYPE svg PUBLIC "-//W3C//DTD SVG 1.1//EN"
 "http://www.w3.org/Graphics/SVG/1.1/DTD/svg11.dtd">
<!-- Generated by graphviz version 5.0.0 (20220707.1540)
 -->
<!-- Title: dependencies Pages: 1 -->
<svg width="915pt" height="247pt"
 viewBox="0.00 0.00 915.00 246.80" xmlns="http://www.w3.org/2000/svg" xmlns:xlink="http://www.w3.org/1999/xlink">
<g id="graph0" class="graph" transform="scale(1 1) rotate(0) translate(4 242.8)">
<title>dependencies</title>
<polygon fill="white" stroke="transparent" points="-4,4 -4,-242.8 911,-242.8 911,4 -4,4"/>
<text text-anchor="middle" x="453.5" y="-8.2" font-family="sans-serif" font-size="14.00">dependencies</text>
<g id="clust1" class="cluster">
<title>cluster_AppModule</title>
<polygon fill="none" stroke="black" stroke-dasharray="1,5" points="8,-32.8 8,-230.8 899,-230.8 899,-32.8 8,-32.8"/>
</g>
<g id="clust2" class="cluster">
<title>cluster_AppModule_declarations</title>
<polygon fill="none" stroke="black" points="319,-40.8 319,-92.8 891,-92.8 891,-40.8 319,-40.8"/>
</g>
<g id="clust7" class="cluster">
<title>cluster_AppModule_imports</title>
<polygon fill="none" stroke="black" points="16,-40.8 16,-92.8 311,-92.8 311,-40.8 16,-40.8"/>
</g>
<g id="clust9" class="cluster">
<title>cluster_AppModule_bootstrap</title>
<polygon fill="none" stroke="black" points="427,-170.8 427,-222.8 551,-222.8 551,-170.8 427,-170.8"/>
</g>
<!-- AboutComponent -->
<g id="node1" class="node">
<title>AboutComponent</title>
<polygon fill="#ffffb3" stroke="black" points="883.33,-84.8 766.67,-84.8 766.67,-48.8 883.33,-48.8 883.33,-84.8"/>
<text text-anchor="middle" x="825" y="-62.6" font-family="Times,serif" font-size="14.00">AboutComponent</text>
</g>
<!-- AppModule -->
<g id="node5" class="node">
<title>AppModule</title>
<polygon fill="#8dd3c7" stroke="black" points="530.66,-149.8 527.66,-153.8 506.66,-153.8 503.66,-149.8 447.34,-149.8 447.34,-113.8 530.66,-113.8 530.66,-149.8"/>
<text text-anchor="middle" x="489" y="-127.6" font-family="Times,serif" font-size="14.00">AppModule</text>
</g>
<!-- AboutComponent&#45;&gt;AppModule -->
<g id="edge1" class="edge">
<title>AboutComponent&#45;&gt;AppModule</title>
<path fill="none" stroke="black" d="M825,-85.08C825,-106.12 825,-137.8 825,-137.8 825,-137.8 540.88,-137.8 540.88,-137.8"/>
<polygon fill="black" stroke="black" points="540.88,-134.3 530.88,-137.8 540.88,-141.3 540.88,-134.3"/>
</g>
<!-- AppComponent -->
<g id="node2" class="node">
<title>AppComponent</title>
<polygon fill="#ffffb3" stroke="black" points="748.94,-84.8 643.06,-84.8 643.06,-48.8 748.94,-48.8 748.94,-84.8"/>
<text text-anchor="middle" x="696" y="-62.6" font-family="Times,serif" font-size="14.00">AppComponent</text>
</g>
<!-- AppComponent&#45;&gt;AppModule -->
<g id="edge2" class="edge">
<title>AppComponent&#45;&gt;AppModule</title>
<path fill="none" stroke="black" d="M696,-84.82C696,-102.17 696,-125.8 696,-125.8 696,-125.8 540.89,-125.8 540.89,-125.8"/>
<polygon fill="black" stroke="black" points="540.89,-122.3 530.89,-125.8 540.89,-129.3 540.89,-122.3"/>
</g>
<!-- HomeComponent -->
<g id="node3" class="node">
<title>HomeComponent</title>
<polygon fill="#ffffb3" stroke="black" points="625.55,-84.8 510.45,-84.8 510.45,-48.8 625.55,-48.8 625.55,-84.8"/>
<text text-anchor="middle" x="568" y="-62.6" font-family="Times,serif" font-size="14.00">HomeComponent</text>
</g>
<!-- HomeComponent&#45;&gt;AppModule -->
<g id="edge3" class="edge">
<title>HomeComponent&#45;&gt;AppModule</title>
<path fill="none" stroke="black" d="M520.53,-84.91C520.53,-84.91 520.53,-103.79 520.53,-103.79"/>
<polygon fill="black" stroke="black" points="517.03,-103.79 520.53,-113.79 524.03,-103.79 517.03,-103.79"/>
</g>
<!-- PageNotFoundComponent -->
<g id="node4" class="node">
<title>PageNotFoundComponent</title>
<polygon fill="#ffffb3" stroke="black" points="492.83,-84.8 327.17,-84.8 327.17,-48.8 492.83,-48.8 492.83,-84.8"/>
<text text-anchor="middle" x="410" y="-62.6" font-family="Times,serif" font-size="14.00">PageNotFoundComponent</text>
</g>
<!-- PageNotFoundComponent&#45;&gt;AppModule -->
<g id="edge4" class="edge">
<title>PageNotFoundComponent&#45;&gt;AppModule</title>
<path fill="none" stroke="black" d="M469.92,-84.91C469.92,-84.91 469.92,-103.79 469.92,-103.79"/>
<polygon fill="black" stroke="black" points="466.42,-103.79 469.92,-113.79 473.42,-103.79 466.42,-103.79"/>
</g>
<!-- AppComponent  -->
<g id="node8" class="node">
<title>AppComponent </title>
<polygon fill="#80b1d3" stroke="black" points="543.44,-214.8 434.56,-214.8 434.56,-178.8 543.44,-178.8 543.44,-214.8"/>
<text text-anchor="middle" x="489" y="-192.6" font-family="Times,serif" font-size="14.00">AppComponent </text>
</g>
<!-- AppModule&#45;&gt;AppComponent  -->
<g id="edge7" class="edge">
<title>AppModule&#45;&gt;AppComponent </title>
<path fill="none" stroke="black" stroke-dasharray="1,5" d="M489,-149.91C489,-149.91 489,-168.79 489,-168.79"/>
<polygon fill="black" stroke="black" points="485.5,-168.79 489,-178.79 492.5,-168.79 485.5,-168.79"/>
</g>
<!-- AppRoutingModule -->
<g id="node6" class="node">
<title>AppRoutingModule</title>
<polygon fill="#8dd3c7" stroke="black" points="303.28,-84.8 300.28,-88.8 279.28,-88.8 276.28,-84.8 174.72,-84.8 174.72,-48.8 303.28,-48.8 303.28,-84.8"/>
<text text-anchor="middle" x="239" y="-62.6" font-family="Times,serif" font-size="14.00">AppRoutingModule</text>
</g>
<!-- AppRoutingModule&#45;&gt;AppModule -->
<g id="edge5" class="edge">
<title>AppRoutingModule&#45;&gt;AppModule</title>
<path fill="none" stroke="black" d="M239,-84.82C239,-102.17 239,-125.8 239,-125.8 239,-125.8 437.16,-125.8 437.16,-125.8"/>
<polygon fill="black" stroke="black" points="437.16,-129.3 447.16,-125.8 437.16,-122.3 437.16,-129.3"/>
</g>
<!-- ToolsNavbarModule -->
<g id="node7" class="node">
<title>ToolsNavbarModule</title>
<polygon fill="#8dd3c7" stroke="black" points="156.14,-84.8 153.14,-88.8 132.14,-88.8 129.14,-84.8 23.86,-84.8 23.86,-48.8 156.14,-48.8 156.14,-84.8"/>
<text text-anchor="middle" x="90" y="-62.6" font-family="Times,serif" font-size="14.00">ToolsNavbarModule</text>
</g>
<!-- ToolsNavbarModule&#45;&gt;AppModule -->
<g id="edge6" class="edge">
<title>ToolsNavbarModule&#45;&gt;AppModule</title>
<path fill="none" stroke="black" d="M90,-85.08C90,-106.12 90,-137.8 90,-137.8 90,-137.8 437.05,-137.8 437.05,-137.8"/>
<polygon fill="black" stroke="black" points="437.05,-141.3 447.05,-137.8 437.05,-134.3 437.05,-141.3"/>
</g>
</g>
</svg>
