<?xml version="1.0" encoding="UTF-8" standalone="no"?>
<!DOCTYPE svg PUBLIC "-//W3C//DTD SVG 1.1//EN"
 "http://www.w3.org/Graphics/SVG/1.1/DTD/svg11.dtd">
<!-- Generated by graphviz version 5.0.0 (20220707.1540)
 -->
<!-- Title: dependencies Pages: 1 -->
<svg width="220pt" height="247pt"
 viewBox="0.00 0.00 220.00 246.80" xmlns="http://www.w3.org/2000/svg" xmlns:xlink="http://www.w3.org/1999/xlink">
<g id="graph0" class="graph" transform="scale(1 1) rotate(0) translate(4 242.8)">
<title>dependencies</title>
<polygon fill="white" stroke="transparent" points="-4,4 -4,-242.8 216,-242.8 216,4 -4,4"/>
<text text-anchor="middle" x="106" y="-8.2" font-family="sans-serif" font-size="14.00">dependencies</text>
<g id="clust1" class="cluster">
<title>cluster_DataControlDirectiveModule</title>
<polygon fill="none" stroke="black" stroke-dasharray="1,5" points="8,-32.8 8,-230.8 204,-230.8 204,-32.8 8,-32.8"/>
</g>
<g id="clust2" class="cluster">
<title>cluster_DataControlDirectiveModule_declarations</title>
<polygon fill="none" stroke="black" points="29,-40.8 29,-92.8 183,-92.8 183,-40.8 29,-40.8"/>
</g>
<g id="clust5" class="cluster">
<title>cluster_DataControlDirectiveModule_exports</title>
<polygon fill="none" stroke="black" points="28,-170.8 28,-222.8 184,-222.8 184,-170.8 28,-170.8"/>
</g>
<!-- DataControlDirective -->
<g id="node1" class="node">
<title>DataControlDirective</title>
<polygon fill="#ffffb3" stroke="black" points="174.79,-84.8 37.21,-84.8 37.21,-48.8 174.79,-48.8 174.79,-84.8"/>
<text text-anchor="middle" x="106" y="-62.6" font-family="Times,serif" font-size="14.00">DataControlDirective</text>
</g>
<!-- DataControlDirectiveModule -->
<g id="node2" class="node">
<title>DataControlDirectiveModule</title>
<polygon fill="#8dd3c7" stroke="black" points="196.34,-149.8 193.34,-153.8 172.34,-153.8 169.34,-149.8 15.66,-149.8 15.66,-113.8 196.34,-113.8 196.34,-149.8"/>
<text text-anchor="middle" x="106" y="-127.6" font-family="Times,serif" font-size="14.00">DataControlDirectiveModule</text>
</g>
<!-- DataControlDirective&#45;&gt;DataControlDirectiveModule -->
<g id="edge1" class="edge">
<title>DataControlDirective&#45;&gt;DataControlDirectiveModule</title>
<path fill="none" stroke="black" d="M106,-84.91C106,-84.91 106,-103.79 106,-103.79"/>
<polygon fill="black" stroke="black" points="102.5,-103.79 106,-113.79 109.5,-103.79 102.5,-103.79"/>
</g>
<!-- DataControlDirective  -->
<g id="node3" class="node">
<title>DataControlDirective </title>
<polygon fill="#fb8072" stroke="black" points="176.29,-214.8 35.71,-214.8 35.71,-178.8 176.29,-178.8 176.29,-214.8"/>
<text text-anchor="middle" x="106" y="-192.6" font-family="Times,serif" font-size="14.00">DataControlDirective </text>
</g>
<!-- DataControlDirectiveModule&#45;&gt;DataControlDirective  -->
<g id="edge2" class="edge">
<title>DataControlDirectiveModule&#45;&gt;DataControlDirective </title>
<path fill="none" stroke="black" stroke-dasharray="5,2" d="M106,-149.91C106,-149.91 106,-168.79 106,-168.79"/>
<polygon fill="black" stroke="black" points="102.5,-168.79 106,-178.79 109.5,-168.79 102.5,-168.79"/>
</g>
</g>
</svg>
