<?xml version="1.0" encoding="UTF-8" standalone="no"?>
<!DOCTYPE svg PUBLIC "-//W3C//DTD SVG 1.1//EN"
 "http://www.w3.org/Graphics/SVG/1.1/DTD/svg11.dtd">
<!-- Generated by graphviz version 5.0.0 (20220707.1540)
 -->
<!-- Title: dependencies Pages: 1 -->
<svg width="1541pt" height="247pt"
 viewBox="0.00 0.00 1541.00 246.80" xmlns="http://www.w3.org/2000/svg" xmlns:xlink="http://www.w3.org/1999/xlink">
<g id="graph0" class="graph" transform="scale(1 1) rotate(0) translate(4 242.8)">
<title>dependencies</title>
<polygon fill="white" stroke="transparent" points="-4,4 -4,-242.8 1537,-242.8 1537,4 -4,4"/>
<text text-anchor="middle" x="766.5" y="-8.2" font-family="sans-serif" font-size="14.00">dependencies</text>
<g id="clust1" class="cluster">
<title>cluster_StandardLayoutModule</title>
<polygon fill="none" stroke="black" stroke-dasharray="1,5" points="8,-32.8 8,-230.8 1525,-230.8 1525,-32.8 8,-32.8"/>
</g>
<g id="clust5" class="cluster">
<title>cluster_StandardLayoutModule_exports</title>
<polygon fill="none" stroke="black" points="678,-170.8 678,-222.8 868,-222.8 868,-170.8 678,-170.8"/>
</g>
<g id="clust2" class="cluster">
<title>cluster_StandardLayoutModule_declarations</title>
<polygon fill="none" stroke="black" points="1331,-40.8 1331,-92.8 1517,-92.8 1517,-40.8 1331,-40.8"/>
</g>
<g id="clust4" class="cluster">
<title>cluster_StandardLayoutModule_imports</title>
<polygon fill="none" stroke="black" points="16,-40.8 16,-92.8 1323,-92.8 1323,-40.8 16,-40.8"/>
</g>
<!-- StandardLayoutComponent -->
<g id="node1" class="node">
<title>StandardLayoutComponent</title>
<polygon fill="#ffffb3" stroke="black" points="1509.25,-84.8 1338.75,-84.8 1338.75,-48.8 1509.25,-48.8 1509.25,-84.8"/>
<text text-anchor="middle" x="1424" y="-62.6" font-family="Times,serif" font-size="14.00">StandardLayoutComponent</text>
</g>
<!-- StandardLayoutModule -->
<g id="node2" class="node">
<title>StandardLayoutModule</title>
<polygon fill="#8dd3c7" stroke="black" points="847.47,-149.8 844.47,-153.8 823.47,-153.8 820.47,-149.8 698.53,-149.8 698.53,-113.8 847.47,-113.8 847.47,-149.8"/>
<text text-anchor="middle" x="773" y="-127.6" font-family="Times,serif" font-size="14.00">StandardLayoutModule</text>
</g>
<!-- StandardLayoutComponent&#45;&gt;StandardLayoutModule -->
<g id="edge1" class="edge">
<title>StandardLayoutComponent&#45;&gt;StandardLayoutModule</title>
<path fill="none" stroke="black" d="M1424,-85.09C1424,-107.01 1424,-140.8 1424,-140.8 1424,-140.8 857.68,-140.8 857.68,-140.8"/>
<polygon fill="black" stroke="black" points="857.68,-137.3 847.68,-140.8 857.68,-144.3 857.68,-137.3"/>
</g>
<!-- StandardLayoutComponent  -->
<g id="node10" class="node">
<title>StandardLayoutComponent </title>
<polygon fill="#fb8072" stroke="black" points="860.25,-214.8 685.75,-214.8 685.75,-178.8 860.25,-178.8 860.25,-214.8"/>
<text text-anchor="middle" x="773" y="-192.6" font-family="Times,serif" font-size="14.00">StandardLayoutComponent </text>
</g>
<!-- StandardLayoutModule&#45;&gt;StandardLayoutComponent  -->
<g id="edge9" class="edge">
<title>StandardLayoutModule&#45;&gt;StandardLayoutComponent </title>
<path fill="none" stroke="black" stroke-dasharray="5,2" d="M773,-149.91C773,-149.91 773,-168.79 773,-168.79"/>
<polygon fill="black" stroke="black" points="769.5,-168.79 773,-178.79 776.5,-168.79 769.5,-168.79"/>
</g>
<!-- ChartDirectiveModule -->
<g id="node3" class="node">
<title>ChartDirectiveModule</title>
<polygon fill="#8dd3c7" stroke="black" points="1315.24,-84.8 1312.24,-88.8 1291.24,-88.8 1288.24,-84.8 1172.76,-84.8 1172.76,-48.8 1315.24,-48.8 1315.24,-84.8"/>
<text text-anchor="middle" x="1244" y="-62.6" font-family="Times,serif" font-size="14.00">ChartDirectiveModule</text>
</g>
<!-- ChartDirectiveModule&#45;&gt;StandardLayoutModule -->
<g id="edge2" class="edge">
<title>ChartDirectiveModule&#45;&gt;StandardLayoutModule</title>
<path fill="none" stroke="black" d="M1244,-84.91C1244,-104.14 1244,-131.8 1244,-131.8 1244,-131.8 857.63,-131.8 857.63,-131.8"/>
<polygon fill="black" stroke="black" points="857.63,-128.3 847.63,-131.8 857.63,-135.3 857.63,-128.3"/>
</g>
<!-- DataButtonDirectiveModule -->
<g id="node4" class="node">
<title>DataButtonDirectiveModule</title>
<polygon fill="#8dd3c7" stroke="black" points="1155.18,-84.8 1152.18,-88.8 1131.18,-88.8 1128.18,-84.8 978.82,-84.8 978.82,-48.8 1155.18,-48.8 1155.18,-84.8"/>
<text text-anchor="middle" x="1067" y="-62.6" font-family="Times,serif" font-size="14.00">DataButtonDirectiveModule</text>
</g>
<!-- DataButtonDirectiveModule&#45;&gt;StandardLayoutModule -->
<g id="edge3" class="edge">
<title>DataButtonDirectiveModule&#45;&gt;StandardLayoutModule</title>
<path fill="none" stroke="black" d="M1067,-84.83C1067,-101.2 1067,-122.8 1067,-122.8 1067,-122.8 857.57,-122.8 857.57,-122.8"/>
<polygon fill="black" stroke="black" points="857.57,-119.3 847.57,-122.8 857.57,-126.3 857.57,-119.3"/>
</g>
<!-- DataControlDirectiveModule -->
<g id="node5" class="node">
<title>DataControlDirectiveModule</title>
<polygon fill="#8dd3c7" stroke="black" points="960.34,-84.8 957.34,-88.8 936.34,-88.8 933.34,-84.8 779.66,-84.8 779.66,-48.8 960.34,-48.8 960.34,-84.8"/>
<text text-anchor="middle" x="870" y="-62.6" font-family="Times,serif" font-size="14.00">DataControlDirectiveModule</text>
</g>
<!-- DataControlDirectiveModule&#45;&gt;StandardLayoutModule -->
<g id="edge4" class="edge">
<title>DataControlDirectiveModule&#45;&gt;StandardLayoutModule</title>
<path fill="none" stroke="black" d="M813.53,-84.91C813.53,-84.91 813.53,-103.79 813.53,-103.79"/>
<polygon fill="black" stroke="black" points="810.03,-103.79 813.53,-113.79 817.03,-103.79 810.03,-103.79"/>
</g>
<!-- DataTableDirectiveModule -->
<g id="node6" class="node">
<title>DataTableDirectiveModule</title>
<polygon fill="#8dd3c7" stroke="black" points="761.93,-84.8 758.93,-88.8 737.93,-88.8 734.93,-84.8 592.07,-84.8 592.07,-48.8 761.93,-48.8 761.93,-84.8"/>
<text text-anchor="middle" x="677" y="-62.6" font-family="Times,serif" font-size="14.00">DataTableDirectiveModule</text>
</g>
<!-- DataTableDirectiveModule&#45;&gt;StandardLayoutModule -->
<g id="edge5" class="edge">
<title>DataTableDirectiveModule&#45;&gt;StandardLayoutModule</title>
<path fill="none" stroke="black" d="M730.24,-84.91C730.24,-84.91 730.24,-103.79 730.24,-103.79"/>
<polygon fill="black" stroke="black" points="726.74,-103.79 730.24,-113.79 733.74,-103.79 726.74,-103.79"/>
</g>
<!-- GraphButtonDirectiveModule -->
<g id="node7" class="node">
<title>GraphButtonDirectiveModule</title>
<polygon fill="#8dd3c7" stroke="black" points="574.24,-84.8 571.24,-88.8 550.24,-88.8 547.24,-84.8 389.76,-84.8 389.76,-48.8 574.24,-48.8 574.24,-84.8"/>
<text text-anchor="middle" x="482" y="-62.6" font-family="Times,serif" font-size="14.00">GraphButtonDirectiveModule</text>
</g>
<!-- GraphButtonDirectiveModule&#45;&gt;StandardLayoutModule -->
<g id="edge6" class="edge">
<title>GraphButtonDirectiveModule&#45;&gt;StandardLayoutModule</title>
<path fill="none" stroke="black" d="M482,-84.83C482,-101.2 482,-122.8 482,-122.8 482,-122.8 688.44,-122.8 688.44,-122.8"/>
<polygon fill="black" stroke="black" points="688.44,-126.3 698.44,-122.8 688.44,-119.3 688.44,-126.3"/>
</g>
<!-- GraphInfoDirectiveModule -->
<g id="node8" class="node">
<title>GraphInfoDirectiveModule</title>
<polygon fill="#8dd3c7" stroke="black" points="371.95,-84.8 368.95,-88.8 347.95,-88.8 344.95,-84.8 202.05,-84.8 202.05,-48.8 371.95,-48.8 371.95,-84.8"/>
<text text-anchor="middle" x="287" y="-62.6" font-family="Times,serif" font-size="14.00">GraphInfoDirectiveModule</text>
</g>
<!-- GraphInfoDirectiveModule&#45;&gt;StandardLayoutModule -->
<g id="edge7" class="edge">
<title>GraphInfoDirectiveModule&#45;&gt;StandardLayoutModule</title>
<path fill="none" stroke="black" d="M287,-84.91C287,-104.14 287,-131.8 287,-131.8 287,-131.8 688.39,-131.8 688.39,-131.8"/>
<polygon fill="black" stroke="black" points="688.39,-135.3 698.39,-131.8 688.39,-128.3 688.39,-135.3"/>
</g>
<!-- HonorCodePopupModule -->
<g id="node9" class="node">
<title>HonorCodePopupModule</title>
<polygon fill="#8dd3c7" stroke="black" points="184.16,-84.8 181.16,-88.8 160.16,-88.8 157.16,-84.8 23.84,-84.8 23.84,-48.8 184.16,-48.8 184.16,-84.8"/>
<text text-anchor="middle" x="104" y="-62.6" font-family="Times,serif" font-size="14.00">HonorCodePopupModule</text>
</g>
<!-- HonorCodePopupModule&#45;&gt;StandardLayoutModule -->
<g id="edge8" class="edge">
<title>HonorCodePopupModule&#45;&gt;StandardLayoutModule</title>
<path fill="none" stroke="black" d="M104,-85.09C104,-107.01 104,-140.8 104,-140.8 104,-140.8 688.53,-140.8 688.53,-140.8"/>
<polygon fill="black" stroke="black" points="688.53,-144.3 698.53,-140.8 688.53,-137.3 688.53,-144.3"/>
</g>
</g>
</svg>
