<?xml version="1.0" encoding="UTF-8" standalone="no"?>
<!DOCTYPE svg PUBLIC "-//W3C//DTD SVG 1.1//EN"
 "http://www.w3.org/Graphics/SVG/1.1/DTD/svg11.dtd">
<!-- Generated by graphviz version 2.47.0 (20210316.0004)
 -->
<!-- Title: dependencies Pages: 1 -->
<svg width="4541pt" height="442pt"
 viewBox="0.00 0.00 4541.00 442.00" xmlns="http://www.w3.org/2000/svg" xmlns:xlink="http://www.w3.org/1999/xlink">
<g id="graph0" class="graph" transform="scale(1 1) rotate(0) translate(4 438)">
<title>dependencies</title>
<polygon fill="white" stroke="transparent" points="-4,4 -4,-438 4537,-438 4537,4 -4,4"/>
<text text-anchor="start" x="2245.51" y="-42.4" font-family="Times-12" font-weight="bold" font-size="14.00">Legend</text>
<polygon fill="#ffffb3" stroke="transparent" points="2032.5,-10 2032.5,-30 2052.5,-30 2052.5,-10 2032.5,-10"/>
<text text-anchor="start" x="2056.13" y="-15.4" font-family="Times-12" font-size="14.00"> &#160;Declarations</text>
<polygon fill="#8dd3c7" stroke="transparent" points="2145.5,-10 2145.5,-30 2165.5,-30 2165.5,-10 2145.5,-10"/>
<text text-anchor="start" x="2169.23" y="-15.4" font-family="Times-12" font-size="14.00"> &#160;Module</text>
<polygon fill="#80b1d3" stroke="transparent" points="2231.5,-10 2231.5,-30 2251.5,-30 2251.5,-10 2231.5,-10"/>
<text text-anchor="start" x="2255.28" y="-15.4" font-family="Times-12" font-size="14.00"> &#160;Bootstrap</text>
<polygon fill="#fdb462" stroke="transparent" points="2328.5,-10 2328.5,-30 2348.5,-30 2348.5,-10 2328.5,-10"/>
<text text-anchor="start" x="2352.17" y="-15.4" font-family="Times-12" font-size="14.00"> &#160;Providers</text>
<polygon fill="#fb8072" stroke="transparent" points="2424.5,-10 2424.5,-30 2444.5,-30 2444.5,-10 2424.5,-10"/>
<text text-anchor="start" x="2448.23" y="-15.4" font-family="Times-12" font-size="14.00"> &#160;Exports</text>
<g id="clust1" class="cluster">
<title>cluster_AppModule</title>
<polygon fill="none" stroke="black" stroke-dasharray="1,5" points="2462,-146 2462,-426 4149,-426 4149,-146 2462,-146"/>
</g>
<g id="clust2" class="cluster">
<title>cluster_AppModule_declarations</title>
<polygon fill="none" stroke="black" points="2502,-222 2502,-274 3241,-274 3241,-222 2502,-222"/>
</g>
<g id="clust8" class="cluster">
<title>cluster_AppModule_imports</title>
<polygon fill="none" stroke="black" points="3695,-154 3695,-274 4141,-274 4141,-154 3695,-154"/>
</g>
<g id="clust10" class="cluster">
<title>cluster_AppModule_bootstrap</title>
<polygon fill="none" stroke="black" points="2947,-366 2947,-418 3071,-418 3071,-366 2947,-366"/>
</g>
<g id="clust11" class="cluster">
<title>cluster_AppModule_providers</title>
<polygon fill="none" stroke="black" points="3249,-222 3249,-274 3687,-274 3687,-222 3249,-222"/>
</g>
<g id="clust18" class="cluster">
<title>cluster_CurveModule</title>
<polygon fill="none" stroke="black" stroke-dasharray="1,5" points="8,-70 8,-282 1558,-282 1558,-70 8,-70"/>
</g>
<g id="clust19" class="cluster">
<title>cluster_CurveModule_declarations</title>
<polygon fill="none" stroke="black" points="168,-78 168,-130 1172,-130 1172,-78 168,-78"/>
</g>
<g id="clust26" class="cluster">
<title>cluster_CurveModule_imports</title>
<polygon fill="none" stroke="black" points="1180,-78 1180,-130 1550,-130 1550,-78 1180,-78"/>
</g>
<g id="clust27" class="cluster">
<title>cluster_CurveModule_exports</title>
<polygon fill="none" stroke="black" points="750,-222 750,-274 886,-274 886,-222 750,-222"/>
</g>
<g id="clust29" class="cluster">
<title>cluster_CurveModule_providers</title>
<polygon fill="none" stroke="black" points="16,-78 16,-130 160,-130 160,-78 16,-78"/>
</g>
<g id="clust30" class="cluster">
<title>cluster_HonorCodePopupModule</title>
<polygon fill="none" stroke="black" stroke-dasharray="1,5" points="3422,-70 3422,-138 3636,-138 3636,-70 3422,-70"/>
</g>
<g id="clust31" class="cluster">
<title>cluster_HonorCodePopupModule_declarations</title>
<polygon fill="none" stroke="black" points="3430,-78 3430,-130 3628,-130 3628,-78 3430,-78"/>
</g>
<g id="clust37" class="cluster">
<title>cluster_MenubarModule</title>
<polygon fill="none" stroke="black" stroke-dasharray="1,5" points="4157,-70 4157,-282 4325,-282 4325,-70 4157,-70"/>
</g>
<g id="clust38" class="cluster">
<title>cluster_MenubarModule_declarations</title>
<polygon fill="none" stroke="black" points="4165,-78 4165,-130 4313,-130 4313,-78 4165,-78"/>
</g>
<g id="clust41" class="cluster">
<title>cluster_MenubarModule_exports</title>
<polygon fill="none" stroke="black" points="4165,-222 4165,-274 4317,-274 4317,-222 4165,-222"/>
</g>
<g id="clust44" class="cluster">
<title>cluster_SettingsModule</title>
<polygon fill="none" stroke="black" stroke-dasharray="1,5" points="3644,-70 3644,-138 4149,-138 4149,-70 3644,-70"/>
</g>
<g id="clust45" class="cluster">
<title>cluster_SettingsModule_declarations</title>
<polygon fill="none" stroke="black" points="3999,-78 3999,-130 4141,-130 4141,-78 3999,-78"/>
</g>
<g id="clust47" class="cluster">
<title>cluster_SettingsModule_imports</title>
<polygon fill="none" stroke="black" points="3652,-78 3652,-130 3991,-130 3991,-78 3652,-78"/>
</g>
<g id="clust51" class="cluster">
<title>cluster_SimpleDataButtonModule</title>
<polygon fill="none" stroke="black" stroke-dasharray="1,5" points="1566,-146 1566,-214 1998,-214 1998,-146 1566,-146"/>
</g>
<g id="clust52" class="cluster">
<title>cluster_SimpleDataButtonModule_declarations</title>
<polygon fill="none" stroke="black" points="1788,-154 1788,-206 1990,-206 1990,-154 1788,-154"/>
</g>
<g id="clust55" class="cluster">
<title>cluster_SimpleDataButtonModule_exports</title>
<polygon fill="none" stroke="black" points="1574,-154 1574,-206 1780,-206 1780,-154 1574,-154"/>
</g>
<g id="clust58" class="cluster">
<title>cluster_SimpleGraphButtonModule</title>
<polygon fill="none" stroke="black" stroke-dasharray="1,5" points="2006,-146 2006,-214 2454,-214 2454,-146 2006,-146"/>
</g>
<g id="clust59" class="cluster">
<title>cluster_SimpleGraphButtonModule_declarations</title>
<polygon fill="none" stroke="black" points="2236,-154 2236,-206 2446,-206 2446,-154 2236,-154"/>
</g>
<g id="clust62" class="cluster">
<title>cluster_SimpleGraphButtonModule_exports</title>
<polygon fill="none" stroke="black" points="2014,-154 2014,-206 2228,-206 2228,-154 2014,-154"/>
</g>
<g id="clust65" class="cluster">
<title>cluster_ToolsNavbarModule</title>
<polygon fill="none" stroke="black" stroke-dasharray="1,5" points="4157,-290 4157,-358 4525,-358 4525,-290 4157,-290"/>
</g>
<g id="clust66" class="cluster">
<title>cluster_ToolsNavbarModule_declarations</title>
<polygon fill="none" stroke="black" points="4347,-298 4347,-350 4517,-350 4517,-298 4347,-298"/>
</g>
<g id="clust69" class="cluster">
<title>cluster_ToolsNavbarModule_exports</title>
<polygon fill="none" stroke="black" points="4165,-298 4165,-350 4339,-350 4339,-298 4165,-298"/>
</g>
<!-- AboutComponent -->
<g id="node1" class="node">
<title>AboutComponent</title>
<polygon fill="#ffffb3" stroke="black" points="2750.33,-266 2633.67,-266 2633.67,-230 2750.33,-230 2750.33,-266"/>
<text text-anchor="middle" x="2692" y="-243.8" font-family="Times,serif" font-size="14.00">AboutComponent</text>
</g>
<!-- AppModule -->
<g id="node6" class="node">
<title>AppModule</title>
<polygon fill="#8dd3c7" stroke="black" points="3050.66,-342 3047.66,-346 3026.66,-346 3023.66,-342 2967.34,-342 2967.34,-306 3050.66,-306 3050.66,-342"/>
<text text-anchor="middle" x="3009" y="-319.8" font-family="Times,serif" font-size="14.00">AppModule</text>
</g>
<!-- AboutComponent&#45;&gt;AppModule -->
<g id="edge1" class="edge">
<title>AboutComponent&#45;&gt;AppModule</title>
<path fill="none" stroke="black" d="M2692,-266.01C2692,-288.49 2692,-324 2692,-324 2692,-324 2957.23,-324 2957.23,-324"/>
<polygon fill="black" stroke="black" points="2957.23,-327.5 2967.23,-324 2957.23,-320.5 2957.23,-327.5"/>
</g>
<!-- AppComponent -->
<g id="node2" class="node">
<title>AppComponent</title>
<polygon fill="#ffffb3" stroke="black" points="2615.94,-266 2510.06,-266 2510.06,-230 2615.94,-230 2615.94,-266"/>
<text text-anchor="middle" x="2563" y="-243.8" font-family="Times,serif" font-size="14.00">AppComponent</text>
</g>
<!-- AppComponent&#45;&gt;AppModule -->
<g id="edge2" class="edge">
<title>AppComponent&#45;&gt;AppModule</title>
<path fill="none" stroke="black" d="M2563,-266.03C2563,-290.98 2563,-333 2563,-333 2563,-333 2957.04,-333 2957.04,-333"/>
<polygon fill="black" stroke="black" points="2957.04,-336.5 2967.04,-333 2957.04,-329.5 2957.04,-336.5"/>
</g>
<!-- AppearanceComponent -->
<g id="node3" class="node">
<title>AppearanceComponent</title>
<polygon fill="#ffffb3" stroke="black" points="3233.17,-266 3084.83,-266 3084.83,-230 3233.17,-230 3233.17,-266"/>
<text text-anchor="middle" x="3159" y="-243.8" font-family="Times,serif" font-size="14.00">AppearanceComponent</text>
</g>
<!-- AppearanceComponent&#45;&gt;AppModule -->
<g id="edge3" class="edge">
<title>AppearanceComponent&#45;&gt;AppModule</title>
<path fill="none" stroke="black" d="M3159,-266.03C3159,-285.58 3159,-314 3159,-314 3159,-314 3060.78,-314 3060.78,-314"/>
<polygon fill="black" stroke="black" points="3060.78,-310.5 3050.78,-314 3060.78,-317.5 3060.78,-310.5"/>
</g>
<!-- HomeComponent -->
<g id="node4" class="node">
<title>HomeComponent</title>
<polygon fill="#ffffb3" stroke="black" points="3066.55,-266 2951.45,-266 2951.45,-230 3066.55,-230 3066.55,-266"/>
<text text-anchor="middle" x="3009" y="-243.8" font-family="Times,serif" font-size="14.00">HomeComponent</text>
</g>
<!-- HomeComponent&#45;&gt;AppModule -->
<g id="edge4" class="edge">
<title>HomeComponent&#45;&gt;AppModule</title>
<path fill="none" stroke="black" d="M3009,-266.01C3009,-266.01 3009,-295.85 3009,-295.85"/>
<polygon fill="black" stroke="black" points="3005.5,-295.85 3009,-305.85 3012.5,-295.85 3005.5,-295.85"/>
</g>
<!-- PageNotFoundComponent -->
<g id="node5" class="node">
<title>PageNotFoundComponent</title>
<polygon fill="#ffffb3" stroke="black" points="2933.82,-266 2768.18,-266 2768.18,-230 2933.82,-230 2933.82,-266"/>
<text text-anchor="middle" x="2851" y="-243.8" font-family="Times,serif" font-size="14.00">PageNotFoundComponent</text>
</g>
<!-- PageNotFoundComponent&#45;&gt;AppModule -->
<g id="edge5" class="edge">
<title>PageNotFoundComponent&#45;&gt;AppModule</title>
<path fill="none" stroke="black" d="M2851,-266.31C2851,-286.15 2851,-315 2851,-315 2851,-315 2957.07,-315 2957.07,-315"/>
<polygon fill="black" stroke="black" points="2957.07,-318.5 2967.07,-315 2957.07,-311.5 2957.07,-318.5"/>
</g>
<!-- AppComponent  -->
<g id="node11" class="node">
<title>AppComponent </title>
<polygon fill="#80b1d3" stroke="black" points="3063.44,-410 2954.56,-410 2954.56,-374 3063.44,-374 3063.44,-410"/>
<text text-anchor="middle" x="3009" y="-387.8" font-family="Times,serif" font-size="14.00">AppComponent </text>
</g>
<!-- AppModule&#45;&gt;AppComponent  -->
<g id="edge10" class="edge">
<title>AppModule&#45;&gt;AppComponent </title>
<path fill="none" stroke="black" stroke-dasharray="1,5" d="M3009,-342.22C3009,-342.22 3009,-363.73 3009,-363.73"/>
<polygon fill="black" stroke="black" points="3005.5,-363.73 3009,-373.73 3012.5,-363.73 3005.5,-363.73"/>
</g>
<!-- AppRoutingModule -->
<g id="node7" class="node">
<title>AppRoutingModule</title>
<polygon fill="#8dd3c7" stroke="black" points="4133.27,-198 4130.27,-202 4109.27,-202 4106.27,-198 4004.73,-198 4004.73,-162 4133.27,-162 4133.27,-198"/>
<text text-anchor="middle" x="4069" y="-175.8" font-family="Times,serif" font-size="14.00">AppRoutingModule</text>
</g>
<!-- AppRoutingModule&#45;&gt;AppModule -->
<g id="edge6" class="edge">
<title>AppRoutingModule&#45;&gt;AppModule</title>
<path fill="none" stroke="black" d="M4004.57,-186C3999.27,-186 3995.9,-186 3995.9,-186 3995.9,-186 3995.9,-334 3995.9,-334 3995.9,-334 3060.78,-334 3060.78,-334"/>
<polygon fill="black" stroke="black" points="3060.78,-330.5 3050.78,-334 3060.78,-337.5 3060.78,-330.5"/>
</g>
<!-- ToolsNavbarModule -->
<g id="node10" class="node">
<title>ToolsNavbarModule</title>
<polygon fill="#8dd3c7" stroke="black" points="4133.13,-266 4130.13,-270 4109.13,-270 4106.13,-266 4000.87,-266 4000.87,-230 4133.13,-230 4133.13,-266"/>
<text text-anchor="middle" x="4067" y="-243.8" font-family="Times,serif" font-size="14.00">ToolsNavbarModule</text>
</g>
<!-- AppRoutingModule&#45;&gt;ToolsNavbarModule -->
<g id="edge36" class="edge">
<title>AppRoutingModule&#45;&gt;ToolsNavbarModule</title>
<path fill="none" stroke="black" d="M4090.42,-198.22C4090.42,-198.22 4090.42,-219.73 4090.42,-219.73"/>
<polygon fill="black" stroke="black" points="4086.92,-219.73 4090.42,-229.73 4093.92,-219.73 4086.92,-219.73"/>
</g>
<!-- MenubarModule -->
<g id="node27" class="node">
<title>MenubarModule</title>
<polygon fill="#8dd3c7" stroke="black" points="4284.08,-198 4281.08,-202 4260.08,-202 4257.08,-198 4173.92,-198 4173.92,-162 4284.08,-162 4284.08,-198"/>
<text text-anchor="middle" x="4229" y="-175.8" font-family="Times,serif" font-size="14.00">MenubarModule</text>
</g>
<!-- AppRoutingModule&#45;&gt;MenubarModule -->
<g id="edge25" class="edge">
<title>AppRoutingModule&#45;&gt;MenubarModule</title>
<path fill="none" stroke="black" d="M4133.62,-174C4133.62,-174 4163.9,-174 4163.9,-174"/>
<polygon fill="black" stroke="black" points="4163.9,-177.5 4173.9,-174 4163.9,-170.5 4163.9,-177.5"/>
</g>
<!-- HonorCodePopupModule -->
<g id="node8" class="node">
<title>HonorCodePopupModule</title>
<polygon fill="#8dd3c7" stroke="black" points="3863.15,-198 3860.15,-202 3839.15,-202 3836.15,-198 3702.85,-198 3702.85,-162 3863.15,-162 3863.15,-198"/>
<text text-anchor="middle" x="3783" y="-175.8" font-family="Times,serif" font-size="14.00">HonorCodePopupModule</text>
</g>
<!-- HonorCodePopupModule&#45;&gt;AppModule -->
<g id="edge7" class="edge">
<title>HonorCodePopupModule&#45;&gt;AppModule</title>
<path fill="none" stroke="black" d="M3783,-198.2C3783,-237.33 3783,-326 3783,-326 3783,-326 3060.89,-326 3060.89,-326"/>
<polygon fill="black" stroke="black" points="3060.89,-322.5 3050.89,-326 3060.89,-329.5 3060.89,-322.5"/>
</g>
<!-- SettingsModule -->
<g id="node9" class="node">
<title>SettingsModule</title>
<polygon fill="#8dd3c7" stroke="black" points="3986.16,-198 3983.16,-202 3962.16,-202 3959.16,-198 3881.84,-198 3881.84,-162 3986.16,-162 3986.16,-198"/>
<text text-anchor="middle" x="3934" y="-175.8" font-family="Times,serif" font-size="14.00">SettingsModule</text>
</g>
<!-- SettingsModule&#45;&gt;AppModule -->
<g id="edge8" class="edge">
<title>SettingsModule&#45;&gt;AppModule</title>
<path fill="none" stroke="black" d="M3934,-198.09C3934,-237.99 3934,-330 3934,-330 3934,-330 3060.85,-330 3060.85,-330"/>
<polygon fill="black" stroke="black" points="3060.85,-326.5 3050.85,-330 3060.85,-333.5 3060.85,-326.5"/>
</g>
<!-- ToolsNavbarModule&#45;&gt;AppModule -->
<g id="edge9" class="edge">
<title>ToolsNavbarModule&#45;&gt;AppModule</title>
<path fill="none" stroke="black" d="M4033.84,-266.21C4033.84,-292.51 4033.84,-338 4033.84,-338 4033.84,-338 3060.76,-338 3060.76,-338"/>
<polygon fill="black" stroke="black" points="3060.76,-334.5 3050.76,-338 3060.76,-341.5 3060.76,-334.5"/>
</g>
<!-- ToolsNavbarComponent  -->
<g id="node38" class="node">
<title>ToolsNavbarComponent </title>
<polygon fill="#fb8072" stroke="black" points="4330.92,-342 4173.08,-342 4173.08,-306 4330.92,-306 4330.92,-342"/>
<text text-anchor="middle" x="4252" y="-319.8" font-family="Times,serif" font-size="14.00">ToolsNavbarComponent </text>
</g>
<!-- ToolsNavbarModule&#45;&gt;ToolsNavbarComponent  -->
<g id="edge39" class="edge">
<title>ToolsNavbarModule&#45;&gt;ToolsNavbarComponent </title>
<path fill="none" stroke="black" stroke-dasharray="5,2" d="M4100.16,-266.27C4100.16,-284.56 4100.16,-310 4100.16,-310 4100.16,-310 4162.97,-310 4162.97,-310"/>
<polygon fill="black" stroke="black" points="4162.97,-313.5 4172.97,-310 4162.97,-306.5 4162.97,-313.5"/>
</g>
<!-- AppearanceService -->
<g id="node12" class="node">
<title>AppearanceService</title>
<ellipse fill="#fdb462" stroke="black" cx="3343" cy="-248" rx="86.19" ry="18"/>
<text text-anchor="middle" x="3343" y="-243.8" font-family="Times,serif" font-size="14.00">AppearanceService</text>
</g>
<!-- AppearanceService&#45;&gt;AppModule -->
<g id="edge11" class="edge">
<title>AppearanceService&#45;&gt;AppModule</title>
<path fill="none" stroke="black" d="M3343,-266.03C3343,-286.77 3343,-318 3343,-318 3343,-318 3060.96,-318 3060.96,-318"/>
<polygon fill="black" stroke="black" points="3060.96,-314.5 3050.96,-318 3060.96,-321.5 3060.96,-314.5"/>
</g>
<!-- AppearanceStorageService -->
<g id="node13" class="node">
<title>AppearanceStorageService</title>
<ellipse fill="#fdb462" stroke="black" cx="3563" cy="-248" rx="115.69" ry="18"/>
<text text-anchor="middle" x="3563" y="-243.8" font-family="Times,serif" font-size="14.00">AppearanceStorageService</text>
</g>
<!-- AppearanceStorageService&#45;&gt;AppModule -->
<g id="edge12" class="edge">
<title>AppearanceStorageService&#45;&gt;AppModule</title>
<path fill="none" stroke="black" d="M3563,-266.29C3563,-288.21 3563,-322 3563,-322 3563,-322 3061.09,-322 3061.09,-322"/>
<polygon fill="black" stroke="black" points="3061.09,-318.5 3051.09,-322 3061.09,-325.5 3061.09,-318.5"/>
</g>
<!-- CurveChartComponent -->
<g id="node14" class="node">
<title>CurveChartComponent</title>
<polygon fill="#ffffb3" stroke="black" points="651.15,-122 504.85,-122 504.85,-86 651.15,-86 651.15,-122"/>
<text text-anchor="middle" x="578" y="-99.8" font-family="Times,serif" font-size="14.00">CurveChartComponent</text>
</g>
<!-- CurveModule -->
<g id="node20" class="node">
<title>CurveModule</title>
<polygon fill="#8dd3c7" stroke="black" points="864.76,-198 861.76,-202 840.76,-202 837.76,-198 771.24,-198 771.24,-162 864.76,-162 864.76,-198"/>
<text text-anchor="middle" x="818" y="-175.8" font-family="Times,serif" font-size="14.00">CurveModule</text>
</g>
<!-- CurveChartComponent&#45;&gt;CurveModule -->
<g id="edge13" class="edge">
<title>CurveChartComponent&#45;&gt;CurveModule</title>
<path fill="none" stroke="black" d="M578,-122.03C578,-141.58 578,-170 578,-170 578,-170 761.16,-170 761.16,-170"/>
<polygon fill="black" stroke="black" points="761.16,-173.5 771.16,-170 761.16,-166.5 761.16,-173.5"/>
</g>
<!-- CurveChartFormComponent -->
<g id="node15" class="node">
<title>CurveChartFormComponent</title>
<polygon fill="#ffffb3" stroke="black" points="486.48,-122 309.52,-122 309.52,-86 486.48,-86 486.48,-122"/>
<text text-anchor="middle" x="398" y="-99.8" font-family="Times,serif" font-size="14.00">CurveChartFormComponent</text>
</g>
<!-- CurveChartFormComponent&#45;&gt;CurveModule -->
<g id="edge14" class="edge">
<title>CurveChartFormComponent&#45;&gt;CurveModule</title>
<path fill="none" stroke="black" d="M398,-122.04C398,-143.66 398,-177 398,-177 398,-177 761.04,-177 761.04,-177"/>
<polygon fill="black" stroke="black" points="761.04,-180.5 771.04,-177 761.04,-173.5 761.04,-180.5"/>
</g>
<!-- CurveComponent -->
<g id="node16" class="node">
<title>CurveComponent</title>
<polygon fill="#ffffb3" stroke="black" points="291.55,-122 176.45,-122 176.45,-86 291.55,-86 291.55,-122"/>
<text text-anchor="middle" x="234" y="-99.8" font-family="Times,serif" font-size="14.00">CurveComponent</text>
</g>
<!-- CurveComponent&#45;&gt;CurveModule -->
<g id="edge15" class="edge">
<title>CurveComponent&#45;&gt;CurveModule</title>
<path fill="none" stroke="black" d="M234,-122.15C234,-145.76 234,-184 234,-184 234,-184 761.2,-184 761.2,-184"/>
<polygon fill="black" stroke="black" points="761.2,-187.5 771.2,-184 761.2,-180.5 761.2,-187.5"/>
</g>
<!-- CurveHighChartComponent -->
<g id="node17" class="node">
<title>CurveHighChartComponent</title>
<polygon fill="#ffffb3" stroke="black" points="1164.14,-122 989.86,-122 989.86,-86 1164.14,-86 1164.14,-122"/>
<text text-anchor="middle" x="1077" y="-99.8" font-family="Times,serif" font-size="14.00">CurveHighChartComponent</text>
</g>
<!-- CurveHighChartComponent&#45;&gt;CurveModule -->
<g id="edge16" class="edge">
<title>CurveHighChartComponent&#45;&gt;CurveModule</title>
<path fill="none" stroke="black" d="M1077,-122.04C1077,-143.66 1077,-177 1077,-177 1077,-177 874.9,-177 874.9,-177"/>
<polygon fill="black" stroke="black" points="874.9,-173.5 864.9,-177 874.9,-180.5 874.9,-173.5"/>
</g>
<!-- CurveTableComponent -->
<g id="node18" class="node">
<title>CurveTableComponent</title>
<polygon fill="#ffffb3" stroke="black" points="971.92,-122 824.08,-122 824.08,-86 971.92,-86 971.92,-122"/>
<text text-anchor="middle" x="898" y="-99.8" font-family="Times,serif" font-size="14.00">CurveTableComponent</text>
</g>
<!-- CurveTableComponent&#45;&gt;CurveModule -->
<g id="edge17" class="edge">
<title>CurveTableComponent&#45;&gt;CurveModule</title>
<path fill="none" stroke="black" d="M844.59,-122.01C844.59,-122.01 844.59,-151.85 844.59,-151.85"/>
<polygon fill="black" stroke="black" points="841.09,-151.85 844.59,-161.85 848.09,-151.85 841.09,-151.85"/>
</g>
<!-- LineFormComponent -->
<g id="node19" class="node">
<title>LineFormComponent</title>
<polygon fill="#ffffb3" stroke="black" points="806.82,-122 669.18,-122 669.18,-86 806.82,-86 806.82,-122"/>
<text text-anchor="middle" x="738" y="-99.8" font-family="Times,serif" font-size="14.00">LineFormComponent</text>
</g>
<!-- LineFormComponent&#45;&gt;CurveModule -->
<g id="edge18" class="edge">
<title>LineFormComponent&#45;&gt;CurveModule</title>
<path fill="none" stroke="black" d="M788.89,-122.01C788.89,-122.01 788.89,-151.85 788.89,-151.85"/>
<polygon fill="black" stroke="black" points="785.39,-151.85 788.89,-161.85 792.39,-151.85 785.39,-151.85"/>
</g>
<!-- CurveModule&#45;&gt;ToolsNavbarModule -->
<g id="edge37" class="edge">
<title>CurveModule&#45;&gt;ToolsNavbarModule</title>
<path fill="none" stroke="black" d="M833.63,-198.19C833.63,-206.28 833.63,-214 833.63,-214 833.63,-214 4047.51,-214 4047.51,-214 4047.51,-214 4047.51,-219.81 4047.51,-219.81"/>
<polygon fill="black" stroke="black" points="4044.01,-219.81 4047.51,-229.81 4051.01,-219.81 4044.01,-219.81"/>
</g>
<!-- CurveComponent  -->
<g id="node23" class="node">
<title>CurveComponent </title>
<polygon fill="#fb8072" stroke="black" points="877.54,-266 758.46,-266 758.46,-230 877.54,-230 877.54,-266"/>
<text text-anchor="middle" x="818" y="-243.8" font-family="Times,serif" font-size="14.00">CurveComponent </text>
</g>
<!-- CurveModule&#45;&gt;CurveComponent  -->
<g id="edge21" class="edge">
<title>CurveModule&#45;&gt;CurveComponent </title>
<path fill="none" stroke="black" stroke-dasharray="5,2" d="M802.37,-198.22C802.37,-198.22 802.37,-219.73 802.37,-219.73"/>
<polygon fill="black" stroke="black" points="798.87,-219.73 802.37,-229.73 805.87,-219.73 798.87,-219.73"/>
</g>
<!-- SimpleDataButtonModule -->
<g id="node21" class="node">
<title>SimpleDataButtonModule</title>
<polygon fill="#8dd3c7" stroke="black" points="1351.76,-122 1348.76,-126 1327.76,-126 1324.76,-122 1188.24,-122 1188.24,-86 1351.76,-86 1351.76,-122"/>
<text text-anchor="middle" x="1270" y="-99.8" font-family="Times,serif" font-size="14.00">SimpleDataButtonModule</text>
</g>
<!-- SimpleDataButtonModule&#45;&gt;CurveModule -->
<g id="edge19" class="edge">
<title>SimpleDataButtonModule&#45;&gt;CurveModule</title>
<path fill="none" stroke="black" d="M1270,-122.15C1270,-145.76 1270,-184 1270,-184 1270,-184 875.09,-184 875.09,-184"/>
<polygon fill="black" stroke="black" points="875.09,-180.5 865.09,-184 875.09,-187.5 875.09,-180.5"/>
</g>
<!-- SimpleDataButtonComponent  -->
<g id="node34" class="node">
<title>SimpleDataButtonComponent </title>
<polygon fill="#fb8072" stroke="black" points="1771.55,-198 1582.45,-198 1582.45,-162 1771.55,-162 1771.55,-198"/>
<text text-anchor="middle" x="1677" y="-175.8" font-family="Times,serif" font-size="14.00">SimpleDataButtonComponent </text>
</g>
<!-- SimpleDataButtonModule&#45;&gt;SimpleDataButtonComponent  -->
<g id="edge32" class="edge">
<title>SimpleDataButtonModule&#45;&gt;SimpleDataButtonComponent </title>
<path fill="none" stroke="black" stroke-dasharray="5,2" d="M1310.94,-122.03C1310.94,-141.58 1310.94,-170 1310.94,-170 1310.94,-170 1572.25,-170 1572.25,-170"/>
<polygon fill="black" stroke="black" points="1572.25,-173.5 1582.25,-170 1572.25,-166.5 1572.25,-173.5"/>
</g>
<!-- SimpleGraphButtonModule -->
<g id="node22" class="node">
<title>SimpleGraphButtonModule</title>
<polygon fill="#8dd3c7" stroke="black" points="1542.32,-122 1539.32,-126 1518.32,-126 1515.32,-122 1369.68,-122 1369.68,-86 1542.32,-86 1542.32,-122"/>
<text text-anchor="middle" x="1456" y="-99.8" font-family="Times,serif" font-size="14.00">SimpleGraphButtonModule</text>
</g>
<!-- SimpleGraphButtonModule&#45;&gt;CurveModule -->
<g id="edge20" class="edge">
<title>SimpleGraphButtonModule&#45;&gt;CurveModule</title>
<path fill="none" stroke="black" d="M1456,-122.03C1456,-147.51 1456,-191 1456,-191 1456,-191 874.91,-191 874.91,-191"/>
<polygon fill="black" stroke="black" points="874.91,-187.5 864.91,-191 874.91,-194.5 874.91,-187.5"/>
</g>
<!-- SimpleGraphButtonComponent  -->
<g id="node36" class="node">
<title>SimpleGraphButtonComponent </title>
<polygon fill="#fb8072" stroke="black" points="2219.6,-198 2022.4,-198 2022.4,-162 2219.6,-162 2219.6,-198"/>
<text text-anchor="middle" x="2121" y="-175.8" font-family="Times,serif" font-size="14.00">SimpleGraphButtonComponent </text>
</g>
<!-- SimpleGraphButtonModule&#45;&gt;SimpleGraphButtonComponent  -->
<g id="edge34" class="edge">
<title>SimpleGraphButtonModule&#45;&gt;SimpleGraphButtonComponent </title>
<path fill="none" stroke="black" stroke-dasharray="5,2" d="M1542.26,-110C1722.19,-110 2121,-110 2121,-110 2121,-110 2121,-151.97 2121,-151.97"/>
<polygon fill="black" stroke="black" points="2117.5,-151.97 2121,-161.97 2124.5,-151.97 2117.5,-151.97"/>
</g>
<!-- CurveService -->
<g id="node24" class="node">
<title>CurveService</title>
<ellipse fill="#fdb462" stroke="black" cx="88" cy="-104" rx="63.68" ry="18"/>
<text text-anchor="middle" x="88" y="-99.8" font-family="Times,serif" font-size="14.00">CurveService</text>
</g>
<!-- CurveService&#45;&gt;CurveModule -->
<g id="edge22" class="edge">
<title>CurveService&#45;&gt;CurveModule</title>
<path fill="none" stroke="black" d="M88,-122.03C88,-147.51 88,-191 88,-191 88,-191 761.22,-191 761.22,-191"/>
<polygon fill="black" stroke="black" points="761.22,-194.5 771.22,-191 761.22,-187.5 761.22,-194.5"/>
</g>
<!-- HonorCodePopupComponent -->
<g id="node25" class="node">
<title>HonorCodePopupComponent</title>
<polygon fill="#ffffb3" stroke="black" points="3620.43,-122 3437.57,-122 3437.57,-86 3620.43,-86 3620.43,-122"/>
<text text-anchor="middle" x="3529" y="-99.8" font-family="Times,serif" font-size="14.00">HonorCodePopupComponent</text>
</g>
<!-- HonorCodePopupComponent&#45;&gt;HonorCodePopupModule -->
<g id="edge23" class="edge">
<title>HonorCodePopupComponent&#45;&gt;HonorCodePopupModule</title>
<path fill="none" stroke="black" d="M3533.81,-122.01C3533.81,-144.49 3533.81,-180 3533.81,-180 3533.81,-180 3692.78,-180 3692.78,-180"/>
<polygon fill="black" stroke="black" points="3692.78,-183.5 3702.78,-180 3692.78,-176.5 3692.78,-183.5"/>
</g>
<!-- MenubarComponent -->
<g id="node26" class="node">
<title>MenubarComponent</title>
<polygon fill="#ffffb3" stroke="black" points="4304.87,-122 4173.13,-122 4173.13,-86 4304.87,-86 4304.87,-122"/>
<text text-anchor="middle" x="4239" y="-99.8" font-family="Times,serif" font-size="14.00">MenubarComponent</text>
</g>
<!-- MenubarComponent&#45;&gt;MenubarModule -->
<g id="edge24" class="edge">
<title>MenubarComponent&#45;&gt;MenubarModule</title>
<path fill="none" stroke="black" d="M4229,-122.01C4229,-122.01 4229,-151.85 4229,-151.85"/>
<polygon fill="black" stroke="black" points="4225.5,-151.85 4229,-161.85 4232.5,-151.85 4225.5,-151.85"/>
</g>
<!-- MenubarModule&#45;&gt;ToolsNavbarModule -->
<g id="edge38" class="edge">
<title>MenubarModule&#45;&gt;ToolsNavbarModule</title>
<path fill="none" stroke="black" d="M4173.92,-186C4162.17,-186 4153.21,-186 4153.21,-186 4153.21,-186 4153.21,-248 4153.21,-248 4153.21,-248 4143.22,-248 4143.22,-248"/>
<polygon fill="black" stroke="black" points="4143.22,-244.5 4133.22,-248 4143.22,-251.5 4143.22,-244.5"/>
</g>
<!-- MenubarComponent  -->
<g id="node28" class="node">
<title>MenubarComponent </title>
<polygon fill="#fb8072" stroke="black" points="4308.87,-266 4173.13,-266 4173.13,-230 4308.87,-230 4308.87,-266"/>
<text text-anchor="middle" x="4241" y="-243.8" font-family="Times,serif" font-size="14.00">MenubarComponent </text>
</g>
<!-- MenubarModule&#45;&gt;MenubarComponent  -->
<g id="edge26" class="edge">
<title>MenubarModule&#45;&gt;MenubarComponent </title>
<path fill="none" stroke="black" stroke-dasharray="5,2" d="M4229,-198.22C4229,-198.22 4229,-219.73 4229,-219.73"/>
<polygon fill="black" stroke="black" points="4225.5,-219.73 4229,-229.73 4232.5,-219.73 4225.5,-219.73"/>
</g>
<!-- SettingsComponent -->
<g id="node29" class="node">
<title>SettingsComponent</title>
<polygon fill="#ffffb3" stroke="black" points="4133.45,-122 4006.55,-122 4006.55,-86 4133.45,-86 4133.45,-122"/>
<text text-anchor="middle" x="4070" y="-99.8" font-family="Times,serif" font-size="14.00">SettingsComponent</text>
</g>
<!-- SettingsComponent&#45;&gt;SettingsModule -->
<g id="edge27" class="edge">
<title>SettingsComponent&#45;&gt;SettingsModule</title>
<path fill="none" stroke="black" d="M4006.7,-104C3997.53,-104 3991.12,-104 3991.12,-104 3991.12,-104 3991.12,-174 3991.12,-174 3991.12,-174 3990.63,-174 3990.63,-174"/>
<polygon fill="black" stroke="black" points="3996.25,-170.5 3986.25,-174 3996.25,-177.5 3996.25,-170.5"/>
</g>
<!-- RouterLink -->
<g id="node30" class="node">
<title>RouterLink</title>
<polygon fill="#8dd3c7" stroke="black" points="3983.05,-122 3980.05,-126 3959.05,-126 3956.05,-122 3902.95,-122 3902.95,-86 3983.05,-86 3983.05,-122"/>
<text text-anchor="middle" x="3943" y="-99.8" font-family="Times,serif" font-size="14.00">RouterLink</text>
</g>
<!-- RouterLink&#45;&gt;SettingsModule -->
<g id="edge28" class="edge">
<title>RouterLink&#45;&gt;SettingsModule</title>
<path fill="none" stroke="black" d="M3943,-122.01C3943,-122.01 3943,-151.85 3943,-151.85"/>
<polygon fill="black" stroke="black" points="3939.5,-151.85 3943,-161.85 3946.5,-151.85 3939.5,-151.85"/>
</g>
<!-- RouterLinkActive -->
<g id="node31" class="node">
<title>RouterLinkActive</title>
<polygon fill="#8dd3c7" stroke="black" points="3884.86,-122 3881.86,-126 3860.86,-126 3857.86,-122 3767.14,-122 3767.14,-86 3884.86,-86 3884.86,-122"/>
<text text-anchor="middle" x="3826" y="-99.8" font-family="Times,serif" font-size="14.00">RouterLinkActive</text>
</g>
<!-- RouterLinkActive&#45;&gt;SettingsModule -->
<g id="edge29" class="edge">
<title>RouterLinkActive&#45;&gt;SettingsModule</title>
<path fill="none" stroke="black" d="M3885.1,-104C3892.09,-104 3896.8,-104 3896.8,-104 3896.8,-104 3896.8,-151.99 3896.8,-151.99"/>
<polygon fill="black" stroke="black" points="3893.3,-151.99 3896.8,-161.99 3900.3,-151.99 3893.3,-151.99"/>
</g>
<!-- RouterOutlet -->
<g id="node32" class="node">
<title>RouterOutlet</title>
<polygon fill="#8dd3c7" stroke="black" points="3749.6,-122 3746.6,-126 3725.6,-126 3722.6,-122 3660.4,-122 3660.4,-86 3749.6,-86 3749.6,-122"/>
<text text-anchor="middle" x="3705" y="-99.8" font-family="Times,serif" font-size="14.00">RouterOutlet</text>
</g>
<!-- RouterOutlet&#45;&gt;SettingsModule -->
<g id="edge30" class="edge">
<title>RouterOutlet&#45;&gt;SettingsModule</title>
<path fill="none" stroke="black" d="M3726.11,-122.04C3726.11,-134.56 3726.11,-149 3726.11,-149 3726.11,-149 3890.86,-149 3890.86,-149 3890.86,-149 3890.86,-151.97 3890.86,-151.97"/>
<polygon fill="black" stroke="black" points="3887.36,-151.97 3890.86,-161.97 3894.36,-151.97 3887.36,-151.97"/>
</g>
<!-- SimpleDataButtonComponent -->
<g id="node33" class="node">
<title>SimpleDataButtonComponent</title>
<polygon fill="#ffffb3" stroke="black" points="1981.55,-198 1796.45,-198 1796.45,-162 1981.55,-162 1981.55,-198"/>
<text text-anchor="middle" x="1889" y="-175.8" font-family="Times,serif" font-size="14.00">SimpleDataButtonComponent</text>
</g>
<!-- SimpleDataButtonComponent&#45;&gt;SimpleDataButtonModule -->
<g id="edge31" class="edge">
<title>SimpleDataButtonComponent&#45;&gt;SimpleDataButtonModule</title>
<path fill="none" stroke="black" d="M1889,-161.85C1889,-149.73 1889,-136 1889,-136 1889,-136 1229.06,-136 1229.06,-136 1229.06,-136 1229.06,-132.24 1229.06,-132.24"/>
<polygon fill="black" stroke="black" points="1232.56,-132.24 1229.06,-122.24 1225.56,-132.24 1232.56,-132.24"/>
</g>
<!-- SimpleGraphButtonComponent -->
<g id="node35" class="node">
<title>SimpleGraphButtonComponent</title>
<polygon fill="#ffffb3" stroke="black" points="2438.1,-198 2243.9,-198 2243.9,-162 2438.1,-162 2438.1,-198"/>
<text text-anchor="middle" x="2341" y="-175.8" font-family="Times,serif" font-size="14.00">SimpleGraphButtonComponent</text>
</g>
<!-- SimpleGraphButtonComponent&#45;&gt;SimpleGraphButtonModule -->
<g id="edge33" class="edge">
<title>SimpleGraphButtonComponent&#45;&gt;SimpleGraphButtonModule</title>
<path fill="none" stroke="black" d="M2341,-161.8C2341,-137.64 2341,-98 2341,-98 2341,-98 1552.47,-98 1552.47,-98"/>
<polygon fill="black" stroke="black" points="1552.47,-94.5 1542.47,-98 1552.47,-101.5 1552.47,-94.5"/>
</g>
<!-- ToolsNavbarComponent -->
<g id="node37" class="node">
<title>ToolsNavbarComponent</title>
<polygon fill="#ffffb3" stroke="black" points="4509.42,-342 4354.58,-342 4354.58,-306 4509.42,-306 4509.42,-342"/>
<text text-anchor="middle" x="4432" y="-319.8" font-family="Times,serif" font-size="14.00">ToolsNavbarComponent</text>
</g>
<!-- ToolsNavbarComponent&#45;&gt;ToolsNavbarModule -->
<g id="edge35" class="edge">
<title>ToolsNavbarComponent&#45;&gt;ToolsNavbarModule</title>
<path fill="none" stroke="black" d="M4432,-305.89C4432,-296.1 4432,-286 4432,-286 4432,-286 4067,-286 4067,-286 4067,-286 4067,-276.11 4067,-276.11"/>
<polygon fill="black" stroke="black" points="4070.5,-276.11 4067,-266.11 4063.5,-276.11 4070.5,-276.11"/>
</g>
</g>
</svg>
