<?xml version="1.0" encoding="UTF-8" standalone="no"?>
<!DOCTYPE svg PUBLIC "-//W3C//DTD SVG 1.1//EN"
 "http://www.w3.org/Graphics/SVG/1.1/DTD/svg11.dtd">
<!-- Generated by graphviz version 2.47.0 (20210316.0004)
 -->
<!-- Title: dependencies Pages: 1 -->
<svg width="5872pt" height="510pt"
 viewBox="0.00 0.00 5872.00 510.00" xmlns="http://www.w3.org/2000/svg" xmlns:xlink="http://www.w3.org/1999/xlink">
<g id="graph0" class="graph" transform="scale(1 1) rotate(0) translate(4 506)">
<title>dependencies</title>
<polygon fill="white" stroke="transparent" points="-4,4 -4,-506 5868,-506 5868,4 -4,4"/>
<text text-anchor="start" x="2911.01" y="-42.4" font-family="Times-12" font-weight="bold" font-size="14.00">Legend</text>
<polygon fill="#ffffb3" stroke="transparent" points="2698,-10 2698,-30 2718,-30 2718,-10 2698,-10"/>
<text text-anchor="start" x="2721.63" y="-15.4" font-family="Times-12" font-size="14.00"> &#160;Declarations</text>
<polygon fill="#8dd3c7" stroke="transparent" points="2811,-10 2811,-30 2831,-30 2831,-10 2811,-10"/>
<text text-anchor="start" x="2834.73" y="-15.4" font-family="Times-12" font-size="14.00"> &#160;Module</text>
<polygon fill="#80b1d3" stroke="transparent" points="2897,-10 2897,-30 2917,-30 2917,-10 2897,-10"/>
<text text-anchor="start" x="2920.78" y="-15.4" font-family="Times-12" font-size="14.00"> &#160;Bootstrap</text>
<polygon fill="#fdb462" stroke="transparent" points="2994,-10 2994,-30 3014,-30 3014,-10 2994,-10"/>
<text text-anchor="start" x="3017.67" y="-15.4" font-family="Times-12" font-size="14.00"> &#160;Providers</text>
<polygon fill="#fb8072" stroke="transparent" points="3090,-10 3090,-30 3110,-30 3110,-10 3090,-10"/>
<text text-anchor="start" x="3113.73" y="-15.4" font-family="Times-12" font-size="14.00"> &#160;Exports</text>
<g id="clust1" class="cluster">
<title>cluster_AppModule</title>
<polygon fill="none" stroke="black" stroke-dasharray="1,5" points="3792,-214 3792,-494 5480,-494 5480,-214 3792,-214"/>
</g>
<g id="clust2" class="cluster">
<title>cluster_AppModule_declarations</title>
<polygon fill="none" stroke="black" points="3832,-290 3832,-342 4572,-342 4572,-290 3832,-290"/>
</g>
<g id="clust8" class="cluster">
<title>cluster_AppModule_imports</title>
<polygon fill="none" stroke="black" points="5026,-222 5026,-342 5472,-342 5472,-222 5026,-222"/>
</g>
<g id="clust10" class="cluster">
<title>cluster_AppModule_bootstrap</title>
<polygon fill="none" stroke="black" points="4260,-434 4260,-486 4384,-486 4384,-434 4260,-434"/>
</g>
<g id="clust11" class="cluster">
<title>cluster_AppModule_providers</title>
<polygon fill="none" stroke="black" points="4580,-290 4580,-342 5018,-342 5018,-290 4580,-290"/>
</g>
<g id="clust18" class="cluster">
<title>cluster_CurveModule</title>
<polygon fill="none" stroke="black" stroke-dasharray="1,5" points="8,-138 8,-350 1795,-350 1795,-138 8,-138"/>
</g>
<g id="clust19" class="cluster">
<title>cluster_CurveModule_declarations</title>
<polygon fill="none" stroke="black" points="16,-146 16,-198 1020,-198 1020,-146 16,-146"/>
</g>
<g id="clust26" class="cluster">
<title>cluster_CurveModule_imports</title>
<polygon fill="none" stroke="black" points="1417,-146 1417,-198 1787,-198 1787,-146 1417,-146"/>
</g>
<g id="clust27" class="cluster">
<title>cluster_CurveModule_exports</title>
<polygon fill="none" stroke="black" points="871,-290 871,-342 1007,-342 1007,-290 871,-290"/>
</g>
<g id="clust29" class="cluster">
<title>cluster_CurveModule_providers</title>
<polygon fill="none" stroke="black" points="1028,-146 1028,-198 1409,-198 1409,-146 1028,-146"/>
</g>
<g id="clust30" class="cluster">
<title>cluster_HonorCodePopupModule</title>
<polygon fill="none" stroke="black" stroke-dasharray="1,5" points="4753,-138 4753,-206 4967,-206 4967,-138 4753,-138"/>
</g>
<g id="clust31" class="cluster">
<title>cluster_HonorCodePopupModule_declarations</title>
<polygon fill="none" stroke="black" points="4761,-146 4761,-198 4959,-198 4959,-146 4761,-146"/>
</g>
<g id="clust37" class="cluster">
<title>cluster_InterfaceUtilModule</title>
<polygon fill="none" stroke="black" stroke-dasharray="1,5" points="5488,-70 5488,-282 5668,-282 5668,-70 5488,-70"/>
</g>
<g id="clust38" class="cluster">
<title>cluster_InterfaceUtilModule_declarations</title>
<polygon fill="none" stroke="black" points="5497,-78 5497,-130 5657,-130 5657,-78 5497,-78"/>
</g>
<g id="clust41" class="cluster">
<title>cluster_InterfaceUtilModule_exports</title>
<polygon fill="none" stroke="black" points="5496,-222 5496,-274 5660,-274 5660,-222 5496,-222"/>
</g>
<g id="clust44" class="cluster">
<title>cluster_MenubarModule</title>
<polygon fill="none" stroke="black" stroke-dasharray="1,5" points="5676,-138 5676,-350 5844,-350 5844,-138 5676,-138"/>
</g>
<g id="clust45" class="cluster">
<title>cluster_MenubarModule_declarations</title>
<polygon fill="none" stroke="black" points="5684,-146 5684,-198 5832,-198 5832,-146 5684,-146"/>
</g>
<g id="clust48" class="cluster">
<title>cluster_MenubarModule_exports</title>
<polygon fill="none" stroke="black" points="5684,-290 5684,-342 5836,-342 5836,-290 5684,-290"/>
</g>
<g id="clust51" class="cluster">
<title>cluster_MoonModule</title>
<polygon fill="none" stroke="black" stroke-dasharray="1,5" points="2699,-138 2699,-274 3784,-274 3784,-138 2699,-138"/>
</g>
<g id="clust52" class="cluster">
<title>cluster_MoonModule_declarations</title>
<polygon fill="none" stroke="black" points="2935,-146 2935,-198 3776,-198 3776,-146 2935,-146"/>
</g>
<g id="clust58" class="cluster">
<title>cluster_MoonModule_imports</title>
<polygon fill="none" stroke="black" points="2857,-146 2857,-198 2927,-198 2927,-146 2857,-146"/>
</g>
<g id="clust61" class="cluster">
<title>cluster_MoonModule_providers</title>
<polygon fill="none" stroke="black" points="2707,-146 2707,-198 2849,-198 2849,-146 2707,-146"/>
</g>
<g id="clust62" class="cluster">
<title>cluster_SettingsModule</title>
<polygon fill="none" stroke="black" stroke-dasharray="1,5" points="4975,-138 4975,-206 5480,-206 5480,-138 4975,-138"/>
</g>
<g id="clust63" class="cluster">
<title>cluster_SettingsModule_declarations</title>
<polygon fill="none" stroke="black" points="5330,-146 5330,-198 5472,-198 5472,-146 5330,-146"/>
</g>
<g id="clust65" class="cluster">
<title>cluster_SettingsModule_imports</title>
<polygon fill="none" stroke="black" points="4983,-146 4983,-198 5322,-198 5322,-146 4983,-146"/>
</g>
<g id="clust69" class="cluster">
<title>cluster_SimpleDataButtonModule</title>
<polygon fill="none" stroke="black" stroke-dasharray="1,5" points="1803,-214 1803,-282 2235,-282 2235,-214 1803,-214"/>
</g>
<g id="clust70" class="cluster">
<title>cluster_SimpleDataButtonModule_declarations</title>
<polygon fill="none" stroke="black" points="2025,-222 2025,-274 2227,-274 2227,-222 2025,-222"/>
</g>
<g id="clust73" class="cluster">
<title>cluster_SimpleDataButtonModule_exports</title>
<polygon fill="none" stroke="black" points="1811,-222 1811,-274 2017,-274 2017,-222 1811,-222"/>
</g>
<g id="clust76" class="cluster">
<title>cluster_SimpleGraphButtonModule</title>
<polygon fill="none" stroke="black" stroke-dasharray="1,5" points="2243,-214 2243,-282 2691,-282 2691,-214 2243,-214"/>
</g>
<g id="clust77" class="cluster">
<title>cluster_SimpleGraphButtonModule_declarations</title>
<polygon fill="none" stroke="black" points="2473,-222 2473,-274 2683,-274 2683,-222 2473,-222"/>
</g>
<g id="clust80" class="cluster">
<title>cluster_SimpleGraphButtonModule_exports</title>
<polygon fill="none" stroke="black" points="2251,-222 2251,-274 2465,-274 2465,-222 2251,-222"/>
</g>
<g id="clust83" class="cluster">
<title>cluster_ToolsNavbarModule</title>
<polygon fill="none" stroke="black" stroke-dasharray="1,5" points="5488,-358 5488,-426 5856,-426 5856,-358 5488,-358"/>
</g>
<g id="clust84" class="cluster">
<title>cluster_ToolsNavbarModule_declarations</title>
<polygon fill="none" stroke="black" points="5678,-366 5678,-418 5848,-418 5848,-366 5678,-366"/>
</g>
<g id="clust87" class="cluster">
<title>cluster_ToolsNavbarModule_exports</title>
<polygon fill="none" stroke="black" points="5496,-366 5496,-418 5670,-418 5670,-366 5496,-366"/>
</g>
<!-- AboutComponent -->
<g id="node1" class="node">
<title>AboutComponent</title>
<polygon fill="#ffffb3" stroke="black" points="4380.33,-334 4263.67,-334 4263.67,-298 4380.33,-298 4380.33,-334"/>
<text text-anchor="middle" x="4322" y="-311.8" font-family="Times,serif" font-size="14.00">AboutComponent</text>
</g>
<!-- AppModule -->
<g id="node6" class="node">
<title>AppModule</title>
<polygon fill="#8dd3c7" stroke="black" points="4363.66,-410 4360.66,-414 4339.66,-414 4336.66,-410 4280.34,-410 4280.34,-374 4363.66,-374 4363.66,-410"/>
<text text-anchor="middle" x="4322" y="-387.8" font-family="Times,serif" font-size="14.00">AppModule</text>
</g>
<!-- AboutComponent&#45;&gt;AppModule -->
<g id="edge1" class="edge">
<title>AboutComponent&#45;&gt;AppModule</title>
<path fill="none" stroke="black" d="M4322,-334.01C4322,-334.01 4322,-363.85 4322,-363.85"/>
<polygon fill="black" stroke="black" points="4318.5,-363.85 4322,-373.85 4325.5,-363.85 4318.5,-363.85"/>
</g>
<!-- AppComponent -->
<g id="node2" class="node">
<title>AppComponent</title>
<polygon fill="#ffffb3" stroke="black" points="4245.94,-334 4140.06,-334 4140.06,-298 4245.94,-298 4245.94,-334"/>
<text text-anchor="middle" x="4193" y="-311.8" font-family="Times,serif" font-size="14.00">AppComponent</text>
</g>
<!-- AppComponent&#45;&gt;AppModule -->
<g id="edge2" class="edge">
<title>AppComponent&#45;&gt;AppModule</title>
<path fill="none" stroke="black" d="M4193,-334.31C4193,-354.15 4193,-383 4193,-383 4193,-383 4270.12,-383 4270.12,-383"/>
<polygon fill="black" stroke="black" points="4270.12,-386.5 4280.12,-383 4270.12,-379.5 4270.12,-386.5"/>
</g>
<!-- AppearanceComponent -->
<g id="node3" class="node">
<title>AppearanceComponent</title>
<polygon fill="#ffffb3" stroke="black" points="4122.17,-334 3973.83,-334 3973.83,-298 4122.17,-298 4122.17,-334"/>
<text text-anchor="middle" x="4048" y="-311.8" font-family="Times,serif" font-size="14.00">AppearanceComponent</text>
</g>
<!-- AppearanceComponent&#45;&gt;AppModule -->
<g id="edge3" class="edge">
<title>AppearanceComponent&#45;&gt;AppModule</title>
<path fill="none" stroke="black" d="M4048,-334.01C4048,-356.49 4048,-392 4048,-392 4048,-392 4270.09,-392 4270.09,-392"/>
<polygon fill="black" stroke="black" points="4270.09,-395.5 4280.09,-392 4270.09,-388.5 4270.09,-395.5"/>
</g>
<!-- HomeComponent -->
<g id="node4" class="node">
<title>HomeComponent</title>
<polygon fill="#ffffb3" stroke="black" points="3955.55,-334 3840.45,-334 3840.45,-298 3955.55,-298 3955.55,-334"/>
<text text-anchor="middle" x="3898" y="-311.8" font-family="Times,serif" font-size="14.00">HomeComponent</text>
</g>
<!-- HomeComponent&#45;&gt;AppModule -->
<g id="edge4" class="edge">
<title>HomeComponent&#45;&gt;AppModule</title>
<path fill="none" stroke="black" d="M3898,-334.03C3898,-358.98 3898,-401 3898,-401 3898,-401 4270.18,-401 4270.18,-401"/>
<polygon fill="black" stroke="black" points="4270.18,-404.5 4280.18,-401 4270.18,-397.5 4270.18,-404.5"/>
</g>
<!-- PageNotFoundComponent -->
<g id="node5" class="node">
<title>PageNotFoundComponent</title>
<polygon fill="#ffffb3" stroke="black" points="4563.82,-334 4398.18,-334 4398.18,-298 4563.82,-298 4563.82,-334"/>
<text text-anchor="middle" x="4481" y="-311.8" font-family="Times,serif" font-size="14.00">PageNotFoundComponent</text>
</g>
<!-- PageNotFoundComponent&#45;&gt;AppModule -->
<g id="edge5" class="edge">
<title>PageNotFoundComponent&#45;&gt;AppModule</title>
<path fill="none" stroke="black" d="M4481,-334.03C4481,-353.58 4481,-382 4481,-382 4481,-382 4373.78,-382 4373.78,-382"/>
<polygon fill="black" stroke="black" points="4373.78,-378.5 4363.78,-382 4373.78,-385.5 4373.78,-378.5"/>
</g>
<!-- AppComponent  -->
<g id="node11" class="node">
<title>AppComponent </title>
<polygon fill="#80b1d3" stroke="black" points="4376.44,-478 4267.56,-478 4267.56,-442 4376.44,-442 4376.44,-478"/>
<text text-anchor="middle" x="4322" y="-455.8" font-family="Times,serif" font-size="14.00">AppComponent </text>
</g>
<!-- AppModule&#45;&gt;AppComponent  -->
<g id="edge10" class="edge">
<title>AppModule&#45;&gt;AppComponent </title>
<path fill="none" stroke="black" stroke-dasharray="1,5" d="M4322,-410.22C4322,-410.22 4322,-431.73 4322,-431.73"/>
<polygon fill="black" stroke="black" points="4318.5,-431.73 4322,-441.73 4325.5,-431.73 4318.5,-431.73"/>
</g>
<!-- AppRoutingModule -->
<g id="node7" class="node">
<title>AppRoutingModule</title>
<polygon fill="#8dd3c7" stroke="black" points="5464.27,-266 5461.27,-270 5440.27,-270 5437.27,-266 5335.73,-266 5335.73,-230 5464.27,-230 5464.27,-266"/>
<text text-anchor="middle" x="5400" y="-243.8" font-family="Times,serif" font-size="14.00">AppRoutingModule</text>
</g>
<!-- AppRoutingModule&#45;&gt;AppModule -->
<g id="edge6" class="edge">
<title>AppRoutingModule&#45;&gt;AppModule</title>
<path fill="none" stroke="black" d="M5335.57,-254C5330.27,-254 5326.9,-254 5326.9,-254 5326.9,-254 5326.9,-402 5326.9,-402 5326.9,-402 4373.9,-402 4373.9,-402"/>
<polygon fill="black" stroke="black" points="4373.9,-398.5 4363.9,-402 4373.9,-405.5 4373.9,-398.5"/>
</g>
<!-- ToolsNavbarModule -->
<g id="node10" class="node">
<title>ToolsNavbarModule</title>
<polygon fill="#8dd3c7" stroke="black" points="5464.13,-334 5461.13,-338 5440.13,-338 5437.13,-334 5331.87,-334 5331.87,-298 5464.13,-298 5464.13,-334"/>
<text text-anchor="middle" x="5398" y="-311.8" font-family="Times,serif" font-size="14.00">ToolsNavbarModule</text>
</g>
<!-- AppRoutingModule&#45;&gt;ToolsNavbarModule -->
<g id="edge51" class="edge">
<title>AppRoutingModule&#45;&gt;ToolsNavbarModule</title>
<path fill="none" stroke="black" d="M5399.96,-266.22C5399.96,-266.22 5399.96,-287.73 5399.96,-287.73"/>
<polygon fill="black" stroke="black" points="5396.47,-287.73 5399.96,-297.73 5403.47,-287.73 5396.47,-287.73"/>
</g>
<!-- MenubarModule -->
<g id="node31" class="node">
<title>MenubarModule</title>
<polygon fill="#8dd3c7" stroke="black" points="5803.08,-266 5800.08,-270 5779.08,-270 5776.08,-266 5692.92,-266 5692.92,-230 5803.08,-230 5803.08,-266"/>
<text text-anchor="middle" x="5748" y="-243.8" font-family="Times,serif" font-size="14.00">MenubarModule</text>
</g>
<!-- AppRoutingModule&#45;&gt;MenubarModule -->
<g id="edge28" class="edge">
<title>AppRoutingModule&#45;&gt;MenubarModule</title>
<path fill="none" stroke="black" d="M5432.14,-266.2C5432.14,-272.03 5432.14,-277 5432.14,-277 5432.14,-277 5729.65,-277 5729.65,-277 5729.65,-277 5729.65,-275.92 5729.65,-275.92"/>
<polygon fill="black" stroke="black" points="5733.15,-276.2 5729.65,-266.2 5726.15,-276.2 5733.15,-276.2"/>
</g>
<!-- HonorCodePopupModule -->
<g id="node8" class="node">
<title>HonorCodePopupModule</title>
<polygon fill="#8dd3c7" stroke="black" points="5194.15,-266 5191.15,-270 5170.15,-270 5167.15,-266 5033.85,-266 5033.85,-230 5194.15,-230 5194.15,-266"/>
<text text-anchor="middle" x="5114" y="-243.8" font-family="Times,serif" font-size="14.00">HonorCodePopupModule</text>
</g>
<!-- HonorCodePopupModule&#45;&gt;AppModule -->
<g id="edge7" class="edge">
<title>HonorCodePopupModule&#45;&gt;AppModule</title>
<path fill="none" stroke="black" d="M5114,-266.2C5114,-305.33 5114,-394 5114,-394 5114,-394 4373.74,-394 4373.74,-394"/>
<polygon fill="black" stroke="black" points="4373.74,-390.5 4363.74,-394 4373.74,-397.5 4373.74,-390.5"/>
</g>
<!-- SettingsModule -->
<g id="node9" class="node">
<title>SettingsModule</title>
<polygon fill="#8dd3c7" stroke="black" points="5317.16,-266 5314.16,-270 5293.16,-270 5290.16,-266 5212.84,-266 5212.84,-230 5317.16,-230 5317.16,-266"/>
<text text-anchor="middle" x="5265" y="-243.8" font-family="Times,serif" font-size="14.00">SettingsModule</text>
</g>
<!-- SettingsModule&#45;&gt;AppModule -->
<g id="edge8" class="edge">
<title>SettingsModule&#45;&gt;AppModule</title>
<path fill="none" stroke="black" d="M5265,-266.09C5265,-305.99 5265,-398 5265,-398 5265,-398 4373.74,-398 4373.74,-398"/>
<polygon fill="black" stroke="black" points="4373.74,-394.5 4363.74,-398 4373.74,-401.5 4373.74,-394.5"/>
</g>
<!-- ToolsNavbarModule&#45;&gt;AppModule -->
<g id="edge9" class="edge">
<title>ToolsNavbarModule&#45;&gt;AppModule</title>
<path fill="none" stroke="black" d="M5375.89,-334.21C5375.89,-360.51 5375.89,-406 5375.89,-406 5375.89,-406 4373.96,-406 4373.96,-406"/>
<polygon fill="black" stroke="black" points="4373.96,-402.5 4363.96,-406 4373.96,-409.5 4373.96,-402.5"/>
</g>
<!-- ToolsNavbarComponent  -->
<g id="node50" class="node">
<title>ToolsNavbarComponent </title>
<polygon fill="#fb8072" stroke="black" points="5661.92,-410 5504.08,-410 5504.08,-374 5661.92,-374 5661.92,-410"/>
<text text-anchor="middle" x="5583" y="-387.8" font-family="Times,serif" font-size="14.00">ToolsNavbarComponent </text>
</g>
<!-- ToolsNavbarModule&#45;&gt;ToolsNavbarComponent  -->
<g id="edge55" class="edge">
<title>ToolsNavbarModule&#45;&gt;ToolsNavbarComponent </title>
<path fill="none" stroke="black" stroke-dasharray="5,2" d="M5420.11,-334.27C5420.11,-352.56 5420.11,-378 5420.11,-378 5420.11,-378 5493.94,-378 5493.94,-378"/>
<polygon fill="black" stroke="black" points="5493.94,-381.5 5503.94,-378 5493.94,-374.5 5493.94,-381.5"/>
</g>
<!-- AppearanceService -->
<g id="node12" class="node">
<title>AppearanceService</title>
<ellipse fill="#fdb462" stroke="black" cx="4924" cy="-316" rx="86.19" ry="18"/>
<text text-anchor="middle" x="4924" y="-311.8" font-family="Times,serif" font-size="14.00">AppearanceService</text>
</g>
<!-- AppearanceService&#45;&gt;AppModule -->
<g id="edge11" class="edge">
<title>AppearanceService&#45;&gt;AppModule</title>
<path fill="none" stroke="black" d="M4924,-334.29C4924,-356.21 4924,-390 4924,-390 4924,-390 4373.85,-390 4373.85,-390"/>
<polygon fill="black" stroke="black" points="4373.85,-386.5 4363.85,-390 4373.85,-393.5 4373.85,-386.5"/>
</g>
<!-- AppearanceStorageService -->
<g id="node13" class="node">
<title>AppearanceStorageService</title>
<ellipse fill="#fdb462" stroke="black" cx="4704" cy="-316" rx="115.69" ry="18"/>
<text text-anchor="middle" x="4704" y="-311.8" font-family="Times,serif" font-size="14.00">AppearanceStorageService</text>
</g>
<!-- AppearanceStorageService&#45;&gt;AppModule -->
<g id="edge12" class="edge">
<title>AppearanceStorageService&#45;&gt;AppModule</title>
<path fill="none" stroke="black" d="M4704,-334.03C4704,-354.77 4704,-386 4704,-386 4704,-386 4373.97,-386 4373.97,-386"/>
<polygon fill="black" stroke="black" points="4373.97,-382.5 4363.97,-386 4373.97,-389.5 4373.97,-382.5"/>
</g>
<!-- CurveChartComponent -->
<g id="node14" class="node">
<title>CurveChartComponent</title>
<polygon fill="#ffffb3" stroke="black" points="1012.15,-190 865.85,-190 865.85,-154 1012.15,-154 1012.15,-190"/>
<text text-anchor="middle" x="939" y="-167.8" font-family="Times,serif" font-size="14.00">CurveChartComponent</text>
</g>
<!-- CurveModule -->
<g id="node20" class="node">
<title>CurveModule</title>
<polygon fill="#8dd3c7" stroke="black" points="985.76,-266 982.76,-270 961.76,-270 958.76,-266 892.24,-266 892.24,-230 985.76,-230 985.76,-266"/>
<text text-anchor="middle" x="939" y="-243.8" font-family="Times,serif" font-size="14.00">CurveModule</text>
</g>
<!-- CurveChartComponent&#45;&gt;CurveModule -->
<g id="edge13" class="edge">
<title>CurveChartComponent&#45;&gt;CurveModule</title>
<path fill="none" stroke="black" d="M939,-190.01C939,-190.01 939,-219.85 939,-219.85"/>
<polygon fill="black" stroke="black" points="935.5,-219.85 939,-229.85 942.5,-219.85 935.5,-219.85"/>
</g>
<!-- CurveChartFormComponent -->
<g id="node15" class="node">
<title>CurveChartFormComponent</title>
<polygon fill="#ffffb3" stroke="black" points="847.48,-190 670.52,-190 670.52,-154 847.48,-154 847.48,-190"/>
<text text-anchor="middle" x="759" y="-167.8" font-family="Times,serif" font-size="14.00">CurveChartFormComponent</text>
</g>
<!-- CurveChartFormComponent&#45;&gt;CurveModule -->
<g id="edge14" class="edge">
<title>CurveChartFormComponent&#45;&gt;CurveModule</title>
<path fill="none" stroke="black" d="M759,-190.17C759,-209.09 759,-236 759,-236 759,-236 882.18,-236 882.18,-236"/>
<polygon fill="black" stroke="black" points="882.18,-239.5 892.18,-236 882.18,-232.5 882.18,-239.5"/>
</g>
<!-- CurveComponent -->
<g id="node16" class="node">
<title>CurveComponent</title>
<polygon fill="#ffffb3" stroke="black" points="652.55,-190 537.45,-190 537.45,-154 652.55,-154 652.55,-190"/>
<text text-anchor="middle" x="595" y="-167.8" font-family="Times,serif" font-size="14.00">CurveComponent</text>
</g>
<!-- CurveComponent&#45;&gt;CurveModule -->
<g id="edge15" class="edge">
<title>CurveComponent&#45;&gt;CurveModule</title>
<path fill="none" stroke="black" d="M595,-190.03C595,-210.77 595,-242 595,-242 595,-242 881.89,-242 881.89,-242"/>
<polygon fill="black" stroke="black" points="881.89,-245.5 891.89,-242 881.89,-238.5 881.89,-245.5"/>
</g>
<!-- CurveHighChartComponent -->
<g id="node17" class="node">
<title>CurveHighChartComponent</title>
<polygon fill="#ffffb3" stroke="black" points="519.14,-190 344.86,-190 344.86,-154 519.14,-154 519.14,-190"/>
<text text-anchor="middle" x="432" y="-167.8" font-family="Times,serif" font-size="14.00">CurveHighChartComponent</text>
</g>
<!-- CurveHighChartComponent&#45;&gt;CurveModule -->
<g id="edge16" class="edge">
<title>CurveHighChartComponent&#45;&gt;CurveModule</title>
<path fill="none" stroke="black" d="M432,-190.01C432,-212.49 432,-248 432,-248 432,-248 882.21,-248 882.21,-248"/>
<polygon fill="black" stroke="black" points="882.21,-251.5 892.21,-248 882.21,-244.5 882.21,-251.5"/>
</g>
<!-- CurveTableComponent -->
<g id="node18" class="node">
<title>CurveTableComponent</title>
<polygon fill="#ffffb3" stroke="black" points="326.92,-190 179.08,-190 179.08,-154 326.92,-154 326.92,-190"/>
<text text-anchor="middle" x="253" y="-167.8" font-family="Times,serif" font-size="14.00">CurveTableComponent</text>
</g>
<!-- CurveTableComponent&#45;&gt;CurveModule -->
<g id="edge17" class="edge">
<title>CurveTableComponent&#45;&gt;CurveModule</title>
<path fill="none" stroke="black" d="M253,-190.2C253,-214.36 253,-254 253,-254 253,-254 882.12,-254 882.12,-254"/>
<polygon fill="black" stroke="black" points="882.12,-257.5 892.12,-254 882.12,-250.5 882.12,-257.5"/>
</g>
<!-- LineFormComponent -->
<g id="node19" class="node">
<title>LineFormComponent</title>
<polygon fill="#ffffb3" stroke="black" points="161.82,-190 24.18,-190 24.18,-154 161.82,-154 161.82,-190"/>
<text text-anchor="middle" x="93" y="-167.8" font-family="Times,serif" font-size="14.00">LineFormComponent</text>
</g>
<!-- LineFormComponent&#45;&gt;CurveModule -->
<g id="edge18" class="edge">
<title>LineFormComponent&#45;&gt;CurveModule</title>
<path fill="none" stroke="black" d="M93,-190.23C93,-216.01 93,-260 93,-260 93,-260 882.01,-260 882.01,-260"/>
<polygon fill="black" stroke="black" points="882.01,-263.5 892.01,-260 882.01,-256.5 882.01,-263.5"/>
</g>
<!-- CurveModule&#45;&gt;ToolsNavbarModule -->
<g id="edge52" class="edge">
<title>CurveModule&#45;&gt;ToolsNavbarModule</title>
<path fill="none" stroke="black" d="M954.63,-266.13C954.63,-276.71 954.63,-288 954.63,-288 954.63,-288 5367.79,-288 5367.79,-288 5367.79,-288 5367.79,-288.98 5367.79,-288.98"/>
<polygon fill="black" stroke="black" points="5364.29,-287.79 5367.79,-297.79 5371.29,-287.79 5364.29,-287.79"/>
</g>
<!-- CurveComponent  -->
<g id="node23" class="node">
<title>CurveComponent </title>
<polygon fill="#fb8072" stroke="black" points="998.54,-334 879.46,-334 879.46,-298 998.54,-298 998.54,-334"/>
<text text-anchor="middle" x="939" y="-311.8" font-family="Times,serif" font-size="14.00">CurveComponent </text>
</g>
<!-- CurveModule&#45;&gt;CurveComponent  -->
<g id="edge21" class="edge">
<title>CurveModule&#45;&gt;CurveComponent </title>
<path fill="none" stroke="black" stroke-dasharray="5,2" d="M923.37,-266.22C923.37,-266.22 923.37,-287.73 923.37,-287.73"/>
<polygon fill="black" stroke="black" points="919.87,-287.73 923.37,-297.73 926.87,-287.73 919.87,-287.73"/>
</g>
<!-- SimpleDataButtonModule -->
<g id="node21" class="node">
<title>SimpleDataButtonModule</title>
<polygon fill="#8dd3c7" stroke="black" points="1588.76,-190 1585.76,-194 1564.76,-194 1561.76,-190 1425.24,-190 1425.24,-154 1588.76,-154 1588.76,-190"/>
<text text-anchor="middle" x="1507" y="-167.8" font-family="Times,serif" font-size="14.00">SimpleDataButtonModule</text>
</g>
<!-- SimpleDataButtonModule&#45;&gt;CurveModule -->
<g id="edge19" class="edge">
<title>SimpleDataButtonModule&#45;&gt;CurveModule</title>
<path fill="none" stroke="black" d="M1523.38,-190.2C1523.38,-214.36 1523.38,-254 1523.38,-254 1523.38,-254 995.83,-254 995.83,-254"/>
<polygon fill="black" stroke="black" points="995.83,-250.5 985.83,-254 995.83,-257.5 995.83,-250.5"/>
</g>
<!-- MoonModule -->
<g id="node38" class="node">
<title>MoonModule</title>
<polygon fill="#8dd3c7" stroke="black" points="3127.49,-266 3124.49,-270 3103.49,-270 3100.49,-266 3034.51,-266 3034.51,-230 3127.49,-230 3127.49,-266"/>
<text text-anchor="middle" x="3081" y="-243.8" font-family="Times,serif" font-size="14.00">MoonModule</text>
</g>
<!-- SimpleDataButtonModule&#45;&gt;MoonModule -->
<g id="edge37" class="edge">
<title>SimpleDataButtonModule&#45;&gt;MoonModule</title>
<path fill="none" stroke="black" d="M1457.87,-190.24C1457.87,-197.43 1457.87,-204 1457.87,-204 1457.87,-204 3045.95,-204 3045.95,-204 3045.95,-204 3045.95,-219.85 3045.95,-219.85"/>
<polygon fill="black" stroke="black" points="3042.45,-219.85 3045.95,-229.85 3049.45,-219.85 3042.45,-219.85"/>
</g>
<!-- SimpleDataButtonComponent  -->
<g id="node46" class="node">
<title>SimpleDataButtonComponent </title>
<polygon fill="#fb8072" stroke="black" points="2008.55,-266 1819.45,-266 1819.45,-230 2008.55,-230 2008.55,-266"/>
<text text-anchor="middle" x="1914" y="-243.8" font-family="Times,serif" font-size="14.00">SimpleDataButtonComponent </text>
</g>
<!-- SimpleDataButtonModule&#45;&gt;SimpleDataButtonComponent  -->
<g id="edge47" class="edge">
<title>SimpleDataButtonModule&#45;&gt;SimpleDataButtonComponent </title>
<path fill="none" stroke="black" stroke-dasharray="5,2" d="M1556.13,-190.17C1556.13,-209.09 1556.13,-236 1556.13,-236 1556.13,-236 1809.04,-236 1809.04,-236"/>
<polygon fill="black" stroke="black" points="1809.04,-239.5 1819.04,-236 1809.04,-232.5 1809.04,-239.5"/>
</g>
<!-- SimpleGraphButtonModule -->
<g id="node22" class="node">
<title>SimpleGraphButtonModule</title>
<polygon fill="#8dd3c7" stroke="black" points="1779.32,-190 1776.32,-194 1755.32,-194 1752.32,-190 1606.68,-190 1606.68,-154 1779.32,-154 1779.32,-190"/>
<text text-anchor="middle" x="1693" y="-167.8" font-family="Times,serif" font-size="14.00">SimpleGraphButtonModule</text>
</g>
<!-- SimpleGraphButtonModule&#45;&gt;CurveModule -->
<g id="edge20" class="edge">
<title>SimpleGraphButtonModule&#45;&gt;CurveModule</title>
<path fill="none" stroke="black" d="M1693,-190.23C1693,-216.01 1693,-260 1693,-260 1693,-260 995.88,-260 995.88,-260"/>
<polygon fill="black" stroke="black" points="995.88,-256.5 985.88,-260 995.88,-263.5 995.88,-256.5"/>
</g>
<!-- SimpleGraphButtonModule&#45;&gt;MoonModule -->
<g id="edge38" class="edge">
<title>SimpleGraphButtonModule&#45;&gt;MoonModule</title>
<path fill="none" stroke="black" d="M1779.3,-163C2022.34,-163 2694.99,-163 2694.99,-163 2694.99,-163 2694.99,-257 2694.99,-257 2694.99,-257 3024.44,-257 3024.44,-257"/>
<polygon fill="black" stroke="black" points="3024.44,-260.5 3034.44,-257 3024.44,-253.5 3024.44,-260.5"/>
</g>
<!-- SimpleGraphButtonComponent  -->
<g id="node48" class="node">
<title>SimpleGraphButtonComponent </title>
<polygon fill="#fb8072" stroke="black" points="2456.6,-266 2259.4,-266 2259.4,-230 2456.6,-230 2456.6,-266"/>
<text text-anchor="middle" x="2358" y="-243.8" font-family="Times,serif" font-size="14.00">SimpleGraphButtonComponent </text>
</g>
<!-- SimpleGraphButtonModule&#45;&gt;SimpleGraphButtonComponent  -->
<g id="edge49" class="edge">
<title>SimpleGraphButtonModule&#45;&gt;SimpleGraphButtonComponent </title>
<path fill="none" stroke="black" stroke-dasharray="5,2" d="M1779.26,-181C1959.19,-181 2358,-181 2358,-181 2358,-181 2358,-219.69 2358,-219.69"/>
<polygon fill="black" stroke="black" points="2354.5,-219.69 2358,-229.69 2361.5,-219.69 2354.5,-219.69"/>
</g>
<!-- CurveService -->
<g id="node24" class="node">
<title>CurveService</title>
<ellipse fill="#fdb462" stroke="black" cx="1100" cy="-172" rx="63.68" ry="18"/>
<text text-anchor="middle" x="1100" y="-167.8" font-family="Times,serif" font-size="14.00">CurveService</text>
</g>
<!-- CurveService&#45;&gt;CurveModule -->
<g id="edge22" class="edge">
<title>CurveService&#45;&gt;CurveModule</title>
<path fill="none" stroke="black" d="M1100,-190.03C1100,-210.77 1100,-242 1100,-242 1100,-242 996,-242 996,-242"/>
<polygon fill="black" stroke="black" points="996,-238.5 986,-242 996,-245.5 996,-238.5"/>
</g>
<!-- HonorCodePopupService -->
<g id="node25" class="node">
<title>HonorCodePopupService</title>
<ellipse fill="#fdb462" stroke="black" cx="1291" cy="-172" rx="109.96" ry="18"/>
<text text-anchor="middle" x="1291" y="-167.8" font-family="Times,serif" font-size="14.00">HonorCodePopupService</text>
</g>
<!-- HonorCodePopupService&#45;&gt;CurveModule -->
<g id="edge23" class="edge">
<title>HonorCodePopupService&#45;&gt;CurveModule</title>
<path fill="none" stroke="black" d="M1327.58,-189.25C1327.58,-211.67 1327.58,-248 1327.58,-248 1327.58,-248 995.87,-248 995.87,-248"/>
<polygon fill="black" stroke="black" points="995.87,-244.5 985.87,-248 995.87,-251.5 995.87,-244.5"/>
</g>
<!-- HonorCodePopupService&#45;&gt;MoonModule -->
<g id="edge39" class="edge">
<title>HonorCodePopupService&#45;&gt;MoonModule</title>
<path fill="none" stroke="black" d="M1254.42,-189.22C1254.42,-199.28 1254.42,-210 1254.42,-210 1254.42,-210 3040.22,-210 3040.22,-210 3040.22,-210 3040.22,-219.89 3040.22,-219.89"/>
<polygon fill="black" stroke="black" points="3036.72,-219.89 3040.22,-229.89 3043.72,-219.89 3036.72,-219.89"/>
</g>
<!-- HonorCodePopupComponent -->
<g id="node26" class="node">
<title>HonorCodePopupComponent</title>
<polygon fill="#ffffb3" stroke="black" points="4951.43,-190 4768.57,-190 4768.57,-154 4951.43,-154 4951.43,-190"/>
<text text-anchor="middle" x="4860" y="-167.8" font-family="Times,serif" font-size="14.00">HonorCodePopupComponent</text>
</g>
<!-- HonorCodePopupComponent&#45;&gt;HonorCodePopupModule -->
<g id="edge24" class="edge">
<title>HonorCodePopupComponent&#45;&gt;HonorCodePopupModule</title>
<path fill="none" stroke="black" d="M4894.56,-190.2C4894.56,-214.36 4894.56,-254 4894.56,-254 4894.56,-254 5023.85,-254 5023.85,-254"/>
<polygon fill="black" stroke="black" points="5023.85,-257.5 5033.85,-254 5023.85,-250.5 5023.85,-257.5"/>
</g>
<!-- InputSliderComponent -->
<g id="node27" class="node">
<title>InputSliderComponent</title>
<polygon fill="#ffffb3" stroke="black" points="5649.32,-122 5504.68,-122 5504.68,-86 5649.32,-86 5649.32,-122"/>
<text text-anchor="middle" x="5577" y="-99.8" font-family="Times,serif" font-size="14.00">InputSliderComponent</text>
</g>
<!-- InterfaceUtilModule -->
<g id="node28" class="node">
<title>InterfaceUtilModule</title>
<polygon fill="#8dd3c7" stroke="black" points="5642.56,-190 5639.56,-194 5618.56,-194 5615.56,-190 5511.44,-190 5511.44,-154 5642.56,-154 5642.56,-190"/>
<text text-anchor="middle" x="5577" y="-167.8" font-family="Times,serif" font-size="14.00">InterfaceUtilModule</text>
</g>
<!-- InputSliderComponent&#45;&gt;InterfaceUtilModule -->
<g id="edge25" class="edge">
<title>InputSliderComponent&#45;&gt;InterfaceUtilModule</title>
<path fill="none" stroke="black" d="M5577,-122.22C5577,-122.22 5577,-143.73 5577,-143.73"/>
<polygon fill="black" stroke="black" points="5573.5,-143.73 5577,-153.73 5580.5,-143.73 5573.5,-143.73"/>
</g>
<!-- InputSliderComponent  -->
<g id="node29" class="node">
<title>InputSliderComponent </title>
<polygon fill="#fb8072" stroke="black" points="5651.82,-266 5504.18,-266 5504.18,-230 5651.82,-230 5651.82,-266"/>
<text text-anchor="middle" x="5578" y="-243.8" font-family="Times,serif" font-size="14.00">InputSliderComponent </text>
</g>
<!-- InterfaceUtilModule&#45;&gt;InputSliderComponent  -->
<g id="edge26" class="edge">
<title>InterfaceUtilModule&#45;&gt;InputSliderComponent </title>
<path fill="none" stroke="black" stroke-dasharray="5,2" d="M5598.84,-190.01C5598.84,-190.01 5598.84,-219.85 5598.84,-219.85"/>
<polygon fill="black" stroke="black" points="5595.34,-219.85 5598.84,-229.85 5602.34,-219.85 5595.34,-219.85"/>
</g>
<!-- InterfaceUtilModule&#45;&gt;MoonModule -->
<g id="edge35" class="edge">
<title>InterfaceUtilModule&#45;&gt;MoonModule</title>
<path fill="none" stroke="black" d="M5555.16,-190.17C5555.16,-194.05 5555.16,-197 5555.16,-197 5555.16,-197 3109.96,-197 3109.96,-197 3109.96,-197 3109.96,-219.88 3109.96,-219.88"/>
<polygon fill="black" stroke="black" points="3106.46,-219.88 3109.96,-229.88 3113.46,-219.88 3106.46,-219.88"/>
</g>
<!-- MenubarComponent -->
<g id="node30" class="node">
<title>MenubarComponent</title>
<polygon fill="#ffffb3" stroke="black" points="5823.87,-190 5692.13,-190 5692.13,-154 5823.87,-154 5823.87,-190"/>
<text text-anchor="middle" x="5758" y="-167.8" font-family="Times,serif" font-size="14.00">MenubarComponent</text>
</g>
<!-- MenubarComponent&#45;&gt;MenubarModule -->
<g id="edge27" class="edge">
<title>MenubarComponent&#45;&gt;MenubarModule</title>
<path fill="none" stroke="black" d="M5748,-190.01C5748,-190.01 5748,-219.85 5748,-219.85"/>
<polygon fill="black" stroke="black" points="5744.5,-219.85 5748,-229.85 5751.5,-219.85 5744.5,-219.85"/>
</g>
<!-- MenubarModule&#45;&gt;ToolsNavbarModule -->
<g id="edge53" class="edge">
<title>MenubarModule&#45;&gt;ToolsNavbarModule</title>
<path fill="none" stroke="black" d="M5692.72,-248C5684.03,-248 5677.85,-248 5677.85,-248 5677.85,-248 5677.85,-310 5677.85,-310 5677.85,-310 5474.32,-310 5474.32,-310"/>
<polygon fill="black" stroke="black" points="5474.32,-306.5 5464.32,-310 5474.32,-313.5 5474.32,-306.5"/>
</g>
<!-- MenubarComponent  -->
<g id="node32" class="node">
<title>MenubarComponent </title>
<polygon fill="#fb8072" stroke="black" points="5827.87,-334 5692.13,-334 5692.13,-298 5827.87,-298 5827.87,-334"/>
<text text-anchor="middle" x="5760" y="-311.8" font-family="Times,serif" font-size="14.00">MenubarComponent </text>
</g>
<!-- MenubarModule&#45;&gt;MenubarComponent  -->
<g id="edge29" class="edge">
<title>MenubarModule&#45;&gt;MenubarComponent </title>
<path fill="none" stroke="black" stroke-dasharray="5,2" d="M5766.35,-266.22C5766.35,-266.22 5766.35,-287.73 5766.35,-287.73"/>
<polygon fill="black" stroke="black" points="5762.85,-287.73 5766.35,-297.73 5769.85,-287.73 5762.85,-287.73"/>
</g>
<!-- MoonChartFormComponent -->
<g id="node33" class="node">
<title>MoonChartFormComponent</title>
<polygon fill="#ffffb3" stroke="black" points="3251.21,-190 3074.79,-190 3074.79,-154 3251.21,-154 3251.21,-190"/>
<text text-anchor="middle" x="3163" y="-167.8" font-family="Times,serif" font-size="14.00">MoonChartFormComponent</text>
</g>
<!-- MoonChartFormComponent&#45;&gt;MoonModule -->
<g id="edge30" class="edge">
<title>MoonChartFormComponent&#45;&gt;MoonModule</title>
<path fill="none" stroke="black" d="M3092.43,-190.01C3092.43,-190.01 3092.43,-219.85 3092.43,-219.85"/>
<polygon fill="black" stroke="black" points="3088.93,-219.85 3092.43,-229.85 3095.93,-219.85 3088.93,-219.85"/>
</g>
<!-- MoonComponent -->
<g id="node34" class="node">
<title>MoonComponent</title>
<polygon fill="#ffffb3" stroke="black" points="3057.28,-190 2942.72,-190 2942.72,-154 3057.28,-154 3057.28,-190"/>
<text text-anchor="middle" x="3000" y="-167.8" font-family="Times,serif" font-size="14.00">MoonComponent</text>
</g>
<!-- MoonComponent&#45;&gt;MoonModule -->
<g id="edge31" class="edge">
<title>MoonComponent&#45;&gt;MoonModule</title>
<path fill="none" stroke="black" d="M3051.67,-190.01C3051.67,-190.01 3051.67,-219.85 3051.67,-219.85"/>
<polygon fill="black" stroke="black" points="3048.17,-219.85 3051.67,-229.85 3055.17,-219.85 3048.17,-219.85"/>
</g>
<!-- MoonFormComponent -->
<g id="node35" class="node">
<title>MoonFormComponent</title>
<polygon fill="#ffffb3" stroke="black" points="3767.61,-190 3622.39,-190 3622.39,-154 3767.61,-154 3767.61,-190"/>
<text text-anchor="middle" x="3695" y="-167.8" font-family="Times,serif" font-size="14.00">MoonFormComponent</text>
</g>
<!-- MoonFormComponent&#45;&gt;MoonModule -->
<g id="edge32" class="edge">
<title>MoonFormComponent&#45;&gt;MoonModule</title>
<path fill="none" stroke="black" d="M3695,-190.01C3695,-212.49 3695,-248 3695,-248 3695,-248 3137.65,-248 3137.65,-248"/>
<polygon fill="black" stroke="black" points="3137.65,-244.5 3127.65,-248 3137.65,-251.5 3137.65,-244.5"/>
</g>
<!-- MoonHighchartComponent -->
<g id="node36" class="node">
<title>MoonHighchartComponent</title>
<polygon fill="#ffffb3" stroke="black" points="3604.25,-190 3433.75,-190 3433.75,-154 3604.25,-154 3604.25,-190"/>
<text text-anchor="middle" x="3519" y="-167.8" font-family="Times,serif" font-size="14.00">MoonHighchartComponent</text>
</g>
<!-- MoonHighchartComponent&#45;&gt;MoonModule -->
<g id="edge33" class="edge">
<title>MoonHighchartComponent&#45;&gt;MoonModule</title>
<path fill="none" stroke="black" d="M3519,-190.03C3519,-210.77 3519,-242 3519,-242 3519,-242 3137.87,-242 3137.87,-242"/>
<polygon fill="black" stroke="black" points="3137.87,-238.5 3127.87,-242 3137.87,-245.5 3137.87,-238.5"/>
</g>
<!-- MoonTableComponent -->
<g id="node37" class="node">
<title>MoonTableComponent</title>
<polygon fill="#ffffb3" stroke="black" points="3415.15,-190 3268.85,-190 3268.85,-154 3415.15,-154 3415.15,-190"/>
<text text-anchor="middle" x="3342" y="-167.8" font-family="Times,serif" font-size="14.00">MoonTableComponent</text>
</g>
<!-- MoonTableComponent&#45;&gt;MoonModule -->
<g id="edge34" class="edge">
<title>MoonTableComponent&#45;&gt;MoonModule</title>
<path fill="none" stroke="black" d="M3342,-190.17C3342,-209.09 3342,-236 3342,-236 3342,-236 3137.66,-236 3137.66,-236"/>
<polygon fill="black" stroke="black" points="3137.66,-232.5 3127.66,-236 3137.66,-239.5 3137.66,-232.5"/>
</g>
<!-- MoonModule&#45;&gt;ToolsNavbarModule -->
<g id="edge54" class="edge">
<title>MoonModule&#45;&gt;ToolsNavbarModule</title>
<path fill="none" stroke="black" d="M3127.54,-260C3422.7,-260 5021.89,-260 5021.89,-260 5021.89,-260 5021.89,-316 5021.89,-316 5021.89,-316 5321.62,-316 5321.62,-316"/>
<polygon fill="black" stroke="black" points="5321.62,-319.5 5331.62,-316 5321.62,-312.5 5321.62,-319.5"/>
</g>
<!-- NgIf -->
<g id="node39" class="node">
<title>NgIf</title>
<polygon fill="#8dd3c7" stroke="black" points="2919,-190 2916,-194 2895,-194 2892,-190 2865,-190 2865,-154 2919,-154 2919,-190"/>
<text text-anchor="middle" x="2892" y="-167.8" font-family="Times,serif" font-size="14.00">NgIf</text>
</g>
<!-- NgIf&#45;&gt;SimpleDataButtonModule -->
<g id="edge46" class="edge">
<title>NgIf&#45;&gt;SimpleDataButtonModule</title>
<path fill="none" stroke="black" d="M2892,-153.81C2892,-145.72 2892,-138 2892,-138 2892,-138 1507,-138 1507,-138 1507,-138 1507,-143.81 1507,-143.81"/>
<polygon fill="black" stroke="black" points="1503.5,-143.81 1507,-153.81 1510.5,-143.81 1503.5,-143.81"/>
</g>
<!-- NgIf&#45;&gt;MoonModule -->
<g id="edge36" class="edge">
<title>NgIf&#45;&gt;MoonModule</title>
<path fill="none" stroke="black" d="M2892,-190.31C2892,-210.15 2892,-239 2892,-239 2892,-239 3024.28,-239 3024.28,-239"/>
<polygon fill="black" stroke="black" points="3024.28,-242.5 3034.28,-239 3024.28,-235.5 3024.28,-242.5"/>
</g>
<!-- MoonService -->
<g id="node40" class="node">
<title>MoonService</title>
<ellipse fill="#fdb462" stroke="black" cx="2778" cy="-172" rx="63.12" ry="18"/>
<text text-anchor="middle" x="2778" y="-167.8" font-family="Times,serif" font-size="14.00">MoonService</text>
</g>
<!-- MoonService&#45;&gt;MoonModule -->
<g id="edge40" class="edge">
<title>MoonService&#45;&gt;MoonModule</title>
<path fill="none" stroke="black" d="M2778,-190.01C2778,-212.49 2778,-248 2778,-248 2778,-248 3024.32,-248 3024.32,-248"/>
<polygon fill="black" stroke="black" points="3024.32,-251.5 3034.32,-248 3024.32,-244.5 3024.32,-251.5"/>
</g>
<!-- SettingsComponent -->
<g id="node41" class="node">
<title>SettingsComponent</title>
<polygon fill="#ffffb3" stroke="black" points="5464.45,-190 5337.55,-190 5337.55,-154 5464.45,-154 5464.45,-190"/>
<text text-anchor="middle" x="5401" y="-167.8" font-family="Times,serif" font-size="14.00">SettingsComponent</text>
</g>
<!-- SettingsComponent&#45;&gt;SettingsModule -->
<g id="edge41" class="edge">
<title>SettingsComponent&#45;&gt;SettingsModule</title>
<path fill="none" stroke="black" d="M5337.7,-172C5328.53,-172 5322.12,-172 5322.12,-172 5322.12,-172 5322.12,-242 5322.12,-242 5322.12,-242 5321.63,-242 5321.63,-242"/>
<polygon fill="black" stroke="black" points="5327.25,-238.5 5317.25,-242 5327.25,-245.5 5327.25,-238.5"/>
</g>
<!-- RouterLink -->
<g id="node42" class="node">
<title>RouterLink</title>
<polygon fill="#8dd3c7" stroke="black" points="5314.05,-190 5311.05,-194 5290.05,-194 5287.05,-190 5233.95,-190 5233.95,-154 5314.05,-154 5314.05,-190"/>
<text text-anchor="middle" x="5274" y="-167.8" font-family="Times,serif" font-size="14.00">RouterLink</text>
</g>
<!-- RouterLink&#45;&gt;SettingsModule -->
<g id="edge42" class="edge">
<title>RouterLink&#45;&gt;SettingsModule</title>
<path fill="none" stroke="black" d="M5274,-190.01C5274,-190.01 5274,-219.85 5274,-219.85"/>
<polygon fill="black" stroke="black" points="5270.5,-219.85 5274,-229.85 5277.5,-219.85 5270.5,-219.85"/>
</g>
<!-- RouterLinkActive -->
<g id="node43" class="node">
<title>RouterLinkActive</title>
<polygon fill="#8dd3c7" stroke="black" points="5215.86,-190 5212.86,-194 5191.86,-194 5188.86,-190 5098.14,-190 5098.14,-154 5215.86,-154 5215.86,-190"/>
<text text-anchor="middle" x="5157" y="-167.8" font-family="Times,serif" font-size="14.00">RouterLinkActive</text>
</g>
<!-- RouterLinkActive&#45;&gt;SettingsModule -->
<g id="edge43" class="edge">
<title>RouterLinkActive&#45;&gt;SettingsModule</title>
<path fill="none" stroke="black" d="M5216.1,-172C5223.09,-172 5227.8,-172 5227.8,-172 5227.8,-172 5227.8,-219.99 5227.8,-219.99"/>
<polygon fill="black" stroke="black" points="5224.3,-219.99 5227.8,-229.99 5231.3,-219.99 5224.3,-219.99"/>
</g>
<!-- RouterOutlet -->
<g id="node44" class="node">
<title>RouterOutlet</title>
<polygon fill="#8dd3c7" stroke="black" points="5080.6,-190 5077.6,-194 5056.6,-194 5053.6,-190 4991.4,-190 4991.4,-154 5080.6,-154 5080.6,-190"/>
<text text-anchor="middle" x="5036" y="-167.8" font-family="Times,serif" font-size="14.00">RouterOutlet</text>
</g>
<!-- RouterOutlet&#45;&gt;SettingsModule -->
<g id="edge44" class="edge">
<title>RouterOutlet&#45;&gt;SettingsModule</title>
<path fill="none" stroke="black" d="M5057.11,-190.19C5057.11,-205.18 5057.11,-224 5057.11,-224 5057.11,-224 5221.86,-224 5221.86,-224 5221.86,-224 5221.86,-224.58 5221.86,-224.58"/>
<polygon fill="black" stroke="black" points="5218.36,-219.81 5221.86,-229.81 5225.36,-219.81 5218.36,-219.81"/>
</g>
<!-- SimpleDataButtonComponent -->
<g id="node45" class="node">
<title>SimpleDataButtonComponent</title>
<polygon fill="#ffffb3" stroke="black" points="2218.55,-266 2033.45,-266 2033.45,-230 2218.55,-230 2218.55,-266"/>
<text text-anchor="middle" x="2126" y="-243.8" font-family="Times,serif" font-size="14.00">SimpleDataButtonComponent</text>
</g>
<!-- SimpleDataButtonComponent&#45;&gt;SimpleDataButtonModule -->
<g id="edge45" class="edge">
<title>SimpleDataButtonComponent&#45;&gt;SimpleDataButtonModule</title>
<path fill="none" stroke="black" d="M2126,-229.97C2126,-223.15 2126,-217 2126,-217 2126,-217 1490.62,-217 1490.62,-217 1490.62,-217 1490.62,-200.04 1490.62,-200.04"/>
<polygon fill="black" stroke="black" points="1494.12,-200.04 1490.62,-190.04 1487.12,-200.04 1494.12,-200.04"/>
</g>
<!-- SimpleGraphButtonComponent -->
<g id="node47" class="node">
<title>SimpleGraphButtonComponent</title>
<polygon fill="#ffffb3" stroke="black" points="2675.1,-266 2480.9,-266 2480.9,-230 2675.1,-230 2675.1,-266"/>
<text text-anchor="middle" x="2578" y="-243.8" font-family="Times,serif" font-size="14.00">SimpleGraphButtonComponent</text>
</g>
<!-- SimpleGraphButtonComponent&#45;&gt;SimpleGraphButtonModule -->
<g id="edge48" class="edge">
<title>SimpleGraphButtonComponent&#45;&gt;SimpleGraphButtonModule</title>
<path fill="none" stroke="black" d="M2578,-229.99C2578,-207.51 2578,-172 2578,-172 2578,-172 1789.47,-172 1789.47,-172"/>
<polygon fill="black" stroke="black" points="1789.47,-168.5 1779.47,-172 1789.47,-175.5 1789.47,-168.5"/>
</g>
<!-- ToolsNavbarComponent -->
<g id="node49" class="node">
<title>ToolsNavbarComponent</title>
<polygon fill="#ffffb3" stroke="black" points="5840.42,-410 5685.58,-410 5685.58,-374 5840.42,-374 5840.42,-410"/>
<text text-anchor="middle" x="5763" y="-387.8" font-family="Times,serif" font-size="14.00">ToolsNavbarComponent</text>
</g>
<!-- ToolsNavbarComponent&#45;&gt;ToolsNavbarModule -->
<g id="edge50" class="edge">
<title>ToolsNavbarComponent&#45;&gt;ToolsNavbarModule</title>
<path fill="none" stroke="black" d="M5685.7,-392C5676.28,-392 5669.9,-392 5669.9,-392 5669.9,-392 5669.9,-322 5669.9,-322 5669.9,-322 5474.17,-322 5474.17,-322"/>
<polygon fill="black" stroke="black" points="5474.17,-318.5 5464.17,-322 5474.17,-325.5 5474.17,-318.5"/>
</g>
</g>
</svg>
